<?xml version="1.0" standalone="no"?>
<!DOCTYPE svg PUBLIC "-//W3C//DTD SVG 1.1//EN" "http://www.w3.org/Graphics/SVG/1.1/DTD/svg11.dtd" >
<svg xmlns="http://www.w3.org/2000/svg" xmlns:xlink="http://www.w3.org/1999/xlink" version="1.1">
<metadata>
Created by FontForge 20190801 at Mon Aug 21 07:37:07 2017
 By Unknown
Copyright \251 2017 Toyota Motor Sales, U.S.A., Inc. All rights reserved.
</metadata>
<defs>
<font id="ToyotaType-Book" horiz-adv-x="0" >
  <font-face 
    font-family="Toyota Type Book"
    font-weight="400"
    font-stretch="normal"
    units-per-em="1000"
    panose-1="2 11 5 2 2 2 2 2 2 4"
    ascent="800"
    descent="-200"
    x-height="502"
    cap-height="710"
    bbox="-449 -232 4324 1096"
    underline-thickness="78"
    underline-position="-130"
    stemh="66"
    stemv="70"
    unicode-range="U+000D-FEFF"
  />
<missing-glyph horiz-adv-x="600" 
d="M30 -210v962h540v-962h-540zM100 -140h400v822h-400v-822z" />
    <glyph glyph-name="f_i" unicode="fi" horiz-adv-x="586" 
d="M116 0v441h-88v61h88v90c0 108 52 162 136 162c35 0 67 -9 92 -21l-16 -63c-16 10 -42 19 -68 19c-45 0 -74 -25 -74 -102v-85h123v-61h-123v-441h-70zM460 612c-30 0 -53 23 -53 53s23 53 53 53s53 -23 53 -53s-23 -53 -53 -53zM424 0v502h70v-502h-70z" />
    <glyph glyph-name="f_l" unicode="fl" horiz-adv-x="625" 
d="M116 0v441h-88v61h88v90c0 108 52 162 136 162c35 0 67 -9 92 -21l-16 -63c-16 10 -42 19 -68 19c-45 0 -74 -25 -74 -102v-85h123v-61h-123v-441h-70zM532 -10c-63 0 -103 37 -103 120v642h70v-632c0 -47 19 -66 49 -66c22 0 42 9 52 13l11 -59c-16 -9 -44 -18 -79 -18z
" />
    <glyph glyph-name="f_f" unicode="ff" horiz-adv-x="658" 
d="M116 0v441h-88v61h88v90c0 108 52 162 136 162c35 0 67 -9 92 -21l-16 -63c-16 10 -42 19 -68 19c-45 0 -74 -25 -74 -102v-85h123v-61h-123v-441h-70zM445 0v441h-88v61h88v90c0 108 52 162 136 162c35 0 67 -9 92 -21l-16 -63c-16 10 -42 19 -68 19
c-45 0 -74 -25 -74 -102v-85h123v-61h-123v-441h-70z" />
    <glyph glyph-name="f_f_i" unicode="ffi" horiz-adv-x="915" 
d="M116 0v441h-88v61h88v90c0 108 52 162 136 162c35 0 67 -9 92 -21l-16 -63c-16 10 -42 19 -68 19c-45 0 -74 -25 -74 -102v-85h123v-61h-123v-441h-70zM445 0v441h-88v61h88v90c0 108 52 162 136 162c35 0 67 -9 92 -21l-16 -63c-16 10 -42 19 -68 19
c-45 0 -74 -25 -74 -102v-85h123v-61h-123v-441h-70zM789 612c-30 0 -53 23 -53 53s23 53 53 53s53 -23 53 -53s-23 -53 -53 -53zM753 0v502h70v-502h-70z" />
    <glyph glyph-name="f_f_l" unicode="ffl" horiz-adv-x="954" 
d="M116 0v441h-88v61h88v90c0 108 52 162 136 162c35 0 67 -9 92 -21l-16 -63c-16 10 -42 19 -68 19c-45 0 -74 -25 -74 -102v-85h123v-61h-123v-441h-70zM445 0v441h-88v61h88v90c0 108 52 162 136 162c35 0 67 -9 92 -21l-16 -63c-16 10 -42 19 -68 19
c-45 0 -74 -25 -74 -102v-85h123v-61h-123v-441h-70zM861 -10c-63 0 -103 37 -103 120v642h70v-632c0 -47 19 -66 49 -66c22 0 42 9 52 13l11 -59c-16 -9 -44 -18 -79 -18z" />
    <glyph glyph-name=".notdef" horiz-adv-x="600" 
d="M30 -210v962h540v-962h-540zM100 -140h400v822h-400v-822z" />
    <glyph glyph-name="uni0000" 
 />
    <glyph glyph-name="CR" unicode="&#xd;" horiz-adv-x="261" 
 />
    <glyph glyph-name="space" unicode=" " horiz-adv-x="261" 
 />
    <glyph glyph-name="uni00A0" unicode="&#xa0;" horiz-adv-x="261" 
 />
    <glyph glyph-name="exclam" unicode="!" horiz-adv-x="312" 
d="M125 218l-13 492h85l-13 -492h-59zM156 -11c-29 0 -52 23 -52 52c0 30 23 53 52 53c30 0 53 -23 53 -53c0 -29 -23 -52 -53 -52z" />
    <glyph glyph-name="quotedbl" unicode="&#x22;" horiz-adv-x="353" 
d="M65 474l-11 236h76l-11 -236h-54zM234 474l-11 236h76l-11 -236h-54z" />
    <glyph glyph-name="numbersign" unicode="#" horiz-adv-x="669" 
d="M639 471h-157l-41 -230h146v-58h-156l-32 -183h-59l32 183h-137l-32 -183h-58l32 183h-147v58h157l41 230h-146v57h156l32 182h59l-32 -182h137l32 182h58l-32 -182h147v-57zM383 241l41 230h-137l-41 -230h137z" />
    <glyph glyph-name="dollar" unicode="$" horiz-adv-x="584" 
d="M517 199c0 -112 -73 -185 -194 -196v-86h-56v86c-78 4 -150 31 -201 70l21 68c41 -35 106 -65 180 -72v262c-78 22 -194 64 -194 188c0 106 77 174 194 184v78h56v-77c64 -3 122 -22 166 -45l-18 -68c-41 23 -94 42 -148 47v-249c97 -29 194 -68 194 -190zM144 523
c0 -67 55 -95 123 -117v233c-72 -8 -123 -47 -123 -116zM323 69c79 7 123 49 123 123c0 69 -45 98 -123 122v-245z" />
    <glyph glyph-name="percent" unicode="%" horiz-adv-x="717" 
d="M176 351c-91 0 -145 68 -145 183c0 114 54 182 145 182s146 -68 146 -182c0 -115 -55 -183 -146 -183zM118 0l419 710h62l-420 -710h-61zM176 403c57 0 86 44 86 131s-29 130 -86 130c-56 0 -85 -43 -85 -130s29 -131 85 -131zM541 -6c-92 0 -146 68 -146 183
c0 114 54 182 146 182c90 0 145 -68 145 -182c0 -115 -55 -183 -145 -183zM541 46c56 0 85 44 85 131c0 86 -29 130 -85 130c-58 0 -86 -44 -86 -130c0 -87 28 -131 86 -131z" />
    <glyph glyph-name="ampersand" unicode="&#x26;" horiz-adv-x="683" 
d="M673 0h-93l-86 91c-64 -63 -143 -102 -236 -102c-128 0 -224 74 -224 186c0 93 53 147 176 218l-7 7c-48 51 -86 100 -86 168c0 76 60 153 168 153c99 0 170 -74 170 -149c0 -65 -32 -126 -144 -192l180 -188c38 55 68 124 89 200l63 -32c-24 -82 -59 -157 -105 -218z
M187 566c0 -51 24 -79 74 -133l8 -8c98 57 117 98 117 144c0 45 -38 91 -100 91c-64 0 -99 -44 -99 -94zM260 55c73 0 136 32 188 85l-195 207c-114 -67 -144 -105 -144 -170c0 -78 67 -122 151 -122z" />
    <glyph glyph-name="quotesingle" unicode="'" horiz-adv-x="184" 
d="M65 474l-11 236h76l-11 -236h-54z" />
    <glyph glyph-name="parenleft" unicode="(" horiz-adv-x="348" 
d="M306 -128c-195 0 -244 202 -244 438s51 442 244 442v-60c-148 0 -176 -182 -176 -382s28 -378 176 -378v-60z" />
    <glyph glyph-name="parenright" unicode=")" horiz-adv-x="348" 
d="M42 -128v60c148 0 176 178 176 378s-28 382 -176 382v60c192 0 244 -206 244 -442s-50 -438 -244 -438z" />
    <glyph glyph-name="asterisk" unicode="*" horiz-adv-x="398" 
d="M130 393l-55 40l87 101l-130 31l21 64l123 -51l-11 132h68l-11 -132l123 51l21 -64l-130 -31l87 -101l-55 -40l-69 113z" />
    <glyph glyph-name="plus" unicode="+" horiz-adv-x="582" 
d="M516 380v-59h-196v-196h-59v196h-195v59h195v195h59v-195h196z" />
    <glyph glyph-name="comma" unicode="," horiz-adv-x="290" 
d="M43 -142l83 231h77l-95 -231h-65z" />
    <glyph glyph-name="hyphen" unicode="-" horiz-adv-x="445" 
d="M50 241v61h345v-61h-345z" />
    <glyph glyph-name="period" unicode="." horiz-adv-x="290" 
d="M145 -11c-29 0 -52 23 -52 52c0 30 23 53 52 53c30 0 53 -23 53 -53c0 -29 -23 -52 -53 -52z" />
    <glyph glyph-name="slash" unicode="/" horiz-adv-x="420" 
d="M10 -168l335 920h65l-335 -920h-65z" />
    <glyph glyph-name="zero" unicode="0" horiz-adv-x="582" 
d="M291 -10c-185 0 -232 161 -232 363c0 203 49 367 232 367c184 0 232 -164 232 -367s-50 -363 -232 -363zM291 58c138 0 158 138 158 296c0 160 -22 298 -158 298c-137 0 -158 -138 -158 -299c0 -160 21 -295 158 -295z" />
    <glyph glyph-name="one" unicode="1" horiz-adv-x="449" 
d="M262 716h31v-716h-74v612l-159 -110v74z" />
    <glyph glyph-name="two" unicode="2" horiz-adv-x="582" 
d="M68 0v46l232 269c74 85 118 144 118 215c0 69 -42 123 -134 123c-70 0 -127 -33 -176 -90l-33 58c50 60 126 99 214 99c129 0 203 -85 203 -186c0 -89 -62 -168 -143 -260l-179 -207h343v-67h-445z" />
    <glyph glyph-name="three" unicode="3" horiz-adv-x="582" 
d="M276 -11c-105 0 -181 47 -221 101l38 60c43 -55 101 -94 183 -94c100 0 166 59 166 146c0 100 -88 144 -209 144v62c124 2 179 70 179 138c0 63 -48 107 -129 107c-75 0 -131 -39 -174 -82l-34 60c45 43 113 89 212 89c117 0 197 -70 197 -168c0 -77 -47 -140 -138 -167
c112 -26 169 -94 169 -186c0 -119 -96 -210 -239 -210z" />
    <glyph glyph-name="four" unicode="4" horiz-adv-x="582" 
d="M356 0v159h-321v47l342 504h53v-486h104v-65h-104v-159h-74zM118 224h238v354z" />
    <glyph glyph-name="five" unicode="5" horiz-adv-x="582" 
d="M272 -11c-104 0 -176 42 -214 95l37 60c38 -51 92 -88 172 -88c102 0 170 63 170 159c0 92 -62 150 -167 150c-52 0 -92 -15 -125 -37l-39 14l37 368h345v-67h-287l-24 -234c25 13 60 22 102 22c144 0 231 -89 231 -216c0 -132 -98 -226 -238 -226z" />
    <glyph glyph-name="six" unicode="6" horiz-adv-x="582" 
d="M313 452c125 0 216 -95 216 -228c0 -129 -100 -234 -229 -234c-135 0 -248 102 -248 304c0 229 115 421 421 421l16 -62c-245 0 -343 -123 -364 -291c39 50 105 90 188 90zM298 55c93 0 160 73 160 168c0 98 -63 167 -156 167c-86 0 -155 -56 -181 -114
c4 -150 82 -221 177 -221z" />
    <glyph glyph-name="seven" unicode="7" horiz-adv-x="582" 
d="M144 0l294 643h-381v67h462v-48l-297 -662h-78z" />
    <glyph glyph-name="eight" unicode="8" horiz-adv-x="582" 
d="M291 -10c-134 0 -235 92 -235 210c0 84 48 157 144 189c-72 29 -110 86 -110 152c0 99 83 179 201 179s200 -80 200 -179c0 -65 -38 -123 -109 -152c95 -31 144 -105 144 -189c0 -118 -101 -210 -235 -210zM292 421c78 0 129 51 129 118c0 64 -53 117 -129 117
c-77 0 -129 -53 -129 -117c0 -67 50 -118 129 -118zM291 54c91 0 163 64 163 148c0 85 -72 150 -163 150c-90 0 -162 -66 -162 -150s72 -148 162 -148z" />
    <glyph glyph-name="nine" unicode="9" horiz-adv-x="582" 
d="M285 720c129 0 244 -103 244 -304c0 -228 -111 -421 -403 -421l-15 62c238 0 329 129 346 295c-38 -52 -102 -94 -188 -94c-126 0 -217 96 -217 229c0 129 100 233 233 233zM279 321c79 0 151 48 181 115c-7 147 -83 219 -173 219c-97 0 -164 -72 -164 -167
c0 -99 64 -167 156 -167z" />
    <glyph glyph-name="colon" unicode=":" horiz-adv-x="290" 
d="M145 362c-29 0 -52 23 -52 53c0 29 23 52 52 52c30 0 53 -23 53 -52c0 -30 -23 -53 -53 -53zM145 -11c-29 0 -52 23 -52 52c0 30 23 53 52 53c30 0 53 -23 53 -53c0 -29 -23 -52 -53 -52z" />
    <glyph glyph-name="semicolon" unicode=";" horiz-adv-x="290" 
d="M145 362c-29 0 -52 23 -52 52c0 30 23 53 52 53c30 0 53 -23 53 -53c0 -29 -23 -52 -53 -52zM41 -142l83 231h77l-95 -231h-65z" />
    <glyph glyph-name="less" unicode="&#x3c;" horiz-adv-x="582" 
d="M516 542v-59l-402 -133l402 -133v-60l-450 156v74z" />
    <glyph glyph-name="equal" unicode="=" horiz-adv-x="582" 
d="M66 418v59h450v-59h-450zM66 224v59h450v-59h-450z" />
    <glyph glyph-name="greater" unicode="&#x3e;" horiz-adv-x="582" 
d="M66 543l450 -156v-74l-450 -155v59l402 133l-402 133v60z" />
    <glyph glyph-name="question" unicode="?" horiz-adv-x="497" 
d="M214 221c0 48 10 71 86 162c47 56 77 93 77 153c0 68 -43 116 -128 116c-84 0 -128 -49 -143 -109l-57 31c18 81 92 144 203 144c122 0 196 -77 196 -178c0 -84 -42 -137 -91 -190c-63 -69 -76 -96 -77 -129h-66zM250 -11c-29 0 -53 23 -53 52c0 30 24 53 53 53
s53 -23 53 -53c0 -29 -24 -52 -53 -52z" />
    <glyph glyph-name="at" unicode="@" horiz-adv-x="979" 
d="M854 78h-215v96c-40 -82 -109 -103 -167 -103c-126 0 -217 102 -217 230c0 126 91 228 216 228c67 0 130 -28 168 -104v94h63v-383h114c26 50 42 114 42 179c0 202 -162 354 -366 354c-210 0 -371 -163 -371 -367c0 -205 160 -368 371 -368c77 0 155 21 210 54l9 -61
c-45 -28 -131 -52 -219 -52c-244 0 -432 189 -432 427s188 425 431 425c238 0 428 -178 428 -409c0 -94 -30 -184 -65 -240zM478 134c90 0 160 73 160 168c0 94 -70 166 -160 166s-158 -73 -158 -166c0 -94 68 -168 158 -168z" />
    <glyph glyph-name="A" unicode="A" horiz-adv-x="666" 
d="M567 0l-87 230h-296l-87 -230h-76l273 710h78l273 -710h-78zM207 293h250l-125 331z" />
    <glyph glyph-name="B" unicode="B" horiz-adv-x="618" 
d="M417 372c88 -18 143 -83 143 -173c0 -118 -82 -199 -219 -199h-238v710h198c133 0 213 -72 213 -181c0 -63 -26 -121 -97 -157zM178 644v-254h129c82 0 135 61 135 133c0 73 -53 121 -146 121h-118zM334 66c97 0 151 55 151 136c0 79 -54 123 -138 123h-169v-259h156z
" />
    <glyph glyph-name="C" unicode="C" horiz-adv-x="729" 
d="M432 -10c-211 0 -366 154 -366 367c0 212 156 363 367 363c93 0 175 -30 238 -79l-26 -71c-57 48 -131 78 -211 78c-170 0 -291 -123 -291 -291c0 -169 122 -295 291 -295c90 0 168 35 225 80l23 -70c-74 -55 -154 -82 -250 -82z" />
    <glyph glyph-name="D" unicode="D" horiz-adv-x="757" 
d="M327 710c223 0 363 -140 363 -349c0 -217 -140 -361 -363 -361h-224v710h224zM323 68c181 0 291 114 291 292c0 171 -111 282 -290 282h-146v-574h145z" />
    <glyph glyph-name="E" unicode="E" horiz-adv-x="578" 
d="M103 0v710h389v-68h-314v-252h305v-67h-305v-255h322v-68h-397z" />
    <glyph glyph-name="F" unicode="F" horiz-adv-x="534" 
d="M103 0v710h387v-68h-312v-254h298v-68h-298v-320h-75z" />
    <glyph glyph-name="G" unicode="G" horiz-adv-x="821" 
d="M425 336h316v-336h-70v130c-33 -64 -120 -140 -260 -140c-202 0 -345 155 -345 365c0 212 158 365 366 365c111 0 192 -35 265 -86l-27 -71c-70 53 -140 85 -238 85c-167 0 -289 -121 -289 -294c0 -169 112 -292 274 -292c158 0 249 110 252 210h-244v64z" />
    <glyph glyph-name="H" unicode="H" horiz-adv-x="759" 
d="M580 710h75v-710h-75v321h-402v-321h-75v710h75v-320h402v320z" />
    <glyph glyph-name="I" unicode="I" horiz-adv-x="282" 
d="M103 0v710h75v-710h-75z" />
    <glyph glyph-name="J" unicode="J" horiz-adv-x="398" 
d="M103 -10c-33 0 -70 6 -103 21l15 67c24 -12 55 -20 81 -20c78 0 132 55 132 176v476h75v-485c0 -154 -77 -235 -200 -235z" />
    <glyph glyph-name="K" unicode="K" horiz-adv-x="619" 
d="M613 0h-100l-335 358v-358h-75v710h75v-350l313 350h94l-313 -345z" />
    <glyph glyph-name="L" unicode="L" horiz-adv-x="515" 
d="M178 69h317v-69h-392v710h75v-641z" />
    <glyph glyph-name="M" unicode="M" horiz-adv-x="862" 
d="M103 0v710h86l240 -365l246 365h84v-710h-74v601l-229 -342h-54l-225 342v-601h-74z" />
    <glyph glyph-name="N" unicode="N" horiz-adv-x="776" 
d="M599 710h74v-710h-71l-425 591v-591h-74v710h71l425 -591v591z" />
    <glyph glyph-name="O" unicode="O" horiz-adv-x="871" 
d="M435 -10c-211 0 -369 154 -369 365c0 212 158 365 370 365c211 0 369 -154 369 -364c0 -211 -158 -366 -370 -366zM436 62c169 0 293 125 293 293c0 169 -124 294 -293 294c-170 0 -294 -125 -294 -294c0 -168 124 -293 294 -293z" />
    <glyph glyph-name="P" unicode="P" horiz-adv-x="585" 
d="M300 710c156 0 239 -86 239 -218c0 -119 -83 -227 -239 -227h-122v-265h-75v710h197zM292 331c95 0 170 58 170 161c0 114 -75 152 -170 152h-114v-313h114z" />
    <glyph glyph-name="Q" unicode="Q" horiz-adv-x="872" 
d="M805 356c0 -106 -40 -198 -107 -263l99 -105h-92l-59 63c-59 -39 -131 -61 -211 -61c-211 0 -369 154 -369 365c0 212 158 365 370 365c211 0 369 -154 369 -364zM436 62c60 0 114 16 159 43l-117 124h91l78 -82c51 52 82 125 82 208c0 169 -124 294 -293 294
c-170 0 -294 -125 -294 -294c0 -168 124 -293 294 -293z" />
    <glyph glyph-name="R" unicode="R" horiz-adv-x="632" 
d="M598 0h-89l-194 297h-16h-121v-297h-75v710h204c138 0 224 -79 224 -203c0 -91 -53 -166 -142 -196zM297 361c80 0 158 40 158 144c0 102 -76 139 -155 139h-122v-283h119z" />
    <glyph glyph-name="S" unicode="S" horiz-adv-x="583" 
d="M285 -10c-82 0 -162 27 -221 71l21 73c53 -45 129 -75 206 -75c92 0 150 44 150 127c0 81 -64 105 -162 141c-106 39 -199 81 -199 202c0 118 92 192 227 192c69 0 137 -20 185 -46l-18 -71c-46 27 -111 49 -172 49c-89 0 -148 -46 -148 -119c0 -80 65 -107 157 -142
c107 -41 204 -69 204 -201c0 -129 -95 -201 -230 -201z" />
    <glyph glyph-name="T" unicode="T" horiz-adv-x="522" 
d="M497 710v-68h-196v-642h-75v642h-201v68h472z" />
    <glyph glyph-name="U" unicode="U" horiz-adv-x="741" 
d="M371 -10c-173 0 -273 109 -273 270v450h75v-437c0 -143 83 -211 198 -211s198 68 198 211v437h75v-450c0 -161 -101 -270 -273 -270z" />
    <glyph glyph-name="V" unicode="V" horiz-adv-x="621" 
d="M540 710h78l-268 -710h-79l-268 710h80l229 -618z" />
    <glyph glyph-name="W" unicode="W" horiz-adv-x="971" 
d="M871 710h76l-204 -710h-77l-180 602l-182 -602h-76l-204 710h80l167 -601l180 601h75l178 -598z" />
    <glyph glyph-name="X" unicode="X" horiz-adv-x="667" 
d="M626 0h-87l-202 300l-202 -300h-83l244 359l-237 351h87l194 -290l196 290h81l-237 -348z" />
    <glyph glyph-name="Y" unicode="Y" horiz-adv-x="584" 
d="M582 710l-253 -426v-284h-74v284l-253 426h84l209 -352l208 352h79z" />
    <glyph glyph-name="Z" unicode="Z" horiz-adv-x="621" 
d="M174 68h384v-68h-488v39l382 603h-372v68h474v-38z" />
    <glyph glyph-name="bracketleft" unicode="[" horiz-adv-x="356" 
d="M314 695h-144v-768h144v-57h-211v882h211v-57z" />
    <glyph glyph-name="backslash" unicode="\" horiz-adv-x="420" 
d="M345 -168l-335 920h65l335 -920h-65z" />
    <glyph glyph-name="bracketright" unicode="]" horiz-adv-x="356" 
d="M253 752v-882h-211v57h144v768h-144v57h211z" />
    <glyph glyph-name="asciicircum" unicode="^" horiz-adv-x="405" 
d="M395 260h-59l-133 401l-134 -401h-59l155 450h75z" />
    <glyph glyph-name="underscore" unicode="_" horiz-adv-x="450" 
d="M-5 -137v45h460v-45h-460z" />
    <glyph glyph-name="grave" unicode="`" horiz-adv-x="400" 
d="M402 573l-120 152h74l112 -152h-66z" />
    <glyph glyph-name="a" unicode="a" horiz-adv-x="577" 
d="M289 512c127 0 202 -66 202 -200v-312h-69v88c-31 -56 -98 -98 -188 -98c-108 0 -171 58 -171 149c0 113 97 158 358 160v13c0 83 -48 138 -142 138c-77 0 -135 -37 -165 -61l-20 63c42 31 110 60 195 60zM248 48c77 0 173 41 173 150v50c-219 -2 -285 -34 -285 -107
c0 -56 39 -93 112 -93z" />
    <glyph glyph-name="b" unicode="b" horiz-adv-x="648" 
d="M359 512c141 0 240 -110 240 -260c0 -151 -99 -262 -246 -262c-70 0 -149 36 -190 111v-101h-70v752h70v-351c43 74 121 111 196 111zM347 56c107 0 181 81 181 195c0 110 -69 195 -179 195c-107 0 -192 -81 -192 -194c0 -111 82 -196 190 -196z" />
    <glyph glyph-name="c" unicode="c" horiz-adv-x="520" 
d="M297 -10c-144 0 -248 105 -248 260s104 262 254 262c71 0 129 -23 172 -53l-23 -64c-39 30 -89 51 -146 51c-111 0 -185 -78 -185 -194c0 -118 74 -196 179 -196c61 0 119 22 164 54l18 -62c-44 -33 -110 -58 -185 -58z" />
    <glyph glyph-name="d" unicode="d" horiz-adv-x="647" 
d="M486 752h70v-754h-70v105c-44 -81 -116 -113 -194 -113c-143 0 -243 109 -243 260c0 153 102 262 243 262c80 0 154 -35 194 -110v350zM301 56c109 0 190 85 190 196s-81 194 -189 194c-106 0 -181 -79 -181 -196c0 -115 72 -194 180 -194z" />
    <glyph glyph-name="e" unicode="e" horiz-adv-x="576" 
d="M532 255v-9h-412c3 -118 78 -192 193 -192c78 0 144 33 183 70l20 -62c-43 -39 -118 -72 -207 -72c-161 0 -260 117 -260 261c0 150 106 261 247 261c140 0 236 -107 236 -257zM124 301h334c-11 86 -72 149 -162 149c-83 0 -156 -60 -172 -149z" />
    <glyph glyph-name="f" unicode="f" horiz-adv-x="329" 
d="M116 0v441h-88v61h88v90c0 108 52 162 136 162c35 0 67 -9 92 -21l-16 -63c-16 10 -42 19 -68 19c-45 0 -74 -25 -74 -102v-85h123v-61h-123v-441h-70z" />
    <glyph glyph-name="g" unicode="g" horiz-adv-x="647" 
d="M486 502h70v-489c0 -154 -103 -232 -256 -232c-97 0 -164 30 -212 69l22 69c44 -40 105 -73 193 -73c110 0 183 54 183 168v92c-43 -76 -111 -109 -191 -109c-145 0 -246 108 -246 256c0 147 97 259 247 259c82 0 146 -36 190 -108v98zM306 62c111 0 185 84 185 193
c0 102 -78 192 -186 192c-112 0 -185 -85 -185 -193c0 -112 77 -192 186 -192z" />
    <glyph glyph-name="h" unicode="h" horiz-adv-x="615" 
d="M345 513c113 0 183 -67 183 -205v-308h-70v290c0 104 -46 159 -133 159c-92 0 -162 -67 -162 -161v-288h-70v752h70v-341c33 63 97 102 182 102z" />
    <glyph glyph-name="i" unicode="i" horiz-adv-x="255" 
d="M129 612c-30 0 -53 23 -53 53s23 53 53 53s53 -23 53 -53s-23 -53 -53 -53zM93 0v502h70v-502h-70z" />
    <glyph glyph-name="j" unicode="j" horiz-adv-x="257" 
d="M129 612c-30 0 -53 23 -53 53s23 53 53 53s53 -23 53 -53s-23 -53 -53 -53zM41 -219c-24 0 -47 4 -62 10l10 62c13 -4 25 -6 39 -6c46 0 65 21 65 104v551h70v-561c0 -116 -44 -160 -122 -160z" />
    <glyph glyph-name="k" unicode="k" horiz-adv-x="513" 
d="M93 0v752h70v-488l236 238h94l-243 -237l252 -265h-96l-243 259v-259h-70z" />
    <glyph glyph-name="l" unicode="l" horiz-adv-x="286" 
d="M193 -10c-63 0 -103 37 -103 120v642h70v-632c0 -47 19 -66 49 -66c22 0 42 9 52 13l11 -59c-16 -9 -44 -18 -79 -18z" />
    <glyph glyph-name="m" unicode="m" horiz-adv-x="901" 
d="M644 513c106 0 170 -67 170 -205v-308h-70v290c0 104 -41 159 -121 159c-76 0 -135 -67 -135 -154v-295h-70v290c0 104 -40 159 -119 159s-136 -67 -136 -161v-288h-70v502h70v-85c29 59 84 96 157 96c77 0 132 -37 156 -112c31 72 86 112 168 112z" />
    <glyph glyph-name="n" unicode="n" horiz-adv-x="615" 
d="M347 512c112 0 181 -67 181 -205v-307h-70v288c0 105 -46 160 -133 160c-94 0 -162 -68 -162 -162v-286h-70v502h70v-93c33 63 98 103 184 103z" />
    <glyph glyph-name="o" unicode="o" horiz-adv-x="624" 
d="M312 -10c-155 0 -263 108 -263 261s108 261 263 261s263 -108 263 -261s-108 -261 -263 -261zM312 57c114 0 192 79 192 194c0 116 -80 194 -192 194c-114 0 -191 -79 -191 -193c0 -117 79 -195 191 -195z" />
    <glyph glyph-name="p" unicode="p" horiz-adv-x="648" 
d="M359 512c141 0 240 -110 240 -260c0 -151 -99 -262 -246 -262c-70 0 -149 36 -190 111v-311h-70v712h70v-101c43 74 121 111 196 111zM347 56c107 0 181 81 181 195c0 110 -69 195 -179 195c-107 0 -192 -81 -192 -194c0 -111 82 -196 190 -196z" />
    <glyph glyph-name="q" unicode="q" horiz-adv-x="647" 
d="M486 502h70v-712h-70v313c-44 -81 -116 -113 -194 -113c-143 0 -243 109 -243 260c0 153 102 262 243 262c80 0 154 -35 194 -110v100zM301 56c109 0 190 85 190 196s-81 194 -189 194c-106 0 -181 -79 -181 -196c0 -115 72 -194 180 -194z" />
    <glyph glyph-name="r" unicode="r" horiz-adv-x="364" 
d="M292 513c22 0 45 -4 61 -11l-17 -68c-15 5 -32 10 -51 10c-84 0 -123 -74 -123 -177v-267h-69v502h69v-90c29 75 73 101 130 101z" />
    <glyph glyph-name="s" unicode="s" horiz-adv-x="480" 
d="M235 -10c-70 0 -140 23 -175 54l19 62c34 -30 94 -57 160 -57c69 0 112 32 112 84s-45 67 -124 92c-76 23 -152 50 -152 143c0 90 72 144 177 144c64 0 117 -20 152 -42l-15 -62c-32 21 -81 45 -139 45c-63 0 -105 -29 -105 -78c0 -53 52 -71 116 -89
c85 -24 159 -54 159 -146c0 -89 -68 -150 -185 -150z" />
    <glyph glyph-name="t" unicode="t" horiz-adv-x="359" 
d="M238 -10c-76 0 -128 44 -128 136v315h-71v61h71v147l70 12v-159h146v-61h-146v-307c0 -52 26 -78 71 -78c38 0 69 17 90 30l14 -61c-25 -18 -68 -35 -117 -35z" />
    <glyph glyph-name="u" unicode="u" horiz-adv-x="615" 
d="M452 502h70v-502h-70v95c-32 -65 -97 -105 -185 -105c-111 0 -181 66 -181 204v308h70v-289c0 -105 47 -160 134 -160c94 0 162 68 162 163v286z" />
    <glyph glyph-name="v" unicode="v" horiz-adv-x="488" 
d="M409 502h75l-204 -502h-72l-204 502h77l163 -422z" />
    <glyph glyph-name="w" unicode="w" horiz-adv-x="778" 
d="M689 502h75l-166 -502h-73l-134 413l-135 -413h-73l-169 502h77l133 -418l135 418h64l135 -415z" />
    <glyph glyph-name="x" unicode="x" horiz-adv-x="515" 
d="M18 0l199 259l-187 243h86l143 -193l144 193h83l-186 -242l197 -260h-83l-156 209l-157 -209h-83z" />
    <glyph glyph-name="y" unicode="y" horiz-adv-x="489" 
d="M410 502h75l-235 -574c-40 -98 -95 -143 -178 -143c-19 0 -39 2 -58 8l10 64c11 -3 23 -5 38 -5c54 0 91 20 125 99l32 74l-215 477h77l175 -394z" />
    <glyph glyph-name="z" unicode="z" horiz-adv-x="492" 
d="M48 0v33l287 408h-278v61h377v-35l-283 -406h289v-61h-392z" />
    <glyph glyph-name="braceleft" unicode="{" horiz-adv-x="333" 
d="M226 -130c-73 0 -116 27 -116 95c0 81 40 172 40 242c0 48 -31 76 -92 76h-29v57h29c61 0 92 27 92 75c0 70 -40 161 -40 242c0 68 43 95 116 95h66v-57h-55c-42 0 -64 -15 -64 -50c0 -79 40 -178 40 -235s-24 -86 -87 -99c63 -13 87 -42 87 -98c0 -58 -40 -157 -40 -236
c0 -35 22 -50 64 -50h55v-57h-66z" />
    <glyph glyph-name="bar" unicode="|" horiz-adv-x="217" 
d="M77 -210v962h63v-962h-63z" />
    <glyph glyph-name="braceright" unicode="}" horiz-adv-x="333" 
d="M30 -130v57h55c42 0 64 15 64 50c0 79 -40 178 -40 236c0 56 24 85 87 98c-63 13 -87 42 -87 99s40 156 40 235c0 35 -22 50 -64 50h-55v57h66c73 0 116 -27 116 -95c0 -81 -40 -172 -40 -242c0 -48 31 -75 92 -75h29v-57h-29c-61 0 -92 -28 -92 -76
c0 -70 40 -161 40 -242c0 -68 -43 -95 -116 -95h-66z" />
    <glyph glyph-name="asciitilde" unicode="~" horiz-adv-x="582" 
d="M95 276c8 72 52 101 96 101c33 0 76 -13 119 -24c41 -10 66 -19 95 -19c22 0 42 14 48 43h53c-8 -66 -51 -101 -93 -101c-38 0 -79 13 -120 24c-42 12 -72 19 -94 19c-24 0 -42 -14 -51 -43h-53z" />
    <glyph glyph-name="exclamdown" unicode="&#xa1;" horiz-adv-x="312" 
d="M156 511c29 0 52 -23 52 -52c0 -30 -23 -53 -52 -53c-30 0 -53 23 -53 53c0 29 23 52 53 52zM187 282l13 -492h-85l13 492h59z" />
    <glyph glyph-name="cent" unicode="&#xa2;" horiz-adv-x="519" 
d="M486 169c-37 -29 -94 -54 -162 -58v-111h-54v114c-126 17 -221 123 -221 257c0 139 92 245 221 260v80h54v-79c61 -4 112 -24 150 -51l-22 -64c-35 26 -77 45 -128 49v-389c55 4 106 25 144 54zM121 371c0 -94 64 -172 149 -190v383c-89 -15 -149 -92 -149 -193z" />
    <glyph glyph-name="sterling" unicode="&#xa3;" horiz-adv-x="549" 
d="M159 67h370v-67h-480v67c59 11 90 50 90 112v141h-90v63h90v101c0 162 79 241 203 241c76 0 130 -30 174 -74l-28 -67c-33 39 -81 72 -145 72c-80 0 -128 -51 -128 -166v-107h190v-63h-190v-138c0 -54 -19 -92 -56 -115z" />
    <glyph glyph-name="currency" unicode="&#xa4;" horiz-adv-x="557" 
d="M486 350c0 -44 -14 -86 -38 -119l59 -59l-50 -50l-59 59c-34 -24 -75 -38 -120 -38c-44 0 -85 14 -119 38l-59 -59l-50 50l59 58c-24 34 -38 76 -38 120c0 45 14 86 38 120l-59 58l50 50l58 -58c34 24 76 38 120 38c45 0 86 -14 120 -39l59 59l50 -50l-59 -58
c24 -34 38 -75 38 -120zM141 350c0 -76 61 -137 137 -137s138 61 138 137s-62 138 -138 138s-137 -62 -137 -138z" />
    <glyph glyph-name="yen" unicode="&#xa5;" horiz-adv-x="578" 
d="M557 710l-214 -393h178v-51h-195v-76h195v-51h-195v-139h-74v139h-195v51h195v76h-195v51h178l-214 393h84l187 -348l187 348h78z" />
    <glyph glyph-name="brokenbar" unicode="&#xa6;" horiz-adv-x="217" 
d="M77 381v371h63v-371h-63zM77 -210v371h63v-371h-63z" />
    <glyph glyph-name="section" unicode="&#xa7;" horiz-adv-x="480" 
d="M334 259c57 -27 82 -64 82 -122c0 -85 -74 -147 -178 -147c-85 0 -148 24 -182 54l19 62c36 -31 92 -57 162 -57c65 0 109 33 109 82s-32 69 -124 95c-110 30 -156 66 -156 146c0 61 38 106 95 127c-64 27 -90 63 -90 123c0 86 73 140 172 140c69 0 123 -20 159 -42
l-16 -62c-35 23 -85 45 -144 45c-63 0 -101 -33 -101 -76c0 -50 31 -69 123 -93c110 -28 157 -69 157 -147c0 -57 -33 -104 -87 -128zM246 472c-74 0 -110 -40 -110 -93c0 -48 29 -73 115 -94h1c61 0 100 40 100 95c0 47 -30 72 -102 92h-4z" />
    <glyph glyph-name="dieresis" unicode="&#xa8;" horiz-adv-x="400" 
d="M301 617c-28 0 -50 22 -50 49c0 28 22 50 50 50c27 0 49 -22 49 -50c0 -27 -22 -49 -49 -49zM513 617c-28 0 -49 22 -49 49c0 28 21 50 49 50s50 -22 50 -50c0 -27 -22 -49 -50 -49z" />
    <glyph glyph-name="copyright" unicode="&#xa9;" horiz-adv-x="810" 
d="M405 -10c-201 0 -365 164 -365 365s164 365 365 365s365 -164 365 -365s-164 -365 -365 -365zM405 38c175 0 317 142 317 317s-142 317 -317 317s-317 -142 -317 -317s142 -317 317 -317zM414 130c-129 0 -226 99 -226 227c0 126 98 223 226 223c57 0 111 -19 152 -54
l-20 -54c-36 34 -84 52 -132 52c-95 0 -168 -72 -168 -168c0 -95 73 -170 169 -170c51 0 102 20 139 52l18 -55c-46 -35 -96 -53 -158 -53z" />
    <glyph glyph-name="ordfeminine" unicode="&#xaa;" horiz-adv-x="345" 
d="M134 409c-59 0 -100 33 -100 92c0 67 61 96 210 96v7c0 44 -27 73 -76 73c-47 0 -79 -18 -100 -34l-13 45c23 17 62 36 122 36c72 0 121 -39 121 -120v-188h-53v48c-20 -30 -57 -55 -111 -55zM149 452c43 0 95 23 95 80v29c-117 0 -153 -20 -153 -58c0 -31 20 -51 58 -51
z" />
    <glyph glyph-name="guillemotleft" unicode="&#xab;" horiz-adv-x="513" 
d="M195 60l-165 200l165 200h82l-170 -200l170 -200h-82zM402 60l-165 200l165 200h82l-170 -200l170 -200h-82z" />
    <glyph glyph-name="logicalnot" unicode="&#xac;" horiz-adv-x="582" 
d="M516 508v-315h-59v256h-391v59h450z" />
    <glyph glyph-name="uni00AD" unicode="&#xad;" horiz-adv-x="445" 
d="M50 241v61h345v-61h-345z" />
    <glyph glyph-name="registered" unicode="&#xae;" horiz-adv-x="463" 
d="M231 710c117 0 200 -84 200 -200c0 -117 -83 -200 -200 -200c-116 0 -200 83 -200 200c0 116 84 200 200 200zM231 345c99 0 166 67 166 165s-67 166 -166 166c-98 0 -165 -68 -165 -166s67 -165 165 -165zM309 558c0 -30 -16 -53 -41 -65l69 -102h-46l-61 94h-1h-31v-94
h-38v238h71c48 0 78 -28 78 -71zM198 594v-76h30c27 0 43 15 43 39c0 23 -15 37 -42 37h-31z" />
    <glyph glyph-name="macron" unicode="&#xaf;" horiz-adv-x="400" 
d="M251 625v54h313v-54h-313z" />
    <glyph glyph-name="degree" unicode="&#xb0;" horiz-adv-x="366" 
d="M183 404c-85 0 -153 68 -153 153s68 153 153 153s154 -68 154 -153s-69 -153 -154 -153zM183 461c53 0 96 43 96 96s-43 96 -96 96s-95 -43 -95 -96s42 -96 95 -96z" />
    <glyph glyph-name="plusminus" unicode="&#xb1;" horiz-adv-x="582" 
d="M320 427h196v-54h-196v-141h-59v141h-195v54h195v142h59v-142zM66 148v54h450v-54h-450z" />
    <glyph glyph-name="uni00B2" unicode="&#xb2;" horiz-adv-x="422" 
d="M61 435v36l151 156c48 49 74 82 74 121c0 40 -29 68 -80 68c-46 0 -82 -18 -116 -52l-26 45c34 38 85 61 145 61c84 0 136 -50 136 -118c0 -55 -38 -102 -92 -155l-106 -108h213v-54h-299z" />
    <glyph glyph-name="uni00B3" unicode="&#xb3;" horiz-adv-x="416" 
d="M195 425c-60 0 -114 22 -145 59l30 48c28 -31 64 -53 116 -53c62 0 100 31 100 78c0 54 -51 79 -131 79v48c79 0 112 38 112 74c0 34 -29 58 -77 58c-46 0 -82 -23 -110 -49l-27 47c33 31 78 56 140 56c80 0 132 -42 132 -105c0 -50 -33 -85 -87 -100
c75 -18 107 -59 107 -112c0 -73 -62 -128 -160 -128z" />
    <glyph glyph-name="acute" unicode="&#xb4;" horiz-adv-x="400" 
d="M208 573l111 152h74l-119 -152h-66z" />
    <glyph glyph-name="uni03BC" unicode="&#x3bc;" horiz-adv-x="621" 
d="M458 502h70v-502h-70v89c-31 -61 -89 -99 -170 -99c-52 0 -97 20 -125 55v-255h-70v712h70v-289c0 -103 47 -160 135 -160c92 0 160 68 160 163v286z" />
    <glyph glyph-name="paragraph" unicode="&#xb6;" horiz-adv-x="649" 
d="M324 -210v361h-40c-153 0 -254 112 -254 280c0 167 101 279 254 279h335v-51h-79v-869h-52v869h-111v-869h-53z" />
    <glyph glyph-name="periodcentered" unicode="&#xb7;" horiz-adv-x="290" 
d="M145 297c-29 0 -52 23 -52 52c0 30 23 53 52 53c30 0 53 -23 53 -53c0 -29 -23 -52 -53 -52z" />
    <glyph glyph-name="cedilla" unicode="&#xb8;" horiz-adv-x="400" 
d="M310 -44c38 -12 63 -39 63 -78c0 -53 -42 -92 -142 -92v52c64 0 83 17 83 41c0 25 -24 36 -53 36v85h49v-44z" />
    <glyph glyph-name="uni00B9" unicode="&#xb9;" horiz-adv-x="355" 
d="M190 865h24v-430h-59v351l-101 -62v58z" />
    <glyph glyph-name="ordmasculine" unicode="&#xba;" horiz-adv-x="374" 
d="M186 406c-93 0 -160 66 -160 157c0 90 67 157 160 157s162 -67 162 -157c0 -91 -69 -157 -162 -157zM186 457c59 0 104 44 104 106c0 63 -44 106 -103 106c-62 0 -105 -46 -105 -107s44 -105 104 -105z" />
    <glyph glyph-name="guillemotright" unicode="&#xbb;" horiz-adv-x="513" 
d="M111 60h-82l170 200l-170 200h82l165 -200zM318 60h-82l170 200l-170 200h82l165 -200z" />
    <glyph glyph-name="onequarter" unicode="&#xbc;" horiz-adv-x="854" 
d="M155 285v351l-101 -62v58l136 83h24v-430h-59zM669 710h66l-557 -710h-66zM748 140h64v-49h-64v-91h-60v91h-206v39l217 299h49v-289zM688 140v196l-142 -196h142z" />
    <glyph glyph-name="onehalf" unicode="&#xbd;" horiz-adv-x="951" 
d="M155 285v351l-101 -62v58l136 83h24v-430h-59zM666 710h66l-557 -710h-66zM676 54h213v-54h-299v36l151 156c48 49 74 82 74 121c0 40 -29 68 -80 68c-46 0 -82 -18 -116 -52l-26 45c34 38 85 61 145 61c84 0 136 -50 136 -118c0 -55 -38 -102 -92 -155z" />
    <glyph glyph-name="threequarters" unicode="&#xbe;" horiz-adv-x="900" 
d="M195 275c-60 0 -114 22 -145 59l30 48c28 -31 64 -53 116 -53c62 0 100 31 100 78c0 54 -51 79 -131 79v48c79 0 112 38 112 74c0 34 -29 58 -77 58c-46 0 -82 -23 -110 -49l-27 47c33 31 78 56 140 56c80 0 132 -42 132 -105c0 -50 -33 -85 -87 -100
c75 -18 107 -59 107 -112c0 -73 -62 -128 -160 -128zM169 0l557 710h66l-557 -710h-66zM734 0v91h-206v39l217 299h49v-289h64v-49h-64v-91h-60zM592 140h142v196z" />
    <glyph glyph-name="questiondown" unicode="&#xbf;" horiz-adv-x="497" 
d="M247 406c-29 0 -53 24 -53 53s24 53 53 53s53 -24 53 -53s-24 -53 -53 -53zM245 -218c-122 0 -196 77 -196 178c0 85 42 138 91 191c63 68 76 95 77 129h66c0 -48 -10 -72 -86 -162c-47 -56 -77 -94 -77 -154c0 -68 43 -116 128 -116c84 0 128 50 143 109l57 -31
c-18 -81 -92 -144 -203 -144z" />
    <glyph glyph-name="Agrave" unicode="&#xc0;" horiz-adv-x="666" 
d="M567 0l-87 230h-296l-87 -230h-76l273 710h78l273 -710h-78zM207 293h250l-125 331zM321 774l-128 143h80l114 -143h-66z" />
    <glyph glyph-name="Aacute" unicode="&#xc1;" horiz-adv-x="666" 
d="M567 0l-87 230h-296l-87 -230h-76l273 710h78l273 -710h-78zM207 293h250l-125 331zM275 774l115 143h79l-128 -143h-66z" />
    <glyph glyph-name="Acircumflex" unicode="&#xc2;" horiz-adv-x="666" 
d="M567 0l-87 230h-296l-87 -230h-76l273 710h78l273 -710h-78zM207 293h250l-125 331zM175 774l120 130h76l120 -130h-66l-92 84l-92 -84h-66z" />
    <glyph glyph-name="Atilde" unicode="&#xc3;" horiz-adv-x="666" 
d="M567 0l-87 230h-296l-87 -230h-76l273 710h78l273 -710h-78zM207 293h250l-125 331zM174 774c8 69 38 98 79 98c21 0 51 -9 89 -24c25 -10 46 -19 63 -19c21 0 29 13 33 43h51c-8 -61 -34 -98 -79 -98c-26 0 -56 12 -86 24s-50 19 -64 19c-21 0 -28 -13 -35 -43h-51z" />
    <glyph glyph-name="Adieresis" unicode="&#xc4;" horiz-adv-x="666" 
d="M567 0l-87 230h-296l-87 -230h-76l273 710h78l273 -710h-78zM207 293h250l-125 331zM228 795c-28 0 -50 22 -50 49c0 28 22 50 50 50c27 0 49 -22 49 -50c0 -27 -22 -49 -49 -49zM440 795c-28 0 -49 22 -49 49c0 28 21 50 49 50s50 -22 50 -50c0 -27 -22 -49 -50 -49z
" />
    <glyph glyph-name="Aring" unicode="&#xc5;" horiz-adv-x="666" 
d="M567 0l-87 230h-296l-87 -230h-76l273 710h78l273 -710h-78zM207 293h250l-125 331zM332 749c-60 0 -98 43 -98 95c0 54 42 96 99 96s98 -42 98 -96c0 -56 -43 -95 -99 -95zM333 796c29 0 48 21 48 48c0 28 -19 48 -48 48s-49 -20 -49 -48c0 -27 20 -48 49 -48z" />
    <glyph glyph-name="AE" unicode="&#xc6;" horiz-adv-x="920" 
d="M521 68h321v-68h-396v230h-260l-89 -230h-76l273 710h541v-68h-314v-252h304v-67h-304v-255zM210 293h236v348h-101z" />
    <glyph glyph-name="Ccedilla" unicode="&#xc7;" horiz-adv-x="729" 
d="M434 -44c38 -12 63 -39 63 -78c0 -53 -42 -92 -142 -92v52c64 0 83 17 83 41c0 25 -24 36 -53 36v78c-187 21 -319 167 -319 364c0 212 156 363 367 363c93 0 175 -30 238 -79l-26 -71c-57 48 -131 78 -211 78c-170 0 -291 -123 -291 -291c0 -169 122 -295 291 -295
c90 0 168 35 225 80l23 -70c-73 -55 -153 -82 -248 -82v-34z" />
    <glyph glyph-name="Egrave" unicode="&#xc8;" horiz-adv-x="578" 
d="M103 0v710h389v-68h-314v-252h305v-67h-305v-255h322v-68h-397zM290 774l-128 143h80l114 -143h-66z" />
    <glyph glyph-name="Eacute" unicode="&#xc9;" horiz-adv-x="578" 
d="M103 0v710h389v-68h-314v-252h305v-67h-305v-255h322v-68h-397zM244 774l115 143h79l-128 -143h-66z" />
    <glyph glyph-name="Ecircumflex" unicode="&#xca;" horiz-adv-x="578" 
d="M103 0v710h389v-68h-314v-252h305v-67h-305v-255h322v-68h-397zM144 774l120 130h76l120 -130h-66l-92 84l-92 -84h-66z" />
    <glyph glyph-name="Edieresis" unicode="&#xcb;" horiz-adv-x="578" 
d="M103 0v710h389v-68h-314v-252h305v-67h-305v-255h322v-68h-397zM197 795c-28 0 -50 22 -50 49c0 28 22 50 50 50c27 0 49 -22 49 -50c0 -27 -22 -49 -49 -49zM409 795c-28 0 -49 22 -49 49c0 28 21 50 49 50s50 -22 50 -50c0 -27 -22 -49 -50 -49z" />
    <glyph glyph-name="Igrave" unicode="&#xcc;" horiz-adv-x="282" 
d="M103 0v710h75v-710h-75zM129 774l-128 143h80l114 -143h-66z" />
    <glyph glyph-name="Iacute" unicode="&#xcd;" horiz-adv-x="282" 
d="M103 0v710h75v-710h-75zM83 774l115 143h79l-128 -143h-66z" />
    <glyph glyph-name="Icircumflex" unicode="&#xce;" horiz-adv-x="282" 
d="M103 0v710h75v-710h-75zM-17 774l120 130h76l120 -130h-66l-92 84l-92 -84h-66z" />
    <glyph glyph-name="Idieresis" unicode="&#xcf;" horiz-adv-x="282" 
d="M103 0v710h75v-710h-75zM36 795c-28 0 -50 22 -50 49c0 28 22 50 50 50c27 0 49 -22 49 -50c0 -27 -22 -49 -49 -49zM248 795c-28 0 -49 22 -49 49c0 28 21 50 49 50s50 -22 50 -50c0 -27 -22 -49 -50 -49z" />
    <glyph glyph-name="Eth" unicode="&#xd0;" horiz-adv-x="757" 
d="M327 710c223 0 363 -140 363 -349c0 -217 -140 -361 -363 -361h-224v323h-92v65h92v322h224zM323 68c181 0 291 114 291 292c0 171 -111 282 -290 282h-146v-254h207v-65h-207v-255h145z" />
    <glyph glyph-name="Ntilde" unicode="&#xd1;" horiz-adv-x="776" 
d="M599 710h74v-710h-71l-425 591v-591h-74v710h71l425 -591v591zM237 774c8 69 38 98 79 98c21 0 51 -9 89 -24c25 -10 46 -19 63 -19c21 0 29 13 33 43h51c-8 -61 -34 -98 -79 -98c-26 0 -56 12 -86 24s-50 19 -64 19c-21 0 -28 -13 -35 -43h-51z" />
    <glyph glyph-name="Ograve" unicode="&#xd2;" horiz-adv-x="871" 
d="M435 -10c-211 0 -369 154 -369 365c0 212 158 365 370 365c211 0 369 -154 369 -364c0 -211 -158 -366 -370 -366zM436 62c169 0 293 125 293 293c0 169 -124 294 -293 294c-170 0 -294 -125 -294 -294c0 -168 124 -293 294 -293zM423 774l-128 143h80l114 -143h-66z" />
    <glyph glyph-name="Oacute" unicode="&#xd3;" horiz-adv-x="871" 
d="M435 -10c-211 0 -369 154 -369 365c0 212 158 365 370 365c211 0 369 -154 369 -364c0 -211 -158 -366 -370 -366zM436 62c169 0 293 125 293 293c0 169 -124 294 -293 294c-170 0 -294 -125 -294 -294c0 -168 124 -293 294 -293zM377 774l115 143h79l-128 -143h-66z" />
    <glyph glyph-name="Ocircumflex" unicode="&#xd4;" horiz-adv-x="871" 
d="M435 -10c-211 0 -369 154 -369 365c0 212 158 365 370 365c211 0 369 -154 369 -364c0 -211 -158 -366 -370 -366zM436 62c169 0 293 125 293 293c0 169 -124 294 -293 294c-170 0 -294 -125 -294 -294c0 -168 124 -293 294 -293zM277 774l120 130h76l120 -130h-66
l-92 84l-92 -84h-66z" />
    <glyph glyph-name="Otilde" unicode="&#xd5;" horiz-adv-x="871" 
d="M435 -10c-211 0 -369 154 -369 365c0 212 158 365 370 365c211 0 369 -154 369 -364c0 -211 -158 -366 -370 -366zM436 62c169 0 293 125 293 293c0 169 -124 294 -293 294c-170 0 -294 -125 -294 -294c0 -168 124 -293 294 -293zM276 774c8 69 38 98 79 98
c21 0 51 -9 89 -24c25 -10 46 -19 63 -19c21 0 29 13 33 43h51c-8 -61 -34 -98 -79 -98c-26 0 -56 12 -86 24s-50 19 -64 19c-21 0 -28 -13 -35 -43h-51z" />
    <glyph glyph-name="Odieresis" unicode="&#xd6;" horiz-adv-x="871" 
d="M435 -10c-211 0 -369 154 -369 365c0 212 158 365 370 365c211 0 369 -154 369 -364c0 -211 -158 -366 -370 -366zM436 62c169 0 293 125 293 293c0 169 -124 294 -293 294c-170 0 -294 -125 -294 -294c0 -168 124 -293 294 -293zM330 795c-28 0 -50 22 -50 49
c0 28 22 50 50 50c27 0 49 -22 49 -50c0 -27 -22 -49 -49 -49zM542 795c-28 0 -49 22 -49 49c0 28 21 50 49 50s50 -22 50 -50c0 -27 -22 -49 -50 -49z" />
    <glyph glyph-name="multiply" unicode="&#xd7;" horiz-adv-x="582" 
d="M475 208l-42 -41l-142 142l-142 -142l-41 42l142 142l-142 141l42 41l141 -141l142 142l41 -41l-142 -142z" />
    <glyph glyph-name="Oslash" unicode="&#xd8;" horiz-adv-x="871" 
d="M668 644c85 -65 137 -167 137 -288c0 -211 -158 -366 -370 -366c-66 0 -126 15 -179 42l-55 -82h-69l76 112c-88 65 -142 169 -142 293c0 212 158 365 370 365c68 0 131 -16 184 -45l57 85h69zM142 355c0 -96 41 -178 107 -231l330 491c-41 22 -90 34 -143 34
c-170 0 -294 -125 -294 -294zM436 62c169 0 293 125 293 293c0 94 -39 175 -102 228l-329 -489c40 -21 87 -32 138 -32z" />
    <glyph glyph-name="Ugrave" unicode="&#xd9;" horiz-adv-x="741" 
d="M371 -10c-173 0 -273 109 -273 270v450h75v-437c0 -143 83 -211 198 -211s198 68 198 211v437h75v-450c0 -161 -101 -270 -273 -270zM360 774l-128 143h80l114 -143h-66z" />
    <glyph glyph-name="Uacute" unicode="&#xda;" horiz-adv-x="741" 
d="M371 -10c-173 0 -273 109 -273 270v450h75v-437c0 -143 83 -211 198 -211s198 68 198 211v437h75v-450c0 -161 -101 -270 -273 -270zM314 774l115 143h79l-128 -143h-66z" />
    <glyph glyph-name="Ucircumflex" unicode="&#xdb;" horiz-adv-x="741" 
d="M371 -10c-173 0 -273 109 -273 270v450h75v-437c0 -143 83 -211 198 -211s198 68 198 211v437h75v-450c0 -161 -101 -270 -273 -270zM214 774l120 130h76l120 -130h-66l-92 84l-92 -84h-66z" />
    <glyph glyph-name="Udieresis" unicode="&#xdc;" horiz-adv-x="741" 
d="M371 -10c-173 0 -273 109 -273 270v450h75v-437c0 -143 83 -211 198 -211s198 68 198 211v437h75v-450c0 -161 -101 -270 -273 -270zM267 795c-28 0 -50 22 -50 49c0 28 22 50 50 50c27 0 49 -22 49 -50c0 -27 -22 -49 -49 -49zM479 795c-28 0 -49 22 -49 49
c0 28 21 50 49 50s50 -22 50 -50c0 -27 -22 -49 -50 -49z" />
    <glyph glyph-name="Yacute" unicode="&#xdd;" horiz-adv-x="584" 
d="M582 710l-253 -426v-284h-74v284l-253 426h84l209 -352l208 352h79zM232 774l115 143h79l-128 -143h-66z" />
    <glyph glyph-name="Thorn" unicode="&#xde;" horiz-adv-x="585" 
d="M300 575c156 0 239 -85 239 -218c0 -119 -83 -227 -239 -227h-122v-130h-75v710h75v-135h122zM292 196c95 0 170 58 170 161c0 114 -75 152 -170 152h-114v-313h114z" />
    <glyph glyph-name="germandbls" unicode="&#xdf;" horiz-adv-x="610" 
d="M387 415c84 -14 174 -77 174 -201c0 -138 -93 -222 -231 -222c-46 0 -84 7 -106 17l10 69c28 -16 55 -21 89 -21c100 0 166 56 166 160c0 105 -82 160 -209 160h-17v56l23 1c61 3 144 45 144 144c0 66 -46 110 -124 110c-70 0 -145 -34 -145 -164v-524h-68v533
c0 150 95 220 210 220c125 0 198 -70 198 -174c0 -78 -50 -139 -114 -164z" />
    <glyph glyph-name="agrave" unicode="&#xe0;" horiz-adv-x="577" 
d="M289 512c127 0 202 -66 202 -200v-312h-69v88c-31 -56 -98 -98 -188 -98c-108 0 -171 58 -171 149c0 113 97 158 358 160v13c0 83 -48 138 -142 138c-77 0 -135 -37 -165 -61l-20 63c42 31 110 60 195 60zM248 48c77 0 173 41 173 150v50c-219 -2 -285 -34 -285 -107
c0 -56 39 -93 112 -93zM293 573l-120 152h74l112 -152h-66z" />
    <glyph glyph-name="aacute" unicode="&#xe1;" horiz-adv-x="577" 
d="M289 512c127 0 202 -66 202 -200v-312h-69v88c-31 -56 -98 -98 -188 -98c-108 0 -171 58 -171 149c0 113 97 158 358 160v13c0 83 -48 138 -142 138c-77 0 -135 -37 -165 -61l-20 63c42 31 110 60 195 60zM248 48c77 0 173 41 173 150v50c-219 -2 -285 -34 -285 -107
c0 -56 39 -93 112 -93zM238 573l111 152h74l-119 -152h-66z" />
    <glyph glyph-name="acircumflex" unicode="&#xe2;" horiz-adv-x="577" 
d="M289 512c127 0 202 -66 202 -200v-312h-69v88c-31 -56 -98 -98 -188 -98c-108 0 -171 58 -171 149c0 113 97 158 358 160v13c0 83 -48 138 -142 138c-77 0 -135 -37 -165 -61l-20 63c42 31 110 60 195 60zM248 48c77 0 173 41 173 150v50c-219 -2 -285 -34 -285 -107
c0 -56 39 -93 112 -93zM135 573l120 152h76l120 -152h-66l-92 107l-92 -107h-66z" />
    <glyph glyph-name="atilde" unicode="&#xe3;" horiz-adv-x="577" 
d="M289 512c127 0 202 -66 202 -200v-312h-69v88c-31 -56 -98 -98 -188 -98c-108 0 -171 58 -171 149c0 113 97 158 358 160v13c0 83 -48 138 -142 138c-77 0 -135 -37 -165 -61l-20 63c42 31 110 60 195 60zM248 48c77 0 173 41 173 150v50c-219 -2 -285 -34 -285 -107
c0 -56 39 -93 112 -93zM134 597c8 70 43 98 81 98c24 0 55 -11 87 -24c28 -12 45 -19 59 -19c20 0 33 14 37 43h51c-9 -68 -43 -98 -82 -98c-24 0 -52 11 -83 24s-49 19 -63 19c-16 0 -28 -8 -36 -43h-51z" />
    <glyph glyph-name="adieresis" unicode="&#xe4;" horiz-adv-x="577" 
d="M289 512c127 0 202 -66 202 -200v-312h-69v88c-31 -56 -98 -98 -188 -98c-108 0 -171 58 -171 149c0 113 97 158 358 160v13c0 83 -48 138 -142 138c-77 0 -135 -37 -165 -61l-20 63c42 31 110 60 195 60zM248 48c77 0 173 41 173 150v50c-219 -2 -285 -34 -285 -107
c0 -56 39 -93 112 -93zM186 617c-28 0 -50 22 -50 49c0 28 22 50 50 50c27 0 49 -22 49 -50c0 -27 -22 -49 -49 -49zM398 617c-28 0 -49 22 -49 49c0 28 21 50 49 50s50 -22 50 -50c0 -27 -22 -49 -50 -49z" />
    <glyph glyph-name="aring" unicode="&#xe5;" horiz-adv-x="577" 
d="M289 512c127 0 202 -66 202 -200v-312h-69v88c-31 -56 -98 -98 -188 -98c-108 0 -171 58 -171 149c0 113 97 158 358 160v13c0 83 -48 138 -142 138c-77 0 -135 -37 -165 -61l-20 63c42 31 110 60 195 60zM248 48c77 0 173 41 173 150v50c-219 -2 -285 -34 -285 -107
c0 -56 39 -93 112 -93zM292 562c-60 0 -98 44 -98 97c0 56 42 97 100 97c57 0 99 -41 99 -97c0 -59 -45 -97 -101 -97zM294 611c29 0 48 19 48 48s-19 48 -48 48c-30 0 -49 -19 -49 -48s19 -48 49 -48z" />
    <glyph glyph-name="ae" unicode="&#xe6;" horiz-adv-x="950" 
d="M906 255v-9h-412c3 -118 78 -192 193 -192c78 0 144 33 183 70l20 -62c-43 -39 -118 -72 -207 -72c-105 0 -184 50 -226 124c-35 -67 -108 -124 -221 -124c-108 0 -173 54 -173 148c0 113 98 159 358 161v13c0 83 -48 138 -142 138c-77 0 -135 -37 -165 -61l-20 63
c41 30 108 60 196 60c89 0 153 -33 182 -100c45 62 115 100 198 100c140 0 236 -107 236 -257zM498 301h334c-11 86 -72 149 -162 149c-83 0 -156 -60 -172 -149zM248 48c76 0 173 41 173 155v45c-216 -3 -285 -34 -285 -108c0 -56 39 -92 112 -92z" />
    <glyph glyph-name="ccedilla" unicode="&#xe7;" horiz-adv-x="520" 
d="M310 -44c38 -12 63 -39 63 -78c0 -53 -42 -92 -142 -92v52c64 0 83 17 83 41c0 25 -24 36 -53 36v77c-125 16 -212 116 -212 258c0 155 104 262 254 262c71 0 129 -23 172 -53l-23 -64c-39 30 -89 51 -146 51c-111 0 -185 -78 -185 -194c0 -118 74 -196 179 -196
c61 0 119 22 164 54l18 -62c-41 -31 -102 -55 -172 -58v-34z" />
    <glyph glyph-name="egrave" unicode="&#xe8;" horiz-adv-x="576" 
d="M532 255v-9h-412c3 -118 78 -192 193 -192c78 0 144 33 183 70l20 -62c-43 -39 -118 -72 -207 -72c-161 0 -260 117 -260 261c0 150 106 261 247 261c140 0 236 -107 236 -257zM124 301h334c-11 86 -72 149 -162 149c-83 0 -156 -60 -172 -149zM300 573l-120 152h74
l112 -152h-66z" />
    <glyph glyph-name="eacute" unicode="&#xe9;" horiz-adv-x="576" 
d="M532 255v-9h-412c3 -118 78 -192 193 -192c78 0 144 33 183 70l20 -62c-43 -39 -118 -72 -207 -72c-161 0 -260 117 -260 261c0 150 106 261 247 261c140 0 236 -107 236 -257zM124 301h334c-11 86 -72 149 -162 149c-83 0 -156 -60 -172 -149zM245 573l111 152h74
l-119 -152h-66z" />
    <glyph glyph-name="ecircumflex" unicode="&#xea;" horiz-adv-x="576" 
d="M532 255v-9h-412c3 -118 78 -192 193 -192c78 0 144 33 183 70l20 -62c-43 -39 -118 -72 -207 -72c-161 0 -260 117 -260 261c0 150 106 261 247 261c140 0 236 -107 236 -257zM124 301h334c-11 86 -72 149 -162 149c-83 0 -156 -60 -172 -149zM142 573l120 152h76
l120 -152h-66l-92 107l-92 -107h-66z" />
    <glyph glyph-name="edieresis" unicode="&#xeb;" horiz-adv-x="576" 
d="M532 255v-9h-412c3 -118 78 -192 193 -192c78 0 144 33 183 70l20 -62c-43 -39 -118 -72 -207 -72c-161 0 -260 117 -260 261c0 150 106 261 247 261c140 0 236 -107 236 -257zM124 301h334c-11 86 -72 149 -162 149c-83 0 -156 -60 -172 -149zM193 617
c-28 0 -50 22 -50 49c0 28 22 50 50 50c27 0 49 -22 49 -50c0 -27 -22 -49 -49 -49zM405 617c-28 0 -49 22 -49 49c0 28 21 50 49 50s50 -22 50 -50c0 -27 -22 -49 -50 -49z" />
    <glyph glyph-name="igrave" unicode="&#xec;" horiz-adv-x="255" 
d="M93 0v502h70v-502h-70zM129 573l-120 152h74l112 -152h-66z" />
    <glyph glyph-name="iacute" unicode="&#xed;" horiz-adv-x="255" 
d="M93 0v502h70v-502h-70zM74 573l111 152h74l-119 -152h-66z" />
    <glyph glyph-name="icircumflex" unicode="&#xee;" horiz-adv-x="255" 
d="M93 0v502h70v-502h-70zM-9 573l100 152h76l100 -152h-66l-72 106l-72 -106h-66z" />
    <glyph glyph-name="idieresis" unicode="&#xef;" horiz-adv-x="255" 
d="M93 0v502h70v-502h-70zM44 615c-29 0 -51 23 -51 51c0 29 22 51 51 51c28 0 51 -22 51 -51c0 -28 -23 -51 -51 -51zM212 615c-28 0 -51 23 -51 51c0 29 23 51 51 51c29 0 51 -22 51 -51c0 -28 -22 -51 -51 -51z" />
    <glyph glyph-name="eth" unicode="&#xf0;" horiz-adv-x="624" 
d="M367 649c124 -102 208 -234 208 -387c0 -165 -109 -272 -262 -272s-264 106 -264 259c0 154 117 259 261 259c66 0 113 -27 151 -62c-34 63 -89 124 -157 177l-152 -63l-21 50l121 49c-33 22 -68 43 -106 61l45 40c44 -22 87 -46 127 -74l135 55l22 -48zM312 55
c112 0 193 83 193 194c0 112 -81 196 -190 196c-112 0 -196 -80 -196 -194c0 -115 82 -196 193 -196z" />
    <glyph glyph-name="ntilde" unicode="&#xf1;" horiz-adv-x="615" 
d="M347 512c112 0 181 -67 181 -205v-307h-70v288c0 105 -46 160 -133 160c-94 0 -162 -68 -162 -162v-286h-70v502h70v-93c33 63 98 103 184 103zM164 597c8 70 43 98 81 98c24 0 55 -11 87 -24c28 -12 45 -19 59 -19c20 0 33 14 37 43h51c-9 -68 -43 -98 -82 -98
c-24 0 -52 11 -83 24s-49 19 -63 19c-16 0 -28 -8 -36 -43h-51z" />
    <glyph glyph-name="ograve" unicode="&#xf2;" horiz-adv-x="624" 
d="M312 -10c-155 0 -263 108 -263 261s108 261 263 261s263 -108 263 -261s-108 -261 -263 -261zM312 57c114 0 192 79 192 194c0 116 -80 194 -192 194c-114 0 -191 -79 -191 -193c0 -117 79 -195 191 -195zM312 573l-120 152h74l112 -152h-66z" />
    <glyph glyph-name="oacute" unicode="&#xf3;" horiz-adv-x="624" 
d="M312 -10c-155 0 -263 108 -263 261s108 261 263 261s263 -108 263 -261s-108 -261 -263 -261zM312 57c114 0 192 79 192 194c0 116 -80 194 -192 194c-114 0 -191 -79 -191 -193c0 -117 79 -195 191 -195zM257 573l111 152h74l-119 -152h-66z" />
    <glyph glyph-name="ocircumflex" unicode="&#xf4;" horiz-adv-x="624" 
d="M312 -10c-155 0 -263 108 -263 261s108 261 263 261s263 -108 263 -261s-108 -261 -263 -261zM312 57c114 0 192 79 192 194c0 116 -80 194 -192 194c-114 0 -191 -79 -191 -193c0 -117 79 -195 191 -195zM154 573l120 152h76l120 -152h-66l-92 107l-92 -107h-66z" />
    <glyph glyph-name="otilde" unicode="&#xf5;" horiz-adv-x="624" 
d="M312 -10c-155 0 -263 108 -263 261s108 261 263 261s263 -108 263 -261s-108 -261 -263 -261zM312 57c114 0 192 79 192 194c0 116 -80 194 -192 194c-114 0 -191 -79 -191 -193c0 -117 79 -195 191 -195zM153 597c8 70 43 98 81 98c24 0 55 -11 87 -24
c28 -12 45 -19 59 -19c20 0 33 14 37 43h51c-9 -68 -43 -98 -82 -98c-24 0 -52 11 -83 24s-49 19 -63 19c-16 0 -28 -8 -36 -43h-51z" />
    <glyph glyph-name="odieresis" unicode="&#xf6;" horiz-adv-x="624" 
d="M312 -10c-155 0 -263 108 -263 261s108 261 263 261s263 -108 263 -261s-108 -261 -263 -261zM312 57c114 0 192 79 192 194c0 116 -80 194 -192 194c-114 0 -191 -79 -191 -193c0 -117 79 -195 191 -195zM205 617c-28 0 -50 22 -50 49c0 28 22 50 50 50
c27 0 49 -22 49 -50c0 -27 -22 -49 -49 -49zM417 617c-28 0 -49 22 -49 49c0 28 21 50 49 50s50 -22 50 -50c0 -27 -22 -49 -50 -49z" />
    <glyph glyph-name="divide" unicode="&#xf7;" horiz-adv-x="582" 
d="M291 453c-28 0 -50 22 -50 50s22 50 50 50s50 -22 50 -50s-22 -50 -50 -50zM66 321v59h450v-59h-450zM291 148c-28 0 -50 22 -50 50s22 50 50 50s50 -22 50 -50s-22 -50 -50 -50z" />
    <glyph glyph-name="oslash" unicode="&#xf8;" horiz-adv-x="624" 
d="M487 451c55 -46 88 -117 88 -200c0 -152 -110 -261 -263 -261c-48 0 -92 11 -129 30l-52 -74h-64l72 103c-56 46 -90 118 -90 202c0 152 110 261 263 261c49 0 93 -11 131 -31l52 73h64zM119 252c0 -61 22 -113 60 -147l226 321c-27 14 -59 21 -93 21
c-113 0 -193 -80 -193 -195zM312 55c114 0 193 81 193 196c0 60 -21 110 -57 145l-226 -321c26 -13 57 -20 90 -20z" />
    <glyph glyph-name="ugrave" unicode="&#xf9;" horiz-adv-x="615" 
d="M452 502h70v-502h-70v95c-32 -65 -97 -105 -185 -105c-111 0 -181 66 -181 204v308h70v-289c0 -105 47 -160 134 -160c94 0 162 68 162 163v286zM310 573l-120 152h74l112 -152h-66z" />
    <glyph glyph-name="uacute" unicode="&#xfa;" horiz-adv-x="615" 
d="M452 502h70v-502h-70v95c-32 -65 -97 -105 -185 -105c-111 0 -181 66 -181 204v308h70v-289c0 -105 47 -160 134 -160c94 0 162 68 162 163v286zM255 573l111 152h74l-119 -152h-66z" />
    <glyph glyph-name="ucircumflex" unicode="&#xfb;" horiz-adv-x="615" 
d="M452 502h70v-502h-70v95c-32 -65 -97 -105 -185 -105c-111 0 -181 66 -181 204v308h70v-289c0 -105 47 -160 134 -160c94 0 162 68 162 163v286zM152 573l120 152h76l120 -152h-66l-92 107l-92 -107h-66z" />
    <glyph glyph-name="udieresis" unicode="&#xfc;" horiz-adv-x="615" 
d="M452 502h70v-502h-70v95c-32 -65 -97 -105 -185 -105c-111 0 -181 66 -181 204v308h70v-289c0 -105 47 -160 134 -160c94 0 162 68 162 163v286zM203 617c-28 0 -50 22 -50 49c0 28 22 50 50 50c27 0 49 -22 49 -50c0 -27 -22 -49 -49 -49zM415 617c-28 0 -49 22 -49 49
c0 28 21 50 49 50s50 -22 50 -50c0 -27 -22 -49 -50 -49z" />
    <glyph glyph-name="yacute" unicode="&#xfd;" horiz-adv-x="489" 
d="M410 502h75l-235 -574c-40 -98 -95 -143 -178 -143c-19 0 -39 2 -58 8l10 64c11 -3 23 -5 38 -5c54 0 91 20 125 99l32 74l-215 477h77l175 -394zM191 573l111 152h74l-119 -152h-66z" />
    <glyph glyph-name="thorn" unicode="&#xfe;" horiz-adv-x="648" 
d="M359 512c141 0 240 -110 240 -260c0 -151 -99 -262 -246 -262c-70 0 -149 36 -190 111v-311h-70v962h70v-351c43 74 121 111 196 111zM347 56c107 0 181 81 181 195c0 110 -69 195 -179 195c-107 0 -192 -81 -192 -194c0 -111 82 -196 190 -196z" />
    <glyph glyph-name="ydieresis" unicode="&#xff;" horiz-adv-x="489" 
d="M410 502h75l-235 -574c-40 -98 -95 -143 -178 -143c-19 0 -39 2 -58 8l10 64c11 -3 23 -5 38 -5c54 0 91 20 125 99l32 74l-215 477h77l175 -394zM139 617c-28 0 -50 22 -50 49c0 28 22 50 50 50c27 0 49 -22 49 -50c0 -27 -22 -49 -49 -49zM351 617c-28 0 -49 22 -49 49
c0 28 21 50 49 50s50 -22 50 -50c0 -27 -22 -49 -50 -49z" />
    <glyph glyph-name="Amacron" unicode="&#x100;" horiz-adv-x="666" 
d="M567 0l-87 230h-296l-87 -230h-76l273 710h78l273 -710h-78zM207 293h250l-125 331zM175 810v53h313v-53h-313z" />
    <glyph glyph-name="amacron" unicode="&#x101;" horiz-adv-x="577" 
d="M289 512c127 0 202 -66 202 -200v-312h-69v88c-31 -56 -98 -98 -188 -98c-108 0 -171 58 -171 149c0 113 97 158 358 160v13c0 83 -48 138 -142 138c-77 0 -135 -37 -165 -61l-20 63c42 31 110 60 195 60zM248 48c77 0 173 41 173 150v50c-219 -2 -285 -34 -285 -107
c0 -56 39 -93 112 -93zM135 625v54h313v-54h-313z" />
    <glyph glyph-name="Abreve" unicode="&#x102;" horiz-adv-x="666" 
d="M567 0l-87 230h-296l-87 -230h-76l273 710h78l273 -710h-78zM207 293h250l-125 331zM334 776c-90 0 -139 45 -143 116h55c4 -43 37 -66 89 -66c49 0 81 25 86 66h54c-5 -71 -61 -116 -141 -116z" />
    <glyph glyph-name="abreve" unicode="&#x103;" horiz-adv-x="577" 
d="M289 512c127 0 202 -66 202 -200v-312h-69v88c-31 -56 -98 -98 -188 -98c-108 0 -171 58 -171 149c0 113 97 158 358 160v13c0 83 -48 138 -142 138c-77 0 -135 -37 -165 -61l-20 63c42 31 110 60 195 60zM248 48c77 0 173 41 173 150v50c-219 -2 -285 -34 -285 -107
c0 -56 39 -93 112 -93zM292 584c-85 0 -137 54 -140 141h55c2 -62 36 -91 86 -91c53 0 83 33 86 91h54c-2 -87 -57 -141 -141 -141z" />
    <glyph glyph-name="Aogonek" unicode="&#x104;" horiz-adv-x="666" 
d="M668 -134l12 -47c-16 -8 -42 -14 -67 -14c-60 0 -100 37 -100 91c0 43 25 80 65 104h-11l-87 230h-296l-87 -230h-76l273 710h78l273 -710h-6c-43 -23 -65 -53 -65 -90s22 -52 52 -52c15 0 29 3 42 8zM207 293h250l-125 331z" />
    <glyph glyph-name="aogonek" unicode="&#x105;" horiz-adv-x="577" 
d="M514 -134l12 -47c-16 -8 -42 -14 -67 -14c-60 0 -100 37 -100 91c0 43 25 80 65 104h-2v88c-31 -56 -98 -98 -188 -98c-108 0 -171 58 -171 149c0 113 97 158 358 160v13c0 83 -48 138 -142 138c-77 0 -135 -37 -165 -61l-20 63c42 31 110 60 195 60
c127 0 202 -66 202 -200v-312h-6c-43 -23 -65 -53 -65 -90s22 -52 52 -52c15 0 29 3 42 8zM248 48c77 0 173 41 173 150v50c-219 -2 -285 -34 -285 -107c0 -56 39 -93 112 -93z" />
    <glyph glyph-name="Cacute" unicode="&#x106;" horiz-adv-x="729" 
d="M432 -10c-211 0 -366 154 -366 367c0 212 156 363 367 363c93 0 175 -30 238 -79l-26 -71c-57 48 -131 78 -211 78c-170 0 -291 -123 -291 -291c0 -169 122 -295 291 -295c90 0 168 35 225 80l23 -70c-74 -55 -154 -82 -250 -82zM371 774l115 143h79l-128 -143h-66z" />
    <glyph glyph-name="cacute" unicode="&#x107;" horiz-adv-x="520" 
d="M297 -10c-144 0 -248 105 -248 260s104 262 254 262c71 0 129 -23 172 -53l-23 -64c-39 30 -89 51 -146 51c-111 0 -185 -78 -185 -194c0 -118 74 -196 179 -196c61 0 119 22 164 54l18 -62c-44 -33 -110 -58 -185 -58zM244 573l111 152h74l-119 -152h-66z" />
    <glyph glyph-name="Ccircumflex" unicode="&#x108;" horiz-adv-x="729" 
d="M432 -10c-211 0 -366 154 -366 367c0 212 156 363 367 363c93 0 175 -30 238 -79l-26 -71c-57 48 -131 78 -211 78c-170 0 -291 -123 -291 -291c0 -169 122 -295 291 -295c90 0 168 35 225 80l23 -70c-74 -55 -154 -82 -250 -82zM271 774l120 130h76l120 -130h-66l-92 84
l-92 -84h-66z" />
    <glyph glyph-name="ccircumflex" unicode="&#x109;" horiz-adv-x="520" 
d="M297 -10c-144 0 -248 105 -248 260s104 262 254 262c71 0 129 -23 172 -53l-23 -64c-39 30 -89 51 -146 51c-111 0 -185 -78 -185 -194c0 -118 74 -196 179 -196c61 0 119 22 164 54l18 -62c-44 -33 -110 -58 -185 -58zM141 573l120 152h76l120 -152h-66l-92 107
l-92 -107h-66z" />
    <glyph glyph-name="Cdotaccent" unicode="&#x10a;" horiz-adv-x="729" 
d="M432 -10c-211 0 -366 154 -366 367c0 212 156 363 367 363c93 0 175 -30 238 -79l-26 -71c-57 48 -131 78 -211 78c-170 0 -291 -123 -291 -291c0 -169 122 -295 291 -295c90 0 168 35 225 80l23 -70c-74 -55 -154 -82 -250 -82zM429 790c-30 0 -53 23 -53 53
s23 53 53 53s53 -23 53 -53s-23 -53 -53 -53z" />
    <glyph glyph-name="cdotaccent" unicode="&#x10b;" horiz-adv-x="520" 
d="M297 -10c-144 0 -248 105 -248 260s104 262 254 262c71 0 129 -23 172 -53l-23 -64c-39 30 -89 51 -146 51c-111 0 -185 -78 -185 -194c0 -118 74 -196 179 -196c61 0 119 22 164 54l18 -62c-44 -33 -110 -58 -185 -58zM299 612c-30 0 -53 23 -53 53s23 53 53 53
s53 -23 53 -53s-23 -53 -53 -53z" />
    <glyph glyph-name="Ccaron" unicode="&#x10c;" horiz-adv-x="729" 
d="M432 -10c-211 0 -366 154 -366 367c0 212 156 363 367 363c93 0 175 -30 238 -79l-26 -71c-57 48 -131 78 -211 78c-170 0 -291 -123 -291 -291c0 -169 122 -295 291 -295c90 0 168 35 225 80l23 -70c-74 -55 -154 -82 -250 -82zM587 904l-120 -130h-76l-120 130h66
l92 -84l92 84h66z" />
    <glyph glyph-name="ccaron" unicode="&#x10d;" horiz-adv-x="520" 
d="M297 -10c-144 0 -248 105 -248 260s104 262 254 262c71 0 129 -23 172 -53l-23 -64c-39 30 -89 51 -146 51c-111 0 -185 -78 -185 -194c0 -118 74 -196 179 -196c61 0 119 22 164 54l18 -62c-44 -33 -110 -58 -185 -58zM262 573l-116 152h66l88 -106l87 106h66l-116 -152
h-75z" />
    <glyph glyph-name="Dcaron" unicode="&#x10e;" horiz-adv-x="757" 
d="M327 710c223 0 363 -140 363 -349c0 -217 -140 -361 -363 -361h-224v710h224zM323 68c181 0 291 114 291 292c0 171 -111 282 -290 282h-146v-574h145zM528 904l-120 -130h-76l-120 130h66l92 -84l92 84h66z" />
    <glyph glyph-name="dcaron" unicode="&#x10f;" horiz-adv-x="736" 
d="M486 752h70v-754h-70v105c-44 -81 -116 -113 -194 -113c-143 0 -243 109 -243 260c0 153 102 262 243 262c80 0 154 -35 194 -110v350zM301 56c109 0 190 85 190 196s-81 194 -189 194c-106 0 -181 -79 -181 -196c0 -115 72 -194 180 -194zM630 542l62 210h73l-77 -210
h-58z" />
    <glyph glyph-name="Dcroat" unicode="&#x110;" horiz-adv-x="757" 
d="M327 710c223 0 363 -140 363 -349c0 -217 -140 -361 -363 -361h-224v323h-92v65h92v322h224zM323 68c181 0 291 114 291 292c0 171 -111 282 -290 282h-146v-254h207v-65h-207v-255h145z" />
    <glyph glyph-name="dcroat" unicode="&#x111;" horiz-adv-x="647" 
d="M628 653v-56h-72v-599h-70v104c-44 -80 -116 -112 -194 -112c-143 0 -243 108 -243 258c0 151 102 259 243 259c80 0 154 -35 194 -110v200h-171v56h171v99h70v-99h72zM301 55c109 0 190 84 190 194s-81 193 -189 193c-106 0 -181 -79 -181 -194s72 -193 180 -193z" />
    <glyph glyph-name="Emacron" unicode="&#x112;" horiz-adv-x="578" 
d="M103 0v710h389v-68h-314v-252h305v-67h-305v-255h322v-68h-397zM144 810v53h313v-53h-313z" />
    <glyph glyph-name="emacron" unicode="&#x113;" horiz-adv-x="576" 
d="M532 255v-9h-412c3 -118 78 -192 193 -192c78 0 144 33 183 70l20 -62c-43 -39 -118 -72 -207 -72c-161 0 -260 117 -260 261c0 150 106 261 247 261c140 0 236 -107 236 -257zM124 301h334c-11 86 -72 149 -162 149c-83 0 -156 -60 -172 -149zM142 625v54h313v-54h-313z
" />
    <glyph glyph-name="Ebreve" unicode="&#x114;" horiz-adv-x="578" 
d="M103 0v710h389v-68h-314v-252h305v-67h-305v-255h322v-68h-397zM303 776c-90 0 -139 45 -143 116h55c4 -43 37 -66 89 -66c49 0 81 25 86 66h54c-5 -71 -61 -116 -141 -116z" />
    <glyph glyph-name="ebreve" unicode="&#x115;" horiz-adv-x="576" 
d="M532 255v-9h-412c3 -118 78 -192 193 -192c78 0 144 33 183 70l20 -62c-43 -39 -118 -72 -207 -72c-161 0 -260 117 -260 261c0 150 106 261 247 261c140 0 236 -107 236 -257zM124 301h334c-11 86 -72 149 -162 149c-83 0 -156 -60 -172 -149zM299 584
c-85 0 -137 54 -140 141h55c2 -62 36 -91 86 -91c53 0 83 33 86 91h54c-2 -87 -57 -141 -141 -141z" />
    <glyph glyph-name="Edotaccent" unicode="&#x116;" horiz-adv-x="578" 
d="M103 0v710h389v-68h-314v-252h305v-67h-305v-255h322v-68h-397zM302 790c-30 0 -53 23 -53 53s23 53 53 53s53 -23 53 -53s-23 -53 -53 -53z" />
    <glyph glyph-name="edotaccent" unicode="&#x117;" horiz-adv-x="576" 
d="M532 255v-9h-412c3 -118 78 -192 193 -192c78 0 144 33 183 70l20 -62c-43 -39 -118 -72 -207 -72c-161 0 -260 117 -260 261c0 150 106 261 247 261c140 0 236 -107 236 -257zM124 301h334c-11 86 -72 149 -162 149c-83 0 -156 -60 -172 -149zM300 612
c-30 0 -53 23 -53 53s23 53 53 53s53 -23 53 -53s-23 -53 -53 -53z" />
    <glyph glyph-name="Eogonek" unicode="&#x118;" horiz-adv-x="578" 
d="M457 0c-43 -23 -65 -53 -65 -90s22 -52 52 -52c15 0 29 3 42 8l12 -47c-16 -8 -42 -14 -67 -14c-60 0 -100 37 -100 91c0 43 25 80 65 104h-293v710h389v-68h-314v-252h305v-67h-305v-255h322v-68h-43z" />
    <glyph glyph-name="eogonek" unicode="&#x119;" horiz-adv-x="576" 
d="M532 255v-9h-412c3 -115 76 -192 194 -192c76 0 143 33 182 69l20 -61c-52 -49 -142 -76 -142 -152c0 -37 21 -52 51 -52c15 0 29 3 42 8l12 -47c-16 -8 -42 -14 -67 -14c-59 0 -99 37 -99 91c0 40 21 74 55 98c-19 -3 -38 -4 -58 -4c-162 0 -261 116 -261 261
c0 150 106 261 247 261c140 0 236 -107 236 -257zM124 301h334c-11 86 -72 149 -162 149c-83 0 -156 -60 -172 -149z" />
    <glyph glyph-name="Ecaron" unicode="&#x11a;" horiz-adv-x="578" 
d="M103 0v710h389v-68h-314v-252h305v-67h-305v-255h322v-68h-397zM460 904l-120 -130h-76l-120 130h66l92 -84l92 84h66z" />
    <glyph glyph-name="ecaron" unicode="&#x11b;" horiz-adv-x="576" 
d="M532 255v-9h-412c3 -118 78 -192 193 -192c78 0 144 33 183 70l20 -62c-43 -39 -118 -72 -207 -72c-161 0 -260 117 -260 261c0 150 106 261 247 261c140 0 236 -107 236 -257zM124 301h334c-11 86 -72 149 -162 149c-83 0 -156 -60 -172 -149zM263 573l-116 152h66
l88 -106l87 106h66l-116 -152h-75z" />
    <glyph glyph-name="Gcircumflex" unicode="&#x11c;" horiz-adv-x="821" 
d="M425 336h316v-336h-70v130c-33 -64 -120 -140 -260 -140c-202 0 -345 155 -345 365c0 212 158 365 366 365c111 0 192 -35 265 -86l-27 -71c-70 53 -140 85 -238 85c-167 0 -289 -121 -289 -294c0 -169 112 -292 274 -292c158 0 249 110 252 210h-244v64zM268 774
l120 130h76l120 -130h-66l-92 84l-92 -84h-66z" />
    <glyph glyph-name="gcircumflex" unicode="&#x11d;" horiz-adv-x="647" 
d="M486 502h70v-489c0 -154 -103 -232 -256 -232c-97 0 -164 30 -212 69l22 69c44 -40 105 -73 193 -73c110 0 183 54 183 168v92c-43 -76 -111 -109 -191 -109c-145 0 -246 108 -246 256c0 147 97 259 247 259c82 0 146 -36 190 -108v98zM306 62c111 0 185 84 185 193
c0 102 -78 192 -186 192c-112 0 -185 -85 -185 -193c0 -112 77 -192 186 -192zM153 573l120 152h76l120 -152h-66l-92 107l-92 -107h-66z" />
    <glyph glyph-name="Gbreve" unicode="&#x11e;" horiz-adv-x="821" 
d="M425 336h316v-336h-70v130c-33 -64 -120 -140 -260 -140c-202 0 -345 155 -345 365c0 212 158 365 366 365c111 0 192 -35 265 -86l-27 -71c-70 53 -140 85 -238 85c-167 0 -289 -121 -289 -294c0 -169 112 -292 274 -292c158 0 249 110 252 210h-244v64zM427 776
c-90 0 -139 45 -143 116h55c4 -43 37 -66 89 -66c49 0 81 25 86 66h54c-5 -71 -61 -116 -141 -116z" />
    <glyph glyph-name="gbreve" unicode="&#x11f;" horiz-adv-x="647" 
d="M486 502h70v-489c0 -154 -103 -232 -256 -232c-97 0 -164 30 -212 69l22 69c44 -40 105 -73 193 -73c110 0 183 54 183 168v92c-43 -76 -111 -109 -191 -109c-145 0 -246 108 -246 256c0 147 97 259 247 259c82 0 146 -36 190 -108v98zM306 62c111 0 185 84 185 193
c0 102 -78 192 -186 192c-112 0 -185 -85 -185 -193c0 -112 77 -192 186 -192zM310 584c-85 0 -137 54 -140 141h55c2 -62 36 -91 86 -91c53 0 83 33 86 91h54c-2 -87 -57 -141 -141 -141z" />
    <glyph glyph-name="Gdotaccent" unicode="&#x120;" horiz-adv-x="821" 
d="M425 336h316v-336h-70v130c-33 -64 -120 -140 -260 -140c-202 0 -345 155 -345 365c0 212 158 365 366 365c111 0 192 -35 265 -86l-27 -71c-70 53 -140 85 -238 85c-167 0 -289 -121 -289 -294c0 -169 112 -292 274 -292c158 0 249 110 252 210h-244v64zM426 790
c-30 0 -53 23 -53 53s23 53 53 53s53 -23 53 -53s-23 -53 -53 -53z" />
    <glyph glyph-name="gdotaccent" unicode="&#x121;" horiz-adv-x="647" 
d="M486 502h70v-489c0 -154 -103 -232 -256 -232c-97 0 -164 30 -212 69l22 69c44 -40 105 -73 193 -73c110 0 183 54 183 168v92c-43 -76 -111 -109 -191 -109c-145 0 -246 108 -246 256c0 147 97 259 247 259c82 0 146 -36 190 -108v98zM306 62c111 0 185 84 185 193
c0 102 -78 192 -186 192c-112 0 -185 -85 -185 -193c0 -112 77 -192 186 -192zM311 612c-30 0 -53 23 -53 53s23 53 53 53s53 -23 53 -53s-23 -53 -53 -53z" />
    <glyph glyph-name="Gcommaaccent" unicode="&#x122;" horiz-adv-x="821" 
d="M425 336h316v-336h-70v130c-33 -64 -120 -140 -260 -140c-202 0 -345 155 -345 365c0 212 158 365 366 365c111 0 192 -35 265 -86l-27 -71c-70 53 -140 85 -238 85c-167 0 -289 -121 -289 -294c0 -169 112 -292 274 -292c158 0 249 110 252 210h-244v64zM314 -219
l59 163h74l-71 -163h-62z" />
    <glyph glyph-name="gcommaaccent" unicode="&#x123;" horiz-adv-x="647" 
d="M486 502h70v-489c0 -154 -103 -232 -256 -232c-97 0 -164 30 -212 69l22 69c44 -40 105 -73 193 -73c110 0 183 54 183 168v92c-43 -76 -111 -109 -191 -109c-145 0 -246 108 -246 256c0 147 97 259 247 259c82 0 146 -36 190 -108v98zM306 62c111 0 185 84 185 193
c0 102 -78 192 -186 192c-112 0 -185 -85 -185 -193c0 -112 77 -192 186 -192zM254 573l77 165h62l-65 -165h-74z" />
    <glyph glyph-name="Hcircumflex" unicode="&#x124;" horiz-adv-x="759" 
d="M580 710h75v-710h-75v321h-402v-321h-75v710h75v-320h402v320zM222 774l120 130h76l120 -130h-66l-92 84l-92 -84h-66z" />
    <glyph glyph-name="hcircumflex" unicode="&#x125;" horiz-adv-x="615" 
d="M345 513c113 0 183 -67 183 -205v-308h-70v290c0 104 -46 159 -133 159c-92 0 -162 -67 -162 -161v-288h-70v752h70v-341c33 63 97 102 182 102zM-30 794l120 130h76l120 -130h-66l-92 84l-92 -84h-66z" />
    <glyph glyph-name="Hbar" unicode="&#x126;" horiz-adv-x="759" 
d="M580 710h75v-710h-75v321h-402v-321h-75v710h75v-123h402v123zM178 390h402v132h-402v-132z" />
    <glyph glyph-name="hbar" unicode="&#x127;" horiz-adv-x="615" 
d="M345 508c113 0 183 -67 183 -205v-303h-70v285c0 104 -46 159 -133 159c-92 0 -162 -67 -162 -161v-283h-70v596h-73v57h73v99h70v-99h169v-57h-169v-190c33 63 97 102 182 102z" />
    <glyph glyph-name="Itilde" unicode="&#x128;" horiz-adv-x="282" 
d="M103 0v710h75v-710h-75zM-18 774c8 69 38 98 79 98c21 0 51 -9 89 -24c25 -10 46 -19 63 -19c21 0 29 13 33 43h51c-8 -61 -34 -98 -79 -98c-26 0 -56 12 -86 24s-50 19 -64 19c-21 0 -28 -13 -35 -43h-51z" />
    <glyph glyph-name="itilde" unicode="&#x129;" horiz-adv-x="255" 
d="M93 0v502h70v-502h-70zM-9 597c6 68 31 98 73 98c23 0 47 -12 72 -24c23 -11 38 -19 50 -19c16 0 27 14 30 43h51c-7 -65 -31 -98 -73 -98c-22 0 -46 12 -72 24c-24 12 -40 19 -52 19c-15 0 -24 -12 -29 -43h-50z" />
    <glyph glyph-name="Imacron" unicode="&#x12a;" horiz-adv-x="282" 
d="M103 0v710h75v-710h-75zM-17 810v53h313v-53h-313z" />
    <glyph glyph-name="imacron" unicode="&#x12b;" horiz-adv-x="255" 
d="M93 0v502h70v-502h-70zM1 625v54h253v-54h-253z" />
    <glyph glyph-name="Ibreve" unicode="&#x12c;" horiz-adv-x="282" 
d="M103 0v710h75v-710h-75zM142 776c-90 0 -139 45 -143 116h55c4 -43 37 -66 89 -66c49 0 81 25 86 66h54c-5 -71 -61 -116 -141 -116z" />
    <glyph glyph-name="ibreve" unicode="&#x12d;" horiz-adv-x="255" 
d="M93 0v502h70v-502h-70zM128 584c-78 0 -127 50 -130 141h55c2 -67 32 -91 76 -91c47 0 73 29 76 91h54c-2 -91 -53 -141 -131 -141z" />
    <glyph glyph-name="Iogonek" unicode="&#x12e;" horiz-adv-x="282" 
d="M201 -134l12 -47c-16 -8 -42 -14 -67 -14c-60 0 -100 37 -100 91c0 43 25 80 65 104h-8v710h75v-710h-6c-43 -23 -65 -53 -65 -90s22 -52 52 -52c15 0 29 3 42 8z" />
    <glyph glyph-name="iogonek" unicode="&#x12f;" horiz-adv-x="255" 
d="M129 612c-30 0 -53 23 -53 53s23 53 53 53s53 -23 53 -53s-23 -53 -53 -53zM186 -134l12 -47c-16 -8 -42 -14 -67 -14c-60 0 -100 37 -100 91c0 43 25 80 65 104h-3v502h70v-502h-6c-43 -23 -65 -53 -65 -90s22 -52 52 -52c15 0 29 3 42 8z" />
    <glyph glyph-name="Idotaccent" unicode="&#x130;" horiz-adv-x="282" 
d="M141 790c-30 0 -53 23 -53 53s23 53 53 53s53 -23 53 -53s-23 -53 -53 -53zM103 0v710h75v-710h-75z" />
    <glyph glyph-name="dotlessi" unicode="&#x131;" horiz-adv-x="255" 
d="M93 0v502h70v-502h-70z" />
    <glyph glyph-name="IJ" unicode="&#x132;" horiz-adv-x="680" 
d="M103 0v710h75v-710h-75zM385 -10c-33 0 -70 6 -103 21l15 67c24 -12 55 -20 81 -20c78 0 132 55 132 176v476h75v-485c0 -154 -77 -235 -200 -235z" />
    <glyph glyph-name="ij" unicode="&#x133;" horiz-adv-x="512" 
d="M129 612c-30 0 -53 23 -53 53s23 53 53 53s53 -23 53 -53s-23 -53 -53 -53zM93 0v502h70v-502h-70zM384 612c-30 0 -53 23 -53 53s23 53 53 53s53 -23 53 -53s-23 -53 -53 -53zM296 -219c-24 0 -47 4 -62 10l10 62c13 -4 25 -6 39 -6c46 0 65 21 65 104v551h70v-561
c0 -116 -44 -160 -122 -160z" />
    <glyph glyph-name="Jcircumflex" unicode="&#x134;" horiz-adv-x="398" 
d="M103 -10c-33 0 -70 6 -103 21l15 67c24 -12 55 -20 81 -20c78 0 132 55 132 176v476h75v-485c0 -154 -77 -235 -200 -235zM107 774l120 130h76l120 -130h-66l-92 84l-92 -84h-66z" />
    <glyph glyph-name="jcircumflex" unicode="&#x135;" horiz-adv-x="257" 
d="M41 -219c-24 0 -47 4 -62 10l10 62c13 -4 25 -6 39 -6c46 0 65 21 65 104v551h70v-561c0 -116 -44 -160 -122 -160zM-9 573l100 152h76l100 -152h-66l-72 106l-72 -106h-66z" />
    <glyph glyph-name="Kcommaaccent" unicode="&#x136;" horiz-adv-x="619" 
d="M613 0h-100l-335 358v-358h-75v710h75v-350l313 350h94l-313 -345zM239 -219l59 163h74l-71 -163h-62z" />
    <glyph glyph-name="kcommaaccent" unicode="&#x137;" horiz-adv-x="513" 
d="M93 0v752h70v-488l236 238h94l-243 -237l252 -265h-96l-243 259v-259h-70zM179 -219l59 163h74l-71 -163h-62z" />
    <glyph glyph-name="kgreenlandic" unicode="&#x138;" horiz-adv-x="513" 
d="M93 0v502h70v-238l236 238h94l-243 -237l252 -265h-96l-243 259v-259h-70z" />
    <glyph glyph-name="Lacute" unicode="&#x139;" horiz-adv-x="515" 
d="M178 69h317v-69h-392v710h75v-641zM105 774l115 143h79l-128 -143h-66z" />
    <glyph glyph-name="lacute" unicode="&#x13a;" horiz-adv-x="286" 
d="M193 -10c-63 0 -103 37 -103 120v642h70v-632c0 -47 19 -66 49 -66c22 0 42 9 52 13l11 -59c-16 -9 -44 -18 -79 -18zM94 795l115 143h79l-128 -143h-66z" />
    <glyph glyph-name="Lcommaaccent" unicode="&#x13b;" horiz-adv-x="515" 
d="M178 69h317v-69h-392v710h75v-641zM206 -219l59 163h74l-71 -163h-62z" />
    <glyph glyph-name="lcommaaccent" unicode="&#x13c;" horiz-adv-x="286" 
d="M193 -10c-63 0 -103 37 -103 120v642h70v-632c0 -47 19 -66 49 -66c22 0 42 9 52 13l11 -59c-16 -9 -44 -18 -79 -18zM77 -219l59 163h74l-71 -163h-62z" />
    <glyph glyph-name="Lcaron" unicode="&#x13d;" horiz-adv-x="515" 
d="M178 69h317v-69h-392v710h75v-641zM333 500l62 210h73l-77 -210h-58z" />
    <glyph glyph-name="lcaron" unicode="&#x13e;" horiz-adv-x="340" 
d="M193 -10c-63 0 -103 37 -103 120v642h70v-632c0 -47 19 -66 49 -66c22 0 42 9 52 13l11 -59c-16 -9 -44 -18 -79 -18zM234 542l62 210h73l-77 -210h-58z" />
    <glyph glyph-name="Ldot" unicode="&#x13f;" horiz-adv-x="515" 
d="M178 69h317v-69h-392v710h75v-641zM401 337c-30 0 -53 23 -53 53s23 53 53 53s53 -23 53 -53s-23 -53 -53 -53z" />
    <glyph glyph-name="ldot" unicode="&#x140;" horiz-adv-x="301" 
d="M193 -10c-63 0 -103 37 -103 120v642h70v-632c0 -47 19 -66 49 -66c22 0 42 9 52 13l11 -59c-16 -9 -44 -18 -79 -18zM277 346c-30 0 -53 23 -53 53s23 53 53 53s53 -23 53 -53s-23 -53 -53 -53z" />
    <glyph glyph-name="Lslash" unicode="&#x141;" horiz-adv-x="515" 
d="M178 69h317v-69h-392v279l-78 -45v72l78 45v359h75v-315l153 88v-73l-153 -88v-253z" />
    <glyph glyph-name="lslash" unicode="&#x142;" horiz-adv-x="289" 
d="M263 67l11 -59c-16 -9 -44 -18 -79 -18c-63 0 -103 37 -103 120v218l-71 -41v66l71 41v358h70v-318l98 57v-66l-98 -57v-248c0 -47 19 -66 49 -66c22 0 42 9 52 13z" />
    <glyph glyph-name="Nacute" unicode="&#x143;" horiz-adv-x="776" 
d="M599 710h74v-710h-71l-425 591v-591h-74v710h71l425 -591v591zM338 774l115 143h79l-128 -143h-66z" />
    <glyph glyph-name="nacute" unicode="&#x144;" horiz-adv-x="615" 
d="M347 512c112 0 181 -67 181 -205v-307h-70v288c0 105 -46 160 -133 160c-94 0 -162 -68 -162 -162v-286h-70v502h70v-93c33 63 98 103 184 103zM268 573l111 152h74l-119 -152h-66z" />
    <glyph glyph-name="Ncommaaccent" unicode="&#x145;" horiz-adv-x="776" 
d="M599 710h74v-710h-71l-425 591v-591h-74v710h71l425 -591v591zM291 -219l59 163h74l-71 -163h-62z" />
    <glyph glyph-name="ncommaaccent" unicode="&#x146;" horiz-adv-x="615" 
d="M347 512c112 0 181 -67 181 -205v-307h-70v288c0 105 -46 160 -133 160c-94 0 -162 -68 -162 -162v-286h-70v502h70v-93c33 63 98 103 184 103zM225 -219l59 163h74l-71 -163h-62z" />
    <glyph glyph-name="Ncaron" unicode="&#x147;" horiz-adv-x="776" 
d="M599 710h74v-710h-71l-425 591v-591h-74v710h71l425 -591v591zM554 904l-120 -130h-76l-120 130h66l92 -84l92 84h66z" />
    <glyph glyph-name="ncaron" unicode="&#x148;" horiz-adv-x="615" 
d="M347 512c112 0 181 -67 181 -205v-307h-70v288c0 105 -46 160 -133 160c-94 0 -162 -68 -162 -162v-286h-70v502h70v-93c33 63 98 103 184 103zM286 573l-116 152h66l88 -106l87 106h66l-116 -152h-75z" />
    <glyph glyph-name="napostrophe" unicode="&#x149;" horiz-adv-x="638" 
d="M370 512c112 0 181 -67 181 -205v-307h-70v288c0 105 -46 160 -133 160c-94 0 -162 -68 -162 -162v-286h-70v502h70v-93c33 63 98 103 184 103zM-36 507l67 203h78l-83 -203h-62z" />
    <glyph glyph-name="Eng" unicode="&#x14a;" horiz-adv-x="776" 
d="M599 710h74v-713c0 -135 -78 -218 -197 -218c-37 0 -71 6 -104 21l15 65c24 -12 53 -20 79 -20c87 0 133 53 133 149v26l-422 572v-592h-74v710h71l425 -575v575z" />
    <glyph glyph-name="eng" unicode="&#x14b;" horiz-adv-x="615" 
d="M406 -219c-23 0 -46 4 -61 10l10 62c13 -4 26 -6 39 -6c46 0 64 21 64 104v337c0 105 -46 160 -133 160c-94 0 -162 -68 -162 -162v-286h-70v502h70v-95c32 64 96 105 184 105c112 0 181 -67 181 -205v-366c0 -117 -38 -160 -122 -160z" />
    <glyph glyph-name="Omacron" unicode="&#x14c;" horiz-adv-x="871" 
d="M435 -10c-211 0 -369 154 -369 365c0 212 158 365 370 365c211 0 369 -154 369 -364c0 -211 -158 -366 -370 -366zM436 62c169 0 293 125 293 293c0 169 -124 294 -293 294c-170 0 -294 -125 -294 -294c0 -168 124 -293 294 -293zM277 810v53h313v-53h-313z" />
    <glyph glyph-name="omacron" unicode="&#x14d;" horiz-adv-x="624" 
d="M312 -10c-155 0 -263 108 -263 261s108 261 263 261s263 -108 263 -261s-108 -261 -263 -261zM312 57c114 0 192 79 192 194c0 116 -80 194 -192 194c-114 0 -191 -79 -191 -193c0 -117 79 -195 191 -195zM154 625v54h313v-54h-313z" />
    <glyph glyph-name="Obreve" unicode="&#x14e;" horiz-adv-x="871" 
d="M435 -10c-211 0 -369 154 -369 365c0 212 158 365 370 365c211 0 369 -154 369 -364c0 -211 -158 -366 -370 -366zM436 62c169 0 293 125 293 293c0 169 -124 294 -293 294c-170 0 -294 -125 -294 -294c0 -168 124 -293 294 -293zM436 776c-90 0 -139 45 -143 116h55
c4 -43 37 -66 89 -66c49 0 81 25 86 66h54c-5 -71 -61 -116 -141 -116z" />
    <glyph glyph-name="obreve" unicode="&#x14f;" horiz-adv-x="624" 
d="M312 -10c-155 0 -263 108 -263 261s108 261 263 261s263 -108 263 -261s-108 -261 -263 -261zM312 57c114 0 192 79 192 194c0 116 -80 194 -192 194c-114 0 -191 -79 -191 -193c0 -117 79 -195 191 -195zM311 584c-85 0 -137 54 -140 141h55c2 -62 36 -91 86 -91
c53 0 83 33 86 91h54c-2 -87 -57 -141 -141 -141z" />
    <glyph glyph-name="Ohungarumlaut" unicode="&#x150;" horiz-adv-x="871" 
d="M435 -10c-211 0 -369 154 -369 365c0 212 158 365 370 365c211 0 369 -154 369 -364c0 -211 -158 -366 -370 -366zM436 62c169 0 293 125 293 293c0 169 -124 294 -293 294c-170 0 -294 -125 -294 -294c0 -168 124 -293 294 -293zM318 774l116 144h74l-124 -144h-66z
M464 774l116 144h74l-124 -144h-66z" />
    <glyph glyph-name="ohungarumlaut" unicode="&#x151;" horiz-adv-x="624" 
d="M312 -10c-155 0 -263 108 -263 261s108 261 263 261s263 -108 263 -261s-108 -261 -263 -261zM312 57c114 0 192 79 192 194c0 116 -80 194 -192 194c-114 0 -191 -79 -191 -193c0 -117 79 -195 191 -195zM185 573l112 152h74l-120 -152h-66zM331 573l112 152h74
l-120 -152h-66z" />
    <glyph glyph-name="OE" unicode="&#x152;" horiz-adv-x="1204" 
d="M805 68h321v-68h-396v136c-64 -89 -169 -146 -297 -146c-208 0 -367 153 -367 365s159 365 368 365c127 0 232 -57 296 -144v134h388v-68h-313v-252h304v-67h-304v-255zM435 62c169 0 294 125 294 293s-124 293 -293 293s-293 -124 -293 -293s124 -293 292 -293z" />
    <glyph glyph-name="oe" unicode="&#x153;" horiz-adv-x="1031" 
d="M987 255v-9h-412c3 -118 78 -192 193 -192c78 0 144 33 183 70l20 -62c-43 -39 -118 -72 -207 -72c-104 0 -182 49 -224 122c-44 -75 -126 -122 -228 -122c-155 0 -263 108 -263 261s108 261 263 261c102 0 183 -47 227 -122c43 75 120 122 212 122
c140 0 236 -107 236 -257zM579 301h334c-11 86 -72 149 -162 149c-83 0 -156 -60 -172 -149zM312 57c114 0 192 79 192 194c0 116 -80 194 -192 194c-114 0 -191 -79 -191 -193c0 -117 79 -195 191 -195z" />
    <glyph glyph-name="Racute" unicode="&#x154;" horiz-adv-x="632" 
d="M598 0h-89l-194 297h-16h-121v-297h-75v710h204c138 0 224 -79 224 -203c0 -91 -53 -166 -142 -196zM297 361c80 0 158 40 158 144c0 102 -76 139 -155 139h-122v-283h119zM244 774l115 143h79l-128 -143h-66z" />
    <glyph glyph-name="racute" unicode="&#x155;" horiz-adv-x="364" 
d="M292 513c22 0 45 -4 61 -11l-17 -68c-15 5 -32 10 -51 10c-84 0 -123 -74 -123 -177v-267h-69v502h69v-90c29 75 73 101 130 101zM171 573l111 152h74l-119 -152h-66z" />
    <glyph glyph-name="Rcommaaccent" unicode="&#x156;" horiz-adv-x="632" 
d="M598 0h-89l-194 297h-16h-121v-297h-75v710h204c138 0 224 -79 224 -203c0 -91 -53 -166 -142 -196zM297 361c80 0 158 40 158 144c0 102 -76 139 -155 139h-122v-283h119zM241 -219l59 163h74l-71 -163h-62z" />
    <glyph glyph-name="rcommaaccent" unicode="&#x157;" horiz-adv-x="364" 
d="M292 513c22 0 45 -4 61 -11l-17 -68c-15 5 -32 10 -51 10c-84 0 -123 -74 -123 -177v-267h-69v502h69v-90c29 75 73 101 130 101zM28 -219l59 163h74l-71 -163h-62z" />
    <glyph glyph-name="Rcaron" unicode="&#x158;" horiz-adv-x="632" 
d="M598 0h-89l-194 297h-16h-121v-297h-75v710h204c138 0 224 -79 224 -203c0 -91 -53 -166 -142 -196zM297 361c80 0 158 40 158 144c0 102 -76 139 -155 139h-122v-283h119zM460 904l-120 -130h-76l-120 130h66l92 -84l92 84h66z" />
    <glyph glyph-name="rcaron" unicode="&#x159;" horiz-adv-x="364" 
d="M292 513c22 0 45 -4 61 -11l-17 -68c-15 5 -32 10 -51 10c-84 0 -123 -74 -123 -177v-267h-69v502h69v-90c29 75 73 101 130 101zM364 726l-100 -152h-76l-100 152h66l72 -106l72 106h66z" />
    <glyph glyph-name="Sacute" unicode="&#x15a;" horiz-adv-x="583" 
d="M285 -10c-82 0 -162 27 -221 71l21 73c53 -45 129 -75 206 -75c92 0 150 44 150 127c0 81 -64 105 -162 141c-106 39 -199 81 -199 202c0 118 92 192 227 192c69 0 137 -20 185 -46l-18 -71c-46 27 -111 49 -172 49c-89 0 -148 -46 -148 -119c0 -80 65 -107 157 -142
c107 -41 204 -69 204 -201c0 -129 -95 -201 -230 -201zM236 774l115 143h79l-128 -143h-66z" />
    <glyph glyph-name="sacute" unicode="&#x15b;" horiz-adv-x="480" 
d="M235 -10c-70 0 -140 23 -175 54l19 62c34 -30 94 -57 160 -57c69 0 112 32 112 84s-45 67 -124 92c-76 23 -152 50 -152 143c0 90 72 144 177 144c64 0 117 -20 152 -42l-15 -62c-32 21 -81 45 -139 45c-63 0 -105 -29 -105 -78c0 -53 52 -71 116 -89
c85 -24 159 -54 159 -146c0 -89 -68 -150 -185 -150zM187 573l111 152h74l-119 -152h-66z" />
    <glyph glyph-name="Scircumflex" unicode="&#x15c;" horiz-adv-x="583" 
d="M285 -10c-82 0 -162 27 -221 71l21 73c53 -45 129 -75 206 -75c92 0 150 44 150 127c0 81 -64 105 -162 141c-106 39 -199 81 -199 202c0 118 92 192 227 192c69 0 137 -20 185 -46l-18 -71c-46 27 -111 49 -172 49c-89 0 -148 -46 -148 -119c0 -80 65 -107 157 -142
c107 -41 204 -69 204 -201c0 -129 -95 -201 -230 -201zM136 774l120 130h76l120 -130h-66l-92 84l-92 -84h-66z" />
    <glyph glyph-name="scircumflex" unicode="&#x15d;" horiz-adv-x="480" 
d="M235 -10c-70 0 -140 23 -175 54l19 62c34 -30 94 -57 160 -57c69 0 112 32 112 84s-45 67 -124 92c-76 23 -152 50 -152 143c0 90 72 144 177 144c64 0 117 -20 152 -42l-15 -62c-32 21 -81 45 -139 45c-63 0 -105 -29 -105 -78c0 -53 52 -71 116 -89
c85 -24 159 -54 159 -146c0 -89 -68 -150 -185 -150zM84 573l120 152h76l120 -152h-66l-92 107l-92 -107h-66z" />
    <glyph glyph-name="Scedilla" unicode="&#x15e;" horiz-adv-x="583" 
d="M515 191c0 -122 -85 -193 -209 -200v-35c38 -12 63 -39 63 -78c0 -53 -42 -92 -142 -92v52c64 0 83 17 83 41c0 25 -24 36 -53 36v76c-72 5 -141 31 -193 70l21 73c53 -45 129 -75 206 -75c92 0 150 44 150 127c0 81 -64 105 -162 141c-106 39 -199 81 -199 202
c0 118 92 192 227 192c69 0 137 -20 185 -46l-18 -71c-46 27 -111 49 -172 49c-89 0 -148 -46 -148 -119c0 -80 65 -107 157 -142c107 -41 204 -69 204 -201z" />
    <glyph glyph-name="scedilla" unicode="&#x15f;" horiz-adv-x="480" 
d="M420 140c0 -83 -59 -142 -162 -149v-35c38 -12 63 -39 63 -78c0 -53 -42 -92 -142 -92v52c64 0 83 17 83 41c0 25 -24 36 -53 36v76c-61 5 -118 26 -149 53l19 62c34 -30 94 -57 160 -57c69 0 112 32 112 84s-45 67 -124 92c-76 23 -152 50 -152 143c0 90 72 144 177 144
c64 0 117 -20 152 -42l-15 -62c-32 21 -81 45 -139 45c-63 0 -105 -29 -105 -78c0 -53 52 -71 116 -89c85 -24 159 -54 159 -146z" />
    <glyph glyph-name="Scaron" unicode="&#x160;" horiz-adv-x="583" 
d="M285 -10c-82 0 -162 27 -221 71l21 73c53 -45 129 -75 206 -75c92 0 150 44 150 127c0 81 -64 105 -162 141c-106 39 -199 81 -199 202c0 118 92 192 227 192c69 0 137 -20 185 -46l-18 -71c-46 27 -111 49 -172 49c-89 0 -148 -46 -148 -119c0 -80 65 -107 157 -142
c107 -41 204 -69 204 -201c0 -129 -95 -201 -230 -201zM452 904l-120 -130h-76l-120 130h66l92 -84l92 84h66z" />
    <glyph glyph-name="scaron" unicode="&#x161;" horiz-adv-x="480" 
d="M235 -10c-70 0 -140 23 -175 54l19 62c34 -30 94 -57 160 -57c69 0 112 32 112 84s-45 67 -124 92c-76 23 -152 50 -152 143c0 90 72 144 177 144c64 0 117 -20 152 -42l-15 -62c-32 21 -81 45 -139 45c-63 0 -105 -29 -105 -78c0 -53 52 -71 116 -89
c85 -24 159 -54 159 -146c0 -89 -68 -150 -185 -150zM205 573l-116 152h66l88 -106l87 106h66l-116 -152h-75z" />
    <glyph glyph-name="uni0162" unicode="&#x162;" horiz-adv-x="522" 
d="M301 0h-13v-44c38 -12 63 -39 63 -78c0 -53 -42 -92 -142 -92v52c64 0 83 17 83 41c0 25 -24 36 -53 36v85h-13v642h-201v68h472v-68h-196v-642z" />
    <glyph glyph-name="uni0163" unicode="&#x163;" horiz-adv-x="359" 
d="M239 -44c38 -12 63 -39 63 -78c0 -53 -42 -92 -142 -92v52c64 0 83 17 83 41c0 25 -24 36 -53 36v82c-49 16 -80 58 -80 129v315h-71v61h71v147l70 12v-159h146v-61h-146v-307c0 -52 26 -78 71 -78c38 0 69 17 90 30l14 -61c-25 -18 -67 -35 -116 -35v-34z" />
    <glyph glyph-name="Tcaron" unicode="&#x164;" horiz-adv-x="522" 
d="M497 710v-68h-196v-642h-75v642h-201v68h472zM419 904l-120 -130h-76l-120 130h66l92 -84l92 84h66z" />
    <glyph glyph-name="tcaron" unicode="&#x165;" horiz-adv-x="366" 
d="M238 -10c-76 0 -128 44 -128 136v315h-71v61h71v147l70 12v-159h146v-61h-146v-307c0 -52 26 -78 71 -78c38 0 69 17 90 30l14 -61c-25 -18 -68 -35 -117 -35zM279 564l62 210h73l-77 -210h-58z" />
    <glyph glyph-name="Tbar" unicode="&#x166;" horiz-adv-x="522" 
d="M497 642h-196v-219h165v-68h-165v-355h-75v355h-168v68h168v219h-201v68h472v-68z" />
    <glyph glyph-name="tbar" unicode="&#x167;" horiz-adv-x="359" 
d="M341 86l14 -61c-25 -18 -68 -35 -117 -35c-76 0 -128 44 -128 136v138h-71v56h71v121h-71v61h71v147l70 12v-159h146v-61h-146v-121h146v-56h-146v-130c0 -52 26 -78 71 -78c38 0 69 17 90 30z" />
    <glyph glyph-name="Utilde" unicode="&#x168;" horiz-adv-x="741" 
d="M371 -10c-173 0 -273 109 -273 270v450h75v-437c0 -143 83 -211 198 -211s198 68 198 211v437h75v-450c0 -161 -101 -270 -273 -270zM213 774c8 69 38 98 79 98c21 0 51 -9 89 -24c25 -10 46 -19 63 -19c21 0 29 13 33 43h51c-8 -61 -34 -98 -79 -98c-26 0 -56 12 -86 24
s-50 19 -64 19c-21 0 -28 -13 -35 -43h-51z" />
    <glyph glyph-name="utilde" unicode="&#x169;" horiz-adv-x="615" 
d="M452 502h70v-502h-70v95c-32 -65 -97 -105 -185 -105c-111 0 -181 66 -181 204v308h70v-289c0 -105 47 -160 134 -160c94 0 162 68 162 163v286zM151 597c8 70 43 98 81 98c24 0 55 -11 87 -24c28 -12 45 -19 59 -19c20 0 33 14 37 43h51c-9 -68 -43 -98 -82 -98
c-24 0 -52 11 -83 24s-49 19 -63 19c-16 0 -28 -8 -36 -43h-51z" />
    <glyph glyph-name="Umacron" unicode="&#x16a;" horiz-adv-x="741" 
d="M371 -10c-173 0 -273 109 -273 270v450h75v-437c0 -143 83 -211 198 -211s198 68 198 211v437h75v-450c0 -161 -101 -270 -273 -270zM214 810v53h313v-53h-313z" />
    <glyph glyph-name="umacron" unicode="&#x16b;" horiz-adv-x="615" 
d="M452 502h70v-502h-70v95c-32 -65 -97 -105 -185 -105c-111 0 -181 66 -181 204v308h70v-289c0 -105 47 -160 134 -160c94 0 162 68 162 163v286zM152 625v54h313v-54h-313z" />
    <glyph glyph-name="Ubreve" unicode="&#x16c;" horiz-adv-x="741" 
d="M371 -10c-173 0 -273 109 -273 270v450h75v-437c0 -143 83 -211 198 -211s198 68 198 211v437h75v-450c0 -161 -101 -270 -273 -270zM373 776c-90 0 -139 45 -143 116h55c4 -43 37 -66 89 -66c49 0 81 25 86 66h54c-5 -71 -61 -116 -141 -116z" />
    <glyph glyph-name="ubreve" unicode="&#x16d;" horiz-adv-x="615" 
d="M452 502h70v-502h-70v95c-32 -65 -97 -105 -185 -105c-111 0 -181 66 -181 204v308h70v-289c0 -105 47 -160 134 -160c94 0 162 68 162 163v286zM309 584c-85 0 -137 54 -140 141h55c2 -62 36 -91 86 -91c53 0 83 33 86 91h54c-2 -87 -57 -141 -141 -141z" />
    <glyph glyph-name="Uring" unicode="&#x16e;" horiz-adv-x="741" 
d="M371 -10c-173 0 -273 109 -273 270v450h75v-437c0 -143 83 -211 198 -211s198 68 198 211v437h75v-450c0 -161 -101 -270 -273 -270zM371 749c-60 0 -98 43 -98 95c0 54 42 96 99 96s98 -42 98 -96c0 -56 -43 -95 -99 -95zM372 796c29 0 48 21 48 48c0 28 -19 48 -48 48
s-49 -20 -49 -48c0 -27 20 -48 49 -48z" />
    <glyph glyph-name="uring" unicode="&#x16f;" horiz-adv-x="615" 
d="M452 502h70v-502h-70v95c-32 -65 -97 -105 -185 -105c-111 0 -181 66 -181 204v308h70v-289c0 -105 47 -160 134 -160c94 0 162 68 162 163v286zM309 562c-60 0 -98 44 -98 97c0 56 42 97 100 97c57 0 99 -41 99 -97c0 -59 -45 -97 -101 -97zM311 611c29 0 48 19 48 48
s-19 48 -48 48c-30 0 -49 -19 -49 -48s19 -48 49 -48z" />
    <glyph glyph-name="Uhungarumlaut" unicode="&#x170;" horiz-adv-x="741" 
d="M371 -10c-173 0 -273 109 -273 270v450h75v-437c0 -143 83 -211 198 -211s198 68 198 211v437h75v-450c0 -161 -101 -270 -273 -270zM255 774l116 144h74l-124 -144h-66zM401 774l116 144h74l-124 -144h-66z" />
    <glyph glyph-name="uhungarumlaut" unicode="&#x171;" horiz-adv-x="615" 
d="M452 502h70v-502h-70v95c-32 -65 -97 -105 -185 -105c-111 0 -181 66 -181 204v308h70v-289c0 -105 47 -160 134 -160c94 0 162 68 162 163v286zM183 573l112 152h74l-120 -152h-66zM329 573l112 152h74l-120 -152h-66z" />
    <glyph glyph-name="Uogonek" unicode="&#x172;" horiz-adv-x="741" 
d="M569 710h75v-452c0 -107 -49 -172 -113 -222c-32 -26 -87 -66 -87 -127c0 -35 21 -51 52 -51c13 0 28 3 41 8l12 -47c-16 -8 -42 -14 -66 -14c-61 0 -100 36 -100 91c0 41 18 75 48 99c-19 -4 -40 -5 -61 -5c-171 0 -272 123 -272 268v452h75v-440
c0 -132 83 -208 198 -208s198 76 198 208v440z" />
    <glyph glyph-name="uogonek" unicode="&#x173;" horiz-adv-x="615" 
d="M552 -134l12 -47c-16 -8 -42 -14 -67 -14c-60 0 -100 37 -100 91c0 43 25 80 65 104h-10v95c-32 -65 -97 -105 -185 -105c-111 0 -181 66 -181 204v308h70v-289c0 -105 47 -160 134 -160c94 0 162 68 162 163v286h70v-502h1c-43 -23 -65 -53 -65 -90s22 -52 52 -52
c15 0 29 3 42 8z" />
    <glyph glyph-name="Wcircumflex" unicode="&#x174;" horiz-adv-x="971" 
d="M871 710h76l-204 -710h-77l-180 602l-182 -602h-76l-204 710h80l167 -601l180 601h75l178 -598zM331 774l120 130h76l120 -130h-66l-92 84l-92 -84h-66z" />
    <glyph glyph-name="wcircumflex" unicode="&#x175;" horiz-adv-x="778" 
d="M689 502h75l-166 -502h-73l-134 413l-135 -413h-73l-169 502h77l133 -418l135 418h64l135 -415zM232 573l120 152h76l120 -152h-66l-92 107l-92 -107h-66z" />
    <glyph glyph-name="Ycircumflex" unicode="&#x176;" horiz-adv-x="584" 
d="M582 710l-253 -426v-284h-74v284l-253 426h84l209 -352l208 352h79zM132 774l120 130h76l120 -130h-66l-92 84l-92 -84h-66z" />
    <glyph glyph-name="ycircumflex" unicode="&#x177;" horiz-adv-x="489" 
d="M410 502h75l-235 -574c-40 -98 -95 -143 -178 -143c-19 0 -39 2 -58 8l10 64c11 -3 23 -5 38 -5c54 0 91 20 125 99l32 74l-215 477h77l175 -394zM88 573l120 152h76l120 -152h-66l-92 107l-92 -107h-66z" />
    <glyph glyph-name="Ydieresis" unicode="&#x178;" horiz-adv-x="584" 
d="M582 710l-253 -426v-284h-74v284l-253 426h84l209 -352l208 352h79zM185 795c-28 0 -50 22 -50 49c0 28 22 50 50 50c27 0 49 -22 49 -50c0 -27 -22 -49 -49 -49zM397 795c-28 0 -49 22 -49 49c0 28 21 50 49 50s50 -22 50 -50c0 -27 -22 -49 -50 -49z" />
    <glyph glyph-name="Zacute" unicode="&#x179;" horiz-adv-x="621" 
d="M174 68h384v-68h-488v39l382 603h-372v68h474v-38zM255 774l115 143h79l-128 -143h-66z" />
    <glyph glyph-name="zacute" unicode="&#x17a;" horiz-adv-x="492" 
d="M48 0v33l287 408h-278v61h377v-35l-283 -406h289v-61h-392zM190 573l111 152h74l-119 -152h-66z" />
    <glyph glyph-name="Zdotaccent" unicode="&#x17b;" horiz-adv-x="621" 
d="M174 68h384v-68h-488v39l382 603h-372v68h474v-38zM313 790c-30 0 -53 23 -53 53s23 53 53 53s53 -23 53 -53s-23 -53 -53 -53z" />
    <glyph glyph-name="zdotaccent" unicode="&#x17c;" horiz-adv-x="492" 
d="M48 0v33l287 408h-278v61h377v-35l-283 -406h289v-61h-392zM245 612c-30 0 -53 23 -53 53s23 53 53 53s53 -23 53 -53s-23 -53 -53 -53z" />
    <glyph glyph-name="Zcaron" unicode="&#x17d;" horiz-adv-x="621" 
d="M174 68h384v-68h-488v39l382 603h-372v68h474v-38zM471 904l-120 -130h-76l-120 130h66l92 -84l92 84h66z" />
    <glyph glyph-name="zcaron" unicode="&#x17e;" horiz-adv-x="492" 
d="M48 0v33l287 408h-278v61h377v-35l-283 -406h289v-61h-392zM208 573l-116 152h66l88 -106l87 106h66l-116 -152h-75z" />
    <glyph glyph-name="florin" unicode="&#x192;" horiz-adv-x="582" 
d="M118 -169c-33 0 -70 9 -94 21l27 63c15 -10 42 -19 68 -19c44 0 76 31 89 107l77 438h-88l11 61h88l16 90c19 102 74 162 158 162c32 0 69 -11 91 -25l-24 -59c-15 10 -42 19 -68 19c-44 0 -76 -32 -89 -104l-14 -83h122l-11 -61h-122l-79 -448
c-18 -103 -75 -162 -158 -162z" />
    <glyph glyph-name="Scommaaccent" unicode="&#x218;" horiz-adv-x="583" 
d="M285 -10c-82 0 -162 27 -221 71l21 73c53 -45 129 -75 206 -75c92 0 150 44 150 127c0 81 -64 105 -162 141c-106 39 -199 81 -199 202c0 118 92 192 227 192c69 0 137 -20 185 -46l-18 -71c-46 27 -111 49 -172 49c-89 0 -148 -46 -148 -119c0 -80 65 -107 157 -142
c107 -41 204 -69 204 -201c0 -129 -95 -201 -230 -201zM182 -219l59 163h74l-71 -163h-62z" />
    <glyph glyph-name="scommaaccent" unicode="&#x219;" horiz-adv-x="480" 
d="M235 -10c-70 0 -140 23 -175 54l19 62c34 -30 94 -57 160 -57c69 0 112 32 112 84s-45 67 -124 92c-76 23 -152 50 -152 143c0 90 72 144 177 144c64 0 117 -20 152 -42l-15 -62c-32 21 -81 45 -139 45c-63 0 -105 -29 -105 -78c0 -53 52 -71 116 -89
c85 -24 159 -54 159 -146c0 -89 -68 -150 -185 -150zM134 -219l59 163h74l-71 -163h-62z" />
    <glyph glyph-name="uni021A" unicode="&#x21a;" horiz-adv-x="522" 
d="M497 710v-68h-196v-642h-75v642h-201v68h472zM164 -219l59 163h74l-71 -163h-62z" />
    <glyph glyph-name="uni021B" unicode="&#x21b;" horiz-adv-x="359" 
d="M238 -10c-76 0 -128 44 -128 136v315h-71v61h71v147l70 12v-159h146v-61h-146v-307c0 -52 26 -78 71 -78c38 0 69 17 90 30l14 -61c-25 -18 -68 -35 -117 -35zM115 -219l59 163h74l-71 -163h-62z" />
    <glyph glyph-name="Wgrave" unicode="&#x1e80;" horiz-adv-x="971" 
d="M871 710h76l-204 -710h-77l-180 602l-182 -602h-76l-204 710h80l167 -601l180 601h75l178 -598zM477 774l-128 143h80l114 -143h-66z" />
    <glyph glyph-name="wgrave" unicode="&#x1e81;" horiz-adv-x="778" 
d="M689 502h75l-166 -502h-73l-134 413l-135 -413h-73l-169 502h77l133 -418l135 418h64l135 -415zM390 573l-120 152h74l112 -152h-66z" />
    <glyph glyph-name="Wacute" unicode="&#x1e82;" horiz-adv-x="971" 
d="M871 710h76l-204 -710h-77l-180 602l-182 -602h-76l-204 710h80l167 -601l180 601h75l178 -598zM431 774l115 143h79l-128 -143h-66z" />
    <glyph glyph-name="wacute" unicode="&#x1e83;" horiz-adv-x="778" 
d="M689 502h75l-166 -502h-73l-134 413l-135 -413h-73l-169 502h77l133 -418l135 418h64l135 -415zM335 573l111 152h74l-119 -152h-66z" />
    <glyph glyph-name="Wdieresis" unicode="&#x1e84;" horiz-adv-x="971" 
d="M871 710h76l-204 -710h-77l-180 602l-182 -602h-76l-204 710h80l167 -601l180 601h75l178 -598zM384 795c-28 0 -50 22 -50 49c0 28 22 50 50 50c27 0 49 -22 49 -50c0 -27 -22 -49 -49 -49zM596 795c-28 0 -49 22 -49 49c0 28 21 50 49 50s50 -22 50 -50
c0 -27 -22 -49 -50 -49z" />
    <glyph glyph-name="wdieresis" unicode="&#x1e85;" horiz-adv-x="778" 
d="M689 502h75l-166 -502h-73l-134 413l-135 -413h-73l-169 502h77l133 -418l135 418h64l135 -415zM283 617c-28 0 -50 22 -50 49c0 28 22 50 50 50c27 0 49 -22 49 -50c0 -27 -22 -49 -49 -49zM495 617c-28 0 -49 22 -49 49c0 28 21 50 49 50s50 -22 50 -50
c0 -27 -22 -49 -50 -49z" />
    <glyph glyph-name="uni1E9E" unicode="&#x1e9e;" horiz-adv-x="748" 
d="M412 428c173 -7 267 -80 267 -212c0 -131 -91 -226 -243 -226c-86 0 -150 28 -195 58l26 69c43 -33 97 -61 171 -61c102 0 167 60 167 157c0 117 -91 158 -283 165v64l224 142c-45 49 -97 72 -168 72c-139 0 -206 -90 -206 -249v-407h-74v419c0 176 95 301 281 301
c123 0 194 -52 239 -108v-53z" />
    <glyph glyph-name="Ygrave" unicode="&#x1ef2;" horiz-adv-x="584" 
d="M582 710l-253 -426v-284h-74v284l-253 426h84l209 -352l208 352h79zM278 774l-128 143h80l114 -143h-66z" />
    <glyph glyph-name="ygrave" unicode="&#x1ef3;" horiz-adv-x="489" 
d="M410 502h75l-235 -574c-40 -98 -95 -143 -178 -143c-19 0 -39 2 -58 8l10 64c11 -3 23 -5 38 -5c54 0 91 20 125 99l32 74l-215 477h77l175 -394zM246 573l-120 152h74l112 -152h-66z" />
    <glyph glyph-name="uni0237" unicode="&#x237;" horiz-adv-x="257" 
d="M41 -219c-24 0 -47 4 -62 10l10 62c13 -4 25 -6 39 -6c46 0 65 21 65 104v551h70v-561c0 -116 -44 -160 -122 -160z" />
    <glyph glyph-name="circumflex" unicode="&#x2c6;" horiz-adv-x="400" 
d="M250 573l120 152h76l120 -152h-66l-92 107l-92 -107h-66z" />
    <glyph glyph-name="caron" unicode="&#x2c7;" horiz-adv-x="400" 
d="M366 573l-116 152h66l88 -106l87 106h66l-116 -152h-75z" />
    <glyph glyph-name="uni02C9" unicode="&#x2c9;" horiz-adv-x="400" 
d="M251 625v54h313v-54h-313z" />
    <glyph glyph-name="breve" unicode="&#x2d8;" horiz-adv-x="400" 
d="M390 584c-85 0 -137 54 -140 141h55c2 -62 36 -91 86 -91c53 0 83 33 86 91h54c-2 -87 -57 -141 -141 -141z" />
    <glyph glyph-name="dotaccent" unicode="&#x2d9;" horiz-adv-x="400" 
d="M303 612c-30 0 -53 23 -53 53s23 53 53 53s53 -23 53 -53s-23 -53 -53 -53z" />
    <glyph glyph-name="ring" unicode="&#x2da;" horiz-adv-x="400" 
d="M348 562c-60 0 -98 44 -98 97c0 56 42 97 100 97c57 0 99 -41 99 -97c0 -59 -45 -97 -101 -97zM350 611c29 0 48 19 48 48s-19 48 -48 48c-30 0 -49 -19 -49 -48s19 -48 49 -48z" />
    <glyph glyph-name="ogonek" unicode="&#x2db;" horiz-adv-x="400" 
d="M360 -195c-60 0 -100 37 -100 91c0 43 25 80 65 104h61c-43 -23 -65 -53 -65 -90s22 -52 52 -52c15 0 29 3 42 8l12 -47c-16 -8 -42 -14 -67 -14z" />
    <glyph glyph-name="tilde" unicode="&#x2dc;" horiz-adv-x="400" 
d="M251 597c8 70 43 98 81 98c24 0 55 -11 87 -24c28 -12 45 -19 59 -19c20 0 33 14 37 43h51c-9 -68 -43 -98 -82 -98c-24 0 -52 11 -83 24s-49 19 -63 19c-16 0 -28 -8 -36 -43h-51z" />
    <glyph glyph-name="hungarumlaut" unicode="&#x2dd;" horiz-adv-x="400" 
d="M228 573l112 152h74l-120 -152h-66zM374 573l112 152h74l-120 -152h-66z" />
    <glyph glyph-name="endash" unicode="&#x2013;" horiz-adv-x="560" 
d="M50 241v61h460v-61h-460z" />
    <glyph glyph-name="emdash" unicode="&#x2014;" horiz-adv-x="1060" 
d="M50 241v61h960v-61h-960z" />
    <glyph glyph-name="quoteleft" unicode="&#x2018;" horiz-adv-x="221" 
d="M38 507l85 203h60l-66 -203h-79z" />
    <glyph glyph-name="quoteright" unicode="&#x2019;" horiz-adv-x="221" 
d="M38 507l67 203h78l-83 -203h-62z" />
    <glyph glyph-name="quotesinglbase" unicode="&#x201a;" horiz-adv-x="221" 
d="M38 -102l67 203h78l-83 -203h-62z" />
    <glyph glyph-name="quotedblleft" unicode="&#x201c;" horiz-adv-x="388" 
d="M38 507l85 203h60l-66 -203h-79zM205 507l85 203h59l-65 -203h-79z" />
    <glyph glyph-name="quotedblright" unicode="&#x201d;" horiz-adv-x="388" 
d="M38 507l66 203h79l-85 -203h-60zM205 507l65 203h79l-84 -203h-60z" />
    <glyph glyph-name="quotedblbase" unicode="&#x201e;" horiz-adv-x="388" 
d="M38 -102l66 203h79l-85 -203h-60zM205 -102l65 203h79l-84 -203h-60z" />
    <glyph glyph-name="dagger" unicode="&#x2020;" horiz-adv-x="503" 
d="M478 549v-71l-202 11l11 -603h-71l11 603l-202 -11v71l202 -11l-11 214h71l-11 -213z" />
    <glyph glyph-name="daggerdbl" unicode="&#x2021;" horiz-adv-x="503" 
d="M478 478l-203 11v-259l203 10v-71l-202 10l11 -293h-71l11 294l-202 -11v71l203 -10v259l-203 -11v71l202 -11l-11 214h71l-11 -213l202 10v-71z" />
    <glyph glyph-name="bullet" unicode="&#x2022;" horiz-adv-x="390" 
d="M195 211c-60 0 -108 48 -108 108c0 61 48 109 108 109s108 -48 108 -109c0 -60 -48 -108 -108 -108z" />
    <glyph glyph-name="ellipsis" unicode="&#x2026;" horiz-adv-x="871" 
d="M145 -11c-29 0 -52 23 -52 52c0 30 23 53 52 53c30 0 53 -23 53 -53c0 -29 -23 -52 -53 -52zM439 -11c-29 0 -52 23 -52 52c0 30 23 53 52 53c30 0 53 -23 53 -53c0 -29 -23 -52 -53 -52zM726 -11c-29 0 -52 23 -52 52c0 30 23 53 52 53c30 0 53 -23 53 -53
c0 -29 -23 -52 -53 -52z" />
    <glyph glyph-name="perthousand" unicode="&#x2030;" horiz-adv-x="1049" 
d="M176 351c-91 0 -145 68 -145 183c0 114 54 182 145 182s146 -68 146 -182c0 -115 -55 -183 -146 -183zM118 0l419 710h62l-420 -710h-61zM176 403c57 0 86 44 86 131s-29 130 -86 130c-56 0 -85 -43 -85 -130s29 -131 85 -131zM541 -6c-92 0 -146 68 -146 183
c0 114 54 182 146 182c90 0 145 -68 145 -182c0 -115 -55 -183 -145 -183zM873 -6c-91 0 -145 68 -145 183c0 114 54 182 145 182s145 -68 145 -182c0 -115 -54 -183 -145 -183zM541 46c56 0 85 44 85 131c0 86 -29 130 -85 130c-58 0 -86 -44 -86 -130
c0 -87 28 -131 86 -131zM873 46c57 0 85 44 85 131c0 86 -28 130 -85 130s-85 -44 -85 -130c0 -87 28 -131 85 -131z" />
    <glyph glyph-name="guilsinglleft" unicode="&#x2039;" horiz-adv-x="307" 
d="M195 60l-165 200l165 200h82l-170 -200l170 -200h-82z" />
    <glyph glyph-name="guilsinglright" unicode="&#x203a;" horiz-adv-x="307" 
d="M112 60h-82l170 200l-170 200h82l165 -200z" />
    <glyph glyph-name="fraction" unicode="&#x2044;" horiz-adv-x="171" 
d="M-226 0l557 710h66l-557 -710h-66z" />
    <glyph glyph-name="uni2070" unicode="&#x2070;" horiz-adv-x="414" 
d="M207 427c-119 0 -154 91 -154 220c0 128 36 222 154 222c119 0 154 -94 154 -222s-36 -220 -154 -220zM207 480c82 0 94 75 94 168s-13 168 -94 168s-94 -76 -94 -169s13 -167 94 -167z" />
    <glyph glyph-name="uni2074" unicode="&#x2074;" horiz-adv-x="404" 
d="M237 435v91h-206v39l217 299h49v-289h64v-49h-64v-91h-60zM95 575h142v196z" />
    <glyph glyph-name="uni2075" unicode="&#x2075;" horiz-adv-x="420" 
d="M193 429c-62 0 -112 22 -141 55l30 48c26 -29 62 -51 112 -51c62 0 102 34 102 85s-38 82 -100 82c-34 0 -57 -9 -78 -22l-35 12l26 223h230v-54h-185l-14 -122c15 7 36 14 67 14c88 0 148 -52 148 -133c0 -83 -64 -137 -162 -137z" />
    <glyph glyph-name="uni2076" unicode="&#x2076;" horiz-adv-x="410" 
d="M221 708c83 0 142 -55 142 -137c0 -80 -62 -144 -153 -144c-88 0 -163 61 -163 188c0 138 77 254 276 254l13 -51c-150 -1 -214 -62 -229 -157c24 26 64 47 114 47zM210 477c59 0 96 40 96 92c0 57 -38 91 -94 91c-52 0 -93 -30 -109 -62c4 -83 49 -121 107 -121z" />
    <glyph glyph-name="uni2077" unicode="&#x2077;" horiz-adv-x="413" 
d="M104 435l187 372h-240v54h305v-36l-188 -390h-64z" />
    <glyph glyph-name="uni2078" unicode="&#x2078;" horiz-adv-x="413" 
d="M207 425c-99 0 -157 53 -157 129c0 54 30 93 92 113c-47 19 -71 52 -71 94c0 64 55 111 136 111c79 0 134 -46 134 -110c0 -42 -23 -76 -70 -95c60 -20 92 -54 92 -111c0 -78 -58 -131 -156 -131zM208 691c47 0 77 29 77 68s-30 65 -77 65c-48 0 -80 -26 -80 -65
s32 -68 80 -68zM207 474c63 0 98 35 98 81c0 52 -43 84 -99 84c-54 0 -96 -30 -96 -83c0 -47 34 -82 97 -82z" />
    <glyph glyph-name="uni2079" unicode="&#x2079;" horiz-adv-x="410" 
d="M201 871c87 0 162 -61 162 -188c0 -140 -75 -256 -267 -256l-12 51c147 1 207 66 221 160c-25 -27 -65 -50 -116 -50c-84 0 -143 58 -143 139c0 80 66 144 155 144zM198 637c49 0 91 27 110 62c-6 82 -52 122 -105 122c-58 0 -99 -41 -99 -93c0 -53 37 -91 94 -91z" />
    <glyph glyph-name="uni207A" unicode="&#x207a;" horiz-adv-x="392" 
d="M170 489v121h-122v53h122v121h53v-121h121v-53h-121v-121h-53z" />
    <glyph glyph-name="uni207B" unicode="&#x207b;" horiz-adv-x="392" 
d="M48 610v53h296v-53h-296z" />
    <glyph glyph-name="uni207C" unicode="&#x207c;" horiz-adv-x="392" 
d="M48 676v53h296v-53h-296zM48 545v53h296v-53h-296z" />
    <glyph glyph-name="uni207D" unicode="&#x207d;" horiz-adv-x="248" 
d="M218 372c-127 0 -163 123 -163 277c0 189 54 278 163 278v-51c-76 0 -108 -69 -108 -227s31 -226 108 -226v-51z" />
    <glyph glyph-name="uni207E" unicode="&#x207e;" horiz-adv-x="248" 
d="M30 372v51c77 0 108 69 108 227s-31 226 -108 226v51c127 0 163 -123 163 -277c0 -189 -54 -278 -163 -278z" />
    <glyph glyph-name="uni2080" unicode="&#x2080;" horiz-adv-x="414" 
d="M207 -153c-119 0 -154 91 -154 220c0 128 36 222 154 222c119 0 154 -94 154 -222s-36 -220 -154 -220zM207 -100c82 0 94 75 94 168s-13 168 -94 168s-94 -76 -94 -169s13 -167 94 -167z" />
    <glyph glyph-name="uni2081" unicode="&#x2081;" horiz-adv-x="355" 
d="M190 285h24v-430h-59v351l-101 -62v58z" />
    <glyph glyph-name="uni2082" unicode="&#x2082;" horiz-adv-x="422" 
d="M61 -145v36l151 156c48 49 74 82 74 121c0 40 -29 68 -80 68c-46 0 -82 -18 -116 -52l-26 45c34 38 85 61 145 61c84 0 136 -50 136 -118c0 -55 -38 -102 -92 -155l-106 -108h213v-54h-299z" />
    <glyph glyph-name="uni2083" unicode="&#x2083;" horiz-adv-x="416" 
d="M195 -155c-60 0 -114 22 -145 59l30 48c28 -31 64 -53 116 -53c62 0 100 31 100 78c0 54 -51 79 -131 79v48c79 0 112 38 112 74c0 34 -29 58 -77 58c-46 0 -82 -23 -110 -49l-27 47c33 31 78 56 140 56c80 0 132 -42 132 -105c0 -50 -33 -85 -87 -100
c75 -18 107 -59 107 -112c0 -73 -62 -128 -160 -128z" />
    <glyph glyph-name="uni2084" unicode="&#x2084;" horiz-adv-x="404" 
d="M237 -145v91h-206v39l217 299h49v-289h64v-49h-64v-91h-60zM95 -5h142v196z" />
    <glyph glyph-name="uni2085" unicode="&#x2085;" horiz-adv-x="420" 
d="M193 -151c-62 0 -112 22 -141 55l30 48c26 -29 62 -51 112 -51c62 0 102 34 102 85s-38 82 -100 82c-34 0 -57 -9 -78 -22l-35 12l26 223h230v-54h-185l-14 -122c15 7 36 14 67 14c88 0 148 -52 148 -133c0 -83 -64 -137 -162 -137z" />
    <glyph glyph-name="uni2086" unicode="&#x2086;" horiz-adv-x="410" 
d="M221 128c83 0 142 -55 142 -137c0 -80 -62 -144 -153 -144c-88 0 -163 61 -163 188c0 138 77 254 276 254l13 -51c-150 -1 -214 -62 -229 -157c24 26 64 47 114 47zM210 -103c59 0 96 40 96 92c0 57 -38 91 -94 91c-52 0 -93 -30 -109 -62c4 -83 49 -121 107 -121z" />
    <glyph glyph-name="uni2087" unicode="&#x2087;" horiz-adv-x="413" 
d="M104 -145l187 372h-240v54h305v-36l-188 -390h-64z" />
    <glyph glyph-name="uni2088" unicode="&#x2088;" horiz-adv-x="413" 
d="M207 -155c-99 0 -157 53 -157 129c0 54 30 93 92 113c-47 19 -71 52 -71 94c0 64 55 111 136 111c79 0 134 -46 134 -110c0 -42 -23 -76 -70 -95c60 -20 92 -54 92 -111c0 -78 -58 -131 -156 -131zM208 111c47 0 77 29 77 68s-30 65 -77 65c-48 0 -80 -26 -80 -65
s32 -68 80 -68zM207 -106c63 0 98 35 98 81c0 52 -43 84 -99 84c-54 0 -96 -30 -96 -83c0 -47 34 -82 97 -82z" />
    <glyph glyph-name="uni2089" unicode="&#x2089;" horiz-adv-x="410" 
d="M201 291c87 0 162 -61 162 -188c0 -140 -75 -256 -267 -256l-12 51c147 1 207 66 221 160c-25 -27 -65 -50 -116 -50c-84 0 -143 58 -143 139c0 80 66 144 155 144zM198 57c49 0 91 27 110 62c-6 82 -52 122 -105 122c-58 0 -99 -41 -99 -93c0 -53 37 -91 94 -91z" />
    <glyph glyph-name="uni208A" unicode="&#x208a;" horiz-adv-x="392" 
d="M170 -93v121h-122v53h122v121h53v-121h121v-53h-121v-121h-53z" />
    <glyph glyph-name="uni208B" unicode="&#x208b;" horiz-adv-x="392" 
d="M48 28v53h296v-53h-296z" />
    <glyph glyph-name="uni208C" unicode="&#x208c;" horiz-adv-x="392" 
d="M48 94v53h296v-53h-296zM48 -37v53h296v-53h-296z" />
    <glyph glyph-name="uni208D" unicode="&#x208d;" horiz-adv-x="248" 
d="M218 -210c-127 0 -163 123 -163 277c0 189 54 278 163 278v-51c-76 0 -108 -69 -108 -227s31 -226 108 -226v-51z" />
    <glyph glyph-name="uni208E" unicode="&#x208e;" horiz-adv-x="248" 
d="M30 -210v51c77 0 108 69 108 227s-31 226 -108 226v51c127 0 163 -123 163 -277c0 -189 -54 -278 -163 -278z" />
    <glyph glyph-name="Euro" unicode="&#x20ac;" horiz-adv-x="582" 
d="M531 127l24 -64c-41 -39 -96 -75 -185 -75c-149 0 -243 104 -265 283h-74v53h70c-1 11 -1 22 -1 33c0 13 0 26 1 39h-70v53h75c23 172 115 273 262 273c68 0 124 -23 168 -57l-19 -69c-39 36 -92 57 -148 57c-104 0 -167 -74 -186 -204h245v-53h-250
c-1 -13 -1 -26 -1 -39c0 -11 0 -22 1 -33h250v-53h-246c19 -136 84 -214 193 -214c76 0 122 37 156 70z" />
    <glyph glyph-name="uni20B9" unicode="&#x20b9;" horiz-adv-x="586" 
d="M550 0h-94l-263 297h-108v59h147c74 0 146 35 160 118h-306v59h306c-13 85 -84 117 -157 117h-150v60h464v-59h-138c31 -30 50 -70 56 -118h82v-59h-83c-13 -90 -81 -159 -184 -174z" />
    <glyph glyph-name="uni20BA" unicode="&#x20ba;" horiz-adv-x="551" 
d="M461 267h70v-47c0 -155 -92 -220 -218 -220h-199v250l-72 -26v54l72 25v72l-72 -26v54l72 25v282h75v-255l201 71v-53l-201 -72v-71l201 71v-53l-201 -72v-207h124c99 0 148 52 148 155v43z" />
    <glyph glyph-name="uni2113" unicode="&#x2113;" horiz-adv-x="600" 
d="M342 -17c-80 0 -117 48 -132 152c-24 -8 -50 -14 -76 -15v56c23 2 48 7 71 17c-2 33 -3 72 -3 115c0 341 44 413 133 413c72 0 106 -54 106 -186c0 -168 -58 -313 -170 -374c11 -86 33 -118 81 -118c33 0 63 7 75 20v-65c-28 -11 -54 -15 -85 -15zM267 227
c78 55 111 191 111 310c0 98 -17 125 -47 125c-40 0 -65 -74 -65 -358c0 -28 0 -55 1 -77z" />
    <glyph glyph-name="uni2117" unicode="&#x2117;" horiz-adv-x="810" 
d="M405 720c201 0 365 -164 365 -365s-164 -365 -365 -365s-365 164 -365 365s164 365 365 365zM405 38c175 0 317 142 317 317s-142 317 -317 317s-317 -142 -317 -317s142 -317 317 -317zM420 574c93 0 149 -51 149 -137c0 -83 -62 -142 -149 -142h-68v-159h-57v438h125z
M416 346c56 0 95 38 95 91c0 56 -33 86 -95 86h-64v-177h64z" />
    <glyph glyph-name="trademark" unicode="&#x2122;" horiz-adv-x="875" 
d="M312 710v-51h-116v-333h-55v333h-116v51h287zM717 710h55v-384h-55v294l-132 -199h-29l-132 199v-294h-55v384h55l147 -220z" />
    <glyph glyph-name="uni03A9" unicode="&#x3a9;" horiz-adv-x="852" 
d="M68 0v67h224v52c-125 34 -222 133 -222 288c0 181 147 313 356 313c208 0 355 -132 355 -313c0 -153 -95 -253 -222 -288v-52h225v-67h-291v158c129 24 212 113 212 244c0 141 -115 246 -279 246c-165 0 -280 -105 -280 -246c0 -131 86 -221 213 -244v-158h-291z" />
    <glyph glyph-name="uni2126" unicode="&#x2126;" horiz-adv-x="852" 
d="M68 0v67h224v52c-125 34 -222 133 -222 288c0 181 147 313 356 313c208 0 355 -132 355 -313c0 -153 -95 -253 -222 -288v-52h225v-67h-291v158c129 24 212 113 212 244c0 141 -115 246 -279 246c-165 0 -280 -105 -280 -246c0 -131 86 -221 213 -244v-158h-291z" />
    <glyph glyph-name="estimated" unicode="&#x212e;" horiz-adv-x="823" 
d="M398 -29c-177 0 -337 119 -337 321c0 192 167 329 359 329c229 0 342 -168 342 -324v-4h-552l-7 -9v-207c58 -52 127 -74 201 -74c104 0 179 44 230 101h61c-62 -70 -146 -133 -297 -133zM210 326h403l8 7v185c-63 59 -133 70 -201 70c-67 0 -150 -15 -217 -78v-177z" />
    <glyph glyph-name="partialdiff" unicode="&#x2202;" horiz-adv-x="600" 
d="M300 -23c-141 0 -237 101 -237 260c0 163 93 267 236 267c67 0 113 -28 145 -67h1c-43 127 -147 220 -284 255l32 54c211 -57 348 -229 348 -479c0 -183 -97 -290 -241 -290zM301 38c105 0 170 80 170 219c0 117 -67 192 -165 192c-107 0 -174 -82 -174 -215
c0 -119 67 -196 169 -196z" />
    <glyph glyph-name="uni0394" unicode="&#x394;" horiz-adv-x="662" 
d="M370 710l249 -644v-66h-576v66l249 644h78zM330 624l-212 -558h425z" />
    <glyph glyph-name="uni2206" unicode="&#x2206;" horiz-adv-x="662" 
d="M370 710l249 -644v-66h-576v66l249 644h78zM330 624l-212 -558h425z" />
    <glyph glyph-name="uni00B5" unicode="&#xb5;" horiz-adv-x="621" 
d="M458 502h70v-502h-70v89c-31 -61 -89 -99 -170 -99c-52 0 -97 20 -125 55v-255h-70v712h70v-289c0 -103 47 -160 135 -160c92 0 160 68 160 163v286z" />
    <glyph glyph-name="pi" unicode="&#x3c0;" horiz-adv-x="677" 
d="M649 441h-139v-320c0 -48 23 -67 49 -67c27 0 52 9 63 13l12 -57c-19 -11 -51 -20 -91 -20c-58 0 -103 37 -103 119v332h-222v-441h-70v441h-119l21 61h599v-61z" />
    <glyph glyph-name="product" unicode="&#x220f;" horiz-adv-x="749" 
d="M645 710v-920h-75v852h-392v-852h-75v920h542z" />
    <glyph glyph-name="summation" unicode="&#x2211;" horiz-adv-x="586" 
d="M39 -210v49l244 419l-234 404v48h463v-68h-368l213 -366v-38l-222 -380h417v-68h-513z" />
    <glyph glyph-name="minus" unicode="&#x2212;" horiz-adv-x="582" 
d="M66 321v59h450v-59h-450z" />
    <glyph glyph-name="uni2215" unicode="&#x2215;" horiz-adv-x="718" 
d="M119 0l410 710h70l-410 -710h-70z" />
    <glyph glyph-name="uni2219" unicode="&#x2219;" horiz-adv-x="500" 
d="M250 245c-29 0 -53 23 -53 52c0 30 24 53 53 53s53 -23 53 -53c0 -29 -24 -52 -53 -52z" />
    <glyph glyph-name="radical" unicode="&#x221a;" horiz-adv-x="600" 
d="M278 -60l-114 338h-115v65h166l69 -216c14 -44 26 -85 35 -119l3 1c8 39 17 91 25 128l128 573h69l-177 -770h-89z" />
    <glyph glyph-name="infinity" unicode="&#x221e;" horiz-adv-x="789" 
d="M205 123c-103 0 -177 73 -177 175s73 175 176 175c81 0 143 -39 192 -120c40 77 106 120 187 120c104 0 178 -74 178 -176c0 -101 -74 -174 -176 -174c-80 0 -141 39 -191 121c-44 -82 -106 -121 -189 -121zM213 180c65 0 119 41 150 117c-37 77 -90 118 -155 118
c-67 0 -115 -49 -115 -119c0 -68 49 -116 120 -116zM582 180c66 0 114 50 114 118c0 69 -47 117 -120 117c-65 0 -116 -42 -150 -119c37 -76 90 -116 156 -116z" />
    <glyph glyph-name="integral" unicode="&#x222b;" horiz-adv-x="600" 
d="M208 -170c-22 0 -38 3 -59 9l7 57c16 -5 31 -8 47 -8c45 0 67 31 67 92v597c0 91 45 143 123 143c22 0 41 -3 58 -11l-6 -59c-13 9 -29 13 -47 13c-41 0 -65 -35 -65 -93v-593c0 -98 -42 -147 -125 -147z" />
    <glyph glyph-name="approxequal" unicode="&#x2248;" horiz-adv-x="600" 
d="M95 386c8 72 52 101 96 101c33 0 76 -13 119 -24c41 -10 66 -19 95 -19c22 0 42 14 48 43h53c-8 -66 -51 -101 -93 -101c-38 0 -79 13 -120 24c-42 12 -72 19 -94 19c-24 0 -42 -14 -51 -43h-53zM95 166c8 72 52 101 96 101c33 0 76 -13 119 -24c41 -10 66 -19 95 -19
c22 0 42 14 48 43h53c-8 -66 -51 -101 -93 -101c-38 0 -79 13 -120 24c-42 12 -72 19 -94 19c-24 0 -42 -14 -51 -43h-53z" />
    <glyph glyph-name="notequal" unicode="&#x2260;" horiz-adv-x="582" 
d="M516 418h-154l-79 -135h233v-59h-268l-90 -153h-63l90 153h-119v59h154l79 135h-233v59h268l90 153h63l-90 -153h119v-59z" />
    <glyph glyph-name="lessequal" unicode="&#x2264;" horiz-adv-x="582" 
d="M516 560v-59l-410 -109l410 -108v-59l-450 125v84zM66 141v54h450v-54h-450z" />
    <glyph glyph-name="greaterequal" unicode="&#x2265;" horiz-adv-x="582" 
d="M66 560l450 -126v-84l-450 -125v59l410 108l-410 109v59zM66 141v54h450v-54h-450z" />
    <glyph glyph-name="lozenge" unicode="&#x25ca;" horiz-adv-x="405" 
d="M240 710l155 -372l-155 -338h-75l-155 338l155 372h75zM203 37l133 301l-133 331l-134 -331z" />
    <glyph glyph-name="zero.dnom" horiz-adv-x="414" 
d="M207 -8c-119 0 -154 91 -154 220c0 128 36 222 154 222c119 0 154 -94 154 -222s-36 -220 -154 -220zM207 45c82 0 94 75 94 168s-13 168 -94 168s-94 -76 -94 -169s13 -167 94 -167z" />
    <glyph glyph-name="one.dnom" horiz-adv-x="355" 
d="M190 430h24v-430h-59v351l-101 -62v58z" />
    <glyph glyph-name="two.dnom" horiz-adv-x="422" 
d="M61 0v36l151 156c48 49 74 82 74 121c0 40 -29 68 -80 68c-46 0 -82 -18 -116 -52l-26 45c34 38 85 61 145 61c84 0 136 -50 136 -118c0 -55 -38 -102 -92 -155l-106 -108h213v-54h-299z" />
    <glyph glyph-name="three.dnom" horiz-adv-x="416" 
d="M195 -10c-60 0 -114 22 -145 59l30 48c28 -31 64 -53 116 -53c62 0 100 31 100 78c0 54 -51 79 -131 79v48c79 0 112 38 112 74c0 34 -29 58 -77 58c-46 0 -82 -23 -110 -49l-27 47c33 31 78 56 140 56c80 0 132 -42 132 -105c0 -50 -33 -85 -87 -100
c75 -18 107 -59 107 -112c0 -73 -62 -128 -160 -128z" />
    <glyph glyph-name="four.dnom" horiz-adv-x="404" 
d="M237 0v91h-206v39l217 299h49v-289h64v-49h-64v-91h-60zM95 140h142v196z" />
    <glyph glyph-name="five.dnom" horiz-adv-x="420" 
d="M193 -6c-62 0 -112 22 -141 55l30 48c26 -29 62 -51 112 -51c62 0 102 34 102 85s-38 82 -100 82c-34 0 -57 -9 -78 -22l-35 12l26 223h230v-54h-185l-14 -122c15 7 36 14 67 14c88 0 148 -52 148 -133c0 -83 -64 -137 -162 -137z" />
    <glyph glyph-name="six.dnom" horiz-adv-x="410" 
d="M221 273c83 0 142 -55 142 -137c0 -80 -62 -144 -153 -144c-88 0 -163 61 -163 188c0 138 77 254 276 254l13 -51c-150 -1 -214 -62 -229 -157c24 26 64 47 114 47zM210 42c59 0 96 40 96 92c0 57 -38 91 -94 91c-52 0 -93 -30 -109 -62c4 -83 49 -121 107 -121z" />
    <glyph glyph-name="seven.dnom" horiz-adv-x="413" 
d="M104 0l187 372h-240v54h305v-36l-188 -390h-64z" />
    <glyph glyph-name="eight.dnom" horiz-adv-x="413" 
d="M207 -10c-99 0 -157 53 -157 129c0 54 30 93 92 113c-47 19 -71 52 -71 94c0 64 55 111 136 111c79 0 134 -46 134 -110c0 -42 -23 -76 -70 -95c60 -20 92 -54 92 -111c0 -78 -58 -131 -156 -131zM208 256c47 0 77 29 77 68s-30 65 -77 65c-48 0 -80 -26 -80 -65
s32 -68 80 -68zM207 39c63 0 98 35 98 81c0 52 -43 84 -99 84c-54 0 -96 -30 -96 -83c0 -47 34 -82 97 -82z" />
    <glyph glyph-name="nine.dnom" horiz-adv-x="410" 
d="M201 436c87 0 162 -61 162 -188c0 -140 -75 -256 -267 -256l-12 51c147 1 207 66 221 160c-25 -27 -65 -50 -116 -50c-84 0 -143 58 -143 139c0 80 66 144 155 144zM198 202c49 0 91 27 110 62c-6 82 -52 122 -105 122c-58 0 -99 -41 -99 -93c0 -53 37 -91 94 -91z" />
    <glyph glyph-name="zero.numr" horiz-adv-x="414" 
d="M207 277c-119 0 -154 91 -154 220c0 128 36 222 154 222c119 0 154 -94 154 -222s-36 -220 -154 -220zM207 330c82 0 94 75 94 168s-13 168 -94 168s-94 -76 -94 -169s13 -167 94 -167z" />
    <glyph glyph-name="one.numr" horiz-adv-x="355" 
d="M190 715h24v-430h-59v351l-101 -62v58z" />
    <glyph glyph-name="two.numr" horiz-adv-x="422" 
d="M61 285v36l151 156c48 49 74 82 74 121c0 40 -29 68 -80 68c-46 0 -82 -18 -116 -52l-26 45c34 38 85 61 145 61c84 0 136 -50 136 -118c0 -55 -38 -102 -92 -155l-106 -108h213v-54h-299z" />
    <glyph glyph-name="three.numr" horiz-adv-x="416" 
d="M195 275c-60 0 -114 22 -145 59l30 48c28 -31 64 -53 116 -53c62 0 100 31 100 78c0 54 -51 79 -131 79v48c79 0 112 38 112 74c0 34 -29 58 -77 58c-46 0 -82 -23 -110 -49l-27 47c33 31 78 56 140 56c80 0 132 -42 132 -105c0 -50 -33 -85 -87 -100
c75 -18 107 -59 107 -112c0 -73 -62 -128 -160 -128z" />
    <glyph glyph-name="four.numr" horiz-adv-x="404" 
d="M237 285v91h-206v39l217 299h49v-289h64v-49h-64v-91h-60zM95 425h142v196z" />
    <glyph glyph-name="five.numr" horiz-adv-x="420" 
d="M193 279c-62 0 -112 22 -141 55l30 48c26 -29 62 -51 112 -51c62 0 102 34 102 85s-38 82 -100 82c-34 0 -57 -9 -78 -22l-35 12l26 223h230v-54h-185l-14 -122c15 7 36 14 67 14c88 0 148 -52 148 -133c0 -83 -64 -137 -162 -137z" />
    <glyph glyph-name="six.numr" horiz-adv-x="410" 
d="M221 558c83 0 142 -55 142 -137c0 -80 -62 -144 -153 -144c-88 0 -163 61 -163 188c0 138 77 254 276 254l13 -51c-150 -1 -214 -62 -229 -157c24 26 64 47 114 47zM210 327c59 0 96 40 96 92c0 57 -38 91 -94 91c-52 0 -93 -30 -109 -62c4 -83 49 -121 107 -121z" />
    <glyph glyph-name="seven.numr" horiz-adv-x="413" 
d="M104 285l187 372h-240v54h305v-36l-188 -390h-64z" />
    <glyph glyph-name="eight.numr" horiz-adv-x="413" 
d="M207 275c-99 0 -157 53 -157 129c0 54 30 93 92 113c-47 19 -71 52 -71 94c0 64 55 111 136 111c79 0 134 -46 134 -110c0 -42 -23 -76 -70 -95c60 -20 92 -54 92 -111c0 -78 -58 -131 -156 -131zM208 541c47 0 77 29 77 68s-30 65 -77 65c-48 0 -80 -26 -80 -65
s32 -68 80 -68zM207 324c63 0 98 35 98 81c0 52 -43 84 -99 84c-54 0 -96 -30 -96 -83c0 -47 34 -82 97 -82z" />
    <glyph glyph-name="nine.numr" horiz-adv-x="410" 
d="M201 721c87 0 162 -61 162 -188c0 -140 -75 -256 -267 -256l-12 51c147 1 207 66 221 160c-25 -27 -65 -50 -116 -50c-84 0 -143 58 -143 139c0 80 66 144 155 144zM198 487c49 0 91 27 110 62c-6 82 -52 122 -105 122c-58 0 -99 -41 -99 -93c0 -53 37 -91 94 -91z" />
    <glyph glyph-name="uni0326" unicode="&#x326;" 
d="M-183 -219l59 163h74l-71 -163h-62z" />
    <glyph glyph-name="caroncomb.alt" 
d="M-185 542l62 210h73l-77 -210h-58z" />
    <glyph glyph-name="uni0312" unicode="&#x312;" 
d="M-189 573l77 165h62l-65 -165h-74z" />
    <glyph glyph-name="uniF8FF" unicode="&#xf8ff;" horiz-adv-x="390" 
d="M195 211c-60 0 -108 48 -108 108c0 61 48 109 108 109s108 -48 108 -109c0 -60 -48 -108 -108 -108z" />
    <glyph glyph-name="l.alt" horiz-adv-x="258" 
d="M93 0v752h70v-752h-70z" />
    <glyph glyph-name="l.short" horiz-adv-x="284" 
d="M193 -10c-63 0 -103 37 -103 120v600h70v-590c0 -47 19 -66 49 -66c22 0 42 9 52 13l11 -59c-16 -9 -44 -18 -79 -18z" />
    <glyph glyph-name="G.alt1" horiz-adv-x="819" 
d="M419 -10c-211 0 -353 152 -353 362c0 214 145 368 368 368c111 0 191 -38 254 -80l-26 -72c-61 43 -132 80 -229 80c-181 0 -290 -127 -290 -296s109 -290 277 -290c169 0 250 119 258 219h-244v65h318c1 -11 1 -22 1 -32c0 -182 -128 -324 -334 -324z" />
    <glyph glyph-name="uni1EAE" unicode="&#x1eae;" horiz-adv-x="666" 
d="M567 0l-87 230h-296l-87 -230h-76l273 710h78l273 -710h-78zM207 293h250l-125 331zM285 925l64 100h68l-75 -100h-57zM334 776c-90 0 -139 45 -143 116h55c4 -43 37 -66 89 -66c49 0 81 25 86 66h54c-5 -71 -61 -116 -141 -116z" />
    <glyph glyph-name="uni1EB6" unicode="&#x1eb6;" horiz-adv-x="666" 
d="M567 0l-87 230h-296l-87 -230h-76l273 710h78l273 -710h-78zM207 293h250l-125 331zM334 776c-90 0 -139 45 -143 116h55c4 -43 37 -66 89 -66c49 0 81 25 86 66h54c-5 -71 -61 -116 -141 -116zM333 -195c-30 0 -53 23 -53 53s23 53 53 53s53 -23 53 -53s-23 -53 -53 -53
z" />
    <glyph glyph-name="uni1EB0" unicode="&#x1eb0;" horiz-adv-x="666" 
d="M567 0l-87 230h-296l-87 -230h-76l273 710h78l273 -710h-78zM207 293h250l-125 331zM320 925l-76 100h68l65 -100h-57zM334 776c-90 0 -139 45 -143 116h55c4 -43 37 -66 89 -66c49 0 81 25 86 66h54c-5 -71 -61 -116 -141 -116z" />
    <glyph glyph-name="uni1EB2" unicode="&#x1eb2;" horiz-adv-x="666" 
d="M567 0l-87 230h-296l-87 -230h-76l273 710h78l273 -710h-78zM207 293h250l-125 331zM304 921c0 37 9 45 36 58c24 13 42 22 42 42c0 21 -16 29 -43 29c-21 0 -39 -4 -55 -12l-11 42c21 10 49 16 74 16c45 0 87 -23 87 -70c0 -39 -29 -58 -57 -74c-17 -9 -19 -12 -19 -31
h-54zM334 776c-90 0 -139 45 -143 116h55c4 -43 37 -66 89 -66c49 0 81 25 86 66h54c-5 -71 -61 -116 -141 -116z" />
    <glyph glyph-name="uni1EB4" unicode="&#x1eb4;" horiz-adv-x="666" 
d="M567 0l-87 230h-296l-87 -230h-76l273 710h78l273 -710h-78zM207 293h250l-125 331zM191 951c7 63 39 88 73 88c21 0 49 -9 78 -21c25 -11 41 -17 53 -17c18 0 30 12 34 38h45c-8 -61 -38 -88 -73 -88c-22 0 -47 10 -75 22s-44 17 -57 17c-14 0 -25 -7 -32 -39h-46z
M335 776c-90 0 -139 45 -143 116h55c4 -43 37 -66 89 -66c49 0 81 25 86 66h54c-5 -71 -61 -116 -141 -116z" />
    <glyph glyph-name="uni1EA4" unicode="&#x1ea4;" horiz-adv-x="666" 
d="M567 0l-87 230h-296l-87 -230h-76l273 710h78l273 -710h-78zM207 293h250l-125 331zM444 865l64 100h68l-75 -100h-57zM191 774l108 130h68l108 -130h-59l-83 84l-83 -84h-59z" />
    <glyph glyph-name="uni1EAC" unicode="&#x1eac;" horiz-adv-x="666" 
d="M567 0l-87 230h-296l-87 -230h-76l273 710h78l273 -710h-78zM207 293h250l-125 331zM175 774l120 130h76l120 -130h-66l-92 84l-92 -84h-66zM333 -195c-30 0 -53 23 -53 53s23 53 53 53s53 -23 53 -53s-23 -53 -53 -53z" />
    <glyph glyph-name="uni1EA6" unicode="&#x1ea6;" horiz-adv-x="666" 
d="M567 0l-87 230h-296l-87 -230h-76l273 710h78l273 -710h-78zM207 293h250l-125 331zM170 864l-76 100h68l65 -100h-57zM191 774l108 130h68l108 -130h-59l-83 84l-83 -84h-59z" />
    <glyph glyph-name="uni1EA8" unicode="&#x1ea8;" horiz-adv-x="666" 
d="M567 0l-87 230h-296l-87 -230h-76l273 710h78l273 -710h-78zM207 293h250l-125 331zM451 851c0 37 9 45 36 58c24 13 42 22 42 42c0 21 -16 29 -43 29c-21 0 -39 -4 -55 -12l-11 42c21 10 49 16 74 16c45 0 87 -23 87 -70c0 -39 -29 -58 -57 -74c-17 -9 -19 -12 -19 -31
h-54zM191 774l108 130h68l108 -130h-59l-83 84l-83 -84h-59z" />
    <glyph glyph-name="uni1EAA" unicode="&#x1eaa;" horiz-adv-x="666" 
d="M567 0l-87 230h-296l-87 -230h-76l273 710h78l273 -710h-78zM207 293h250l-125 331zM190 945c7 63 39 88 73 88c21 0 49 -9 78 -21c25 -11 41 -17 53 -17c18 0 30 12 34 38h45c-8 -61 -38 -88 -73 -88c-22 0 -47 10 -75 22s-44 17 -57 17c-14 0 -25 -7 -32 -39h-46z
M175 774l120 130h76l120 -130h-66l-92 84l-92 -84h-66z" />
    <glyph glyph-name="uni1EA0" unicode="&#x1ea0;" horiz-adv-x="666" 
d="M567 0l-87 230h-296l-87 -230h-76l273 710h78l273 -710h-78zM207 293h250l-125 331zM333 -195c-30 0 -53 23 -53 53s23 53 53 53s53 -23 53 -53s-23 -53 -53 -53z" />
    <glyph glyph-name="uni1EA2" unicode="&#x1ea2;" horiz-adv-x="666" 
d="M567 0l-87 230h-296l-87 -230h-76l273 710h78l273 -710h-78zM207 293h250l-125 331zM301 771c0 41 10 50 39 65c27 14 47 24 47 47s-18 32 -48 32c-23 0 -43 -5 -61 -14l-12 47c23 11 55 18 82 18c50 0 97 -26 97 -78c0 -43 -32 -64 -63 -82c-19 -10 -21 -14 -22 -35h-59
z" />
    <glyph glyph-name="Aringacute" unicode="&#x1fa;" horiz-adv-x="666" 
d="M469 1016l-128 -143h-66l115 143h79zM567 0l-87 230h-296l-87 -230h-76l261 678c-30 16 -48 48 -48 83c0 54 42 96 99 96s98 -42 98 -96c0 -37 -19 -66 -47 -82l261 -679h-78zM333 809c-29 0 -49 -20 -49 -48c0 -27 20 -48 49 -48s48 21 48 48c0 28 -19 48 -48 48z
M207 293h250l-125 331z" />
    <glyph glyph-name="AEacute" unicode="&#x1fc;" horiz-adv-x="920" 
d="M521 68h321v-68h-396v230h-260l-89 -230h-76l273 710h541v-68h-314v-252h304v-67h-304v-255zM210 293h236v348h-101zM423 774l115 143h79l-128 -143h-66z" />
    <glyph glyph-name="uni1EBE" unicode="&#x1ebe;" horiz-adv-x="578" 
d="M103 0v710h389v-68h-314v-252h305v-67h-305v-255h322v-68h-397zM413 865l64 100h68l-75 -100h-57zM160 774l108 130h68l108 -130h-59l-83 84l-83 -84h-59z" />
    <glyph glyph-name="uni1EC6" unicode="&#x1ec6;" horiz-adv-x="578" 
d="M103 0v710h389v-68h-314v-252h305v-67h-305v-255h322v-68h-397zM144 774l120 130h76l120 -130h-66l-92 84l-92 -84h-66zM291 -195c-30 0 -53 23 -53 53s23 53 53 53s53 -23 53 -53s-23 -53 -53 -53z" />
    <glyph glyph-name="uni1EC0" unicode="&#x1ec0;" horiz-adv-x="578" 
d="M103 0v710h389v-68h-314v-252h305v-67h-305v-255h322v-68h-397zM139 864l-76 100h68l65 -100h-57zM160 774l108 130h68l108 -130h-59l-83 84l-83 -84h-59z" />
    <glyph glyph-name="uni1EC2" unicode="&#x1ec2;" horiz-adv-x="578" 
d="M103 0v710h389v-68h-314v-252h305v-67h-305v-255h322v-68h-397zM420 851c0 37 9 45 36 58c24 13 42 22 42 42c0 21 -16 29 -43 29c-21 0 -39 -4 -55 -12l-11 42c21 10 49 16 74 16c45 0 87 -23 87 -70c0 -39 -29 -58 -57 -74c-17 -9 -19 -12 -19 -31h-54zM160 774
l108 130h68l108 -130h-59l-83 84l-83 -84h-59z" />
    <glyph glyph-name="uni1EC4" unicode="&#x1ec4;" horiz-adv-x="578" 
d="M103 0v710h389v-68h-314v-252h305v-67h-305v-255h322v-68h-397zM159 945c7 63 39 88 73 88c21 0 49 -9 78 -21c25 -11 41 -17 53 -17c18 0 30 12 34 38h45c-8 -61 -38 -88 -73 -88c-22 0 -47 10 -75 22s-44 17 -57 17c-14 0 -25 -7 -32 -39h-46zM144 774l120 130h76
l120 -130h-66l-92 84l-92 -84h-66z" />
    <glyph glyph-name="uni1EB8" unicode="&#x1eb8;" horiz-adv-x="578" 
d="M103 0v710h389v-68h-314v-252h305v-67h-305v-255h322v-68h-397zM291 -195c-30 0 -53 23 -53 53s23 53 53 53s53 -23 53 -53s-23 -53 -53 -53z" />
    <glyph glyph-name="uni1EBA" unicode="&#x1eba;" horiz-adv-x="578" 
d="M103 0v710h389v-68h-314v-252h305v-67h-305v-255h322v-68h-397zM270 771c0 41 10 50 39 65c27 14 47 24 47 47s-18 32 -48 32c-23 0 -43 -5 -61 -14l-12 47c23 11 55 18 82 18c50 0 97 -26 97 -78c0 -43 -32 -64 -63 -82c-19 -10 -21 -14 -22 -35h-59z" />
    <glyph glyph-name="uni1EBC" unicode="&#x1ebc;" horiz-adv-x="578" 
d="M103 0v710h389v-68h-314v-252h305v-67h-305v-255h322v-68h-397zM143 774c8 69 38 98 79 98c21 0 51 -9 89 -24c25 -10 46 -19 63 -19c21 0 29 13 33 43h51c-8 -61 -34 -98 -79 -98c-26 0 -56 12 -86 24s-50 19 -64 19c-21 0 -28 -13 -35 -43h-51z" />
    <glyph glyph-name="uni1ECA" unicode="&#x1eca;" horiz-adv-x="282" 
d="M103 0v710h75v-710h-75zM141 -195c-30 0 -53 23 -53 53s23 53 53 53s53 -23 53 -53s-23 -53 -53 -53z" />
    <glyph glyph-name="uni1EC8" unicode="&#x1ec8;" horiz-adv-x="282" 
d="M103 0v710h75v-710h-75zM109 771c0 41 10 50 39 65c27 14 47 24 47 47s-18 32 -48 32c-23 0 -43 -5 -61 -14l-12 47c23 11 55 18 82 18c50 0 97 -26 97 -78c0 -43 -32 -64 -63 -82c-19 -10 -21 -14 -22 -35h-59z" />
    <glyph glyph-name="uni1ED0" unicode="&#x1ed0;" horiz-adv-x="871" 
d="M435 -10c-211 0 -369 154 -369 365c0 212 158 365 370 365c211 0 369 -154 369 -364c0 -211 -158 -366 -370 -366zM436 62c169 0 293 125 293 293c0 169 -124 294 -293 294c-170 0 -294 -125 -294 -294c0 -168 124 -293 294 -293zM546 865l64 100h68l-75 -100h-57z
M293 774l108 130h68l108 -130h-59l-83 84l-83 -84h-59z" />
    <glyph glyph-name="uni1ED8" unicode="&#x1ed8;" horiz-adv-x="871" 
d="M435 -10c-211 0 -369 154 -369 365c0 212 158 365 370 365c211 0 369 -154 369 -364c0 -211 -158 -366 -370 -366zM436 62c169 0 293 125 293 293c0 169 -124 294 -293 294c-170 0 -294 -125 -294 -294c0 -168 124 -293 294 -293zM277 774l120 130h76l120 -130h-66
l-92 84l-92 -84h-66zM436 -195c-30 0 -53 23 -53 53s23 53 53 53s53 -23 53 -53s-23 -53 -53 -53z" />
    <glyph glyph-name="uni1ED2" unicode="&#x1ed2;" horiz-adv-x="871" 
d="M435 -10c-211 0 -369 154 -369 365c0 212 158 365 370 365c211 0 369 -154 369 -364c0 -211 -158 -366 -370 -366zM436 62c169 0 293 125 293 293c0 169 -124 294 -293 294c-170 0 -294 -125 -294 -294c0 -168 124 -293 294 -293zM272 864l-76 100h68l65 -100h-57z
M293 774l108 130h68l108 -130h-59l-83 84l-83 -84h-59z" />
    <glyph glyph-name="uni1ED4" unicode="&#x1ed4;" horiz-adv-x="871" 
d="M435 -10c-211 0 -369 154 -369 365c0 212 158 365 370 365c211 0 369 -154 369 -364c0 -211 -158 -366 -370 -366zM436 62c169 0 293 125 293 293c0 169 -124 294 -293 294c-170 0 -294 -125 -294 -294c0 -168 124 -293 294 -293zM553 851c0 37 9 45 36 58
c24 13 42 22 42 42c0 21 -16 29 -43 29c-21 0 -39 -4 -55 -12l-11 42c21 10 49 16 74 16c45 0 87 -23 87 -70c0 -39 -29 -58 -57 -74c-17 -9 -19 -12 -19 -31h-54zM293 774l108 130h68l108 -130h-59l-83 84l-83 -84h-59z" />
    <glyph glyph-name="uni1ED6" unicode="&#x1ed6;" horiz-adv-x="871" 
d="M435 -10c-211 0 -369 154 -369 365c0 212 158 365 370 365c211 0 369 -154 369 -364c0 -211 -158 -366 -370 -366zM436 62c169 0 293 125 293 293c0 169 -124 294 -293 294c-170 0 -294 -125 -294 -294c0 -168 124 -293 294 -293zM292 945c7 63 39 88 73 88
c21 0 49 -9 78 -21c25 -11 41 -17 53 -17c18 0 30 12 34 38h45c-8 -61 -38 -88 -73 -88c-22 0 -47 10 -75 22s-44 17 -57 17c-14 0 -25 -7 -32 -39h-46zM277 774l120 130h76l120 -130h-66l-92 84l-92 -84h-66z" />
    <glyph glyph-name="uni1ECC" unicode="&#x1ecc;" horiz-adv-x="871" 
d="M435 -10c-211 0 -369 154 -369 365c0 212 158 365 370 365c211 0 369 -154 369 -364c0 -211 -158 -366 -370 -366zM436 62c169 0 293 125 293 293c0 169 -124 294 -293 294c-170 0 -294 -125 -294 -294c0 -168 124 -293 294 -293zM436 -195c-30 0 -53 23 -53 53
s23 53 53 53s53 -23 53 -53s-23 -53 -53 -53z" />
    <glyph glyph-name="uni1ECE" unicode="&#x1ece;" horiz-adv-x="871" 
d="M435 -10c-211 0 -369 154 -369 365c0 212 158 365 370 365c211 0 369 -154 369 -364c0 -211 -158 -366 -370 -366zM436 62c169 0 293 125 293 293c0 169 -124 294 -293 294c-170 0 -294 -125 -294 -294c0 -168 124 -293 294 -293zM403 771c0 41 10 50 39 65
c27 14 47 24 47 47s-18 32 -48 32c-23 0 -43 -5 -61 -14l-12 47c23 11 55 18 82 18c50 0 97 -26 97 -78c0 -43 -32 -64 -63 -82c-19 -10 -21 -14 -22 -35h-59z" />
    <glyph glyph-name="Ohorn" unicode="&#x1a0;" horiz-adv-x="871" 
d="M689 625c74 -65 116 -160 116 -269c0 -211 -158 -366 -370 -366c-211 0 -369 154 -369 366c0 211 155 364 374 364c53 0 94 -10 128 -22c28 -10 59 -20 87 -20c56 0 104 38 104 94c0 22 -7 50 -17 67l61 16c13 -25 20 -57 20 -86c0 -69 -43 -125 -134 -144zM436 62
c169 0 293 125 293 293c0 169 -124 294 -293 294c-170 0 -294 -125 -294 -294c0 -168 124 -293 294 -293z" />
    <glyph glyph-name="uni1EDA" unicode="&#x1eda;" horiz-adv-x="871" 
d="M689 625c74 -65 116 -160 116 -269c0 -211 -158 -366 -370 -366c-211 0 -369 154 -369 366c0 211 155 364 374 364c53 0 94 -10 128 -22c28 -10 59 -20 87 -20c56 0 104 38 104 94c0 22 -7 50 -17 67l61 16c13 -25 20 -57 20 -86c0 -69 -43 -125 -134 -144zM436 62
c169 0 293 125 293 293c0 169 -124 294 -293 294c-170 0 -294 -125 -294 -294c0 -168 124 -293 294 -293zM377 774l115 143h79l-128 -143h-66z" />
    <glyph glyph-name="uni1EE2" unicode="&#x1ee2;" horiz-adv-x="871" 
d="M689 625c74 -65 116 -160 116 -269c0 -211 -158 -366 -370 -366c-211 0 -369 154 -369 366c0 211 155 364 374 364c53 0 94 -10 128 -22c28 -10 59 -20 87 -20c56 0 104 38 104 94c0 22 -7 50 -17 67l61 16c13 -25 20 -57 20 -86c0 -69 -43 -125 -134 -144zM436 62
c169 0 293 125 293 293c0 169 -124 294 -293 294c-170 0 -294 -125 -294 -294c0 -168 124 -293 294 -293zM436 -195c-30 0 -53 23 -53 53s23 53 53 53s53 -23 53 -53s-23 -53 -53 -53z" />
    <glyph glyph-name="uni1EDC" unicode="&#x1edc;" horiz-adv-x="871" 
d="M689 625c74 -65 116 -160 116 -269c0 -211 -158 -366 -370 -366c-211 0 -369 154 -369 366c0 211 155 364 374 364c53 0 94 -10 128 -22c28 -10 59 -20 87 -20c56 0 104 38 104 94c0 22 -7 50 -17 67l61 16c13 -25 20 -57 20 -86c0 -69 -43 -125 -134 -144zM436 62
c169 0 293 125 293 293c0 169 -124 294 -293 294c-170 0 -294 -125 -294 -294c0 -168 124 -293 294 -293zM423 774l-128 143h80l114 -143h-66z" />
    <glyph glyph-name="uni1EDE" unicode="&#x1ede;" horiz-adv-x="871" 
d="M689 625c74 -65 116 -160 116 -269c0 -211 -158 -366 -370 -366c-211 0 -369 154 -369 366c0 211 155 364 374 364c53 0 94 -10 128 -22c28 -10 59 -20 87 -20c56 0 104 38 104 94c0 22 -7 50 -17 67l61 16c13 -25 20 -57 20 -86c0 -69 -43 -125 -134 -144zM436 62
c169 0 293 125 293 293c0 169 -124 294 -293 294c-170 0 -294 -125 -294 -294c0 -168 124 -293 294 -293zM403 771c0 41 10 50 39 65c27 14 47 24 47 47s-18 32 -48 32c-23 0 -43 -5 -61 -14l-12 47c23 11 55 18 82 18c50 0 97 -26 97 -78c0 -43 -32 -64 -63 -82
c-19 -10 -21 -14 -22 -35h-59z" />
    <glyph glyph-name="uni1EE0" unicode="&#x1ee0;" horiz-adv-x="871" 
d="M689 625c74 -65 116 -160 116 -269c0 -211 -158 -366 -370 -366c-211 0 -369 154 -369 366c0 211 155 364 374 364c53 0 94 -10 128 -22c28 -10 59 -20 87 -20c56 0 104 38 104 94c0 22 -7 50 -17 67l61 16c13 -25 20 -57 20 -86c0 -69 -43 -125 -134 -144zM436 62
c169 0 293 125 293 293c0 169 -124 294 -293 294c-170 0 -294 -125 -294 -294c0 -168 124 -293 294 -293zM276 774c8 69 38 98 79 98c21 0 51 -9 89 -24c25 -10 46 -19 63 -19c21 0 29 13 33 43h51c-8 -61 -34 -98 -79 -98c-26 0 -56 12 -86 24s-50 19 -64 19
c-21 0 -28 -13 -35 -43h-51z" />
    <glyph glyph-name="Oslashacute" unicode="&#x1fe;" horiz-adv-x="871" 
d="M668 644c85 -65 137 -167 137 -288c0 -211 -158 -366 -370 -366c-66 0 -126 15 -179 42l-55 -82h-69l76 112c-88 65 -142 169 -142 293c0 212 158 365 370 365c68 0 131 -16 184 -45l57 85h69zM142 355c0 -96 41 -178 107 -231l330 491c-41 22 -90 34 -143 34
c-170 0 -294 -125 -294 -294zM436 62c169 0 293 125 293 293c0 94 -39 175 -102 228l-329 -489c40 -21 87 -32 138 -32zM377 774l115 143h79l-128 -143h-66z" />
    <glyph glyph-name="uni018F" unicode="&#x18f;" horiz-adv-x="778" 
d="M346 720c211 0 365 -154 365 -367c0 -212 -141 -366 -336 -366c-207 0 -327 145 -327 357v13h587c-4 173 -125 291 -292 291c-89 0 -167 -35 -224 -79l-24 69c74 55 155 82 251 82zM377 62c124 0 230 87 253 227h-496c11 -138 105 -227 243 -227z" />
    <glyph glyph-name="uni1EE4" unicode="&#x1ee4;" horiz-adv-x="741" 
d="M371 -10c-173 0 -273 109 -273 270v450h75v-437c0 -143 83 -211 198 -211s198 68 198 211v437h75v-450c0 -161 -101 -270 -273 -270zM371 -195c-30 0 -53 23 -53 53s23 53 53 53s53 -23 53 -53s-23 -53 -53 -53z" />
    <glyph glyph-name="uni1EE6" unicode="&#x1ee6;" horiz-adv-x="741" 
d="M371 -10c-173 0 -273 109 -273 270v450h75v-437c0 -143 83 -211 198 -211s198 68 198 211v437h75v-450c0 -161 -101 -270 -273 -270zM340 771c0 41 10 50 39 65c27 14 47 24 47 47s-18 32 -48 32c-23 0 -43 -5 -61 -14l-12 47c23 11 55 18 82 18c50 0 97 -26 97 -78
c0 -43 -32 -64 -63 -82c-19 -10 -21 -14 -22 -35h-59z" />
    <glyph glyph-name="Uhorn" unicode="&#x1af;" horiz-adv-x="741" 
d="M743 775c0 -56 -32 -99 -99 -115v-400c0 -161 -101 -270 -273 -270c-173 0 -273 109 -273 270v450h75v-437c0 -143 83 -211 198 -211s198 68 198 211v437h11c64 0 99 16 99 66c0 24 -7 47 -17 63l61 16c13 -23 20 -52 20 -80z" />
    <glyph glyph-name="uni1EE8" unicode="&#x1ee8;" horiz-adv-x="741" 
d="M743 775c0 -56 -32 -99 -99 -115v-400c0 -161 -101 -270 -273 -270c-173 0 -273 109 -273 270v450h75v-437c0 -143 83 -211 198 -211s198 68 198 211v437h11c64 0 99 16 99 66c0 24 -7 47 -17 63l61 16c13 -23 20 -52 20 -80zM314 774l115 143h79l-128 -143h-66z" />
    <glyph glyph-name="uni1EF0" unicode="&#x1ef0;" horiz-adv-x="741" 
d="M743 775c0 -56 -32 -99 -99 -115v-400c0 -161 -101 -270 -273 -270c-173 0 -273 109 -273 270v450h75v-437c0 -143 83 -211 198 -211s198 68 198 211v437h11c64 0 99 16 99 66c0 24 -7 47 -17 63l61 16c13 -23 20 -52 20 -80zM371 -195c-30 0 -53 23 -53 53s23 53 53 53
s53 -23 53 -53s-23 -53 -53 -53z" />
    <glyph glyph-name="uni1EEA" unicode="&#x1eea;" horiz-adv-x="741" 
d="M743 775c0 -56 -32 -99 -99 -115v-400c0 -161 -101 -270 -273 -270c-173 0 -273 109 -273 270v450h75v-437c0 -143 83 -211 198 -211s198 68 198 211v437h11c64 0 99 16 99 66c0 24 -7 47 -17 63l61 16c13 -23 20 -52 20 -80zM360 774l-128 143h80l114 -143h-66z" />
    <glyph glyph-name="uni1EEC" unicode="&#x1eec;" horiz-adv-x="741" 
d="M743 775c0 -56 -32 -99 -99 -115v-400c0 -161 -101 -270 -273 -270c-173 0 -273 109 -273 270v450h75v-437c0 -143 83 -211 198 -211s198 68 198 211v437h11c64 0 99 16 99 66c0 24 -7 47 -17 63l61 16c13 -23 20 -52 20 -80zM340 771c0 41 10 50 39 65
c27 14 47 24 47 47s-18 32 -48 32c-23 0 -43 -5 -61 -14l-12 47c23 11 55 18 82 18c50 0 97 -26 97 -78c0 -43 -32 -64 -63 -82c-19 -10 -21 -14 -22 -35h-59z" />
    <glyph glyph-name="uni1EEE" unicode="&#x1eee;" horiz-adv-x="741" 
d="M743 775c0 -56 -32 -99 -99 -115v-400c0 -161 -101 -270 -273 -270c-173 0 -273 109 -273 270v450h75v-437c0 -143 83 -211 198 -211s198 68 198 211v437h11c64 0 99 16 99 66c0 24 -7 47 -17 63l61 16c13 -23 20 -52 20 -80zM213 774c8 69 38 98 79 98
c21 0 51 -9 89 -24c25 -10 46 -19 63 -19c21 0 29 13 33 43h51c-8 -61 -34 -98 -79 -98c-26 0 -56 12 -86 24s-50 19 -64 19c-21 0 -28 -13 -35 -43h-51z" />
    <glyph glyph-name="uni1EF4" unicode="&#x1ef4;" horiz-adv-x="584" 
d="M582 710l-253 -426v-284h-74v284l-253 426h84l209 -352l208 352h79zM292 -195c-30 0 -53 23 -53 53s23 53 53 53s53 -23 53 -53s-23 -53 -53 -53z" />
    <glyph glyph-name="uni1EF6" unicode="&#x1ef6;" horiz-adv-x="584" 
d="M582 710l-253 -426v-284h-74v284l-253 426h84l209 -352l208 352h79zM258 771c0 41 10 50 39 65c27 14 47 24 47 47s-18 32 -48 32c-23 0 -43 -5 -61 -14l-12 47c23 11 55 18 82 18c50 0 97 -26 97 -78c0 -43 -32 -64 -63 -82c-19 -10 -21 -14 -22 -35h-59z" />
    <glyph glyph-name="uni1EF8" unicode="&#x1ef8;" horiz-adv-x="584" 
d="M582 710l-253 -426v-284h-74v284l-253 426h84l209 -352l208 352h79zM131 774c8 69 38 98 79 98c21 0 51 -9 89 -24c25 -10 46 -19 63 -19c21 0 29 13 33 43h51c-8 -61 -34 -98 -79 -98c-26 0 -56 12 -86 24s-50 19 -64 19c-21 0 -28 -13 -35 -43h-51z" />
    <glyph glyph-name="uni1EAF" unicode="&#x1eaf;" horiz-adv-x="577" 
d="M289 512c127 0 202 -66 202 -200v-312h-69v88c-31 -56 -98 -98 -188 -98c-108 0 -171 58 -171 149c0 113 97 158 358 160v13c0 83 -48 138 -142 138c-77 0 -135 -37 -165 -61l-20 63c42 31 110 60 195 60zM248 48c77 0 173 41 173 150v50c-219 -2 -285 -34 -285 -107
c0 -56 39 -93 112 -93zM244 755l64 100h68l-75 -100h-57zM292 584c-85 0 -137 54 -140 141h55c2 -62 36 -91 86 -91c53 0 83 33 86 91h54c-2 -87 -57 -141 -141 -141z" />
    <glyph glyph-name="uni1EB7" unicode="&#x1eb7;" horiz-adv-x="577" 
d="M289 512c127 0 202 -66 202 -200v-312h-69v88c-31 -56 -98 -98 -188 -98c-108 0 -171 58 -171 149c0 113 97 158 358 160v13c0 83 -48 138 -142 138c-77 0 -135 -37 -165 -61l-20 63c42 31 110 60 195 60zM248 48c77 0 173 41 173 150v50c-219 -2 -285 -34 -285 -107
c0 -56 39 -93 112 -93zM292 584c-85 0 -137 54 -140 141h55c2 -62 36 -91 86 -91c53 0 83 33 86 91h54c-2 -87 -57 -141 -141 -141zM289 -195c-30 0 -53 23 -53 53s23 53 53 53s53 -23 53 -53s-23 -53 -53 -53z" />
    <glyph glyph-name="uni1EB1" unicode="&#x1eb1;" horiz-adv-x="577" 
d="M289 512c127 0 202 -66 202 -200v-312h-69v88c-31 -56 -98 -98 -188 -98c-108 0 -171 58 -171 149c0 113 97 158 358 160v13c0 83 -48 138 -142 138c-77 0 -135 -37 -165 -61l-20 63c42 31 110 60 195 60zM248 48c77 0 173 41 173 150v50c-219 -2 -285 -34 -285 -107
c0 -56 39 -93 112 -93zM279 755l-76 100h68l65 -100h-57zM292 584c-85 0 -137 54 -140 141h55c2 -62 36 -91 86 -91c53 0 83 33 86 91h54c-2 -87 -57 -141 -141 -141z" />
    <glyph glyph-name="uni1EB3" unicode="&#x1eb3;" horiz-adv-x="577" 
d="M289 512c127 0 202 -66 202 -200v-312h-69v88c-31 -56 -98 -98 -188 -98c-108 0 -171 58 -171 149c0 113 97 158 358 160v13c0 83 -48 138 -142 138c-77 0 -135 -37 -165 -61l-20 63c42 31 110 60 195 60zM248 48c77 0 173 41 173 150v50c-219 -2 -285 -34 -285 -107
c0 -56 39 -93 112 -93zM263 751c0 37 9 45 36 58c24 13 42 22 42 42c0 21 -16 29 -43 29c-21 0 -39 -4 -55 -12l-11 42c21 10 49 16 74 16c45 0 87 -23 87 -70c0 -39 -29 -58 -57 -74c-17 -9 -19 -12 -19 -31h-54zM292 584c-85 0 -137 54 -140 141h55c2 -62 36 -91 86 -91
c53 0 83 33 86 91h54c-2 -87 -57 -141 -141 -141z" />
    <glyph glyph-name="uni1EB5" unicode="&#x1eb5;" horiz-adv-x="577" 
d="M289 512c127 0 202 -66 202 -200v-312h-69v88c-31 -56 -98 -98 -188 -98c-108 0 -171 58 -171 149c0 113 97 158 358 160v13c0 83 -48 138 -142 138c-77 0 -135 -37 -165 -61l-20 63c42 31 110 60 195 60zM248 48c77 0 173 41 173 150v50c-219 -2 -285 -34 -285 -107
c0 -56 39 -93 112 -93zM151 781c7 63 39 88 73 88c21 0 49 -9 78 -21c25 -11 41 -17 53 -17c18 0 30 12 34 38h45c-8 -61 -38 -88 -73 -88c-22 0 -47 10 -75 22s-44 17 -57 17c-14 0 -25 -7 -32 -39h-46zM294 584c-85 0 -137 54 -140 141h55c2 -62 36 -91 86 -91
c53 0 83 33 86 91h54c-2 -87 -57 -141 -141 -141z" />
    <glyph glyph-name="uni1EA5" unicode="&#x1ea5;" horiz-adv-x="577" 
d="M289 512c127 0 202 -66 202 -200v-312h-69v88c-31 -56 -98 -98 -188 -98c-108 0 -171 58 -171 149c0 113 97 158 358 160v13c0 83 -48 138 -142 138c-77 0 -135 -37 -165 -61l-20 63c42 31 110 60 195 60zM248 48c77 0 173 41 173 150v50c-219 -2 -285 -34 -285 -107
c0 -56 39 -93 112 -93zM405 680l64 100h68l-75 -100h-57zM150 573l108 152h68l108 -152h-59l-83 107l-83 -107h-59z" />
    <glyph glyph-name="uni1EAD" unicode="&#x1ead;" horiz-adv-x="577" 
d="M289 512c127 0 202 -66 202 -200v-312h-69v88c-31 -56 -98 -98 -188 -98c-108 0 -171 58 -171 149c0 113 97 158 358 160v13c0 83 -48 138 -142 138c-77 0 -135 -37 -165 -61l-20 63c42 31 110 60 195 60zM248 48c77 0 173 41 173 150v50c-219 -2 -285 -34 -285 -107
c0 -56 39 -93 112 -93zM135 573l120 152h76l120 -152h-66l-92 107l-92 -107h-66zM289 -195c-30 0 -53 23 -53 53s23 53 53 53s53 -23 53 -53s-23 -53 -53 -53z" />
    <glyph glyph-name="uni1EA7" unicode="&#x1ea7;" horiz-adv-x="577" 
d="M289 512c127 0 202 -66 202 -200v-312h-69v88c-31 -56 -98 -98 -188 -98c-108 0 -171 58 -171 149c0 113 97 158 358 160v13c0 83 -48 138 -142 138c-77 0 -135 -37 -165 -61l-20 63c42 31 110 60 195 60zM248 48c77 0 173 41 173 150v50c-219 -2 -285 -34 -285 -107
c0 -56 39 -93 112 -93zM128 680l-76 100h68l65 -100h-57zM155 573l108 152h68l108 -152h-59l-83 107l-83 -107h-59z" />
    <glyph glyph-name="uni1EA9" unicode="&#x1ea9;" horiz-adv-x="577" 
d="M289 512c127 0 202 -66 202 -200v-312h-69v88c-31 -56 -98 -98 -188 -98c-108 0 -171 58 -171 149c0 113 97 158 358 160v13c0 83 -48 138 -142 138c-77 0 -135 -37 -165 -61l-20 63c42 31 110 60 195 60zM248 48c77 0 173 41 173 150v50c-219 -2 -285 -34 -285 -107
c0 -56 39 -93 112 -93zM420 661c0 37 9 45 36 58c24 13 42 22 42 42c0 21 -16 29 -43 29c-21 0 -39 -4 -55 -12l-11 42c21 10 49 16 74 16c45 0 87 -23 87 -70c0 -39 -29 -58 -57 -74c-17 -9 -19 -12 -19 -31h-54zM151 573l108 152h68l108 -152h-59l-83 107l-83 -107h-59z
" />
    <glyph glyph-name="uni1EAB" unicode="&#x1eab;" horiz-adv-x="577" 
d="M289 512c127 0 202 -66 202 -200v-312h-69v88c-31 -56 -98 -98 -188 -98c-108 0 -171 58 -171 149c0 113 97 158 358 160v13c0 83 -48 138 -142 138c-77 0 -135 -37 -165 -61l-20 63c42 31 110 60 195 60zM248 48c77 0 173 41 173 150v50c-219 -2 -285 -34 -285 -107
c0 -56 39 -93 112 -93zM150 768c7 63 39 88 73 88c21 0 49 -9 78 -21c25 -11 41 -17 53 -17c18 0 30 12 34 38h45c-8 -61 -38 -88 -73 -88c-22 0 -47 10 -75 22s-44 17 -57 17c-14 0 -25 -7 -32 -39h-46zM135 573l120 152h76l120 -152h-66l-92 107l-92 -107h-66z" />
    <glyph glyph-name="uni1EA1" unicode="&#x1ea1;" horiz-adv-x="577" 
d="M289 512c127 0 202 -66 202 -200v-312h-69v88c-31 -56 -98 -98 -188 -98c-108 0 -171 58 -171 149c0 113 97 158 358 160v13c0 83 -48 138 -142 138c-77 0 -135 -37 -165 -61l-20 63c42 31 110 60 195 60zM248 48c77 0 173 41 173 150v50c-219 -2 -285 -34 -285 -107
c0 -56 39 -93 112 -93zM289 -195c-30 0 -53 23 -53 53s23 53 53 53s53 -23 53 -53s-23 -53 -53 -53z" />
    <glyph glyph-name="uni1EA3" unicode="&#x1ea3;" horiz-adv-x="577" 
d="M289 512c127 0 202 -66 202 -200v-312h-69v88c-31 -56 -98 -98 -188 -98c-108 0 -171 58 -171 149c0 113 97 158 358 160v13c0 83 -48 138 -142 138c-77 0 -135 -37 -165 -61l-20 63c42 31 110 60 195 60zM248 48c77 0 173 41 173 150v50c-219 -2 -285 -34 -285 -107
c0 -56 39 -93 112 -93zM261 563c0 41 10 50 39 65c27 14 47 24 47 47s-18 32 -48 32c-23 0 -43 -5 -61 -14l-12 47c23 11 55 18 82 18c50 0 97 -26 97 -78c0 -43 -32 -64 -63 -82c-19 -10 -21 -14 -22 -35h-59z" />
    <glyph glyph-name="aringacute" unicode="&#x1fb;" horiz-adv-x="577" 
d="M289 512c127 0 202 -66 202 -200v-312h-69v88c-31 -56 -98 -98 -188 -98c-108 0 -171 58 -171 149c0 113 97 158 358 160v13c0 83 -48 138 -142 138c-77 0 -135 -37 -165 -61l-20 63c42 31 110 60 195 60zM248 48c77 0 173 41 173 150v50c-219 -2 -285 -34 -285 -107
c0 -56 39 -93 112 -93zM292 562c-60 0 -98 44 -98 97c0 56 42 97 100 97c57 0 99 -41 99 -97c0 -59 -45 -97 -101 -97zM294 611c29 0 48 19 48 48s-19 48 -48 48c-30 0 -49 -19 -49 -48s19 -48 49 -48zM238 827l111 152h74l-119 -152h-66z" />
    <glyph glyph-name="aeacute" unicode="&#x1fd;" horiz-adv-x="950" 
d="M906 255v-9h-412c3 -118 78 -192 193 -192c78 0 144 33 183 70l20 -62c-43 -39 -118 -72 -207 -72c-105 0 -184 50 -226 124c-35 -67 -108 -124 -221 -124c-108 0 -173 54 -173 148c0 113 98 159 358 161v13c0 83 -48 138 -142 138c-77 0 -135 -37 -165 -61l-20 63
c41 30 108 60 196 60c89 0 153 -33 182 -100c45 62 115 100 198 100c140 0 236 -107 236 -257zM498 301h334c-11 86 -72 149 -162 149c-83 0 -156 -60 -172 -149zM248 48c76 0 173 41 173 155v45c-216 -3 -285 -34 -285 -108c0 -56 39 -92 112 -92zM423 573l111 152h74
l-119 -152h-66z" />
    <glyph glyph-name="uni1EBF" unicode="&#x1ebf;" horiz-adv-x="576" 
d="M532 255v-9h-412c3 -118 78 -192 193 -192c78 0 144 33 183 70l20 -62c-43 -39 -118 -72 -207 -72c-161 0 -260 117 -260 261c0 150 106 261 247 261c140 0 236 -107 236 -257zM124 301h334c-11 86 -72 149 -162 149c-83 0 -156 -60 -172 -149zM410 680l64 100h68
l-75 -100h-57zM155 573l108 152h68l108 -152h-59l-83 107l-83 -107h-59z" />
    <glyph glyph-name="uni1EC7" unicode="&#x1ec7;" horiz-adv-x="576" 
d="M532 255v-9h-412c3 -118 78 -192 193 -192c78 0 144 33 183 70l20 -62c-43 -39 -118 -72 -207 -72c-161 0 -260 117 -260 261c0 150 106 261 247 261c140 0 236 -107 236 -257zM124 301h334c-11 86 -72 149 -162 149c-83 0 -156 -60 -172 -149zM142 573l120 152h76
l120 -152h-66l-92 107l-92 -107h-66zM301 -195c-30 0 -53 23 -53 53s23 53 53 53s53 -23 53 -53s-23 -53 -53 -53z" />
    <glyph glyph-name="uni1EC1" unicode="&#x1ec1;" horiz-adv-x="576" 
d="M532 255v-9h-412c3 -118 78 -192 193 -192c78 0 144 33 183 70l20 -62c-43 -39 -118 -72 -207 -72c-161 0 -260 117 -260 261c0 150 106 261 247 261c140 0 236 -107 236 -257zM124 301h334c-11 86 -72 149 -162 149c-83 0 -156 -60 -172 -149zM131 680l-76 100h68
l65 -100h-57zM158 573l108 152h68l108 -152h-59l-83 107l-83 -107h-59z" />
    <glyph glyph-name="uni1EC3" unicode="&#x1ec3;" horiz-adv-x="576" 
d="M532 255v-9h-412c3 -118 78 -192 193 -192c78 0 144 33 183 70l20 -62c-43 -39 -118 -72 -207 -72c-161 0 -260 117 -260 261c0 150 106 261 247 261c140 0 236 -107 236 -257zM124 301h334c-11 86 -72 149 -162 149c-83 0 -156 -60 -172 -149zM427 661c0 37 9 45 36 58
c24 13 42 22 42 42c0 21 -16 29 -43 29c-21 0 -39 -4 -55 -12l-11 42c21 10 49 16 74 16c45 0 87 -23 87 -70c0 -39 -29 -58 -57 -74c-17 -9 -19 -12 -19 -31h-54zM158 573l108 152h68l108 -152h-59l-83 107l-83 -107h-59z" />
    <glyph glyph-name="uni1EC5" unicode="&#x1ec5;" horiz-adv-x="576" 
d="M532 255v-9h-412c3 -118 78 -192 193 -192c78 0 144 33 183 70l20 -62c-43 -39 -118 -72 -207 -72c-161 0 -260 117 -260 261c0 150 106 261 247 261c140 0 236 -107 236 -257zM124 301h334c-11 86 -72 149 -162 149c-83 0 -156 -60 -172 -149zM157 768c7 63 39 88 73 88
c21 0 49 -9 78 -21c25 -11 41 -17 53 -17c18 0 30 12 34 38h45c-8 -61 -38 -88 -73 -88c-22 0 -47 10 -75 22s-44 17 -57 17c-14 0 -25 -7 -32 -39h-46zM142 573l120 152h76l120 -152h-66l-92 107l-92 -107h-66z" />
    <glyph glyph-name="uni1EB9" unicode="&#x1eb9;" horiz-adv-x="576" 
d="M532 255v-9h-412c3 -118 78 -192 193 -192c78 0 144 33 183 70l20 -62c-43 -39 -118 -72 -207 -72c-161 0 -260 117 -260 261c0 150 106 261 247 261c140 0 236 -107 236 -257zM124 301h334c-11 86 -72 149 -162 149c-83 0 -156 -60 -172 -149zM301 -195
c-30 0 -53 23 -53 53s23 53 53 53s53 -23 53 -53s-23 -53 -53 -53z" />
    <glyph glyph-name="uni1EBB" unicode="&#x1ebb;" horiz-adv-x="576" 
d="M532 255v-9h-412c3 -118 78 -192 193 -192c78 0 144 33 183 70l20 -62c-43 -39 -118 -72 -207 -72c-161 0 -260 117 -260 261c0 150 106 261 247 261c140 0 236 -107 236 -257zM124 301h334c-11 86 -72 149 -162 149c-83 0 -156 -60 -172 -149zM268 563c0 41 10 50 39 65
c27 14 47 24 47 47s-18 32 -48 32c-23 0 -43 -5 -61 -14l-12 47c23 11 55 18 82 18c50 0 97 -26 97 -78c0 -43 -32 -64 -63 -82c-19 -10 -21 -14 -22 -35h-59z" />
    <glyph glyph-name="uni1EBD" unicode="&#x1ebd;" horiz-adv-x="576" 
d="M532 255v-9h-412c3 -118 78 -192 193 -192c78 0 144 33 183 70l20 -62c-43 -39 -118 -72 -207 -72c-161 0 -260 117 -260 261c0 150 106 261 247 261c140 0 236 -107 236 -257zM124 301h334c-11 86 -72 149 -162 149c-83 0 -156 -60 -172 -149zM141 597c8 70 43 98 81 98
c24 0 55 -11 87 -24c28 -12 45 -19 59 -19c20 0 33 14 37 43h51c-9 -68 -43 -98 -82 -98c-24 0 -52 11 -83 24s-49 19 -63 19c-16 0 -28 -8 -36 -43h-51z" />
    <glyph glyph-name="uni0259" unicode="&#x259;" horiz-adv-x="576" 
d="M267 512c161 0 260 -117 260 -261c0 -150 -106 -261 -247 -261c-140 0 -236 107 -236 257v9h412c-3 118 -78 192 -193 192c-78 0 -144 -33 -183 -70l-20 62c43 39 118 72 207 72zM280 52c83 0 156 60 172 149h-334c11 -86 72 -149 162 -149z" />
    <glyph glyph-name="uni1ECB" unicode="&#x1ecb;" horiz-adv-x="255" 
d="M129 612c-30 0 -53 23 -53 53s23 53 53 53s53 -23 53 -53s-23 -53 -53 -53zM93 0v502h70v-502h-70zM129 -195c-30 0 -53 23 -53 53s23 53 53 53s53 -23 53 -53s-23 -53 -53 -53z" />
    <glyph glyph-name="uni1EC9" unicode="&#x1ec9;" horiz-adv-x="255" 
d="M93 0v502h70v-502h-70zM97 563c0 41 10 50 39 65c27 14 47 24 47 47s-18 32 -48 32c-23 0 -43 -5 -61 -14l-12 47c23 11 55 18 82 18c50 0 97 -26 97 -78c0 -43 -32 -64 -63 -82c-19 -10 -21 -14 -22 -35h-59z" />
    <glyph glyph-name="uni1ED1" unicode="&#x1ed1;" horiz-adv-x="624" 
d="M312 -10c-155 0 -263 108 -263 261s108 261 263 261s263 -108 263 -261s-108 -261 -263 -261zM312 57c114 0 192 79 192 194c0 116 -80 194 -192 194c-114 0 -191 -79 -191 -193c0 -117 79 -195 191 -195zM422 680l64 100h68l-75 -100h-57zM167 573l108 152h68l108 -152
h-59l-83 107l-83 -107h-59z" />
    <glyph glyph-name="uni1ED9" unicode="&#x1ed9;" horiz-adv-x="624" 
d="M312 -10c-155 0 -263 108 -263 261s108 261 263 261s263 -108 263 -261s-108 -261 -263 -261zM312 57c114 0 192 79 192 194c0 116 -80 194 -192 194c-114 0 -191 -79 -191 -193c0 -117 79 -195 191 -195zM154 573l120 152h76l120 -152h-66l-92 107l-92 -107h-66z
M319 -195c-30 0 -53 23 -53 53s23 53 53 53s53 -23 53 -53s-23 -53 -53 -53z" />
    <glyph glyph-name="uni1ED3" unicode="&#x1ed3;" horiz-adv-x="624" 
d="M312 -10c-155 0 -263 108 -263 261s108 261 263 261s263 -108 263 -261s-108 -261 -263 -261zM312 57c114 0 192 79 192 194c0 116 -80 194 -192 194c-114 0 -191 -79 -191 -193c0 -117 79 -195 191 -195zM143 680l-76 100h68l65 -100h-57zM170 573l108 152h68l108 -152
h-59l-83 107l-83 -107h-59z" />
    <glyph glyph-name="uni1ED5" unicode="&#x1ed5;" horiz-adv-x="624" 
d="M312 -10c-155 0 -263 108 -263 261s108 261 263 261s263 -108 263 -261s-108 -261 -263 -261zM312 57c114 0 192 79 192 194c0 116 -80 194 -192 194c-114 0 -191 -79 -191 -193c0 -117 79 -195 191 -195zM439 661c0 37 9 45 36 58c24 13 42 22 42 42c0 21 -16 29 -43 29
c-21 0 -39 -4 -55 -12l-11 42c21 10 49 16 74 16c45 0 87 -23 87 -70c0 -39 -29 -58 -57 -74c-17 -9 -19 -12 -19 -31h-54zM170 573l108 152h68l108 -152h-59l-83 107l-83 -107h-59z" />
    <glyph glyph-name="uni1ED7" unicode="&#x1ed7;" horiz-adv-x="624" 
d="M312 -10c-155 0 -263 108 -263 261s108 261 263 261s263 -108 263 -261s-108 -261 -263 -261zM312 57c114 0 192 79 192 194c0 116 -80 194 -192 194c-114 0 -191 -79 -191 -193c0 -117 79 -195 191 -195zM169 768c7 63 39 88 73 88c21 0 49 -9 78 -21
c25 -11 41 -17 53 -17c18 0 30 12 34 38h45c-8 -61 -38 -88 -73 -88c-22 0 -47 10 -75 22s-44 17 -57 17c-14 0 -25 -7 -32 -39h-46zM154 573l120 152h76l120 -152h-66l-92 107l-92 -107h-66z" />
    <glyph glyph-name="uni1ECD" unicode="&#x1ecd;" horiz-adv-x="624" 
d="M312 -10c-155 0 -263 108 -263 261s108 261 263 261s263 -108 263 -261s-108 -261 -263 -261zM312 57c114 0 192 79 192 194c0 116 -80 194 -192 194c-114 0 -191 -79 -191 -193c0 -117 79 -195 191 -195zM319 -195c-30 0 -53 23 -53 53s23 53 53 53s53 -23 53 -53
s-23 -53 -53 -53z" />
    <glyph glyph-name="uni1ECF" unicode="&#x1ecf;" horiz-adv-x="624" 
d="M312 -10c-155 0 -263 108 -263 261s108 261 263 261s263 -108 263 -261s-108 -261 -263 -261zM312 57c114 0 192 79 192 194c0 116 -80 194 -192 194c-114 0 -191 -79 -191 -193c0 -117 79 -195 191 -195zM280 563c0 41 10 50 39 65c27 14 47 24 47 47s-18 32 -48 32
c-23 0 -43 -5 -61 -14l-12 47c23 11 55 18 82 18c50 0 97 -26 97 -78c0 -43 -32 -64 -63 -82c-19 -10 -21 -14 -22 -35h-59z" />
    <glyph glyph-name="ohorn" unicode="&#x1a1;" horiz-adv-x="624" 
d="M601 558c0 -72 -42 -114 -95 -124c44 -45 69 -110 69 -183c0 -153 -108 -261 -263 -261s-263 108 -263 261s108 261 264 261c37 0 66 -8 97 -17c26 -7 37 -9 52 -9c47 0 75 18 75 72c0 26 -7 49 -17 64l61 17c13 -24 20 -52 20 -81zM313 57c113 0 191 79 191 194
c0 116 -80 194 -193 194s-190 -79 -190 -193c0 -117 79 -195 192 -195z" />
    <glyph glyph-name="uni1EDB" unicode="&#x1edb;" horiz-adv-x="624" 
d="M601 558c0 -72 -42 -114 -95 -124c44 -45 69 -110 69 -183c0 -153 -108 -261 -263 -261s-263 108 -263 261s108 261 264 261c37 0 66 -8 97 -17c26 -7 37 -9 52 -9c47 0 75 18 75 72c0 26 -7 49 -17 64l61 17c13 -24 20 -52 20 -81zM313 57c113 0 191 79 191 194
c0 116 -80 194 -193 194s-190 -79 -190 -193c0 -117 79 -195 192 -195zM257 573l111 152h74l-119 -152h-66z" />
    <glyph glyph-name="uni1EE3" unicode="&#x1ee3;" horiz-adv-x="624" 
d="M601 558c0 -72 -42 -114 -95 -124c44 -45 69 -110 69 -183c0 -153 -108 -261 -263 -261s-263 108 -263 261s108 261 264 261c37 0 66 -8 97 -17c26 -7 37 -9 52 -9c47 0 75 18 75 72c0 26 -7 49 -17 64l61 17c13 -24 20 -52 20 -81zM313 57c113 0 191 79 191 194
c0 116 -80 194 -193 194s-190 -79 -190 -193c0 -117 79 -195 192 -195zM319 -195c-30 0 -53 23 -53 53s23 53 53 53s53 -23 53 -53s-23 -53 -53 -53z" />
    <glyph glyph-name="uni1EDD" unicode="&#x1edd;" horiz-adv-x="624" 
d="M601 558c0 -72 -42 -114 -95 -124c44 -45 69 -110 69 -183c0 -153 -108 -261 -263 -261s-263 108 -263 261s108 261 264 261c37 0 66 -8 97 -17c26 -7 37 -9 52 -9c47 0 75 18 75 72c0 26 -7 49 -17 64l61 17c13 -24 20 -52 20 -81zM313 57c113 0 191 79 191 194
c0 116 -80 194 -193 194s-190 -79 -190 -193c0 -117 79 -195 192 -195zM312 573l-120 152h74l112 -152h-66z" />
    <glyph glyph-name="uni1EDF" unicode="&#x1edf;" horiz-adv-x="624" 
d="M601 558c0 -72 -42 -114 -95 -124c44 -45 69 -110 69 -183c0 -153 -108 -261 -263 -261s-263 108 -263 261s108 261 264 261c37 0 66 -8 97 -17c26 -7 37 -9 52 -9c47 0 75 18 75 72c0 26 -7 49 -17 64l61 17c13 -24 20 -52 20 -81zM313 57c113 0 191 79 191 194
c0 116 -80 194 -193 194s-190 -79 -190 -193c0 -117 79 -195 192 -195zM280 563c0 41 10 50 39 65c27 14 47 24 47 47s-18 32 -48 32c-23 0 -43 -5 -61 -14l-12 47c23 11 55 18 82 18c50 0 97 -26 97 -78c0 -43 -32 -64 -63 -82c-19 -10 -21 -14 -22 -35h-59z" />
    <glyph glyph-name="uni1EE1" unicode="&#x1ee1;" horiz-adv-x="624" 
d="M601 558c0 -72 -42 -114 -95 -124c44 -45 69 -110 69 -183c0 -153 -108 -261 -263 -261s-263 108 -263 261s108 261 264 261c37 0 66 -8 97 -17c26 -7 37 -9 52 -9c47 0 75 18 75 72c0 26 -7 49 -17 64l61 17c13 -24 20 -52 20 -81zM313 57c113 0 191 79 191 194
c0 116 -80 194 -193 194s-190 -79 -190 -193c0 -117 79 -195 192 -195zM153 597c8 70 43 98 81 98c24 0 55 -11 87 -24c28 -12 45 -19 59 -19c20 0 33 14 37 43h51c-9 -68 -43 -98 -82 -98c-24 0 -52 11 -83 24s-49 19 -63 19c-16 0 -28 -8 -36 -43h-51z" />
    <glyph glyph-name="oslashacute" unicode="&#x1ff;" horiz-adv-x="624" 
d="M487 451c55 -46 88 -117 88 -200c0 -152 -110 -261 -263 -261c-48 0 -92 11 -129 30l-52 -74h-64l72 103c-56 46 -90 118 -90 202c0 152 110 261 263 261c49 0 93 -11 131 -31l52 73h64zM119 252c0 -61 22 -113 60 -147l226 321c-27 14 -59 21 -93 21
c-113 0 -193 -80 -193 -195zM312 55c114 0 193 81 193 196c0 60 -21 110 -57 145l-226 -321c26 -13 57 -20 90 -20zM257 573l111 152h74l-119 -152h-66z" />
    <glyph glyph-name="uni1EE5" unicode="&#x1ee5;" horiz-adv-x="615" 
d="M452 502h70v-502h-70v95c-32 -65 -97 -105 -185 -105c-111 0 -181 66 -181 204v308h70v-289c0 -105 47 -160 134 -160c94 0 162 68 162 163v286zM307 -195c-30 0 -53 23 -53 53s23 53 53 53s53 -23 53 -53s-23 -53 -53 -53z" />
    <glyph glyph-name="uni1EE7" unicode="&#x1ee7;" horiz-adv-x="615" 
d="M452 502h70v-502h-70v95c-32 -65 -97 -105 -185 -105c-111 0 -181 66 -181 204v308h70v-289c0 -105 47 -160 134 -160c94 0 162 68 162 163v286zM278 563c0 41 10 50 39 65c27 14 47 24 47 47s-18 32 -48 32c-23 0 -43 -5 -61 -14l-12 47c23 11 55 18 82 18
c50 0 97 -26 97 -78c0 -43 -32 -64 -63 -82c-19 -10 -21 -14 -22 -35h-59z" />
    <glyph glyph-name="uhorn" unicode="&#x1b0;" horiz-adv-x="615" 
d="M621 567c0 -56 -32 -99 -99 -115v-452h-70v95c-32 -65 -97 -105 -185 -105c-111 0 -181 66 -181 204v308h70v-289c0 -105 47 -160 134 -160c94 0 162 68 162 163v286h6c64 0 99 16 99 66c0 24 -7 47 -17 63l61 16c13 -23 20 -52 20 -80z" />
    <glyph glyph-name="uni1EE9" unicode="&#x1ee9;" horiz-adv-x="615" 
d="M621 567c0 -56 -32 -99 -99 -115v-452h-70v95c-32 -65 -97 -105 -185 -105c-111 0 -181 66 -181 204v308h70v-289c0 -105 47 -160 134 -160c94 0 162 68 162 163v286h6c64 0 99 16 99 66c0 24 -7 47 -17 63l61 16c13 -23 20 -52 20 -80zM255 573l111 152h74l-119 -152
h-66z" />
    <glyph glyph-name="uni1EF1" unicode="&#x1ef1;" horiz-adv-x="615" 
d="M621 567c0 -56 -32 -99 -99 -115v-452h-70v95c-32 -65 -97 -105 -185 -105c-111 0 -181 66 -181 204v308h70v-289c0 -105 47 -160 134 -160c94 0 162 68 162 163v286h6c64 0 99 16 99 66c0 24 -7 47 -17 63l61 16c13 -23 20 -52 20 -80zM307 -195c-30 0 -53 23 -53 53
s23 53 53 53s53 -23 53 -53s-23 -53 -53 -53z" />
    <glyph glyph-name="uni1EEB" unicode="&#x1eeb;" horiz-adv-x="615" 
d="M621 567c0 -56 -32 -99 -99 -115v-452h-70v95c-32 -65 -97 -105 -185 -105c-111 0 -181 66 -181 204v308h70v-289c0 -105 47 -160 134 -160c94 0 162 68 162 163v286h6c64 0 99 16 99 66c0 24 -7 47 -17 63l61 16c13 -23 20 -52 20 -80zM310 573l-120 152h74l112 -152
h-66z" />
    <glyph glyph-name="uni1EED" unicode="&#x1eed;" horiz-adv-x="615" 
d="M621 567c0 -56 -32 -99 -99 -115v-452h-70v95c-32 -65 -97 -105 -185 -105c-111 0 -181 66 -181 204v308h70v-289c0 -105 47 -160 134 -160c94 0 162 68 162 163v286h6c64 0 99 16 99 66c0 24 -7 47 -17 63l61 16c13 -23 20 -52 20 -80zM278 563c0 41 10 50 39 65
c27 14 47 24 47 47s-18 32 -48 32c-23 0 -43 -5 -61 -14l-12 47c23 11 55 18 82 18c50 0 97 -26 97 -78c0 -43 -32 -64 -63 -82c-19 -10 -21 -14 -22 -35h-59z" />
    <glyph glyph-name="uni1EEF" unicode="&#x1eef;" horiz-adv-x="615" 
d="M621 567c0 -56 -32 -99 -99 -115v-452h-70v95c-32 -65 -97 -105 -185 -105c-111 0 -181 66 -181 204v308h70v-289c0 -105 47 -160 134 -160c94 0 162 68 162 163v286h6c64 0 99 16 99 66c0 24 -7 47 -17 63l61 16c13 -23 20 -52 20 -80zM151 597c8 70 43 98 81 98
c24 0 55 -11 87 -24c28 -12 45 -19 59 -19c20 0 33 14 37 43h51c-9 -68 -43 -98 -82 -98c-24 0 -52 11 -83 24s-49 19 -63 19c-16 0 -28 -8 -36 -43h-51z" />
    <glyph glyph-name="uni1EF5" unicode="&#x1ef5;" horiz-adv-x="489" 
d="M410 502h75l-235 -574c-40 -98 -95 -143 -178 -143c-19 0 -39 2 -58 8l10 64c11 -3 23 -5 38 -5c54 0 91 20 125 99l32 74l-215 477h77l175 -394zM375 -203c-30 0 -53 23 -53 53s23 53 53 53s53 -23 53 -53s-23 -53 -53 -53z" />
    <glyph glyph-name="uni1EF7" unicode="&#x1ef7;" horiz-adv-x="489" 
d="M410 502h75l-235 -574c-40 -98 -95 -143 -178 -143c-19 0 -39 2 -58 8l10 64c11 -3 23 -5 38 -5c54 0 91 20 125 99l32 74l-215 477h77l175 -394zM214 563c0 41 10 50 39 65c27 14 47 24 47 47s-18 32 -48 32c-23 0 -43 -5 -61 -14l-12 47c23 11 55 18 82 18
c50 0 97 -26 97 -78c0 -43 -32 -64 -63 -82c-19 -10 -21 -14 -22 -35h-59z" />
    <glyph glyph-name="uni1EF9" unicode="&#x1ef9;" horiz-adv-x="489" 
d="M410 502h75l-235 -574c-40 -98 -95 -143 -178 -143c-19 0 -39 2 -58 8l10 64c11 -3 23 -5 38 -5c54 0 91 20 125 99l32 74l-215 477h77l175 -394zM87 597c8 70 43 98 81 98c24 0 55 -11 87 -24c28 -12 45 -19 59 -19c20 0 33 14 37 43h51c-9 -68 -43 -98 -82 -98
c-24 0 -52 11 -83 24s-49 19 -63 19c-16 0 -28 -8 -36 -43h-51z" />
    <glyph glyph-name="uni207F" unicode="&#x207f;" horiz-adv-x="385" 
d="M213 726c72 0 112 -45 112 -126v-185h-51v174c0 58 -26 89 -77 89c-53 0 -85 -39 -85 -101v-162h-52v305h52v-46c20 33 54 52 101 52z" />
    <glyph glyph-name="uni0410" unicode="&#x410;" horiz-adv-x="666" 
d="M567 0l-87 230h-296l-87 -230h-76l273 710h78l273 -710h-78zM207 293h250l-125 331z" />
    <glyph glyph-name="uni0411" unicode="&#x411;" horiz-adv-x="611" 
d="M336 407c156 0 229 -78 229 -198c0 -125 -73 -209 -229 -209h-233v710h378v-69h-303v-234h158zM325 66c109 0 163 50 163 142c0 91 -61 133 -163 133h-147v-275h147z" />
    <glyph glyph-name="uni0412" unicode="&#x412;" horiz-adv-x="618" 
d="M417 372c88 -18 143 -83 143 -173c0 -118 -82 -199 -219 -199h-238v710h198c133 0 213 -72 213 -181c0 -63 -26 -121 -97 -157zM178 644v-254h129c82 0 135 61 135 133c0 73 -53 121 -146 121h-118zM334 66c97 0 151 55 151 136c0 79 -54 123 -138 123h-169v-259h156z
" />
    <glyph glyph-name="uni0413" unicode="&#x413;" horiz-adv-x="520" 
d="M495 710v-69h-317v-641h-75v710h392z" />
    <glyph glyph-name="uni0403" unicode="&#x403;" horiz-adv-x="520" 
d="M495 710v-69h-317v-641h-75v710h392zM248 774l115 143h79l-128 -143h-66z" />
    <glyph glyph-name="uni0490" unicode="&#x490;" horiz-adv-x="520" 
d="M426 850h69v-209h-317v-641h-75v710h323v140z" />
    <glyph glyph-name="uni0414" unicode="&#x414;" horiz-adv-x="679" 
d="M564 68h82v-235h-68v167h-499v-167h-69v235h43c40 0 76 73 87 170l52 472h372v-642zM213 233c-10 -91 -32 -149 -57 -165h333v574h-230z" />
    <glyph glyph-name="uni0415" unicode="&#x415;" horiz-adv-x="578" 
d="M103 0v710h389v-68h-314v-252h305v-67h-305v-255h322v-68h-397z" />
    <glyph glyph-name="uni0400" unicode="&#x400;" horiz-adv-x="578" 
d="M103 0v710h389v-68h-314v-252h305v-67h-305v-255h322v-68h-397zM290 774l-128 143h80l114 -143h-66z" />
    <glyph glyph-name="uni0401" unicode="&#x401;" horiz-adv-x="578" 
d="M103 0v710h389v-68h-314v-252h305v-67h-305v-255h322v-68h-397zM197 795c-28 0 -50 22 -50 49c0 28 22 50 50 50c27 0 49 -22 49 -50c0 -27 -22 -49 -49 -49zM409 795c-28 0 -49 22 -49 49c0 28 21 50 49 50s50 -22 50 -50c0 -27 -22 -49 -50 -49z" />
    <glyph glyph-name="uni0416" unicode="&#x416;" horiz-adv-x="990" 
d="M894 -1l-293 325h-69v-325h-74v325h-69l-293 -325h-90l327 365l-297 345h88l271 -321h63v321h74v-321h63l271 321h88l-296 -345l326 -365h-90z" />
    <glyph glyph-name="uni0417" unicode="&#x417;" horiz-adv-x="590" 
d="M280 -11c-117 0 -198 46 -247 99l38 60c46 -47 110 -91 208 -91c108 0 179 54 179 144c0 95 -78 138 -245 138v63c178 3 218 73 218 135c0 73 -58 116 -146 116c-79 0 -141 -34 -185 -72l-33 59c52 43 124 80 220 80c131 0 218 -69 218 -175c0 -90 -61 -149 -146 -168
c107 -16 173 -74 173 -178c0 -122 -90 -210 -252 -210z" />
    <glyph glyph-name="uni0418" unicode="&#x418;" horiz-adv-x="776" 
d="M602 710h71v-710h-74v593l-425 -593h-71v710h74v-593z" />
    <glyph glyph-name="uni0419" unicode="&#x419;" horiz-adv-x="776" 
d="M602 710h71v-710h-74v593l-425 -593h-71v710h74v-593zM389 778c-96 0 -150 38 -154 114h55c5 -49 42 -64 100 -64c56 0 91 17 97 64h54c-6 -76 -66 -114 -152 -114z" />
    <glyph glyph-name="uni040D" unicode="&#x40d;" horiz-adv-x="776" 
d="M602 710h71v-710h-74v593l-425 -593h-71v710h74v-593zM376 774l-128 143h80l114 -143h-66z" />
    <glyph glyph-name="uni041A" unicode="&#x41a;" horiz-adv-x="635" 
d="M537 -1l-292 325h-67v-325h-75v710h75v-321h61l273 321h87l-296 -345l326 -365h-92z" />
    <glyph glyph-name="uni040C" unicode="&#x40c;" horiz-adv-x="635" 
d="M537 -1l-292 325h-67v-325h-75v710h75v-321h61l273 321h87l-296 -345l326 -365h-92zM282 774l115 143h79l-128 -143h-66z" />
    <glyph glyph-name="uni041B" unicode="&#x41b;" horiz-adv-x="665" 
d="M562 710v-710h-75v642h-248l-49 -513c-8 -88 -44 -136 -124 -136c-31 0 -52 7 -66 13l14 68c8 -5 28 -13 46 -13c37 0 53 28 59 92l53 557h390z" />
    <glyph glyph-name="uni041C" unicode="&#x41c;" horiz-adv-x="862" 
d="M103 0v710h86l240 -365l246 365h84v-710h-74v601l-229 -342h-54l-225 342v-601h-74z" />
    <glyph glyph-name="uni041D" unicode="&#x41d;" horiz-adv-x="759" 
d="M580 710h75v-710h-75v321h-402v-321h-75v710h75v-320h402v320z" />
    <glyph glyph-name="uni041E" unicode="&#x41e;" horiz-adv-x="871" 
d="M435 -10c-211 0 -369 154 -369 365c0 212 158 365 370 365c211 0 369 -154 369 -364c0 -211 -158 -366 -370 -366zM436 62c169 0 293 125 293 293c0 169 -124 294 -293 294c-170 0 -294 -125 -294 -294c0 -168 124 -293 294 -293z" />
    <glyph glyph-name="uni041F" unicode="&#x41f;" horiz-adv-x="749" 
d="M645 710v-710h-75v642h-392v-642h-75v710h542z" />
    <glyph glyph-name="uni0420" unicode="&#x420;" horiz-adv-x="585" 
d="M300 710c156 0 239 -86 239 -218c0 -119 -83 -227 -239 -227h-122v-265h-75v710h197zM292 331c95 0 170 58 170 161c0 114 -75 152 -170 152h-114v-313h114z" />
    <glyph glyph-name="uni0421" unicode="&#x421;" horiz-adv-x="729" 
d="M432 -10c-211 0 -366 154 -366 367c0 212 156 363 367 363c93 0 175 -30 238 -79l-26 -71c-57 48 -131 78 -211 78c-170 0 -291 -123 -291 -291c0 -169 122 -295 291 -295c90 0 168 35 225 80l23 -70c-74 -55 -154 -82 -250 -82z" />
    <glyph glyph-name="uni0422" unicode="&#x422;" horiz-adv-x="522" 
d="M497 710v-68h-196v-642h-75v642h-201v68h472z" />
    <glyph glyph-name="uni0423" unicode="&#x423;" horiz-adv-x="617" 
d="M535 710h79l-240 -546c-44 -102 -82 -174 -199 -174c-37 0 -74 6 -107 21l18 66c23 -13 53 -20 86 -20c61 0 91 33 123 103l-278 550h81l234 -473z" />
    <glyph glyph-name="uni040E" unicode="&#x40e;" horiz-adv-x="617" 
d="M535 710h79l-240 -546c-44 -102 -82 -174 -199 -174c-37 0 -74 6 -107 21l18 66c23 -13 53 -20 86 -20c61 0 91 33 123 103l-278 550h81l234 -473zM310 778c-96 0 -150 38 -154 114h55c5 -49 42 -64 100 -64c56 0 91 17 97 64h54c-6 -76 -66 -114 -152 -114z" />
    <glyph glyph-name="uni0424" unicode="&#x424;" horiz-adv-x="849" 
d="M800 355c0 -173 -142 -282 -339 -294v-73h-71v73c-199 11 -341 120 -341 294s142 283 341 294v73h71v-73c197 -12 339 -120 339 -294zM123 355c0 -134 110 -219 267 -230v460c-157 -11 -267 -96 -267 -230zM461 125c155 12 265 96 265 230s-110 218 -265 230v-460z" />
    <glyph glyph-name="uni0425" unicode="&#x425;" horiz-adv-x="667" 
d="M626 0h-87l-202 300l-202 -300h-83l244 359l-237 351h87l194 -290l196 290h81l-237 -348z" />
    <glyph glyph-name="uni0427" unicode="&#x427;" horiz-adv-x="704" 
d="M526 1v340c-60 -46 -146 -84 -248 -84c-148 0 -211 79 -211 201v252h75v-238c0 -93 41 -149 148 -149c81 0 169 31 236 81v306h75v-709h-75z" />
    <glyph glyph-name="uni0426" unicode="&#x426;" horiz-adv-x="761" 
d="M646 68h83v-235h-69v167h-557v710h75v-642h393v642h75v-642z" />
    <glyph glyph-name="uni0428" unicode="&#x428;" horiz-adv-x="1126" 
d="M103 0v710h75v-642h347v642h75v-642h347v642h75v-710h-919z" />
    <glyph glyph-name="uni0429" unicode="&#x429;" horiz-adv-x="1138" 
d="M1022 68h83v-235h-69v167h-933v710h75v-642h347v642h75v-642h347v642h75v-642z" />
    <glyph glyph-name="uni040F" unicode="&#x40f;" horiz-adv-x="749" 
d="M570 710h75v-710h-237v-167h-68v167h-237v710h75v-642h392v642z" />
    <glyph glyph-name="uni042C" unicode="&#x42c;" horiz-adv-x="611" 
d="M336 407c156 0 229 -78 229 -198c0 -125 -73 -209 -229 -209h-233v710h75v-303h158zM325 66c109 0 163 50 163 142c0 91 -61 133 -163 133h-147v-275h147z" />
    <glyph glyph-name="uni042A" unicode="&#x42a;" horiz-adv-x="737" 
d="M462 407c156 0 229 -78 229 -198c0 -125 -73 -209 -229 -209h-233v641h-204v69h279v-303h158zM451 66c109 0 163 50 163 142c0 91 -61 133 -163 133h-147v-275h147z" />
    <glyph glyph-name="uni042B" unicode="&#x42b;" horiz-adv-x="893" 
d="M336 407c156 0 229 -78 229 -198c0 -125 -73 -209 -229 -209h-233v710h75v-303h158zM325 66c109 0 163 50 163 142c0 91 -61 133 -163 133h-147v-275h147zM714 0v710h75v-710h-75z" />
    <glyph glyph-name="uni0409" unicode="&#x409;" horiz-adv-x="964" 
d="M689 407c156 0 229 -78 229 -198c0 -125 -73 -209 -229 -209h-233v642h-217l-49 -513c-8 -88 -44 -136 -124 -136c-31 0 -52 7 -66 13l14 68c8 -5 28 -13 47 -13c37 0 52 28 58 92l53 557h359v-303h158zM678 66c109 0 163 50 163 142c0 91 -61 133 -163 133h-147v-275
h147z" />
    <glyph glyph-name="uni040A" unicode="&#x40a;" horiz-adv-x="1051" 
d="M776 407c156 0 229 -78 229 -198c0 -125 -73 -209 -229 -209h-233v340h-365v-340h-75v710h75v-303h365v303h75v-303h158zM765 66c109 0 163 50 163 142c0 91 -61 133 -163 133h-147v-275h147z" />
    <glyph glyph-name="uni0405" unicode="&#x405;" horiz-adv-x="583" 
d="M285 -10c-82 0 -162 27 -221 71l21 73c53 -45 129 -75 206 -75c92 0 150 44 150 127c0 81 -64 105 -162 141c-106 39 -199 81 -199 202c0 118 92 192 227 192c69 0 137 -20 185 -46l-18 -71c-46 27 -111 49 -172 49c-89 0 -148 -46 -148 -119c0 -80 65 -107 157 -142
c107 -41 204 -69 204 -201c0 -129 -95 -201 -230 -201z" />
    <glyph glyph-name="uni0404" unicode="&#x404;" horiz-adv-x="729" 
d="M659 140l23 -68c-74 -55 -155 -82 -247 -82c-214 0 -369 148 -369 365c0 216 156 365 366 365c94 0 176 -30 239 -80l-26 -69c-57 49 -130 79 -213 79c-159 0 -276 -109 -290 -264h395v-67h-394c16 -154 133 -259 290 -259c91 0 169 35 226 80z" />
    <glyph glyph-name="uni042D" unicode="&#x42d;" horiz-adv-x="729" 
d="M303 720c210 0 360 -149 360 -365c0 -217 -155 -365 -351 -365c-110 0 -191 27 -265 82l23 68c57 -45 135 -80 235 -80c151 0 265 104 281 259h-394v67h395c-12 156 -123 264 -284 264c-86 0 -162 -30 -220 -78l-25 68c64 50 148 80 245 80z" />
    <glyph glyph-name="uni0406" unicode="&#x406;" horiz-adv-x="282" 
d="M103 0v710h75v-710h-75z" />
    <glyph glyph-name="uni0407" unicode="&#x407;" horiz-adv-x="282" 
d="M103 0v710h75v-710h-75zM36 795c-28 0 -50 22 -50 49c0 28 22 50 50 50c27 0 49 -22 49 -50c0 -27 -22 -49 -49 -49zM248 795c-28 0 -49 22 -49 49c0 28 21 50 49 50s50 -22 50 -50c0 -27 -22 -49 -50 -49z" />
    <glyph glyph-name="uni0408" unicode="&#x408;" horiz-adv-x="398" 
d="M103 -10c-33 0 -70 6 -103 21l15 67c24 -12 55 -20 81 -20c78 0 132 55 132 176v476h75v-485c0 -154 -77 -235 -200 -235z" />
    <glyph glyph-name="uni040B" unicode="&#x40b;" horiz-adv-x="851" 
d="M549 451c143 0 206 -76 206 -195v-256h-75v249c0 81 -39 133 -142 133c-79 0 -168 -27 -237 -76v-306h-75v642h-201v68h472v-68h-196v-273c62 45 146 82 248 82z" />
    <glyph glyph-name="uni042E" unicode="&#x42e;" horiz-adv-x="1116" 
d="M681 720c211 0 369 -154 369 -364c0 -211 -158 -366 -370 -366c-199 0 -352 138 -368 331h-134v-321h-75v710h75v-320h134c17 194 169 330 369 330zM681 62c169 0 293 125 293 293c0 169 -124 294 -293 294c-170 0 -294 -125 -294 -294c0 -168 124 -293 294 -293z" />
    <glyph glyph-name="uni042F" unicode="&#x42f;" horiz-adv-x="632" 
d="M528 710v-710h-75v297h-134c-6 0 -12 0 -17 1l-181 -298h-88l197 312c-82 31 -129 106 -129 195c0 124 86 203 224 203h203zM326 361h127v283h-121c-80 0 -155 -37 -155 -139c0 -104 69 -144 149 -144z" />
    <glyph glyph-name="uni0402" unicode="&#x402;" horiz-adv-x="808" 
d="M524 452c146 0 237 -86 237 -226c0 -148 -97 -236 -224 -236c-33 0 -71 6 -104 21l15 67c24 -12 60 -20 91 -20c83 0 148 58 148 162c0 103 -64 165 -173 165c-71 0 -146 -28 -213 -74v-311h-75v642h-201v68h472v-68h-196v-268c58 42 128 78 223 78z" />
    <glyph glyph-name="uni0492" unicode="&#x492;" horiz-adv-x="520" 
d="M495 641h-317v-271h208v-65h-208v-305h-75v305h-89v65h89v340h392v-69z" />
    <glyph glyph-name="uni0496" unicode="&#x496;" horiz-adv-x="1042" 
d="M922 68h96v-235h-69v166h-55l-293 325h-69v-325h-74v325h-69l-293 -325h-90l327 365l-297 345h88l271 -321h63v321h74v-321h63l271 321h88l-296 -345z" />
    <glyph glyph-name="uni049A" unicode="&#x49a;" horiz-adv-x="686" 
d="M567 68h95v-235h-69v166h-56l-292 325h-67v-325h-75v710h75v-321h61l273 321h87l-296 -345z" />
    <glyph glyph-name="uni049C" unicode="&#x49c;" horiz-adv-x="668" 
d="M662 -1h-90l-260 321v-209h-58v213h-76v-325h-75v710h75v-321h76v196h58v-185l235 310h85l-267 -345z" />
    <glyph glyph-name="uni04A2" unicode="&#x4a2;" horiz-adv-x="771" 
d="M655 68h83v-235h-68v167h-90v321h-402v-321h-75v710h75v-320h402v320h75v-642z" />
    <glyph glyph-name="uni04AE" unicode="&#x4ae;" horiz-adv-x="584" 
d="M582 710l-253 -426v-284h-74v284l-253 426h84l209 -352l208 352h79z" />
    <glyph glyph-name="uni04B2" unicode="&#x4b2;" horiz-adv-x="700" 
d="M580 68h96v-235h-69v167h-68l-202 300l-202 -300h-83l244 359l-237 351h87l194 -290l196 290h81l-237 -348z" />
    <glyph glyph-name="uni04B8" unicode="&#x4b8;" horiz-adv-x="704" 
d="M526 710h75v-709h-75v340c-42 -33 -98 -61 -163 -75v-179h-58v171c-9 -1 -18 -1 -27 -1c-148 0 -211 79 -211 201v252h75v-238c0 -93 41 -149 148 -149h15v236h58v-228c58 12 116 38 163 73v306z" />
    <glyph glyph-name="uni04BA" unicode="&#x4ba;" horiz-adv-x="704" 
d="M178 709v-340c60 46 146 84 248 84c148 0 211 -79 211 -201v-252h-75v238c0 93 -41 149 -148 149c-81 0 -169 -31 -236 -81v-306h-75v709h75z" />
    <glyph glyph-name="uni04C0" unicode="&#x4c0;" horiz-adv-x="282" 
d="M103 0v710h75v-710h-75z" />
    <glyph glyph-name="uni04D8" unicode="&#x4d8;" horiz-adv-x="778" 
d="M346 720c211 0 365 -154 365 -367c0 -212 -141 -366 -336 -366c-207 0 -327 145 -327 357v13h587c-4 173 -125 291 -292 291c-89 0 -167 -35 -224 -79l-24 69c74 55 155 82 251 82zM377 62c124 0 230 87 253 227h-496c11 -138 105 -227 243 -227z" />
    <glyph glyph-name="uni04E8" unicode="&#x4e8;" horiz-adv-x="871" 
d="M435 720c208 0 370 -157 370 -364c0 -208 -162 -366 -370 -366c-207 0 -369 157 -369 365s162 365 369 365zM436 649c-154 0 -276 -112 -291 -262h582c-15 150 -138 262 -291 262zM436 61c153 0 275 111 291 260h-582c16 -149 137 -260 291 -260z" />
    <glyph glyph-name="uni0430" unicode="&#x430;" horiz-adv-x="577" 
d="M289 512c127 0 202 -66 202 -200v-312h-69v88c-31 -56 -98 -98 -188 -98c-108 0 -171 58 -171 149c0 113 97 158 358 160v13c0 83 -48 138 -142 138c-77 0 -135 -37 -165 -61l-20 63c42 31 110 60 195 60zM248 48c77 0 173 41 173 150v50c-219 -2 -285 -34 -285 -107
c0 -56 39 -93 112 -93z" />
    <glyph glyph-name="uni0431" unicode="&#x431;" horiz-adv-x="628" 
d="M338 508c138 0 240 -100 240 -256c0 -152 -98 -262 -258 -262c-137 0 -262 79 -262 386c0 227 70 330 274 363c30 5 45 7 64 9c68 6 96 10 132 16l10 -64c-55 -8 -88 -11 -130 -15c-28 -3 -41 -4 -56 -7c-142 -20 -215 -71 -222 -273c42 57 114 103 208 103zM320 55
c117 0 187 82 187 198c0 118 -74 191 -178 191c-93 0 -166 -58 -199 -121c11 -211 93 -268 190 -268z" />
    <glyph glyph-name="uni0432" unicode="&#x432;" horiz-adv-x="537" 
d="M93 0v502h183c120 0 173 -50 173 -123c0 -61 -36 -101 -84 -113c74 -7 123 -50 123 -124c0 -98 -81 -142 -180 -142h-215zM163 288h113c82 0 104 43 104 82c0 51 -36 76 -108 76h-109v-158zM163 55h136c76 0 117 34 117 90c0 59 -46 89 -134 89h-119v-179z" />
    <glyph glyph-name="uni0433" unicode="&#x433;" horiz-adv-x="419" 
d="M93 0v502h297v-61h-227v-441h-70z" />
    <glyph glyph-name="uni0453" unicode="&#x453;" horiz-adv-x="419" 
d="M93 0v502h297v-61h-227v-441h-70zM182 573l111 152h74l-119 -152h-66z" />
    <glyph glyph-name="uni0491" unicode="&#x491;" horiz-adv-x="419" 
d="M324 624h66v-183h-227v-441h-70v502h231v122z" />
    <glyph glyph-name="uni0434" unicode="&#x434;" horiz-adv-x="598" 
d="M492 61h78v-207h-67v146h-418v-146h-67v207h30c51 0 77 37 88 132l38 309h318v-441zM206 184c-7 -62 -20 -101 -44 -123h260v380h-186z" />
    <glyph glyph-name="uni0435" unicode="&#x435;" horiz-adv-x="576" 
d="M532 255v-9h-412c3 -118 78 -192 193 -192c78 0 144 33 183 70l20 -62c-43 -39 -118 -72 -207 -72c-161 0 -260 117 -260 261c0 150 106 261 247 261c140 0 236 -107 236 -257zM124 301h334c-11 86 -72 149 -162 149c-83 0 -156 -60 -172 -149z" />
    <glyph glyph-name="uni0450" unicode="&#x450;" horiz-adv-x="576" 
d="M532 255v-9h-412c3 -118 78 -192 193 -192c78 0 144 33 183 70l20 -62c-43 -39 -118 -72 -207 -72c-161 0 -260 117 -260 261c0 150 106 261 247 261c140 0 236 -107 236 -257zM124 301h334c-11 86 -72 149 -162 149c-83 0 -156 -60 -172 -149zM300 573l-120 152h74
l112 -152h-66z" />
    <glyph glyph-name="uni0451" unicode="&#x451;" horiz-adv-x="576" 
d="M532 255v-9h-412c3 -118 78 -192 193 -192c78 0 144 33 183 70l20 -62c-43 -39 -118 -72 -207 -72c-161 0 -260 117 -260 261c0 150 106 261 247 261c140 0 236 -107 236 -257zM124 301h334c-11 86 -72 149 -162 149c-83 0 -156 -60 -172 -149zM193 617
c-28 0 -50 22 -50 49c0 28 22 50 50 50c27 0 49 -22 49 -50c0 -27 -22 -49 -49 -49zM405 617c-28 0 -49 22 -49 49c0 28 21 50 49 50s50 -22 50 -50c0 -27 -22 -49 -50 -49z" />
    <glyph glyph-name="uni0436" unicode="&#x436;" horiz-adv-x="752" 
d="M654 0l-218 234h-25v-234h-69v234h-26l-217 -234h-88l248 265l-238 237h85l208 -212h28v212h69v-212h28l208 212h85l-238 -237l247 -265h-87z" />
    <glyph glyph-name="uni0437" unicode="&#x437;" horiz-adv-x="519" 
d="M243 -10c-97 0 -171 29 -205 55l16 66c41 -30 104 -58 186 -58c85 0 140 29 140 88c0 55 -48 86 -207 86v62c136 0 185 32 185 86c0 48 -42 75 -113 75c-58 0 -110 -19 -153 -46l-20 61c48 25 107 47 179 47c110 0 180 -50 180 -128c0 -62 -45 -113 -127 -121
c85 -8 153 -47 153 -129c0 -94 -91 -144 -214 -144z" />
    <glyph glyph-name="uni0438" unicode="&#x438;" horiz-adv-x="642" 
d="M482 502h68v-502h-68v403l-321 -403h-68v502h68v-403z" />
    <glyph glyph-name="uni0439" unicode="&#x439;" horiz-adv-x="642" 
d="M482 502h68v-502h-68v403l-321 -403h-68v502h68v-403zM320 590c-91 0 -147 52 -150 135h55c2 -58 40 -85 96 -85c59 0 93 31 96 85h54c-2 -83 -60 -135 -151 -135z" />
    <glyph glyph-name="uni045D" unicode="&#x45d;" horiz-adv-x="642" 
d="M482 502h68v-502h-68v403l-321 -403h-68v502h68v-403zM321 573l-120 152h74l112 -152h-66z" />
    <glyph glyph-name="uni043A" unicode="&#x43a;" horiz-adv-x="502" 
d="M404 0l-218 234h-25v-234h-68v502h68v-212h28l208 212h85l-238 -237l248 -265h-88z" />
    <glyph glyph-name="uni045C" unicode="&#x45c;" horiz-adv-x="502" 
d="M404 0l-218 234h-25v-234h-68v502h68v-212h28l208 212h85l-238 -237l248 -265h-88zM214 573l111 152h74l-119 -152h-66z" />
    <glyph glyph-name="uni043B" unicode="&#x43b;" horiz-adv-x="607" 
d="M75 -7c-32 0 -53 7 -67 13l13 66c8 -5 29 -13 44 -13c38 0 57 26 64 88l44 355h342v-502h-70v441h-210l-38 -317c-10 -85 -52 -131 -122 -131z" />
    <glyph glyph-name="uni043C" unicode="&#x43c;" horiz-adv-x="747" 
d="M93 0v502h77l203 -353l204 353h78v-502h-68v395l-188 -325h-52l-187 325v-395h-67z" />
    <glyph glyph-name="uni043D" unicode="&#x43d;" horiz-adv-x="614" 
d="M452 502h70v-502h-70v223h-289v-223h-70v502h70v-218h289v218z" />
    <glyph glyph-name="uni043E" unicode="&#x43e;" horiz-adv-x="624" 
d="M312 -10c-155 0 -263 108 -263 261s108 261 263 261s263 -108 263 -261s-108 -261 -263 -261zM312 57c114 0 192 79 192 194c0 116 -80 194 -192 194c-114 0 -191 -79 -191 -193c0 -117 79 -195 191 -195z" />
    <glyph glyph-name="uni043F" unicode="&#x43f;" horiz-adv-x="612" 
d="M520 502v-502h-70v441h-287v-441h-70v502h427z" />
    <glyph glyph-name="uni0440" unicode="&#x440;" horiz-adv-x="648" 
d="M359 512c141 0 240 -110 240 -260c0 -151 -99 -262 -246 -262c-70 0 -149 36 -190 111v-311h-70v712h70v-101c43 74 121 111 196 111zM347 56c107 0 181 81 181 195c0 110 -69 195 -179 195c-107 0 -192 -81 -192 -194c0 -111 82 -196 190 -196z" />
    <glyph glyph-name="uni0441" unicode="&#x441;" horiz-adv-x="520" 
d="M297 -10c-144 0 -248 105 -248 260s104 262 254 262c71 0 129 -23 172 -53l-23 -64c-39 30 -89 51 -146 51c-111 0 -185 -78 -185 -194c0 -118 74 -196 179 -196c61 0 119 22 164 54l18 -62c-44 -33 -110 -58 -185 -58z" />
    <glyph glyph-name="uni0442" unicode="&#x442;" horiz-adv-x="453" 
d="M424 502v-61h-163v-441h-70v441h-162v61h395z" />
    <glyph glyph-name="uni0443" unicode="&#x443;" horiz-adv-x="489" 
d="M410 502h75l-235 -574c-40 -98 -95 -143 -178 -143c-19 0 -39 2 -58 8l10 64c11 -3 23 -5 38 -5c54 0 91 20 125 99l32 74l-215 477h77l175 -394z" />
    <glyph glyph-name="uni045E" unicode="&#x45e;" horiz-adv-x="489" 
d="M410 502h75l-235 -574c-40 -98 -95 -143 -178 -143c-19 0 -39 2 -58 8l10 64c11 -3 23 -5 38 -5c54 0 91 20 125 99l32 74l-215 477h77l175 -394zM245 590c-91 0 -147 52 -150 135h55c2 -58 40 -85 96 -85c59 0 93 31 96 85h54c-2 -83 -60 -135 -151 -135z" />
    <glyph glyph-name="uni0444" unicode="&#x444;" horiz-adv-x="971" 
d="M697 512c135 0 225 -108 225 -261c0 -152 -90 -261 -227 -261c-69 0 -134 28 -174 112v-312h-70v309c-39 -81 -101 -109 -171 -109c-142 0 -231 109 -231 261c0 151 88 261 229 261c74 0 135 -31 173 -110v350h70v-349c40 79 104 109 176 109zM286 57
c103 0 165 85 165 194c0 110 -63 194 -165 194c-100 0 -165 -81 -165 -194c0 -115 66 -194 165 -194zM688 57c96 0 162 81 162 195c0 113 -66 193 -161 193c-99 0 -168 -84 -168 -194c0 -109 69 -194 167 -194z" />
    <glyph glyph-name="uni0445" unicode="&#x445;" horiz-adv-x="515" 
d="M18 0l199 259l-187 243h86l143 -193l144 193h83l-186 -242l197 -260h-83l-156 209l-157 -209h-83z" />
    <glyph glyph-name="uni0447" unicode="&#x447;" horiz-adv-x="594" 
d="M433 0v199c-34 -20 -82 -43 -162 -43c-113 0 -196 62 -196 197v149h70v-133c0 -110 56 -152 141 -152c64 0 111 19 147 42v243h70v-502h-70z" />
    <glyph glyph-name="uni0446" unicode="&#x446;" horiz-adv-x="626" 
d="M520 61h78v-207h-66v146h-439v502h70v-441h287v441h70v-441z" />
    <glyph glyph-name="uni0448" unicode="&#x448;" horiz-adv-x="883" 
d="M721 502h70v-502h-698v502h70v-441h244v441h70v-441h244v441z" />
    <glyph glyph-name="uni0449" unicode="&#x449;" horiz-adv-x="897" 
d="M791 61h78v-207h-66v146h-710v502h70v-441h244v441h70v-441h244v441h70v-441z" />
    <glyph glyph-name="uni045F" unicode="&#x45f;" horiz-adv-x="612" 
d="M450 502h70v-502h-180v-146h-66v146h-181v502h70v-441h287v441z" />
    <glyph glyph-name="uni044C" unicode="&#x44c;" horiz-adv-x="529" 
d="M93 0v502h70v-211h136c112 0 181 -47 181 -142s-75 -149 -173 -149h-214zM163 55h136c76 0 110 37 110 93c0 61 -40 89 -120 89h-126v-182z" />
    <glyph glyph-name="uni044A" unicode="&#x44a;" horiz-adv-x="647" 
d="M418 291c112 0 181 -47 181 -142s-75 -149 -173 -149h-214v441h-173v61h243v-211h136zM418 55c76 0 110 37 110 93c0 61 -40 89 -120 89h-126v-182h136z" />
    <glyph glyph-name="uni044B" unicode="&#x44b;" horiz-adv-x="726" 
d="M93 0v502h70v-211h136c112 0 181 -47 181 -142s-75 -149 -173 -149h-214zM564 0v502h70v-502h-70zM163 55h136c76 0 110 37 110 93c0 61 -40 89 -120 89h-126v-182z" />
    <glyph glyph-name="uni0459" unicode="&#x459;" horiz-adv-x="855" 
d="M625 291c112 0 181 -47 181 -142s-75 -149 -173 -149h-214v441h-184l-38 -317c-10 -85 -53 -131 -121 -131c-34 0 -54 7 -68 13l13 66c8 -5 27 -13 49 -13c28 0 52 26 59 88l44 355h316v-211h136zM625 55c76 0 110 37 110 93c0 61 -40 89 -120 89h-126v-182h136z" />
    <glyph glyph-name="uni045A" unicode="&#x45a;" horiz-adv-x="876" 
d="M646 291c112 0 181 -47 181 -142s-75 -149 -173 -149h-214v234h-277v-234h-70v502h70v-211h277v211h70v-211h136zM646 55c76 0 110 37 110 93c0 61 -40 89 -120 89h-126v-182h136z" />
    <glyph glyph-name="uni0455" unicode="&#x455;" horiz-adv-x="480" 
d="M235 -10c-70 0 -140 23 -175 54l19 62c34 -30 94 -57 160 -57c69 0 112 32 112 84s-45 67 -124 92c-76 23 -152 50 -152 143c0 90 72 144 177 144c64 0 117 -20 152 -42l-15 -62c-32 21 -81 45 -139 45c-63 0 -105 -29 -105 -78c0 -53 52 -71 116 -89
c85 -24 159 -54 159 -146c0 -89 -68 -150 -185 -150z" />
    <glyph glyph-name="uni0454" unicode="&#x454;" horiz-adv-x="521" 
d="M466 107l18 -61c-40 -30 -102 -56 -180 -56c-148 0 -255 108 -255 260c0 154 99 262 251 262c73 0 129 -23 172 -51l-21 -62c-39 29 -88 49 -149 49c-102 0 -171 -65 -182 -167h293v-58h-293c11 -101 88 -169 187 -169c62 0 119 22 159 53z" />
    <glyph glyph-name="uni044D" unicode="&#x44d;" horiz-adv-x="521" 
d="M229 512c145 0 244 -108 244 -262c0 -152 -108 -260 -248 -260c-86 0 -148 26 -187 52l17 62c41 -28 98 -50 167 -50c98 0 169 68 180 169h-294v58h293c-11 102 -79 167 -177 167c-65 0 -114 -20 -153 -49l-21 62c43 28 99 51 179 51z" />
    <glyph glyph-name="uni0456" unicode="&#x456;" horiz-adv-x="255" 
d="M129 612c-30 0 -53 23 -53 53s23 53 53 53s53 -23 53 -53s-23 -53 -53 -53zM93 0v502h70v-502h-70z" />
    <glyph glyph-name="uni0457" unicode="&#x457;" horiz-adv-x="255" 
d="M93 0v502h70v-502h-70zM44 615c-29 0 -51 23 -51 51c0 29 22 51 51 51c28 0 51 -22 51 -51c0 -28 -23 -51 -51 -51zM212 615c-28 0 -51 23 -51 51c0 29 23 51 51 51c29 0 51 -22 51 -51c0 -28 -22 -51 -51 -51z" />
    <glyph glyph-name="uni0458" unicode="&#x458;" horiz-adv-x="257" 
d="M129 612c-30 0 -53 23 -53 53s23 53 53 53s53 -23 53 -53s-23 -53 -53 -53zM41 -219c-24 0 -47 4 -62 10l10 62c13 -4 25 -6 39 -6c46 0 65 21 65 104v551h70v-561c0 -116 -44 -160 -122 -160z" />
    <glyph glyph-name="uni045B" unicode="&#x45b;" horiz-adv-x="615" 
d="M345 508c113 0 183 -67 183 -205v-303h-70v285c0 104 -46 159 -133 159c-92 0 -162 -67 -162 -161v-283h-70v596h-73v57h73v99h70v-99h169v-57h-169v-190c33 63 97 102 182 102z" />
    <glyph glyph-name="uni044E" unicode="&#x44e;" horiz-adv-x="870" 
d="M558 512c155 0 263 -108 263 -261s-108 -261 -263 -261c-145 0 -249 95 -262 233h-133v-223h-70v502h70v-218h134c14 135 117 228 261 228zM558 57c114 0 192 79 192 194c0 116 -80 194 -192 194c-114 0 -191 -79 -191 -193c0 -117 79 -195 191 -195z" />
    <glyph glyph-name="uni044F" unicode="&#x44f;" horiz-adv-x="531" 
d="M235 503h204v-502h-70v211h-123l-134 -212h-79l144 218c-70 16 -114 63 -114 139c0 98 73 146 172 146zM369 266v182h-124c-73 0 -110 -34 -110 -93c0 -58 38 -89 108 -89h126z" />
    <glyph glyph-name="uni0452" unicode="&#x452;" horiz-adv-x="615" 
d="M345 508c113 0 183 -67 183 -205v-362c0 -117 -42 -160 -121 -160c-23 0 -47 4 -62 10l11 62c12 -4 26 -6 39 -6c46 0 63 21 63 104v334c0 104 -46 159 -133 159c-92 0 -162 -67 -162 -161v-283h-70v596h-73v57h73v99h70v-99h169v-57h-169v-190c33 63 97 102 182 102z
" />
    <glyph glyph-name="uni0493" unicode="&#x493;" horiz-adv-x="419" 
d="M390 441h-227v-170h166v-58h-166v-213h-70v213h-82v58h82v231h297v-61z" />
    <glyph glyph-name="uni0497" unicode="&#x497;" horiz-adv-x="795" 
d="M684 61h82v-207h-66v146h-46l-218 234h-25v-234h-69v234h-26l-217 -234h-88l248 265l-238 237h85l208 -212h28v212h69v-212h28l208 212h85l-238 -237z" />
    <glyph glyph-name="uni049B" unicode="&#x49b;" horiz-adv-x="538" 
d="M435 61h80v-207h-66v146h-45l-218 234h-25v-234h-68v502h68v-212h28l208 212h85l-238 -237z" />
    <glyph glyph-name="uni049D" unicode="&#x49d;" horiz-adv-x="534" 
d="M445 0l-157 234h-12v-129h-52v129h-63v-234h-68v502h68v-212h63v117h52v-117h13l149 212h76l-171 -237l181 -265h-79z" />
    <glyph glyph-name="uni04A3" unicode="&#x4a3;" horiz-adv-x="630" 
d="M522 61h79v-207h-66v146h-83v223h-289v-223h-70v502h70v-218h289v218h70v-441z" />
    <glyph glyph-name="uni04AF" unicode="&#x4af;" horiz-adv-x="488" 
d="M484 502l-205 -492v-220h-70v222l-205 490h77l163 -410l165 410h75z" />
    <glyph glyph-name="uni04B3" unicode="&#x4b3;" horiz-adv-x="552" 
d="M451 61h78v-207h-66v146h-49l-156 209l-157 -209h-83l199 259l-187 243h86l143 -193l144 193h83l-186 -242z" />
    <glyph glyph-name="uni04B9" unicode="&#x4b9;" horiz-adv-x="594" 
d="M433 502h70v-502h-70v199c-27 -16 -64 -34 -119 -41v-109h-52v107c-108 3 -187 66 -187 197v149h70v-133c0 -99 46 -143 117 -151v133h52v-133c50 5 88 21 119 41v243z" />
    <glyph glyph-name="uni04BB" unicode="&#x4bb;" horiz-adv-x="615" 
d="M345 513c113 0 183 -67 183 -205v-308h-70v290c0 104 -46 159 -133 159c-92 0 -162 -67 -162 -161v-288h-70v752h70v-341c33 63 97 102 182 102z" />
    <glyph glyph-name="uni04CF" unicode="&#x4cf;" horiz-adv-x="250" 
d="M90 0v752h70v-752h-70z" />
    <glyph glyph-name="uni04D9" unicode="&#x4d9;" horiz-adv-x="576" 
d="M267 512c161 0 260 -117 260 -261c0 -150 -106 -261 -247 -261c-140 0 -236 107 -236 257v9h412c-3 118 -78 192 -193 192c-78 0 -144 -33 -183 -70l-20 62c43 39 118 72 207 72zM280 52c83 0 156 60 172 149h-334c11 -86 72 -149 162 -149z" />
    <glyph glyph-name="uni04E9" unicode="&#x4e9;" horiz-adv-x="624" 
d="M312 512c155 0 263 -108 263 -261s-108 -261 -263 -261s-263 108 -263 261s108 261 263 261zM312 449c-105 0 -180 -67 -191 -169h382c-12 103 -87 169 -191 169zM312 53c106 0 181 69 192 173h-384c11 -105 87 -173 192 -173z" />
    <glyph glyph-name="Alpha" unicode="&#x391;" horiz-adv-x="666" 
d="M567 0l-87 230h-296l-87 -230h-76l273 710h78l273 -710h-78zM207 293h250l-125 331z" />
    <glyph glyph-name="Beta" unicode="&#x392;" horiz-adv-x="618" 
d="M417 372c88 -18 143 -83 143 -173c0 -118 -82 -199 -219 -199h-238v710h198c133 0 213 -72 213 -181c0 -63 -26 -121 -97 -157zM178 644v-254h129c82 0 135 61 135 133c0 73 -53 121 -146 121h-118zM334 66c97 0 151 55 151 136c0 79 -54 123 -138 123h-169v-259h156z
" />
    <glyph glyph-name="Gamma" unicode="&#x393;" horiz-adv-x="520" 
d="M495 710v-69h-317v-641h-75v710h392z" />
    <glyph glyph-name="Epsilon" unicode="&#x395;" horiz-adv-x="578" 
d="M103 0v710h389v-68h-314v-252h305v-67h-305v-255h322v-68h-397z" />
    <glyph glyph-name="Zeta" unicode="&#x396;" horiz-adv-x="621" 
d="M174 68h384v-68h-488v39l382 603h-372v68h474v-38z" />
    <glyph glyph-name="Eta" unicode="&#x397;" horiz-adv-x="759" 
d="M580 710h75v-710h-75v321h-402v-321h-75v710h75v-320h402v320z" />
    <glyph glyph-name="Theta" unicode="&#x398;" horiz-adv-x="871" 
d="M435 -10c-207 0 -369 157 -369 365s162 365 369 365c208 0 370 -157 370 -364c0 -208 -162 -366 -370 -366zM436 62c164 0 293 128 293 293s-129 293 -293 293c-165 0 -293 -128 -293 -293s128 -293 293 -293zM274 323v67h324v-67h-324z" />
    <glyph glyph-name="Iota" unicode="&#x399;" horiz-adv-x="282" 
d="M103 0v710h75v-710h-75z" />
    <glyph glyph-name="Kappa" unicode="&#x39a;" horiz-adv-x="619" 
d="M613 0h-100l-335 358v-358h-75v710h75v-350l313 350h94l-313 -345z" />
    <glyph glyph-name="Lambda" unicode="&#x39b;" horiz-adv-x="671" 
d="M643 0h-80l-229 618l-228 -618h-78l268 710h79z" />
    <glyph glyph-name="Mu" unicode="&#x39c;" horiz-adv-x="862" 
d="M103 0v710h86l240 -365l246 365h84v-710h-74v601l-229 -342h-54l-225 342v-601h-74z" />
    <glyph glyph-name="Nu" unicode="&#x39d;" horiz-adv-x="776" 
d="M599 710h74v-710h-71l-425 591v-591h-74v710h71l425 -591v591z" />
    <glyph glyph-name="Xi" unicode="&#x39e;" horiz-adv-x="632" 
d="M97 642v68h438v-68h-438zM119 323v67h394v-67h-394zM78 0v67h476v-67h-476z" />
    <glyph glyph-name="Omicron" unicode="&#x39f;" horiz-adv-x="871" 
d="M435 -10c-211 0 -369 154 -369 365c0 212 158 365 370 365c211 0 369 -154 369 -364c0 -211 -158 -366 -370 -366zM436 62c169 0 293 125 293 293c0 169 -124 294 -293 294c-170 0 -294 -125 -294 -294c0 -168 124 -293 294 -293z" />
    <glyph glyph-name="Pi" unicode="&#x3a0;" horiz-adv-x="749" 
d="M645 710v-710h-75v642h-392v-642h-75v710h542z" />
    <glyph glyph-name="Rho" unicode="&#x3a1;" horiz-adv-x="585" 
d="M300 710c156 0 239 -86 239 -218c0 -119 -83 -227 -239 -227h-122v-265h-75v710h197zM292 331c95 0 170 58 170 161c0 114 -75 152 -170 152h-114v-313h114z" />
    <glyph glyph-name="Sigma" unicode="&#x3a3;" horiz-adv-x="607" 
d="M70 0v49l272 315l-248 298v48h438v-68h-331l216 -259v-38l-240 -277h386v-68h-493z" />
    <glyph glyph-name="Tau" unicode="&#x3a4;" horiz-adv-x="522" 
d="M497 710v-68h-196v-642h-75v642h-201v68h472z" />
    <glyph glyph-name="Upsilon" unicode="&#x3a5;" horiz-adv-x="584" 
d="M582 710l-253 -426v-284h-74v284l-253 426h84l209 -352l208 352h79z" />
    <glyph glyph-name="Phi" unicode="&#x3a6;" horiz-adv-x="849" 
d="M800 355c0 -173 -142 -282 -339 -294v-73h-71v73c-199 11 -341 120 -341 294s142 283 341 294v73h71v-73c197 -12 339 -120 339 -294zM123 355c0 -134 110 -219 267 -230v460c-157 -11 -267 -96 -267 -230zM461 125c155 12 265 96 265 230s-110 218 -265 230v-460z" />
    <glyph glyph-name="Chi" unicode="&#x3a7;" horiz-adv-x="667" 
d="M626 0h-87l-202 300l-202 -300h-83l244 359l-237 351h87l194 -290l196 290h81l-237 -348z" />
    <glyph glyph-name="Psi" unicode="&#x3a8;" horiz-adv-x="849" 
d="M390 0v205c-196 10 -312 114 -312 287v218h72v-216c0 -133 84 -216 240 -224v440h71v-440c155 9 239 92 239 224v216h71v-218c0 -171 -115 -276 -310 -286v-206h-71z" />
    <glyph glyph-name="Alphatonos" unicode="&#x386;" horiz-adv-x="666" 
d="M567 0l-87 230h-296l-87 -230h-76l273 710h78l273 -710h-78zM207 293h250l-125 331zM21 574l67 153h77l-81 -153h-63z" />
    <glyph glyph-name="Epsilontonos" unicode="&#x388;" horiz-adv-x="639" 
d="M165 0v710h389v-68h-314v-252h305v-67h-305v-255h322v-68h-397zM-40 573l67 153h77l-81 -153h-63z" />
    <glyph glyph-name="Etatonos" unicode="&#x389;" horiz-adv-x="823" 
d="M644 710h75v-710h-75v321h-402v-321h-75v710h75v-320h402v320zM-40 573l67 153h77l-81 -153h-63z" />
    <glyph glyph-name="Iotatonos" unicode="&#x38a;" horiz-adv-x="346" 
d="M167 0v710h75v-710h-75zM-40 573l67 153h77l-81 -153h-63z" />
    <glyph glyph-name="Omicrontonos" unicode="&#x38c;" horiz-adv-x="897" 
d="M461 -10c-211 0 -369 154 -369 365c0 212 158 365 370 365c211 0 369 -154 369 -364c0 -211 -158 -366 -370 -366zM462 62c169 0 293 125 293 293c0 169 -124 294 -293 294c-170 0 -294 -125 -294 -294c0 -168 124 -293 294 -293zM-10 573l67 153h77l-81 -153h-63z" />
    <glyph glyph-name="Upsilontonos" unicode="&#x38e;" horiz-adv-x="729" 
d="M727 710l-253 -426v-284h-74v284l-253 426h84l209 -352l208 352h79zM-35 573l67 153h77l-81 -153h-63z" />
    <glyph glyph-name="Omegatonos" unicode="&#x38f;" horiz-adv-x="887" 
d="M104 0v67h224v52c-125 34 -222 133 -222 288c0 181 147 313 356 313c208 0 355 -132 355 -313c0 -153 -95 -253 -222 -288v-52h225v-67h-291v158c129 24 212 113 212 244c0 141 -115 246 -279 246c-165 0 -280 -105 -280 -246c0 -131 86 -221 213 -244v-158h-291z
M-10 573l67 153h77l-81 -153h-63z" />
    <glyph glyph-name="Iotadieresis" unicode="&#x3aa;" horiz-adv-x="282" 
d="M103 0v710h75v-710h-75zM36 795c-28 0 -50 22 -50 49c0 28 22 50 50 50c27 0 49 -22 49 -50c0 -27 -22 -49 -49 -49zM248 795c-28 0 -49 22 -49 49c0 28 21 50 49 50s50 -22 50 -50c0 -27 -22 -49 -50 -49z" />
    <glyph glyph-name="Upsilondieresis" unicode="&#x3ab;" horiz-adv-x="584" 
d="M582 710l-253 -426v-284h-74v284l-253 426h84l209 -352l208 352h79zM185 795c-28 0 -50 22 -50 49c0 28 22 50 50 50c27 0 49 -22 49 -50c0 -27 -22 -49 -49 -49zM397 795c-28 0 -49 22 -49 49c0 28 21 50 49 50s50 -22 50 -50c0 -27 -22 -49 -50 -49z" />
    <glyph glyph-name="uni03EF" unicode="&#x3ef;" horiz-adv-x="525" 
d="M301 502h200v-154h-65v94h-135v-442h-72v442h-139v-94h-65v154h204v208h72v-208z" />
    <glyph glyph-name="alpha" unicode="&#x3b1;" horiz-adv-x="655" 
d="M295 -10c-148 0 -246 109 -246 261c0 151 98 261 244 261c81 0 155 -33 196 -124c2 37 8 70 18 114h69c-13 -62 -20 -114 -20 -201v-147c0 -85 19 -100 46 -100c16 0 27 5 35 9l13 -57c-15 -10 -39 -16 -65 -16c-64 0 -90 41 -95 119c-43 -86 -115 -119 -195 -119z
M302 57c109 0 185 85 185 194s-76 194 -186 194c-106 0 -180 -80 -180 -193c0 -115 74 -195 181 -195z" />
    <glyph glyph-name="beta" unicode="&#x3b2;" horiz-adv-x="608" 
d="M396 411c81 -15 163 -73 163 -196c0 -138 -98 -223 -238 -223c-69 0 -124 18 -160 39v-241h-68v743c0 149 91 229 221 229c129 0 201 -79 201 -182c0 -88 -49 -146 -119 -169zM315 56c101 0 171 57 171 161c0 105 -79 156 -206 156h-17v60l23 1c84 4 159 33 159 140
c0 67 -45 123 -133 123c-87 0 -151 -50 -151 -163v-431c38 -26 90 -47 154 -47z" />
    <glyph glyph-name="gamma" unicode="&#x3b3;" horiz-adv-x="514" 
d="M409 502h75c-4 -169 -88 -334 -207 -502v-210h-69v210l-204 502h77l169 -436c99 145 159 290 159 436z" />
    <glyph glyph-name="delta" unicode="&#x3b4;" horiz-adv-x="624" 
d="M473 464c59 -53 102 -122 102 -215c0 -154 -109 -259 -263 -259c-153 0 -263 105 -263 260c0 157 112 260 267 260h14l-217 194v48h422v-61h-315zM312 57c111 0 191 76 191 195c0 117 -80 193 -191 193c-110 0 -191 -75 -191 -193c0 -119 81 -195 191 -195z" />
    <glyph glyph-name="epsilon" unicode="&#x3b5;" horiz-adv-x="519" 
d="M267 -10c-120 0 -218 46 -218 143c0 78 63 120 154 128c-88 8 -127 61 -127 117c0 75 72 134 203 134c79 0 139 -22 185 -46l-20 -61c-43 26 -96 45 -163 45c-89 0 -133 -30 -133 -78c0 -45 45 -84 194 -84v-58c-177 -1 -218 -40 -218 -89c0 -63 66 -88 150 -88
c86 0 152 26 194 50l19 -59c-43 -25 -125 -54 -220 -54z" />
    <glyph glyph-name="zeta" unicode="&#x3b6;" horiz-adv-x="484" 
d="M405 -210l-62 18c31 40 53 78 53 117c0 50 -42 64 -137 93c-110 33 -210 75 -210 218c0 91 39 150 121 233l217 222h-303v61h400v-48l-263 -275c-68 -73 -100 -125 -100 -190c0 -104 75 -130 182 -164c102 -32 161 -54 161 -134c0 -60 -34 -116 -59 -151z" />
    <glyph glyph-name="eta" unicode="&#x3b7;" horiz-adv-x="615" 
d="M347 512c112 0 181 -67 181 -205v-517h-70v498c0 105 -46 160 -133 160c-94 0 -162 -68 -162 -162v-286h-70v502h70v-93c33 63 98 103 184 103z" />
    <glyph glyph-name="theta" unicode="&#x3b8;" horiz-adv-x="605" 
d="M303 760c186 0 235 -173 235 -387s-51 -383 -235 -383c-188 0 -236 170 -236 383c0 214 50 387 236 387zM303 694c-132 0 -161 -133 -164 -292h327c-3 159 -32 292 -163 292zM303 56c132 0 160 131 163 287h-327c3 -158 32 -287 164 -287z" />
    <glyph glyph-name="iota" unicode="&#x3b9;" horiz-adv-x="292" 
d="M196 -10c-64 0 -103 37 -103 120v392h70v-381c0 -49 18 -67 49 -67c22 0 44 9 55 13l11 -58c-16 -9 -47 -19 -82 -19z" />
    <glyph glyph-name="kappa" unicode="&#x3ba;" horiz-adv-x="512" 
d="M93 0v502h70v-252l243 252h86l-225 -231l235 -271h-88l-197 225l-54 -48v-177h-70z" />
    <glyph glyph-name="lambda" unicode="&#x3bb;" horiz-adv-x="507" 
d="M503 0h-76l-149 404l-202 -404h-76l246 482l-40 103c-31 82 -72 103 -124 103c-23 0 -37 -4 -47 -8l-9 63c19 6 40 10 64 10c83 0 138 -41 177 -143z" />
    <glyph glyph-name="nu" unicode="&#x3bd;" horiz-adv-x="514" 
d="M409 502h75c-4 -169 -86 -334 -203 -502h-73l-204 502h77l169 -438c100 145 159 292 159 438z" />
    <glyph glyph-name="xi" unicode="&#x3be;" horiz-adv-x="480" 
d="M405 -210l-62 18c32 41 54 78 54 116c0 60 -55 74 -138 94c-58 13 -210 52 -210 211c0 81 40 187 194 199c-81 21 -139 72 -139 159c0 102 79 175 204 175c70 0 130 -23 172 -52l-23 -64c-40 29 -90 50 -147 50c-86 0 -134 -49 -134 -114c0 -88 87 -120 169 -130v-61
c-172 0 -224 -68 -224 -153c0 -109 83 -137 180 -162c86 -23 163 -45 163 -136c0 -56 -30 -110 -59 -150z" />
    <glyph glyph-name="omicron" unicode="&#x3bf;" horiz-adv-x="624" 
d="M312 -10c-155 0 -263 108 -263 261s108 261 263 261s263 -108 263 -261s-108 -261 -263 -261zM312 57c114 0 192 79 192 194c0 116 -80 194 -192 194c-114 0 -191 -79 -191 -193c0 -117 79 -195 191 -195z" />
    <glyph glyph-name="rho" unicode="&#x3c1;" horiz-adv-x="640" 
d="M335 512c159 0 256 -114 256 -262c0 -150 -99 -260 -244 -260c-81 0 -152 34 -193 108v-308h-70v438c0 183 102 284 251 284zM336 57c109 0 183 81 183 194c0 111 -73 194 -185 194c-113 0 -180 -84 -180 -197c0 -128 86 -191 182 -191z" />
    <glyph glyph-name="uni03C2" unicode="&#x3c2;" horiz-adv-x="510" 
d="M398 -210l-62 18c32 41 54 78 54 117c0 49 -34 61 -131 91c-90 29 -210 72 -210 241c0 161 108 255 252 255c70 0 128 -23 172 -52l-23 -64c-40 29 -89 50 -149 50c-110 0 -180 -71 -180 -187c0 -125 81 -152 178 -184c103 -33 159 -56 159 -133c0 -62 -36 -117 -60 -152
z" />
    <glyph glyph-name="sigma" unicode="&#x3c3;" horiz-adv-x="631" 
d="M636 502v-61h-170c69 -46 109 -106 109 -199c0 -151 -109 -252 -262 -252c-154 0 -264 103 -264 257s110 253 296 255h291zM312 57c112 0 191 74 191 189c0 93 -51 151 -120 194h-34c-154 0 -228 -78 -228 -191c0 -119 80 -192 191 -192z" />
    <glyph glyph-name="tau" unicode="&#x3c4;" horiz-adv-x="456" 
d="M297 -10c-73 0 -116 38 -116 123v328h-152l21 61h377v-61h-176v-319c0 -49 22 -67 58 -67c26 0 52 9 64 13l13 -58c-19 -11 -53 -20 -89 -20z" />
    <glyph glyph-name="upsilon" unicode="&#x3c5;" horiz-adv-x="608" 
d="M304 -10c-126 0 -218 66 -218 214v298h70v-289c0 -104 55 -160 151 -160c95 0 145 56 145 163v286h70v-291c0 -155 -91 -221 -218 -221z" />
    <glyph glyph-name="phi" unicode="&#x3c6;" horiz-adv-x="681" 
d="M632 251c0 -136 -94 -247 -257 -261v-200h-69v200c-162 14 -257 124 -257 261s95 247 257 261v198h69v-198c163 -14 257 -125 257 -261zM375 54c118 14 185 96 185 198c0 103 -69 183 -185 196v-394zM121 252c0 -103 69 -185 185 -198v394c-118 -13 -185 -94 -185 -196z
" />
    <glyph glyph-name="chi" unicode="&#x3c7;" horiz-adv-x="485" 
d="M303 175l182 -385h-76l-149 328l-176 -328h-76l217 398l-97 205c-18 37 -38 48 -61 48c-16 0 -28 -2 -38 -6l-10 63c18 6 38 10 56 10c57 0 84 -30 109 -82l85 -179l126 255h77z" />
    <glyph glyph-name="psi" unicode="&#x3c8;" horiz-adv-x="755" 
d="M600 502h69v-243c0 -166 -91 -258 -258 -268v-201h-68v201c-167 11 -257 102 -257 261v250h69v-242c0 -123 59 -195 188 -206v656h68v-656c138 10 189 87 189 209v239z" />
    <glyph glyph-name="omega" unicode="&#x3c9;" horiz-adv-x="735" 
d="M217 -8c-107 0 -158 100 -158 248c0 100 21 207 48 262h76c-32 -69 -51 -163 -51 -260c0 -113 28 -181 92 -181c66 0 106 73 106 271h74c1 -190 33 -272 106 -272c67 0 93 69 93 175c0 109 -28 205 -58 267h77c26 -49 53 -158 53 -270c0 -145 -49 -242 -161 -242
c-87 0 -136 59 -147 176c-9 -122 -73 -174 -150 -174z" />
    <glyph glyph-name="iotatonos" unicode="&#x3af;" horiz-adv-x="292" 
d="M196 -10c-64 0 -103 37 -103 120v392h70v-381c0 -49 18 -67 49 -67c22 0 44 9 55 13l11 -58c-16 -9 -47 -19 -82 -19zM96 573l67 153h77l-81 -153h-63z" />
    <glyph glyph-name="iotadieresis" unicode="&#x3ca;" horiz-adv-x="292" 
d="M196 -10c-64 0 -103 37 -103 120v392h70v-381c0 -49 18 -67 49 -67c22 0 44 9 55 13l11 -58c-16 -9 -47 -19 -82 -19zM56 615c-29 0 -51 23 -51 51c0 29 22 51 51 51c28 0 51 -22 51 -51c0 -28 -23 -51 -51 -51zM224 615c-28 0 -51 23 -51 51c0 29 23 51 51 51
c29 0 51 -22 51 -51c0 -28 -22 -51 -51 -51z" />
    <glyph glyph-name="iotadieresistonos" unicode="&#x390;" horiz-adv-x="292" 
d="M196 -10c-64 0 -103 37 -103 120v392h70v-381c0 -49 18 -67 49 -67c22 0 44 9 55 13l11 -58c-16 -9 -47 -19 -82 -19zM105 628l33 141h69l-50 -141h-52zM39 600c-26 0 -45 20 -45 46c0 25 19 45 45 45c25 0 45 -20 45 -45c0 -26 -20 -46 -45 -46zM241 600
c-26 0 -45 20 -45 46c0 25 19 45 45 45c25 0 45 -20 45 -45c0 -26 -20 -46 -45 -46z" />
    <glyph glyph-name="upsilontonos" unicode="&#x3cd;" horiz-adv-x="608" 
d="M304 -10c-126 0 -218 66 -218 214v298h70v-289c0 -104 55 -160 151 -160c95 0 145 56 145 163v286h70v-291c0 -155 -91 -221 -218 -221zM260 573l67 153h77l-81 -153h-63z" />
    <glyph glyph-name="upsilondieresis" unicode="&#x3cb;" horiz-adv-x="608" 
d="M304 -10c-126 0 -218 66 -218 214v298h70v-289c0 -104 55 -160 151 -160c95 0 145 56 145 163v286h70v-291c0 -155 -91 -221 -218 -221zM198 617c-28 0 -50 22 -50 49c0 28 22 50 50 50c27 0 49 -22 49 -50c0 -27 -22 -49 -49 -49zM410 617c-28 0 -49 22 -49 49
c0 28 21 50 49 50s50 -22 50 -50c0 -27 -22 -49 -50 -49z" />
    <glyph glyph-name="upsilondieresistonos" unicode="&#x3b0;" horiz-adv-x="608" 
d="M304 -10c-126 0 -218 66 -218 214v298h70v-289c0 -104 55 -160 151 -160c95 0 145 56 145 163v286h70v-291c0 -155 -91 -221 -218 -221zM269 628l33 141h69l-50 -141h-52zM203 600c-26 0 -45 20 -45 46c0 25 19 45 45 45c25 0 45 -20 45 -45c0 -26 -20 -46 -45 -46z
M405 600c-26 0 -45 20 -45 46c0 25 19 45 45 45c25 0 45 -20 45 -45c0 -26 -20 -46 -45 -46z" />
    <glyph glyph-name="omicrontonos" unicode="&#x3cc;" horiz-adv-x="624" 
d="M312 -10c-155 0 -263 108 -263 261s108 261 263 261s263 -108 263 -261s-108 -261 -263 -261zM312 57c114 0 192 79 192 194c0 116 -80 194 -192 194c-114 0 -191 -79 -191 -193c0 -117 79 -195 191 -195zM267 573l67 153h77l-81 -153h-63z" />
    <glyph glyph-name="omegatonos" unicode="&#x3ce;" horiz-adv-x="735" 
d="M217 -8c-107 0 -158 100 -158 248c0 100 21 207 48 262h76c-32 -69 -51 -163 -51 -260c0 -113 28 -181 92 -181c66 0 106 73 106 271h74c1 -190 33 -272 106 -272c67 0 93 69 93 175c0 109 -28 205 -58 267h77c26 -49 53 -158 53 -270c0 -145 -49 -242 -161 -242
c-87 0 -136 59 -147 176c-9 -122 -73 -174 -150 -174zM322 573l67 153h77l-81 -153h-63z" />
    <glyph glyph-name="alphatonos" unicode="&#x3ac;" horiz-adv-x="655" 
d="M295 -10c-148 0 -246 109 -246 261c0 151 98 261 244 261c81 0 155 -33 196 -124c2 37 8 70 18 114h69c-13 -62 -20 -114 -20 -201v-147c0 -85 19 -100 46 -100c16 0 27 5 35 9l13 -57c-15 -10 -39 -16 -65 -16c-64 0 -90 41 -95 119c-43 -86 -115 -119 -195 -119z
M302 57c109 0 185 85 185 194s-76 194 -186 194c-106 0 -180 -80 -180 -193c0 -115 74 -195 181 -195zM283 573l67 153h77l-81 -153h-63z" />
    <glyph glyph-name="epsilontonos" unicode="&#x3ad;" horiz-adv-x="519" 
d="M267 -10c-120 0 -218 46 -218 143c0 78 63 120 154 128c-88 8 -127 61 -127 117c0 75 72 134 203 134c79 0 139 -22 185 -46l-20 -61c-43 26 -96 45 -163 45c-89 0 -133 -30 -133 -78c0 -45 45 -84 194 -84v-58c-177 -1 -218 -40 -218 -89c0 -63 66 -88 150 -88
c86 0 152 26 194 50l19 -59c-43 -25 -125 -54 -220 -54zM224 573l67 153h77l-81 -153h-63z" />
    <glyph glyph-name="etatonos" unicode="&#x3ae;" horiz-adv-x="615" 
d="M347 512c112 0 181 -67 181 -205v-517h-70v498c0 105 -46 160 -133 160c-94 0 -162 -68 -162 -162v-286h-70v502h70v-93c33 63 98 103 184 103zM262 573l67 153h77l-81 -153h-63z" />
    <glyph glyph-name="oneeighth" unicode="&#x215b;" horiz-adv-x="939" 
d="M155 285v351l-101 -62v58l136 83h24v-430h-59zM686 710h66l-557 -710h-66zM797 232c60 -20 92 -54 92 -111c0 -78 -58 -131 -156 -131c-99 0 -157 53 -157 129c0 54 30 93 92 113c-47 19 -71 52 -71 94c0 64 55 111 136 111c79 0 134 -46 134 -110c0 -42 -23 -76 -70 -95
zM654 324c0 -39 32 -68 80 -68c47 0 77 29 77 68s-30 65 -77 65c-48 0 -80 -26 -80 -65zM733 39c63 0 98 35 98 81c0 52 -43 84 -99 84c-54 0 -96 -30 -96 -83c0 -47 34 -82 97 -82z" />
    <glyph glyph-name="threeeighths" unicode="&#x215c;" horiz-adv-x="1000" 
d="M195 275c-60 0 -114 22 -145 59l30 48c28 -31 64 -53 116 -53c62 0 100 31 100 78c0 54 -51 79 -131 79v48c79 0 112 38 112 74c0 34 -29 58 -77 58c-46 0 -82 -23 -110 -49l-27 47c33 31 78 56 140 56c80 0 132 -42 132 -105c0 -50 -33 -85 -87 -100
c75 -18 107 -59 107 -112c0 -73 -62 -128 -160 -128zM190 0l557 710h66l-557 -710h-66zM794 -10c-99 0 -157 53 -157 129c0 54 30 93 92 113c-47 19 -71 52 -71 94c0 64 55 111 136 111c79 0 134 -46 134 -110c0 -42 -23 -76 -70 -95c60 -20 92 -54 92 -111
c0 -78 -58 -131 -156 -131zM795 256c47 0 77 29 77 68s-30 65 -77 65c-48 0 -80 -26 -80 -65s32 -68 80 -68zM794 39c63 0 98 35 98 81c0 52 -43 84 -99 84c-54 0 -96 -30 -96 -83c0 -47 34 -82 97 -82z" />
    <glyph glyph-name="fiveeighths" unicode="&#x215d;" horiz-adv-x="1004" 
d="M193 279c-62 0 -112 22 -141 55l30 48c26 -29 62 -51 112 -51c62 0 102 34 102 85s-38 82 -100 82c-34 0 -57 -9 -78 -22l-35 12l26 223h230v-54h-185l-14 -122c15 7 36 14 67 14c88 0 148 -52 148 -133c0 -83 -64 -137 -162 -137zM194 0l557 710h66l-557 -710h-66z
M798 -10c-99 0 -157 53 -157 129c0 54 30 93 92 113c-47 19 -71 52 -71 94c0 64 55 111 136 111c79 0 134 -46 134 -110c0 -42 -23 -76 -70 -95c60 -20 92 -54 92 -111c0 -78 -58 -131 -156 -131zM799 256c47 0 77 29 77 68s-30 65 -77 65c-48 0 -80 -26 -80 -65
s32 -68 80 -68zM798 39c63 0 98 35 98 81c0 52 -43 84 -99 84c-54 0 -96 -30 -96 -83c0 -47 34 -82 97 -82z" />
    <glyph glyph-name="seveneighths" unicode="&#x215e;" horiz-adv-x="919" 
d="M104 285l187 372h-240v54h305v-36l-188 -390h-64zM109 0l557 710h66l-557 -710h-66zM713 -10c-99 0 -157 53 -157 129c0 54 30 93 92 113c-47 19 -71 52 -71 94c0 64 55 111 136 111c79 0 134 -46 134 -110c0 -42 -23 -76 -70 -95c60 -20 92 -54 92 -111
c0 -78 -58 -131 -156 -131zM714 256c47 0 77 29 77 68s-30 65 -77 65c-48 0 -80 -26 -80 -65s32 -68 80 -68zM713 39c63 0 98 35 98 81c0 52 -43 84 -99 84c-54 0 -96 -30 -96 -83c0 -47 34 -82 97 -82z" />
    <glyph glyph-name="uni2166" unicode="&#x2166;" horiz-adv-x="1185" 
d="M312 92l228 618h78l-268 -710h-79l-268 710h80zM724 0v710h75v-710h-75zM1006 710h75v-710h-75v710z" />
    <glyph glyph-name="exclamdbl" unicode="&#x203c;" horiz-adv-x="563" 
d="M125 218l-13 492h85l-13 -492h-59zM375 218l-13 492h85l-13 -492h-59zM156 -11c-29 0 -52 23 -52 52c0 30 23 53 52 53c30 0 53 -23 53 -53c0 -29 -23 -52 -53 -52zM406 -11c-29 0 -52 23 -52 52c0 30 23 53 52 53c30 0 53 -23 53 -53c0 -29 -23 -52 -53 -52z" />
    <glyph glyph-name="uni203D" unicode="&#x203d;" horiz-adv-x="497" 
d="M250 718c127 0 201 -77 201 -178c0 -87 -44 -141 -94 -192c-66 -70 -76 -94 -77 -127h-65l-6 433c-65 -13 -98 -57 -111 -108l-53 28c19 84 94 144 205 144zM304 384c51 54 79 92 79 153s-34 107 -104 118l-8 -310c10 12 20 25 33 39zM250 94c29 0 53 -23 53 -53
c0 -29 -24 -52 -53 -52s-53 23 -53 52c0 30 24 53 53 53z" />
    <glyph glyph-name="uni203E" unicode="&#x203e;" horiz-adv-x="450" 
d="M-5 783v45h460v-45h-460z" />
    </font>
</defs>
</svg>
