<?xml version="1.0" standalone="no"?>
<!DOCTYPE svg PUBLIC "-//W3C//DTD SVG 1.1//EN" "http://www.w3.org/Graphics/SVG/1.1/DTD/svg11.dtd" >
<svg>
<metadata>
Created by FontForge 20110222 at Mon Mar  7 10:38:20 2011
 By www-data
Copyright 2006 by inter981. ALL RIGHTS RESERVED.   Unauthorised use prohibited. The digitally encoded machine readable outline data  for producing the typefaces is copyrighted [c], 2006 property of inter981 [A Corun~a, Spain]
</metadata>
<defs>
<font id="MatriculaEspanola" horiz-adv-x="525" >
  <font-face 
    font-family="Matricula Espanola"
    font-weight="400"
    font-stretch="normal"
    units-per-em="1000"
    panose-1="2 0 5 3 0 0 0 0 0 0"
    ascent="800"
    descent="-200"
    x-height="709"
    cap-height="716"
    bbox="-162 -101 1028 1107"
    underline-thickness="0"
    underline-position="0"
    unicode-range="U+0020-20AC"
  />
    <missing-glyph />
    <glyph glyph-name="four" unicode="4" horiz-adv-x="513" 
d="M240 0c-6 0 -10 3 -10 10v77c0 9 -4 14 -13 14h-207c-7 0 -10 3 -10 9v56c0 16 2 31 7 43l203 501c1 3 3 5 7 5h90c6 0 7 -3 7 -12l-198 -488c0 -11 3 -15 12 -15h89c9 0 13 4 13 13v78c0 7 4 10 10 10h80c7 0 10 -3 10 -10v-78c0 -9 4 -13 13 -13h63c7 0 10 -3 10 -10
v-80c0 -6 -3 -9 -10 -9h-63c-9 0 -13 -5 -13 -14v-77c0 -7 -3 -10 -10 -10h-80z" />
    <glyph glyph-name="five" unicode="5" horiz-adv-x="511" 
d="M110 309l-9 -1l-78 59c-3 2 -4 5 -4 9v326c0 11 1 13 9 13h302c6 0 9 -3 9 -9v-72c0 -5 -3 -8 -9 -8h-215c-5 0 -8 -3 -8 -9v-184c0 -7 3 -9 9 -9c39 10 56 14 81 14c115 0 213 -99 213 -213c0 -121 -100 -225 -220 -225c-78 0 -149 40 -189 106c0 10 0 12 4 15l72 39
c4 0 7 -2 10 -6c22 -36 59 -58 100 -58c82 0 127 66 127 122c0 66 -56 121 -124 121c-31 0 -58 -12 -80 -30z" />
    <glyph glyph-name="six" unicode="6" horiz-adv-x="527" 
d="M421 545c0 -7 -2 -10 -7 -11l-74 -19c-8 0 -11 2 -12 8c-15 57 -61 95 -114 95c-66 0 -118 -57 -118 -128v-52c0 -9 5 -14 14 -14c1 0 4 1 10 3c30 15 61 23 94 23c118 0 213 -100 213 -225c0 -126 -94 -225 -213 -225c-121 0 -214 99 -214 227v263c0 125 95 225 214 225
c97 0 183 -71 207 -170zM214 95c67 0 119 56 119 130c0 71 -54 129 -119 129c-67 0 -118 -58 -118 -129c0 -72 49 -130 118 -130z" />
    <glyph glyph-name="seven" unicode="7" horiz-adv-x="531" 
d="M106 8c-2 -5 -6 -8 -11 -8h-81c-9 0 -14 5 -14 14l310 578c2 4 3 7 3 10c0 9 -5 13 -13 13h-184c-7 0 -11 -3 -11 -11v-75c0 -6 -2 -8 -8 -8h-83c-6 0 -8 2 -8 8v169c0 11 5 17 15 17h396c11 0 17 -6 17 -17v-72c0 -8 -2 -16 -6 -22z" />
    <glyph glyph-name="eight" unicode="8" 
d="M215 619c-57 0 -102 -45 -102 -102c0 -59 44 -103 102 -103c57 0 101 45 101 103c0 56 -46 102 -101 102zM358 384c-4 -5 -4 -6 -4 -12c0 -5 1 -9 4 -13c45 -41 67 -91 67 -150c0 -117 -94 -209 -213 -209s-212 91 -212 209c0 61 23 112 69 154c4 4 5 7 5 12
c0 3 -1 7 -3 10c-36 37 -54 82 -54 135c0 108 87 195 198 195c110 0 199 -87 199 -195c0 -53 -18 -98 -56 -136zM212 324c-67 0 -117 -53 -117 -115c0 -66 51 -116 117 -116s118 51 118 116c0 63 -53 115 -118 115z" />
    <glyph glyph-name="nine" unicode="9" 
d="M7 171c0 5 2 8 7 10l74 18c6 0 9 -2 11 -8c13 -56 60 -95 114 -95c66 0 118 57 118 129v51c0 10 -5 15 -14 15c-41 -16 -66 -26 -103 -26c-120 0 -214 98 -214 224s95 226 214 226c120 0 213 -102 213 -227v-263c0 -126 -94 -225 -213 -225c-101 0 -191 75 -207 171z
M213 620c-66 0 -118 -58 -118 -130c0 -73 51 -130 118 -130c65 0 118 58 118 130c0 71 -53 130 -118 130z" />
    <glyph glyph-name="zero" unicode="0" horiz-adv-x="527" 
d="M427 490v-264c0 -126 -94 -226 -213 -226c-146 0 -214 127 -214 226v264c0 126 95 226 214 226c118 0 213 -101 213 -226zM331 225v265c0 71 -52 131 -118 131s-118 -58 -118 -130v-265c0 -73 50 -131 118 -131c65 0 118 58 118 130z" />
    <glyph glyph-name="A" unicode="A" horiz-adv-x="523" 
d="M8 1c-5 0 -8 4 -8 11l162 695c1 5 4 8 11 8h78c6 0 9 -3 11 -8l162 -695c0 -12 -1 -12 -7 -12h-79c-7 0 -11 3 -12 8l-23 100c-3 6 -7 8 -12 8h-158c-7 0 -11 -3 -12 -9l-23 -99c-2 -5 -6 -8 -12 -8zM222 452c-2 6 -5 9 -10 9s-9 -3 -10 -8l-55 -232c0 -7 4 -10 10 -10
h110c6 0 9 3 9 10z" />
    <glyph glyph-name="B" unicode="B" horiz-adv-x="523" 
d="M207 619h-103c-6 0 -9 -3 -9 -10v-184c0 -7 3 -11 9 -11h108c59 0 104 45 104 103c0 59 -45 102 -109 102zM104 324c-6 0 -9 -3 -9 -10v-211c0 -7 3 -10 9 -10h103c70 0 122 49 122 116c0 63 -53 115 -117 115h-108zM207 0h-197c-7 0 -10 3 -10 10v695c0 7 3 10 10 10
h197c118 0 206 -84 206 -195c0 -54 -18 -99 -55 -136l-5 -12c0 -6 1 -10 5 -13c44 -41 66 -91 66 -150c0 -120 -95 -209 -217 -209z" />
    <glyph glyph-name="C" unicode="C" horiz-adv-x="507" 
d="M208 715c108 0 198 -88 200 -198c0 -7 -4 -12 -9 -12h-67c-5 0 -8 2 -9 7l-1 1c0 53 -56 105 -114 105c-95 0 -115 -80 -115 -180v-212c0 -74 50 -131 115 -131c54 0 95 36 116 112c2 2 4 3 6 3h70c4 0 8 -5 8 -10c-4 -110 -93 -200 -200 -200c-117 0 -208 99 -208 227
v263c0 125 92 225 208 225z" />
    <glyph glyph-name="D" unicode="D" horiz-adv-x="511" 
d="M207 715c114 0 206 -93 206 -207v-301c0 -115 -91 -207 -206 -207h-197c-7 0 -10 3 -10 10v695c0 7 3 10 10 10h197zM104 615c-6 0 -9 -3 -9 -10v-497c0 -6 3 -9 9 -9h103c63 0 114 51 114 115v286c0 63 -51 115 -114 115h-103z" />
    <glyph glyph-name="E" unicode="E" horiz-adv-x="513" 
d="M10 0c-7 0 -10 3 -10 10v695c0 7 3 10 10 10h396c7 0 10 -3 10 -10v-75c0 -7 -3 -10 -10 -10h-302c-6 0 -9 -3 -9 -11v-194c0 -7 3 -11 9 -11h208c6 0 9 -3 9 -8v-77c0 -6 -3 -9 -9 -9h-208c-6 0 -9 -4 -9 -10v-196c0 -6 3 -9 9 -9h302c7 0 10 -4 10 -10v-75
c0 -7 -3 -10 -10 -10h-396z" />
    <glyph glyph-name="numbersign" unicode="#" horiz-adv-x="496" 
d="M398 883v-958h-398v958h398zM200 761l-7 -21h-20l16 -11l-6 -21l17 13l17 -13l-7 21l18 11h-22zM271 741l-7 -20h-21l17 -12l-7 -21l18 13l16 -13l-6 21l17 12h-22zM323 691l-7 -20h-20l17 -12l-7 -20l17 12l17 -12l-7 20l18 12h-22zM345 616l-7 -20h-21l17 -12l-7 -21
l18 13l16 -13l-7 21l18 12h-21zM320 547l-7 -20h-20l17 -12l-6 -20l16 13l17 -13l-6 20l17 12h-22zM273 497l-6 -19h-21l17 -13l-7 -20l17 13l17 -13l-7 20l18 13h-22zM200 472l-7 -21h-20l16 -12l-6 -20l17 13l17 -13l-7 20l18 12h-22zM127 497l-7 -19h-20l16 -13l-7 -20
l18 13l17 -13l-7 20l17 13h-21zM75 549l-6 -20h-21l17 -12l-6 -20l16 12l18 -12l-7 20l17 12h-21zM56 616l-7 -20h-21l17 -12l-7 -21l18 13l16 -13l-7 21l18 12h-21zM77 691l-7 -20h-20l16 -12l-6 -20l17 12l17 -12l-7 20l17 12h-21zM129 741l-6 -20h-21l17 -12l-7 -21
l17 13l17 -13l-6 21l16 12h-20zM268 102h-114v74h103v25h-103v68h112v26h-138v-219h140v26z" />
    <glyph glyph-name="F" unicode="F" horiz-adv-x="513" 
d="M10 0c-7 0 -10 3 -10 10v695c0 7 3 10 10 10h396c7 0 10 -3 10 -10v-75c0 -7 -3 -10 -10 -10h-302c-6 0 -9 -3 -9 -11v-194c0 -7 3 -11 9 -11h208c6 0 9 -3 9 -8v-77c0 -6 -3 -9 -9 -9h-208c-6 0 -9 -4 -9 -10v-290c0 -7 -4 -10 -10 -10h-75z" />
    <glyph glyph-name="G" unicode="G" horiz-adv-x="513" 
d="M409 545v-2c0 -5 -2 -8 -7 -9l-72 -19c-7 0 -10 2 -11 8c-14 56 -61 95 -111 95c-95 0 -115 -83 -115 -180v-212c0 -75 49 -131 115 -131c78 0 115 73 115 130v55c0 7 -3 11 -10 11h-79c-5 0 -7 3 -7 8v83c0 6 2 9 7 9h165c11 0 16 -6 16 -17v-149
c0 -125 -92 -225 -207 -225c-117 0 -208 99 -208 227v263c0 125 92 225 208 225c94 0 177 -70 201 -170z" />
    <glyph glyph-name="H" unicode="H" horiz-adv-x="513" 
d="M10 0c-7 0 -10 3 -10 10v695c0 7 3 10 10 10h75c6 0 10 -3 10 -10v-290c0 -6 3 -10 10 -10h206c7 0 10 4 10 10v290c0 7 3 10 9 10h76c7 0 10 -3 10 -10v-695c0 -7 -3 -10 -10 -10h-76c-6 0 -9 3 -9 10v290c0 7 -3 11 -10 11h-206c-7 0 -10 -4 -10 -11v-290
c0 -7 -4 -10 -10 -10h-75z" />
    <glyph glyph-name="I" unicode="I" horiz-adv-x="195" 
d="M10 2c-7 0 -10 3 -10 10v694c0 7 3 10 10 10h75c6 0 10 -3 10 -10v-694c0 -7 -4 -10 -10 -10h-75z" />
    <glyph glyph-name="J" unicode="J" horiz-adv-x="517" 
d="M323 209v497c0 7 3 10 10 10h76c7 0 10 -3 10 -10v-497c0 -110 -97 -209 -213 -209c-88 0 -179 54 -206 157c0 8 2 11 8 13l72 17c8 0 11 -2 12 -8c12 -52 58 -86 114 -86c66 0 117 51 117 116z" />
    <glyph glyph-name="K" unicode="K" horiz-adv-x="513" 
d="M10 2c-7 0 -10 3 -10 10v694c0 7 3 10 10 10h75c6 0 10 -3 10 -10v-253c0 -9 4 -14 13 -14c4 0 7 1 9 3l193 264c6 7 10 10 12 10h95c8 0 11 -2 11 -6c0 -1 0 -3 -1 -5l-212 -288c-2 -4 -4 -7 -4 -10l217 -400c0 -3 -3 -5 -10 -5l-86 -1c-5 0 -9 3 -13 10l-161 297
c-2 4 -6 5 -12 5c-4 0 -8 -1 -10 -5l-41 -59v-237c0 -7 -4 -10 -10 -10h-75z" />
    <glyph glyph-name="L" unicode="L" horiz-adv-x="513" 
d="M10 716h75c6 0 10 -3 10 -10v-600c0 -7 3 -10 9 -10h302c7 0 10 -4 10 -10v-75c0 -7 -3 -10 -10 -10h-396c-7 0 -10 3 -10 10v695c0 7 3 10 10 10z" />
    <glyph glyph-name="M" unicode="M" horiz-adv-x="527" 
d="M10 2c-7 0 -10 3 -10 10v694c0 7 3 10 10 10h75c5 0 7 -2 9 -7l108 -402c2 -6 6 -8 12 -8c5 0 9 2 12 8l108 403c1 4 4 6 8 6h76c6 0 9 -3 9 -10v-694c0 -7 -3 -10 -9 -10h-76c-6 0 -9 3 -9 10v232c0 9 -4 13 -13 13c-7 0 -11 -3 -11 -9l-55 -200c-3 -8 -6 -12 -10 -12
h-61c-5 0 -8 4 -9 12l-55 200c-2 6 -6 9 -12 9c-8 0 -12 -4 -12 -13v-232c0 -7 -4 -10 -10 -10h-75z" />
    <glyph glyph-name="N" unicode="N" horiz-adv-x="527" 
d="M343 2c-10 0 -12 4 -225 444c-3 4 -7 6 -11 6c-8 0 -12 -4 -12 -13v-427c0 -7 -4 -10 -10 -10h-75c-7 0 -10 3 -10 10v694c0 7 3 10 10 10h75c4 0 7 -2 9 -6l216 -439c2 -4 6 -6 10 -6c7 0 12 4 13 12v429c0 7 3 10 10 10h75c6 0 10 -3 10 -10v-694c0 -7 -4 -10 -10 -10
h-75z" />
    <glyph glyph-name="O" unicode="O" 
d="M427 491v-265c0 -126 -94 -226 -213 -226c-146 0 -214 127 -214 226v265c0 126 95 226 214 226c118 0 213 -101 213 -226zM331 226v265c0 71 -52 131 -118 131s-118 -58 -118 -130v-266c0 -73 50 -131 118 -131c65 0 118 58 118 131z" />
    <glyph glyph-name="P" unicode="P" horiz-adv-x="511" 
d="M215 619h-111c-6 0 -9 -3 -9 -10v-184c0 -7 3 -11 9 -11h111c57 0 101 46 101 103c0 56 -46 102 -101 102zM85 0h-75c-7 0 -10 3 -10 10v695c0 7 3 10 10 10h205c134 0 198 -111 198 -198c0 -113 -86 -199 -198 -199h-111c-6 0 -9 -3 -9 -9v-299c0 -7 -4 -10 -10 -10z
" />
    <glyph glyph-name="Q" unicode="Q" 
d="M427 490v-265c0 -47 -12 -89 -35 -126v-9l46 -59c1 -2 2 -4 2 -6c0 -3 -2 -6 -4 -7l-60 -46c-2 -2 -4 -3 -6 -3c-3 0 -5 2 -8 5l-37 46c-1 3 -3 5 -8 5h-4c-30 -17 -63 -25 -99 -25c-120 0 -214 99 -214 225v265c0 126 95 226 214 226c118 0 213 -101 213 -226zM312 193
c1 -2 3 -4 7 -4c9 0 10 2 12 35v266c0 71 -52 131 -118 131s-118 -58 -118 -131v-265c0 -73 50 -131 118 -131c28 0 40 4 40 15v5l-35 45c-2 2 -3 5 -3 7s2 5 5 7l65 48c3 0 5 -1 8 -3z" />
    <glyph glyph-name="R" unicode="R" horiz-adv-x="511" 
d="M215 619h-111c-6 0 -9 -3 -9 -10v-184c0 -7 3 -11 9 -11h111c57 0 101 46 101 103c0 56 -46 102 -101 102zM285 331c-6 -2 -7 -6 -7 -12l135 -305c0 -9 -4 -14 -13 -14h-82c-5 0 -9 3 -11 8l-137 305c-3 4 -6 5 -9 5h-57c-6 0 -9 -3 -9 -9v-299c0 -7 -4 -10 -10 -10h-75
c-7 0 -10 3 -10 10v695c0 7 3 10 10 10h205c134 0 198 -111 198 -198c0 -85 -50 -157 -128 -186z" />
    <glyph glyph-name="S" unicode="S" horiz-adv-x="517" 
d="M398 573c0 -8 -2 -11 -8 -11l-75 -18c-9 0 -10 0 -20 23c-16 32 -53 53 -86 53c-55 0 -101 -46 -101 -103c0 -59 44 -103 102 -103c48 0 107 -21 142 -53l2 -2c43 -41 65 -91 65 -150c0 -110 -97 -209 -213 -209c-88 0 -179 54 -206 157c0 8 2 11 8 13l72 17
c8 0 11 -2 12 -8c10 -50 62 -91 116 -91c68 0 116 54 116 121c0 63 -53 115 -117 115c-57 0 -103 20 -141 60l-1 1c-23 23 -54 70 -54 135c0 111 91 194 197 194c88 0 163 -53 190 -141z" />
    <glyph glyph-name="T" unicode="T" horiz-adv-x="513" 
d="M171 0c-7 0 -10 3 -10 10v601c0 7 -3 10 -10 10h-141c-7 0 -10 3 -10 10v75c0 7 3 10 10 10h396c7 0 10 -3 10 -10v-75c0 -7 -3 -10 -10 -10h-140c-7 0 -10 -3 -10 -10v-601c0 -7 -3 -10 -10 -10h-75z" />
    <glyph glyph-name="U" unicode="U" horiz-adv-x="515" 
d="M0 221v478c0 7 3 10 10 10h75c6 0 10 -3 10 -10v-479c0 -76 49 -132 113 -132s112 58 112 131v480c0 7 4 10 10 10h75c7 0 10 -3 10 -10v-480c0 -125 -92 -225 -207 -225c-116 0 -208 97 -208 227z" />
    <glyph glyph-name="V" unicode="V" horiz-adv-x="517" 
d="M417 715c6 0 7 -1 7 -12l-161 -695c-2 -5 -6 -8 -12 -8h-77c-7 0 -11 3 -12 8l-162 695c0 8 3 12 8 12h79c6 0 10 -3 12 -8l104 -444c1 -6 4 -8 10 -8c4 0 7 2 10 7l104 445c1 5 4 8 11 8h79z" />
    <glyph glyph-name="W" unicode="W" 
d="M265 715c2 -1 2 -1 4 -3l28 -215c0 -4 2 -8 8 -8c5 0 7 2 7 7l27 211c1 5 3 8 7 8h85c3 0 5 -4 5 -12l-99 -695c-1 -5 -4 -8 -7 -8h-81c-4 0 -6 3 -7 8l-17 122c-2 4 -4 7 -8 7c-5 0 -7 -3 -8 -7l-17 -122c-1 -5 -3 -8 -6 -8h-82c-3 0 -6 3 -6 8l-98 695c0 8 2 12 5 12
h84c4 0 6 -3 6 -8l30 -208c2 -8 4 -10 8 -10s6 2 9 10l29 208c0 5 1 7 4 7z" />
    <glyph glyph-name="X" unicode="X" 
d="M340 0c-15 0 -15 0 -117 224c-1 4 -4 6 -9 6s-8 -1 -10 -4l-101 -218c-3 -5 -8 -8 -15 -8h-82c-4 0 -5 3 -5 8c0 1 130 284 160 349c-2 3 -160 346 -160 350c0 5 1 8 5 8h82c7 0 12 -3 15 -8l101 -216c1 -4 4 -7 10 -7c3 0 6 2 9 4c101 226 102 227 117 227h83
c4 0 6 -2 6 -5l-162 -353l162 -352c0 -3 -2 -5 -6 -5h-83z" />
    <glyph glyph-name="Y" unicode="Y" 
d="M177 4c-7 0 -10 3 -10 10v293c0 6 -2 12 -5 18l-161 377c0 12 1 13 5 13h82c7 0 12 -3 15 -8l101 -247c1 -5 4 -7 10 -7c8 0 12 5 60 135c49 126 50 127 66 127h83c4 0 6 -2 6 -5l-163 -385c-3 -5 -4 -11 -4 -18v-293c0 -7 -4 -10 -10 -10h-75z" />
    <glyph glyph-name="Z" unicode="Z" 
d="M422 604l-298 -481c-3 -7 -4 -8 -4 -10c0 -9 5 -13 14 -13h277c11 0 17 -6 17 -17v-67c0 -11 -5 -16 -16 -16h-396c-11 0 -16 5 -16 16v73c0 7 2 14 6 21l300 484c1 2 2 5 2 8c0 9 -5 13 -14 13h-276c-11 0 -17 5 -17 16v67c0 11 5 17 16 17h395c11 0 16 -6 16 -17v-72
c0 -8 -2 -16 -6 -22z" />
    <glyph glyph-name="period" unicode="." horiz-adv-x="197" 
d="M17 101h65c11 0 17 -6 17 -18v-66c0 -11 -6 -17 -17 -17h-65c-11 0 -17 6 -17 17v66c0 12 6 18 17 18z" />
    <glyph glyph-name="comma" unicode="," horiz-adv-x="236" 
d="M58 101h64c16 0 18 -3 18 -18l-40 -139c-4 -11 -10 -16 -17 -16h-65c-13 0 -18 4 -18 16l40 139c4 12 10 18 18 18z" />
    <glyph glyph-name="semicolon" unicode=";" horiz-adv-x="199" 
d="M21 101h64c16 0 18 -3 18 -18l-40 -139c-4 -11 -10 -16 -17 -16h-66c-12 0 -17 4 -17 16l40 139c4 12 10 18 18 18zM21 434h64c12 0 18 -6 18 -18v-66c0 -11 -6 -17 -18 -17h-64c-12 0 -18 6 -18 17v66c0 12 6 18 18 18z" />
    <glyph glyph-name="colon" unicode=":" horiz-adv-x="197" 
d="M17 101h65c11 0 17 -6 17 -18v-66c0 -11 -6 -17 -17 -17h-65c-11 0 -17 6 -17 17v66c0 12 6 18 17 18zM17 439h65c11 0 17 -5 17 -16v-67c0 -11 -6 -16 -17 -16h-65c-11 0 -17 5 -17 16v67c0 11 6 16 17 16z" />
    <glyph glyph-name="asterisk" unicode="*" horiz-adv-x="529" 
d="M252 715c6 0 10 -3 10 -10v-133l119 68c3 0 6 -1 9 -5l39 -71c0 -3 -2 -5 -5 -7l-115 -67l115 -66c3 -2 5 -4 5 -7l-39 -71c-3 -4 -5 -6 -9 -6c-1 0 -3 1 -5 2l-114 66v-132c0 -6 -4 -9 -10 -9h-75c-7 0 -10 3 -10 9v132l-121 -68c-3 0 -5 2 -7 6l-38 65c0 11 0 11 4 13
l114 66l-114 67c-4 1 -4 2 -4 13l38 65c2 4 5 5 8 5l120 -68v133c0 7 3 10 10 10h75z" />
    <glyph glyph-name="dollar" unicode="$" horiz-adv-x="521" 
d="M398 573c0 -8 -2 -11 -8 -11l-75 -18c-9 0 -9 0 -20 23c-18 33 -50 53 -85 53c-56 0 -102 -46 -102 -103c0 -59 44 -103 102 -103c48 0 107 -21 142 -53l2 -2c43 -41 65 -91 65 -150c0 -93 -69 -179 -162 -202v-69c0 -6 -3 -9 -10 -9h-75c-7 0 -10 3 -10 9v67
c-80 16 -142 74 -162 152c0 8 2 11 8 13l72 17c8 0 11 -2 12 -8c10 -50 62 -91 116 -91c68 0 116 54 116 121c0 63 -53 115 -117 115c-57 0 -103 20 -141 60l-1 1c-23 23 -54 70 -54 135c0 89 58 164 146 188l5 1v68c0 7 3 10 10 10h75c7 0 10 -3 10 -10v-69
c73 -18 120 -66 141 -135z" />
    <glyph glyph-name="space" unicode=" " horiz-adv-x="428" 
 />
    <glyph glyph-name="plus" unicode="+" horiz-adv-x="513" 
d="M17 404h128c8 0 12 5 12 13v127c0 11 6 17 17 17h66c11 0 17 -6 17 -17v-127c0 -8 4 -13 13 -13h126c12 0 18 -5 18 -16v-67c0 -11 -6 -17 -18 -17h-126c-9 0 -13 -4 -13 -12v-128c0 -11 -6 -17 -17 -17h-66c-11 0 -17 6 -17 17v128c0 8 -4 12 -12 12h-128
c-11 0 -17 6 -17 17v67c0 11 6 16 17 16z" />
    <glyph glyph-name="underscore" unicode="_" horiz-adv-x="511" 
d="M17 0h379c12 0 18 -6 18 -17v-66c0 -12 -6 -18 -18 -18h-379c-11 0 -17 6 -17 18v66c0 11 6 17 17 17z" />
    <glyph glyph-name="questiondown" unicode="&#xbf;" horiz-adv-x="511" 
d="M156 386v118c0 6 4 10 10 10h75c7 0 10 -4 10 -10v-190c0 -8 0 -9 -38 -11c-66 0 -118 -52 -118 -117c0 -67 51 -119 117 -119c53 0 99 37 115 90c1 8 5 8 13 8l72 -17c5 -1 7 -4 7 -11c-24 -94 -108 -158 -206 -158c-117 0 -199 80 -213 209c0 96 60 172 156 198z
M171 714h65c11 0 17 -6 17 -17v-66c0 -11 -6 -17 -17 -17h-65c-11 0 -17 6 -17 17v66c0 11 6 17 17 17z" />
    <glyph glyph-name="question" unicode="?" horiz-adv-x="511" 
d="M263 328v-118c0 -7 -4 -10 -10 -10h-75c-7 0 -10 3 -10 10v189c0 9 3 10 39 12c66 0 117 52 117 118c0 65 -52 118 -116 118c-55 0 -104 -38 -116 -90c-1 -6 -4 -8 -12 -8l-72 16c-6 1 -8 4 -8 11c0 25 36 84 74 114s82 45 132 45c113 0 213 -97 213 -208
c0 -97 -60 -173 -156 -199zM248 0h-65c-11 0 -17 6 -17 17v66c0 12 6 18 17 18h65c11 0 17 -6 17 -18v-66c0 -11 -6 -17 -17 -17z" />
    <glyph glyph-name="sterling" unicode="&#xa3;" horiz-adv-x="559" 
d="M450 0h-440c-7 0 -10 3 -10 10v75c0 6 3 10 10 10h24c7 0 10 3 10 9v192c0 11 -2 14 -10 14h-24c-7 0 -10 3 -10 9v77c0 5 3 8 10 8h24c7 0 10 4 10 11v74c0 126 92 226 208 226c110 0 200 -89 201 -199c0 -8 -3 -12 -9 -12h-67c-5 0 -8 2 -9 7c0 53 -58 107 -116 107
c-63 0 -113 -57 -113 -129v-74c0 -7 3 -11 9 -11h207c7 0 10 -3 10 -8v-77c0 -6 -3 -9 -10 -9h-207c-6 0 -9 -4 -9 -10v-196c0 -6 3 -9 9 -9h302c6 0 9 -4 9 -10v-75c0 -7 -3 -10 -9 -10z" />
    <glyph glyph-name="backslash" unicode="\" horiz-adv-x="496" 
d="M316 -24l-314 727c0 23 3 27 13 31l43 19c4 2 8 2 12 2c8 0 15 -5 19 -15l314 -727c2 -4 3 -8 3 -11c0 -9 -5 -15 -15 -20l-43 -18c-5 -2 -9 -3 -13 -3c-8 0 -15 5 -19 15z" />
    <glyph glyph-name="slash" unicode="/" horiz-adv-x="496" 
d="M91 -24c-4 -10 -10 -15 -19 -15c-4 0 -8 1 -12 3l-43 18c-11 5 -16 11 -16 20c0 3 1 7 3 11l314 727c5 10 11 15 20 15c3 0 7 0 12 -2l43 -19c9 -4 12 -7 12 -31z" />
    <glyph glyph-name="exclamdown" unicode="&#xa1;" horiz-adv-x="197" 
d="M12 -21c-7 0 -10 4 -10 10v525c0 6 3 9 10 9h75c6 0 10 -3 10 -9v-525c0 -6 -4 -10 -10 -10h-75zM17 714h65c11 0 17 -6 17 -17v-66c0 -11 -6 -17 -17 -17h-65c-11 0 -17 6 -17 17v66c0 11 6 17 17 17z" />
    <glyph glyph-name="quotedbl" unicode="&#x22;" horiz-adv-x="382" 
d="M10 422c-7 0 -10 3 -10 10v274c0 7 3 10 10 10h75c6 0 10 -3 10 -10v-274c0 -7 -4 -10 -10 -10h-75zM201 422c-6 0 -10 3 -10 10v274c0 7 4 10 10 10h75c7 0 10 -3 10 -10v-274c0 -7 -3 -10 -10 -10h-75z" />
    <glyph glyph-name="quotesingle" unicode="'" horiz-adv-x="191" 
d="M10 422c-7 0 -10 3 -10 10v274c0 7 3 10 10 10h75c6 0 10 -3 10 -10v-274c0 -7 -4 -10 -10 -10h-75z" />
    <glyph glyph-name="cent" unicode="&#xa2;" horiz-adv-x="511" 
d="M157 708v62c0 11 6 17 18 17h66c11 0 17 -6 17 -17v-62c88 -24 149 -102 150 -191c0 -7 -4 -12 -9 -12h-67c-5 0 -8 2 -9 7l-1 1c0 53 -56 105 -114 105c-95 0 -115 -80 -115 -180v-212c0 -74 50 -131 115 -131c54 0 95 36 116 112c2 2 4 3 6 3h70c4 0 8 -5 8 -10
c-4 -89 -66 -169 -150 -193v-62c0 -11 -6 -16 -17 -16h-66c-12 0 -18 5 -18 16v62c-103 27 -157 125 -157 220v263c0 103 64 192 157 218z" />
    <glyph glyph-name="plusminus" unicode="&#xb1;" horiz-adv-x="511" 
d="M17 518h128c7 0 11 4 11 12v127c0 12 6 18 18 18h66c11 0 17 -6 17 -18v-127c0 -8 4 -12 13 -12h126c12 0 17 -6 17 -17v-66c0 -11 -5 -17 -17 -17h-126c-9 0 -13 -4 -13 -13v-128c0 -11 -6 -16 -17 -16h-66c-12 0 -18 5 -18 16v128c0 9 -4 13 -11 13h-128
c-11 0 -17 6 -17 17v66c0 11 6 17 17 17zM17 161h379c12 0 17 -6 17 -17v-67c0 -11 -5 -16 -17 -16h-379c-11 0 -17 5 -17 16v67c0 11 6 17 17 17z" />
    <glyph glyph-name="equal" unicode="=" horiz-adv-x="511" 
d="M17 505h379c12 0 17 -6 17 -18v-66c0 -11 -5 -17 -17 -17h-379c-11 0 -17 6 -17 17v66c0 12 6 18 17 18zM17 204c-11 0 -17 6 -17 17v66c0 11 6 17 17 17h379c12 0 17 -6 17 -17v-66c0 -11 -5 -17 -17 -17h-379z" />
    <glyph glyph-name="uni00AD" unicode="&#xad;" horiz-adv-x="511" 
d="M17 403h379c12 0 17 -6 17 -17v-67c0 -11 -5 -16 -17 -16h-379c-11 0 -17 5 -17 16v67c0 11 6 17 17 17z" />
    <glyph glyph-name="germandbls" unicode="&#xdf;" horiz-adv-x="511" 
d="M199 619c-60 0 -104 -43 -104 -113v-496c0 -7 -4 -10 -10 -10h-75c-7 0 -10 3 -10 10v496c0 121 82 209 200 209c111 0 201 -85 201 -195c0 -53 -18 -98 -55 -136c-4 -3 -5 -7 -5 -11c0 -5 2 -9 6 -12l4 -4c41 -39 61 -86 61 -140c0 -119 -95 -217 -213 -217h-47
c-7 0 -10 4 -10 11v72c0 7 3 10 10 10h39c75 0 126 48 126 116c0 63 -51 115 -116 116h-49c-7 0 -10 4 -10 11v69c0 7 3 10 10 10h39c54 0 113 53 113 102c0 44 -33 101 -105 102z" />
    <glyph glyph-name="yen" unicode="&#xa5;" horiz-adv-x="527" 
d="M262 14c0 -7 -4 -10 -10 -10h-75c-7 0 -10 3 -10 10v43c0 6 -4 9 -11 9h-75c-6 0 -10 4 -10 10v75c0 7 4 10 10 10h75c7 0 11 3 11 10v14c0 6 -4 9 -11 9h-75c-6 0 -10 4 -10 10v75c0 7 4 10 10 10h75c7 0 11 3 11 10l-5 25l-161 377c0 13 1 14 5 14h82c7 0 12 -3 15 -8
l101 -248c1 -5 4 -7 10 -7c8 0 12 5 60 135c49 127 50 128 66 128h83c4 0 6 -2 6 -6c0 -2 -1 -5 -2 -8l-161 -376l-4 -26c0 -7 3 -10 9 -10h76c6 0 9 -3 9 -10v-75c0 -6 -3 -10 -9 -10h-76c-6 0 -9 -3 -9 -9v-14c0 -7 3 -10 9 -10h76c6 0 9 -3 9 -10v-75c0 -6 -3 -10 -9 -10
h-76c-6 0 -9 -3 -9 -9v-43z" />
    <glyph glyph-name="parenleft" unicode="(" horiz-adv-x="315" 
d="M208 817c7 0 10 -3 10 -9v-77c0 -6 -3 -9 -10 -9c-97 0 -115 -83 -115 -181v-410c0 -74 50 -131 115 -131c7 0 10 -3 10 -9v-75c0 -6 -3 -10 -10 -10c-118 0 -208 99 -208 226v462c0 124 93 223 208 223z" />
    <glyph glyph-name="parenright" unicode=")" horiz-adv-x="315" 
d="M10 817c115 0 208 -99 208 -223v-462c0 -127 -90 -226 -208 -226c-7 0 -10 4 -10 10v75c0 6 3 9 10 9c64 0 115 58 115 131v410c0 91 -3 109 -34 143c-22 25 -49 38 -81 38c-7 0 -10 3 -10 9v77c0 6 3 9 10 9z" />
    <glyph glyph-name="bracketleft" unicode="[" horiz-adv-x="315" 
d="M96 10c0 -7 3 -10 9 -10h103c7 0 10 -3 10 -9v-75c0 -6 -3 -10 -10 -10h-197c-7 0 -10 4 -10 10v891c0 6 3 9 10 9h197c7 0 10 -3 10 -9v-76c0 -6 -3 -9 -10 -9h-103c-6 0 -9 -4 -9 -10v-702z" />
    <glyph glyph-name="bracketright" unicode="]" horiz-adv-x="315" 
d="M123 712c0 6 -3 10 -10 10h-102c-7 0 -10 3 -10 9v76c0 6 3 9 10 9h197c7 0 10 -3 10 -9v-891c0 -6 -3 -10 -10 -10h-197c-7 0 -10 4 -10 10v75c0 6 3 9 10 9h102c7 0 10 3 10 10v702z" />
    <glyph glyph-name="Eth" unicode="&#xd0;" horiz-adv-x="557" 
d="M250 715c113 0 207 -94 207 -207v-301c0 -115 -92 -207 -207 -207h-196c-7 0 -10 3 -10 10v286c0 11 -2 14 -10 14h-24c-7 0 -10 3 -10 9v77c0 5 3 8 10 8h24c7 0 10 4 10 11v290c0 7 3 10 10 10h196zM139 300v-192c0 -6 3 -9 9 -9h102c64 0 115 50 115 115v286
c0 63 -52 115 -115 115h-102c-6 0 -9 -3 -9 -10v-190c0 -7 3 -11 9 -11h76c6 0 9 -3 9 -8v-77c0 -6 -3 -9 -9 -9h-76c-6 0 -9 -4 -9 -10z" />
    <glyph glyph-name="section" unicode="&#xa7;" horiz-adv-x="488" 
d="M199 546c104 0 189 -85 189 -189c0 -24 -5 -48 -14 -70c16 -29 23 -59 23 -92c0 -108 -86 -194 -196 -194c-93 0 -166 53 -190 140c-1 0 -1 0 -1 1c0 7 2 10 9 11l77 18c4 0 7 -2 9 -7c8 -36 54 -70 94 -70c46 0 93 38 98 83c0 8 -8 11 -11 11c-2 0 -4 0 -7 -1
c-21 -12 -47 -18 -80 -18c-106 0 -188 82 -188 188c0 26 4 49 12 70c-15 29 -23 60 -23 93c0 108 87 194 197 194c89 0 164 -54 191 -141c0 -8 -3 -11 -9 -11l-75 -18c-9 0 -9 1 -20 23c-16 32 -52 53 -86 53c-47 0 -90 -37 -98 -84c0 -6 4 -11 11 -11c2 0 5 1 7 2
c21 13 48 19 81 19zM293 357c0 51 -43 94 -94 94c-52 0 -95 -42 -95 -94s42 -93 95 -93c51 0 94 42 94 93z" />
    <glyph glyph-name="one" unicode="1" horiz-adv-x="428" 
 />
    <glyph glyph-name="degree" unicode="&#xb0;" horiz-adv-x="389" 
d="M212 423v153c0 36 -27 76 -67 76c-39 0 -69 -33 -69 -75v-154c0 -43 29 -76 69 -76c37 0 67 33 67 76zM289 582v-165c0 -79 -64 -142 -144 -142c-82 0 -145 62 -145 142v165c0 79 64 142 145 142c79 0 144 -64 144 -142z" />
    <glyph glyph-name="hyphen" unicode="-" horiz-adv-x="511" 
d="M17 403h379c12 0 17 -6 17 -17v-67c0 -11 -5 -16 -17 -16h-379c-11 0 -17 5 -17 16v67c0 11 6 17 17 17z" />
    <glyph glyph-name="d" unicode="d" horiz-adv-x="511" 
d="M207 715c114 0 206 -93 206 -207v-301c0 -115 -91 -207 -206 -207h-197c-7 0 -10 3 -10 10v695c0 7 3 10 10 10h197zM104 615c-6 0 -9 -3 -9 -10v-497c0 -6 3 -9 9 -9h103c63 0 114 51 114 115v286c0 63 -51 115 -114 115h-103z" />
    <glyph glyph-name="e" unicode="e" horiz-adv-x="513" 
d="M10 0c-7 0 -10 3 -10 10v695c0 7 3 10 10 10h396c7 0 10 -3 10 -10v-75c0 -7 -3 -10 -10 -10h-302c-6 0 -9 -3 -9 -11v-194c0 -7 3 -11 9 -11h208c6 0 9 -3 9 -8v-77c0 -6 -3 -9 -9 -9h-208c-6 0 -9 -4 -9 -10v-196c0 -6 3 -9 9 -9h302c7 0 10 -4 10 -10v-75
c0 -7 -3 -10 -10 -10h-396z" />
    <glyph glyph-name="f" unicode="f" horiz-adv-x="513" 
d="M10 0c-7 0 -10 3 -10 10v695c0 7 3 10 10 10h396c7 0 10 -3 10 -10v-75c0 -7 -3 -10 -10 -10h-302c-6 0 -9 -3 -9 -11v-194c0 -7 3 -11 9 -11h208c6 0 9 -3 9 -8v-77c0 -6 -3 -9 -9 -9h-208c-6 0 -9 -4 -9 -10v-290c0 -7 -4 -10 -10 -10h-75z" />
    <glyph glyph-name="g" unicode="g" horiz-adv-x="513" 
d="M409 545v-2c0 -5 -2 -8 -7 -9l-72 -19c-7 0 -10 2 -11 8c-14 56 -61 95 -111 95c-95 0 -115 -83 -115 -180v-212c0 -75 49 -131 115 -131c78 0 115 73 115 130v55c0 7 -3 11 -10 11h-79c-5 0 -7 3 -7 8v83c0 6 2 9 7 9h165c11 0 16 -6 16 -17v-149
c0 -125 -92 -225 -207 -225c-117 0 -208 99 -208 227v263c0 125 92 225 208 225c94 0 177 -70 201 -170z" />
    <glyph glyph-name="h" unicode="h" horiz-adv-x="513" 
d="M10 0c-7 0 -10 3 -10 10v695c0 7 3 10 10 10h75c6 0 10 -3 10 -10v-290c0 -6 3 -10 10 -10h206c7 0 10 4 10 10v290c0 7 3 10 9 10h76c7 0 10 -3 10 -10v-695c0 -7 -3 -10 -10 -10h-76c-6 0 -9 3 -9 10v290c0 7 -3 11 -10 11h-206c-7 0 -10 -4 -10 -11v-290
c0 -7 -4 -10 -10 -10h-75z" />
    <glyph glyph-name="i" unicode="i" horiz-adv-x="195" 
d="M10 2c-7 0 -10 3 -10 10v694c0 7 3 10 10 10h75c6 0 10 -3 10 -10v-694c0 -7 -4 -10 -10 -10h-75z" />
    <glyph glyph-name="k" unicode="k" horiz-adv-x="513" 
d="M10 2c-7 0 -10 3 -10 10v694c0 7 3 10 10 10h75c6 0 10 -3 10 -10v-253c0 -9 4 -14 13 -14c4 0 7 1 9 3l193 264c6 7 10 10 12 10h95c8 0 11 -2 11 -6c0 -1 0 -3 -1 -5l-212 -288c-2 -4 -4 -7 -4 -10l217 -400c0 -3 -3 -5 -10 -5l-86 -1c-5 0 -9 3 -13 10l-161 297
c-2 4 -6 5 -12 5c-4 0 -8 -1 -10 -5l-41 -59v-237c0 -7 -4 -10 -10 -10h-75z" />
    <glyph glyph-name="l" unicode="l" horiz-adv-x="513" 
d="M10 716h75c6 0 10 -3 10 -10v-600c0 -7 3 -10 9 -10h302c7 0 10 -4 10 -10v-75c0 -7 -3 -10 -10 -10h-396c-7 0 -10 3 -10 10v695c0 7 3 10 10 10z" />
    <glyph glyph-name="m" unicode="m" horiz-adv-x="527" 
d="M10 2c-7 0 -10 3 -10 10v694c0 7 3 10 10 10h75c5 0 7 -2 9 -7l108 -402c2 -6 6 -8 12 -8c5 0 9 2 12 8l108 403c1 4 4 6 8 6h76c6 0 9 -3 9 -10v-694c0 -7 -3 -10 -9 -10h-76c-6 0 -9 3 -9 10v232c0 9 -4 13 -13 13c-7 0 -11 -3 -11 -9l-55 -200c-3 -8 -6 -12 -10 -12
h-61c-5 0 -8 4 -9 12l-55 200c-2 6 -6 9 -12 9c-8 0 -12 -4 -12 -13v-232c0 -7 -4 -10 -10 -10h-75z" />
    <glyph glyph-name="n" unicode="n" horiz-adv-x="527" 
d="M343 2c-10 0 -12 4 -225 444c-3 4 -7 6 -11 6c-8 0 -12 -4 -12 -13v-427c0 -7 -4 -10 -10 -10h-75c-7 0 -10 3 -10 10v694c0 7 3 10 10 10h75c4 0 7 -2 9 -6l216 -439c2 -4 6 -6 10 -6c7 0 12 4 13 12v429c0 7 3 10 10 10h75c6 0 10 -3 10 -10v-694c0 -7 -4 -10 -10 -10
h-75z" />
    <glyph glyph-name="p" unicode="p" horiz-adv-x="511" 
d="M215 619h-111c-6 0 -9 -3 -9 -10v-184c0 -7 3 -11 9 -11h111c57 0 101 46 101 103c0 56 -46 102 -101 102zM85 0h-75c-7 0 -10 3 -10 10v695c0 7 3 10 10 10h205c134 0 198 -111 198 -198c0 -113 -86 -199 -198 -199h-111c-6 0 -9 -3 -9 -9v-299c0 -7 -4 -10 -10 -10z
" />
    <glyph glyph-name="q" unicode="q" 
d="M427 490v-265c0 -47 -12 -89 -35 -126v-9l46 -59c1 -2 2 -4 2 -6c0 -3 -2 -6 -4 -7l-60 -46c-2 -2 -4 -3 -6 -3c-3 0 -5 2 -8 5l-37 46c-1 3 -3 5 -8 5h-4c-30 -17 -63 -25 -99 -25c-120 0 -214 99 -214 225v265c0 126 95 226 214 226c118 0 213 -101 213 -226zM312 193
c1 -2 3 -4 7 -4c9 0 10 2 12 35v266c0 71 -52 131 -118 131s-118 -58 -118 -131v-265c0 -73 50 -131 118 -131c28 0 40 4 40 15v5l-35 45c-2 2 -3 5 -3 7s2 5 5 7l65 48c3 0 5 -1 8 -3z" />
    <glyph glyph-name="r" unicode="r" horiz-adv-x="511" 
d="M215 619h-111c-6 0 -9 -3 -9 -10v-184c0 -7 3 -11 9 -11h111c57 0 101 46 101 103c0 56 -46 102 -101 102zM285 331c-6 -2 -7 -6 -7 -12l135 -305c0 -9 -4 -14 -13 -14h-82c-5 0 -9 3 -11 8l-137 305c-3 4 -6 5 -9 5h-57c-6 0 -9 -3 -9 -9v-299c0 -7 -4 -10 -10 -10h-75
c-7 0 -10 3 -10 10v695c0 7 3 10 10 10h205c134 0 198 -111 198 -198c0 -85 -50 -157 -128 -186z" />
    <glyph glyph-name="s" unicode="s" horiz-adv-x="517" 
d="M398 573c0 -8 -2 -11 -8 -11l-75 -18c-9 0 -10 0 -20 23c-16 32 -53 53 -86 53c-55 0 -101 -46 -101 -103c0 -59 44 -103 102 -103c48 0 107 -21 142 -53l2 -2c43 -41 65 -91 65 -150c0 -110 -97 -209 -213 -209c-88 0 -179 54 -206 157c0 8 2 11 8 13l72 17
c8 0 11 -2 12 -8c10 -50 62 -91 116 -91c68 0 116 54 116 121c0 63 -53 115 -117 115c-57 0 -103 20 -141 60l-1 1c-23 23 -54 70 -54 135c0 111 91 194 197 194c88 0 163 -53 190 -141z" />
    <glyph glyph-name="t" unicode="t" horiz-adv-x="513" 
d="M171 0c-7 0 -10 3 -10 10v601c0 7 -3 10 -10 10h-141c-7 0 -10 3 -10 10v75c0 7 3 10 10 10h396c7 0 10 -3 10 -10v-75c0 -7 -3 -10 -10 -10h-140c-7 0 -10 -3 -10 -10v-601c0 -7 -3 -10 -10 -10h-75z" />
    <glyph glyph-name="u" unicode="u" horiz-adv-x="515" 
d="M0 221v478c0 7 3 10 10 10h75c6 0 10 -3 10 -10v-479c0 -76 49 -132 113 -132s112 58 112 131v480c0 7 4 10 10 10h75c7 0 10 -3 10 -10v-480c0 -125 -92 -225 -207 -225c-116 0 -208 97 -208 227z" />
    <glyph glyph-name="v" unicode="v" horiz-adv-x="517" 
d="M417 715c6 0 7 -1 7 -12l-161 -695c-2 -5 -6 -8 -12 -8h-77c-7 0 -11 3 -12 8l-162 695c0 8 3 12 8 12h79c6 0 10 -3 12 -8l104 -444c1 -6 4 -8 10 -8c4 0 7 2 10 7l104 445c1 5 4 8 11 8h79z" />
    <glyph glyph-name="w" unicode="w" 
d="M265 715c2 -1 2 -1 4 -3l28 -215c0 -4 2 -8 8 -8c5 0 7 2 7 7l27 211c1 5 3 8 7 8h85c3 0 5 -4 5 -12l-99 -695c-1 -5 -4 -8 -7 -8h-81c-4 0 -6 3 -7 8l-17 122c-2 4 -4 7 -8 7c-5 0 -7 -3 -8 -7l-17 -122c-1 -5 -3 -8 -6 -8h-82c-3 0 -6 3 -6 8l-98 695c0 8 2 12 5 12
h84c4 0 6 -3 6 -8l30 -208c2 -8 4 -10 8 -10s6 2 9 10l29 208c0 5 1 7 4 7z" />
    <glyph glyph-name="x" unicode="x" 
d="M340 0c-15 0 -15 0 -117 224c-1 4 -4 6 -9 6s-8 -1 -10 -4l-101 -218c-3 -5 -8 -8 -15 -8h-82c-4 0 -5 3 -5 8c0 1 130 284 160 349c-2 3 -160 346 -160 350c0 5 1 8 5 8h82c7 0 12 -3 15 -8l101 -216c1 -4 4 -7 10 -7c3 0 6 2 9 4c101 226 102 227 117 227h83
c4 0 6 -2 6 -5l-162 -353l162 -352c0 -3 -2 -5 -6 -5h-83z" />
    <glyph glyph-name="y" unicode="y" 
d="M177 4c-7 0 -10 3 -10 10v293c0 6 -2 12 -5 18l-161 377c0 12 1 13 5 13h82c7 0 12 -3 15 -8l101 -247c1 -5 4 -7 10 -7c8 0 12 5 60 135c49 126 50 127 66 127h83c4 0 6 -2 6 -5l-163 -385c-3 -5 -4 -11 -4 -18v-293c0 -7 -4 -10 -10 -10h-75z" />
    <glyph glyph-name="z" unicode="z" 
d="M422 604l-298 -481c-3 -7 -4 -8 -4 -10c0 -9 5 -13 14 -13h277c11 0 17 -6 17 -17v-67c0 -11 -5 -16 -16 -16h-396c-11 0 -16 5 -16 16v73c0 7 2 14 6 21l300 484c1 2 2 5 2 8c0 9 -5 13 -14 13h-276c-11 0 -17 5 -17 16v67c0 11 5 17 16 17h395c11 0 16 -6 16 -17v-72
c0 -8 -2 -16 -6 -22z" />
    <glyph glyph-name="Euro" unicode="&#x20ac;" horiz-adv-x="559" 
d="M259 715c109 0 198 -88 201 -198c0 -7 -4 -12 -10 -12h-66c-5 0 -8 2 -9 7c-17 68 -56 106 -116 106c-71 0 -114 -56 -114 -147h134c7 0 10 -4 10 -10v-75c0 -7 -3 -10 -10 -10h-134v-37h134c7 0 10 -3 10 -10v-75c0 -7 -3 -10 -10 -10h-134c0 -55 18 -149 114 -149
c66 0 106 59 114 105c3 9 4 10 9 10h69c5 0 9 -5 9 -10c-4 -111 -94 -200 -201 -200c-122 0 -207 96 -207 244h-42c-7 0 -10 3 -10 10v75c0 7 3 10 10 10h42v37h-42c-7 0 -10 3 -10 10v75c0 6 3 10 10 10h42c0 81 14 128 60 177c41 45 89 67 147 67z" />
    <glyph glyph-name="emdash" unicode="&#x2014;" horiz-adv-x="511" 
d="M17 403h379c12 0 17 -6 17 -17v-67c0 -11 -5 -16 -17 -16h-379c-11 0 -17 5 -17 16v67c0 11 6 17 17 17z" />
    <glyph glyph-name="endash" unicode="&#x2013;" horiz-adv-x="511" 
d="M17 403h379c12 0 17 -6 17 -17v-67c0 -11 -5 -16 -17 -16h-379c-11 0 -17 5 -17 16v67c0 11 6 17 17 17z" />
    <glyph glyph-name="ellipsis" unicode="&#x2026;" horiz-adv-x="589" 
d="M17 101h65c11 0 17 -6 17 -18v-66c0 -11 -6 -17 -17 -17h-65c-11 0 -17 6 -17 17v66c0 12 6 18 17 18zM214 101h65c11 0 17 -6 17 -18v-66c0 -11 -6 -17 -17 -17h-65c-11 0 -17 6 -17 17v66c0 12 6 18 17 18zM409 101h66c11 0 16 -6 16 -18v-66c0 -11 -5 -17 -16 -17h-66
c-11 0 -16 6 -16 17v66c0 12 5 18 16 18z" />
    <glyph glyph-name="dieresis" unicode="&#xa8;" horiz-adv-x="515" 
d="M336 911h65c11 0 17 -6 17 -17v-67c0 -11 -6 -16 -17 -16h-65c-11 0 -17 5 -17 16v67c0 11 6 17 17 17zM17 911h65c11 0 17 -6 17 -17v-67c0 -11 -6 -16 -17 -16h-65c-11 0 -17 5 -17 16v67c0 11 6 17 17 17z" />
    <glyph glyph-name="acute" unicode="&#xb4;" horiz-adv-x="348" 
d="M66 807c-2 -3 -3 -4 -5 -4s-4 1 -6 4l-58 61l194 197c2 2 4 3 6 3c1 0 3 -1 5 -3l56 -56c1 -2 2 -4 2 -5c0 -2 -1 -4 -2 -6z" />
    <glyph glyph-name="grave" unicode="`" horiz-adv-x="348" 
d="M-2 998c-2 2 -2 4 -2 6c0 1 0 3 2 5l56 56c2 2 4 3 5 3c2 0 4 -1 5 -3l195 -197l-58 -61c-2 -3 -4 -4 -6 -4s-4 1 -6 4z" />
    <glyph glyph-name="b" unicode="b" horiz-adv-x="523" 
d="M207 619h-103c-6 0 -9 -3 -9 -10v-184c0 -7 3 -11 9 -11h108c59 0 104 45 104 103c0 59 -45 102 -109 102zM104 324c-6 0 -9 -3 -9 -10v-211c0 -7 3 -10 9 -10h103c70 0 122 49 122 116c0 63 -53 115 -117 115h-108zM207 0h-197c-7 0 -10 3 -10 10v695c0 7 3 10 10 10
h197c118 0 206 -84 206 -195c0 -54 -18 -99 -55 -136l-5 -12c0 -6 1 -10 5 -13c44 -41 66 -91 66 -150c0 -120 -95 -209 -217 -209z" />
    <glyph glyph-name="brokenbar" unicode="&#xa6;" horiz-adv-x="194" 
d="M10 412c-7 0 -10 3 -10 10v385c0 6 3 9 10 9h75c6 0 10 -3 10 -9v-385c0 -7 -4 -10 -10 -10h-75zM10 -94c-7 0 -10 4 -10 10v385c0 6 3 10 10 10h75c6 0 10 -4 10 -10v-385c0 -6 -4 -10 -10 -10h-75z" />
    <glyph glyph-name="egrave" unicode="&#xe8;" horiz-adv-x="513" 
d="M10 0c-7 0 -10 3 -10 10v695c0 7 3 10 10 10h396c7 0 10 -3 10 -10v-75c0 -7 -3 -10 -10 -10h-302c-6 0 -9 -3 -9 -11v-194c0 -7 3 -11 9 -11h208c6 0 9 -3 9 -8v-77c0 -6 -3 -9 -9 -9h-208c-6 0 -9 -4 -9 -10v-196c0 -6 3 -9 9 -9h302c7 0 10 -4 10 -10v-75
c0 -7 -3 -10 -10 -10h-396zM34 998c-1 2 -2 4 -2 6c0 1 1 3 2 5l56 56c2 2 4 3 5 3c2 0 4 -1 6 -3l194 -197l-58 -61c-2 -3 -4 -4 -6 -4s-3 1 -5 4z" />
    <glyph glyph-name="eacute" unicode="&#xe9;" horiz-adv-x="513" 
d="M10 0c-7 0 -10 3 -10 10v695c0 7 3 10 10 10h396c7 0 10 -3 10 -10v-75c0 -7 -3 -10 -10 -10h-302c-6 0 -9 -3 -9 -11v-194c0 -7 3 -11 9 -11h208c6 0 9 -3 9 -8v-77c0 -6 -3 -9 -9 -9h-208c-6 0 -9 -4 -9 -10v-196c0 -6 3 -9 9 -9h302c7 0 10 -4 10 -10v-75
c0 -7 -3 -10 -10 -10h-396zM194 807c-2 -3 -4 -4 -6 -4c-1 0 -3 1 -5 4l-58 61l194 197c2 2 4 3 5 3c2 0 4 -1 6 -3l56 -56c1 -2 2 -4 2 -5c0 -2 -1 -4 -2 -6z" />
    <glyph glyph-name="edieresis" unicode="&#xeb;" horiz-adv-x="513" 
d="M10 0c-7 0 -10 3 -10 10v695c0 7 3 10 10 10h396c7 0 10 -3 10 -10v-75c0 -7 -3 -10 -10 -10h-302c-6 0 -9 -3 -9 -11v-194c0 -7 3 -11 9 -11h208c6 0 9 -3 9 -8v-77c0 -6 -3 -9 -9 -9h-208c-6 0 -9 -4 -9 -10v-196c0 -6 3 -9 9 -9h302c7 0 10 -4 10 -10v-75
c0 -7 -3 -10 -10 -10h-396zM336 911h65c11 0 17 -6 17 -17v-67c0 -11 -6 -16 -17 -16h-65c-11 0 -17 5 -17 16v67c0 11 6 17 17 17zM17 911h65c11 0 17 -6 17 -17v-67c0 -11 -6 -16 -17 -16h-65c-11 0 -17 5 -17 16v67c0 11 6 17 17 17z" />
    <glyph glyph-name="igrave" unicode="&#xec;" horiz-adv-x="195" 
d="M10 2c-7 0 -10 3 -10 10v694c0 7 3 10 10 10h75c6 0 10 -3 10 -10v-694c0 -7 -4 -10 -10 -10h-75zM-129 998c-2 2 -2 4 -2 6c0 1 0 3 2 5l56 56c2 2 4 3 5 3c2 0 4 -1 5 -3l195 -197l-58 -61c-2 -3 -4 -4 -6 -4s-4 1 -5 4z" />
    <glyph glyph-name="iacute" unicode="&#xed;" horiz-adv-x="195" 
d="M10 2c-7 0 -10 3 -10 10v694c0 7 3 10 10 10h75c6 0 10 -3 10 -10v-694c0 -7 -4 -10 -10 -10h-75zM37 807c-2 -3 -4 -4 -6 -4s-4 1 -6 4l-58 61l195 197c2 2 3 3 5 3s4 -1 6 -3l56 -56c1 -2 2 -4 2 -5c0 -2 -1 -4 -2 -6z" />
    <glyph glyph-name="idieresis" unicode="&#xef;" horiz-adv-x="195" 
d="M10 2c-7 0 -10 3 -10 10v694c0 7 3 10 10 10h75c6 0 10 -3 10 -10v-694c0 -7 -4 -10 -10 -10h-75zM174 911h65c11 0 17 -6 17 -17v-67c0 -11 -6 -16 -17 -16h-65c-11 0 -17 5 -17 16v67c0 11 6 17 17 17zM-146 911h66c11 0 17 -6 17 -17v-67c0 -11 -6 -16 -17 -16h-66
c-11 0 -16 5 -16 16v67c0 11 5 17 16 17z" />
    <glyph glyph-name="ugrave" unicode="&#xf9;" horiz-adv-x="515" 
d="M0 221v478c0 7 3 10 10 10h75c6 0 10 -3 10 -10v-479c0 -76 49 -132 113 -132s112 58 112 131v480c0 7 4 10 10 10h75c7 0 10 -3 10 -10v-480c0 -125 -92 -225 -207 -225c-116 0 -208 97 -208 227zM79 998c-2 2 -2 4 -2 6c0 1 0 3 2 5l56 56c2 2 4 3 5 3c2 0 4 -1 6 -3
l194 -197l-58 -61c-2 -3 -4 -4 -6 -4s-4 1 -5 4z" />
    <glyph glyph-name="uacute" unicode="&#xfa;" horiz-adv-x="515" 
d="M0 221v478c0 7 3 10 10 10h75c6 0 10 -3 10 -10v-479c0 -76 49 -132 113 -132s112 58 112 131v480c0 7 4 10 10 10h75c7 0 10 -3 10 -10v-480c0 -125 -92 -225 -207 -225c-116 0 -208 97 -208 227zM195 807c-2 -3 -4 -4 -6 -4c-1 0 -3 1 -5 4l-59 61l195 197c2 2 4 3 5 3
c2 0 4 -1 6 -3l56 -56c1 -2 2 -4 2 -5c0 -2 -1 -4 -2 -6z" />
    <glyph glyph-name="udieresis" unicode="&#xfc;" horiz-adv-x="515" 
d="M0 221v478c0 7 3 10 10 10h75c6 0 10 -3 10 -10v-479c0 -76 49 -132 113 -132s112 58 112 131v480c0 7 4 10 10 10h75c7 0 10 -3 10 -10v-480c0 -125 -92 -225 -207 -225c-116 0 -208 97 -208 227zM337 911h65c11 0 17 -6 17 -17v-67c0 -11 -6 -16 -17 -16h-65
c-11 0 -17 5 -17 16v67c0 11 6 17 17 17zM18 911h65c11 0 17 -6 17 -17v-67c0 -11 -6 -16 -17 -16h-65c-11 0 -17 5 -17 16v67c0 11 6 17 17 17z" />
    <glyph glyph-name="Agrave" unicode="&#xc0;" horiz-adv-x="523" 
d="M8 1c-5 0 -8 4 -8 11l162 695c1 5 4 8 11 8h78c6 0 9 -3 11 -8l162 -695c0 -12 -1 -12 -7 -12h-79c-7 0 -11 3 -12 8l-23 100c-3 6 -7 8 -12 8h-158c-7 0 -11 -3 -12 -9l-23 -99c-2 -5 -6 -8 -12 -8zM222 452c-2 6 -5 9 -10 9s-9 -3 -10 -8l-55 -232c0 -7 4 -10 10 -10
h110c6 0 9 3 9 10zM81 998c-2 2 -2 4 -2 6c0 1 0 3 2 5l56 56c2 2 4 3 5 3c2 0 4 -1 5 -3l195 -197l-58 -61c-2 -3 -4 -4 -6 -4s-4 1 -6 4z" />
    <glyph glyph-name="Aacute" unicode="&#xc1;" horiz-adv-x="523" 
d="M8 1c-5 0 -8 4 -8 11l162 695c1 5 4 8 11 8h78c6 0 9 -3 11 -8l162 -695c0 -12 -1 -12 -7 -12h-79c-7 0 -11 3 -12 8l-23 100c-3 6 -7 8 -12 8h-158c-7 0 -11 -3 -12 -9l-23 -99c-2 -5 -6 -8 -12 -8zM222 452c-2 6 -5 9 -10 9s-9 -3 -10 -8l-55 -232c0 -7 4 -10 10 -10
h110c6 0 9 3 9 10zM151 807c-2 -3 -4 -4 -5 -4c-2 0 -4 1 -6 4l-58 61l194 197c2 2 4 3 5 3c2 0 4 -1 6 -3l56 -56c1 -2 2 -4 2 -5c0 -2 -1 -4 -2 -6z" />
    <glyph glyph-name="Adieresis" unicode="&#xc4;" horiz-adv-x="523" 
d="M8 1c-5 0 -8 4 -8 11l162 695c1 5 4 8 11 8h78c6 0 9 -3 11 -8l162 -695c0 -12 -1 -12 -7 -12h-79c-7 0 -11 3 -12 8l-23 100c-3 6 -7 8 -12 8h-158c-7 0 -11 -3 -12 -9l-23 -99c-2 -5 -6 -8 -12 -8zM222 452c-2 6 -5 9 -10 9s-9 -3 -10 -8l-55 -232c0 -7 4 -10 10 -10
h110c6 0 9 3 9 10zM340 911h65c11 0 17 -6 17 -17v-67c0 -11 -6 -16 -17 -16h-65c-11 0 -17 5 -17 16v67c0 11 6 17 17 17zM21 911h65c11 0 17 -6 17 -17v-67c0 -11 -6 -16 -17 -16h-65c-12 0 -17 5 -17 16v67c0 11 5 17 17 17z" />
    <glyph glyph-name="Egrave" unicode="&#xc8;" horiz-adv-x="513" 
d="M10 0c-7 0 -10 3 -10 10v695c0 7 3 10 10 10h396c7 0 10 -3 10 -10v-75c0 -7 -3 -10 -10 -10h-302c-6 0 -9 -3 -9 -11v-194c0 -7 3 -11 9 -11h208c6 0 9 -3 9 -8v-77c0 -6 -3 -9 -9 -9h-208c-6 0 -9 -4 -9 -10v-196c0 -6 3 -9 9 -9h302c7 0 10 -4 10 -10v-75
c0 -7 -3 -10 -10 -10h-396zM45 998c-2 2 -3 4 -3 6c0 1 1 3 3 5l56 56c2 2 3 3 5 3s4 -1 5 -3l195 -197l-58 -61c-2 -3 -4 -4 -6 -4s-4 1 -6 4z" />
    <glyph glyph-name="Eacute" unicode="&#xc9;" horiz-adv-x="513" 
d="M10 0c-7 0 -10 3 -10 10v695c0 7 3 10 10 10h396c7 0 10 -3 10 -10v-75c0 -7 -3 -10 -10 -10h-302c-6 0 -9 -3 -9 -11v-194c0 -7 3 -11 9 -11h208c6 0 9 -3 9 -8v-77c0 -6 -3 -9 -9 -9h-208c-6 0 -9 -4 -9 -10v-196c0 -6 3 -9 9 -9h302c7 0 10 -4 10 -10v-75
c0 -7 -3 -10 -10 -10h-396zM194 807c-2 -3 -4 -4 -6 -4c-1 0 -3 1 -5 4l-58 61l194 197c2 2 4 3 5 3c2 0 4 -1 6 -3l56 -56c1 -2 2 -4 2 -5c0 -2 -1 -4 -2 -6z" />
    <glyph glyph-name="Edieresis" unicode="&#xcb;" horiz-adv-x="513" 
d="M10 0c-7 0 -10 3 -10 10v695c0 7 3 10 10 10h396c7 0 10 -3 10 -10v-75c0 -7 -3 -10 -10 -10h-302c-6 0 -9 -3 -9 -11v-194c0 -7 3 -11 9 -11h208c6 0 9 -3 9 -8v-77c0 -6 -3 -9 -9 -9h-208c-6 0 -9 -4 -9 -10v-196c0 -6 3 -9 9 -9h302c7 0 10 -4 10 -10v-75
c0 -7 -3 -10 -10 -10h-396zM336 911h65c11 0 17 -6 17 -17v-67c0 -11 -6 -16 -17 -16h-65c-11 0 -17 5 -17 16v67c0 11 6 17 17 17zM17 911h65c11 0 17 -6 17 -17v-67c0 -11 -6 -16 -17 -16h-65c-11 0 -17 5 -17 16v67c0 11 6 17 17 17z" />
    <glyph glyph-name="Igrave" unicode="&#xcc;" horiz-adv-x="195" 
d="M10 2c-7 0 -10 3 -10 10v694c0 7 3 10 10 10h75c6 0 10 -3 10 -10v-694c0 -7 -4 -10 -10 -10h-75zM-129 998c-2 2 -2 4 -2 6c0 1 0 3 2 5l56 56c2 2 4 3 5 3c2 0 4 -1 5 -3l195 -197l-58 -61c-2 -3 -4 -4 -6 -4s-4 1 -5 4z" />
    <glyph glyph-name="Iacute" unicode="&#xcd;" horiz-adv-x="195" 
d="M10 2c-7 0 -10 3 -10 10v694c0 7 3 10 10 10h75c6 0 10 -3 10 -10v-694c0 -7 -4 -10 -10 -10h-75zM37 807c-2 -3 -4 -4 -6 -4s-4 1 -6 4l-58 61l195 197c2 2 3 3 5 3s4 -1 6 -3l56 -56c1 -2 2 -4 2 -5c0 -2 -1 -4 -2 -6z" />
    <glyph glyph-name="Idieresis" unicode="&#xcf;" horiz-adv-x="195" 
d="M10 2c-7 0 -10 3 -10 10v694c0 7 3 10 10 10h75c6 0 10 -3 10 -10v-694c0 -7 -4 -10 -10 -10h-75zM174 911h65c11 0 17 -6 17 -17v-67c0 -11 -6 -16 -17 -16h-65c-11 0 -17 5 -17 16v67c0 11 6 17 17 17zM-146 911h66c11 0 17 -6 17 -17v-67c0 -11 -6 -16 -17 -16h-66
c-11 0 -16 5 -16 16v67c0 11 5 17 16 17z" />
    <glyph glyph-name="Ograve" unicode="&#xd2;" 
d="M427 491v-265c0 -126 -94 -226 -213 -226c-146 0 -214 127 -214 226v265c0 126 95 226 214 226c118 0 213 -101 213 -226zM331 226v265c0 71 -52 131 -118 131s-118 -58 -118 -130v-266c0 -73 50 -131 118 -131c65 0 118 58 118 131zM57 998c-2 2 -3 4 -3 6c0 1 1 3 3 5
l55 56c2 2 4 3 6 3s3 -1 5 -3l195 -197l-58 -61c-2 -3 -4 -4 -6 -4s-4 1 -6 4z" />
    <glyph glyph-name="Oacute" unicode="&#xd3;" 
d="M427 491v-265c0 -126 -94 -226 -213 -226c-146 0 -214 127 -214 226v265c0 126 95 226 214 226c118 0 213 -101 213 -226zM331 226v265c0 71 -52 131 -118 131s-118 -58 -118 -130v-266c0 -73 50 -131 118 -131c65 0 118 58 118 131zM201 807c-2 -3 -4 -4 -6 -4
s-4 1 -6 4l-58 61l195 197c2 2 4 3 5 3c2 0 4 -1 6 -3l56 -56c1 -2 2 -4 2 -5c0 -2 -1 -4 -2 -6z" />
    <glyph glyph-name="Odieresis" unicode="&#xd6;" 
d="M427 491v-265c0 -126 -94 -226 -213 -226c-146 0 -214 127 -214 226v265c0 126 95 226 214 226c118 0 213 -101 213 -226zM331 226v265c0 71 -52 131 -118 131s-118 -58 -118 -130v-266c0 -73 50 -131 118 -131c65 0 118 58 118 131zM336 911h65c11 0 17 -6 17 -17v-67
c0 -11 -6 -16 -17 -16h-65c-11 0 -17 5 -17 16v67c0 11 6 17 17 17zM17 911h65c11 0 17 -6 17 -17v-67c0 -11 -6 -16 -17 -16h-65c-11 0 -17 5 -17 16v67c0 11 6 17 17 17z" />
    <glyph glyph-name="Ugrave" unicode="&#xd9;" horiz-adv-x="515" 
d="M0 221v478c0 7 3 10 10 10h75c6 0 10 -3 10 -10v-479c0 -76 49 -132 113 -132s112 58 112 131v480c0 7 4 10 10 10h75c7 0 10 -3 10 -10v-480c0 -125 -92 -225 -207 -225c-116 0 -208 97 -208 227zM70 998c-1 2 -2 4 -2 6c0 1 1 3 2 5l56 56c2 2 4 3 6 3c1 0 3 -1 5 -3
l195 -197l-59 -61c-2 -3 -3 -4 -5 -4s-4 1 -6 4z" />
    <glyph glyph-name="Uacute" unicode="&#xda;" horiz-adv-x="515" 
d="M0 221v478c0 7 3 10 10 10h75c6 0 10 -3 10 -10v-479c0 -76 49 -132 113 -132s112 58 112 131v480c0 7 4 10 10 10h75c7 0 10 -3 10 -10v-480c0 -125 -92 -225 -207 -225c-116 0 -208 97 -208 227zM195 807c-2 -3 -4 -4 -6 -4c-1 0 -3 1 -5 4l-59 61l195 197c2 2 4 3 5 3
c2 0 4 -1 6 -3l56 -56c1 -2 2 -4 2 -5c0 -2 -1 -4 -2 -6z" />
    <glyph glyph-name="Udieresis" unicode="&#xdc;" horiz-adv-x="515" 
d="M0 221v478c0 7 3 10 10 10h75c6 0 10 -3 10 -10v-479c0 -76 49 -132 113 -132s112 58 112 131v480c0 7 4 10 10 10h75c7 0 10 -3 10 -10v-480c0 -125 -92 -225 -207 -225c-116 0 -208 97 -208 227zM336 911h65c11 0 17 -6 17 -17v-67c0 -11 -6 -16 -17 -16h-65
c-11 0 -17 5 -17 16v67c0 11 6 17 17 17zM17 911h65c11 0 17 -6 17 -17v-67c0 -11 -6 -16 -17 -16h-65c-11 0 -17 5 -17 16v67c0 11 6 17 17 17z" />
    <glyph glyph-name="copyright" unicode="&#xa9;" horiz-adv-x="527" 
d="M220 617c-68 0 -123 -56 -123 -124c0 -65 56 -120 124 -120c42 0 80 22 103 59c2 3 4 5 13 5l68 -39c4 -2 5 -6 5 -10c0 -3 0 -4 -1 -4c-39 -66 -112 -108 -187 -108c-122 1 -223 99 -223 217c0 123 94 218 221 221c132 0 212 -119 212 -162c0 -8 -2 -11 -8 -12l-80 -19
c-8 0 -10 3 -11 9c-17 60 -49 78 -113 87z" />
    <glyph glyph-name="circumflex" unicode="&#x2c6;" horiz-adv-x="500" 
d="M0 857c-2 3 -3 5 -3 7c0 3 1 5 3 7l192 192c3 3 5 4 7 4s5 -1 7 -4l192 -192c3 -2 4 -4 4 -7c0 -2 -1 -4 -4 -7l-54 -53c-2 -3 -4 -4 -7 -4c-2 0 -4 1 -7 4l-131 131l-131 -131c-2 -3 -5 -4 -7 -4s-4 1 -6 4z" />
    <glyph glyph-name="ucircumflex" unicode="&#xfb;" horiz-adv-x="515" 
d="M0 221v478c0 7 3 10 10 10h75c6 0 10 -3 10 -10v-479c0 -76 49 -132 113 -132s112 58 112 131v480c0 7 4 10 10 10h75c7 0 10 -3 10 -10v-480c0 -125 -92 -225 -207 -225c-116 0 -208 97 -208 227zM4 857c-2 3 -4 5 -4 7c0 3 2 5 4 7l192 192c3 3 5 4 7 4s5 -1 7 -4
l192 -192c3 -2 4 -4 4 -7c0 -2 -1 -4 -4 -7l-54 -53c-2 -3 -4 -4 -7 -4c-2 0 -4 1 -7 4l-131 131l-131 -131c-2 -3 -5 -4 -7 -4s-4 1 -6 4z" />
    <glyph glyph-name="ecircumflex" unicode="&#xea;" horiz-adv-x="513" 
d="M10 0c-7 0 -10 3 -10 10v695c0 7 3 10 10 10h396c7 0 10 -3 10 -10v-75c0 -7 -3 -10 -10 -10h-302c-6 0 -9 -3 -9 -11v-194c0 -7 3 -11 9 -11h208c6 0 9 -3 9 -8v-77c0 -6 -3 -9 -9 -9h-208c-6 0 -9 -4 -9 -10v-196c0 -6 3 -9 9 -9h302c7 0 10 -4 10 -10v-75
c0 -7 -3 -10 -10 -10h-396zM6 857c-2 3 -4 5 -4 7c0 3 2 5 4 7l192 192c3 3 5 4 7 4s5 -1 7 -4l192 -192c3 -2 4 -4 4 -7c0 -2 -1 -4 -4 -7l-54 -53c-2 -3 -4 -4 -7 -4c-2 0 -4 1 -7 4l-131 131l-131 -131c-2 -3 -5 -4 -7 -4s-4 1 -6 4z" />
    <glyph glyph-name="Ucircumflex" unicode="&#xdb;" horiz-adv-x="515" 
d="M0 221v478c0 7 3 10 10 10h75c6 0 10 -3 10 -10v-479c0 -76 49 -132 113 -132s112 58 112 131v480c0 7 4 10 10 10h75c7 0 10 -3 10 -10v-480c0 -125 -92 -225 -207 -225c-116 0 -208 97 -208 227zM5 857c-2 3 -4 5 -4 7c0 3 2 5 4 7l192 192c3 3 5 4 7 4s5 -1 7 -4
l192 -192c3 -2 4 -4 4 -7c0 -2 -1 -4 -4 -7l-54 -53c-2 -3 -4 -4 -7 -4c-2 0 -4 1 -7 4l-131 131l-131 -131c-2 -3 -5 -4 -7 -4s-4 1 -6 4z" />
    <glyph glyph-name="Ocircumflex" unicode="&#xd4;" 
d="M427 491v-265c0 -126 -94 -226 -213 -226c-146 0 -214 127 -214 226v265c0 126 95 226 214 226c118 0 213 -101 213 -226zM331 226v265c0 71 -52 131 -118 131s-118 -58 -118 -130v-266c0 -73 50 -131 118 -131c65 0 118 58 118 131zM6 857c-2 3 -4 5 -4 7c0 3 2 5 4 7
l192 192c3 3 5 4 7 4s5 -1 7 -4l192 -192c3 -2 4 -4 4 -7c0 -2 -1 -4 -4 -7l-54 -53c-2 -3 -4 -4 -7 -4c-2 0 -4 1 -7 4l-131 131l-131 -131c-2 -3 -5 -4 -7 -4s-4 1 -6 4z" />
    <glyph glyph-name="Icircumflex" unicode="&#xce;" horiz-adv-x="195" 
d="M10 2c-7 0 -10 3 -10 10v694c0 7 3 10 10 10h75c6 0 10 -3 10 -10v-694c0 -7 -4 -10 -10 -10h-75zM-152 857c-3 3 -4 5 -4 7c0 3 1 5 4 7l192 192c2 3 5 4 7 4s4 -1 7 -4l192 -192c2 -2 4 -4 4 -7c0 -2 -2 -4 -4 -7l-55 -53c-2 -3 -4 -4 -6 -4s-5 1 -7 4l-131 131
l-131 -131c-3 -3 -5 -4 -7 -4c-3 0 -5 1 -7 4z" />
    <glyph glyph-name="Ecircumflex" unicode="&#xca;" horiz-adv-x="513" 
d="M10 0c-7 0 -10 3 -10 10v695c0 7 3 10 10 10h396c7 0 10 -3 10 -10v-75c0 -7 -3 -10 -10 -10h-302c-6 0 -9 -3 -9 -11v-194c0 -7 3 -11 9 -11h208c6 0 9 -3 9 -8v-77c0 -6 -3 -9 -9 -9h-208c-6 0 -9 -4 -9 -10v-196c0 -6 3 -9 9 -9h302c7 0 10 -4 10 -10v-75
c0 -7 -3 -10 -10 -10h-396zM5 857c-2 3 -4 5 -4 7c0 3 2 5 4 7l192 192c3 3 5 4 7 4s5 -1 7 -4l192 -192c3 -2 4 -4 4 -7c0 -2 -1 -4 -4 -7l-54 -53c-2 -3 -4 -4 -7 -4c-2 0 -4 1 -7 4l-131 131l-131 -131c-2 -3 -5 -4 -7 -4s-4 1 -6 4z" />
    <glyph glyph-name="Acircumflex" unicode="&#xc2;" horiz-adv-x="523" 
d="M8 1c-5 0 -8 4 -8 11l162 695c1 5 4 8 11 8h78c6 0 9 -3 11 -8l162 -695c0 -12 -1 -12 -7 -12h-79c-7 0 -11 3 -12 8l-23 100c-3 6 -7 8 -12 8h-158c-7 0 -11 -3 -12 -9l-23 -99c-2 -5 -6 -8 -12 -8zM222 452c-2 6 -5 9 -10 9s-9 -3 -10 -8l-55 -232c0 -7 4 -10 10 -10
h110c6 0 9 3 9 10zM13 857c-3 3 -4 5 -4 7c0 3 1 5 4 7l192 192c2 3 5 4 7 4s4 -1 7 -4l192 -192c2 -2 4 -4 4 -7c0 -2 -2 -4 -4 -7l-55 -53c-2 -3 -4 -4 -6 -4s-5 1 -7 4l-131 131l-131 -131c-3 -3 -5 -4 -7 -4c-3 0 -5 1 -7 4z" />
    <glyph glyph-name="icircumflex" unicode="&#xee;" horiz-adv-x="195" 
d="M10 2c-7 0 -10 3 -10 10v694c0 7 3 10 10 10h75c6 0 10 -3 10 -10v-694c0 -7 -4 -10 -10 -10h-75zM-151 857c-3 3 -4 5 -4 7c0 3 1 5 4 7l192 192c2 3 5 4 7 4s4 -1 7 -4l192 -192c2 -2 3 -4 3 -7c0 -2 -1 -4 -3 -7l-55 -53c-2 -3 -4 -4 -6 -4s-5 1 -7 4l-131 131
l-131 -131c-3 -3 -5 -4 -7 -4c-3 0 -5 1 -7 4z" />
    <glyph glyph-name="yacute" unicode="&#xfd;" 
d="M177 4c-7 0 -10 3 -10 10v293c0 6 -2 12 -5 18l-161 377c0 12 1 13 5 13h82c7 0 12 -3 15 -8l101 -247c1 -5 4 -7 10 -7c8 0 12 5 60 135c49 126 50 127 66 127h83c4 0 6 -2 6 -5l-163 -385c-3 -5 -4 -11 -4 -18v-293c0 -7 -4 -10 -10 -10h-75zM201 807
c-2 -3 -4 -4 -6 -4s-4 1 -6 4l-58 61l195 197c2 2 4 3 5 3c2 0 4 -1 6 -3l56 -56c1 -2 2 -4 2 -5c0 -2 -1 -4 -2 -6z" />
    <glyph glyph-name="ydieresis" unicode="&#xff;" 
d="M177 4c-7 0 -10 3 -10 10v293c0 6 -2 12 -5 18l-161 377c0 12 1 13 5 13h82c7 0 12 -3 15 -8l101 -247c1 -5 4 -7 10 -7c8 0 12 5 60 135c49 126 50 127 66 127h83c4 0 6 -2 6 -5l-163 -385c-3 -5 -4 -11 -4 -18v-293c0 -7 -4 -10 -10 -10h-75zM342 911h65
c11 0 17 -6 17 -17v-67c0 -11 -6 -16 -17 -16h-65c-11 0 -17 5 -17 16v67c0 11 6 17 17 17zM22 911h66c11 0 16 -6 16 -17v-67c0 -11 -5 -16 -16 -16h-66c-11 0 -16 5 -16 16v67c0 11 5 17 16 17z" />
    <glyph glyph-name="Yacute" unicode="&#xdd;" 
d="M177 4c-7 0 -10 3 -10 10v293c0 6 -2 12 -5 18l-161 377c0 12 1 13 5 13h82c7 0 12 -3 15 -8l101 -247c1 -5 4 -7 10 -7c8 0 12 5 60 135c49 126 50 127 66 127h83c4 0 6 -2 6 -5l-163 -385c-3 -5 -4 -11 -4 -18v-293c0 -7 -4 -10 -10 -10h-75zM201 807
c-2 -3 -4 -4 -6 -4s-4 1 -6 4l-58 61l195 197c2 2 4 3 5 3c2 0 4 -1 6 -3l56 -56c1 -2 2 -4 2 -5c0 -2 -1 -4 -2 -6z" />
    <glyph glyph-name="ccedilla" unicode="&#xe7;" horiz-adv-x="507" 
d="M208 715c108 0 198 -88 200 -198c0 -7 -4 -12 -9 -12h-67c-5 0 -8 2 -9 7l-1 1c0 53 -56 105 -114 105c-95 0 -115 -80 -115 -180v-212c0 -47 16 -82 50 -108l41 72c2 3 4 5 7 5c2 0 4 -1 6 -2l65 -37c3 -2 5 -5 5 -8l-26 -47c44 16 65 41 83 106c2 2 4 3 6 3h70
c4 0 8 -5 8 -10c-4 -117 -92 -200 -213 -200c-9 0 -14 -2 -16 -7l-48 -83c-3 -4 -5 -5 -8 -5l-71 39c-4 2 -6 5 -6 7l45 78l-1 11c-61 45 -90 107 -90 187v263c0 125 92 225 208 225z" />
    <glyph glyph-name="Ccedilla" unicode="&#xc7;" horiz-adv-x="507" 
d="M208 715c108 0 198 -88 200 -198c0 -7 -4 -12 -9 -12h-67c-5 0 -8 2 -9 7l-1 1c0 53 -56 105 -114 105c-95 0 -115 -80 -115 -180v-212c0 -47 16 -82 50 -108l41 72c2 3 4 5 7 5c2 0 4 -1 6 -2l65 -37c3 -2 5 -5 5 -8l-26 -47c44 16 65 41 83 106c2 2 4 3 6 3h70
c4 0 8 -5 8 -10c-4 -117 -92 -200 -213 -200c-9 0 -14 -2 -16 -7l-48 -83c-3 -4 -5 -5 -8 -5l-71 39c-4 2 -6 5 -6 7l45 78l-1 11c-61 45 -90 107 -90 187v263c0 125 92 225 208 225z" />
    <glyph glyph-name="ordfeminine" unicode="&#xaa;" horiz-adv-x="478" 
d="M250 437l-49 152c-1 4 -4 6 -9 6s-8 -2 -8 -5l-50 -155c0 -4 3 -6 9 -6h99c6 0 8 2 8 8zM7 283c-5 0 -7 2 -7 7l146 420c1 3 5 5 11 5h71c4 0 8 -2 10 -5l147 -420c0 -6 -1 -7 -7 -7h-71c-7 0 -10 2 -11 5l-22 61c-1 3 -4 5 -9 5h-145c-5 0 -8 -2 -10 -6l-21 -60
c-1 -3 -5 -5 -11 -5h-71z" />
    <glyph glyph-name="ordmasculine" unicode="&#xba;" horiz-adv-x="389" 
d="M212 423v153c0 36 -27 76 -67 76c-39 0 -69 -33 -69 -75v-154c0 -43 29 -76 69 -76c37 0 67 33 67 76zM289 582v-165c0 -79 -64 -142 -144 -142c-82 0 -145 62 -145 142v165c0 79 64 142 145 142c79 0 144 -64 144 -142z" />
    <glyph glyph-name="j" unicode="j" horiz-adv-x="517" 
d="M323 209v497c0 7 3 10 10 10h76c7 0 10 -3 10 -10v-497c0 -110 -97 -209 -213 -209c-88 0 -179 54 -206 157c0 8 2 11 8 13l72 17c8 0 11 -2 12 -8c12 -52 58 -86 114 -86c66 0 117 51 117 116z" />
    <glyph glyph-name="agrave" unicode="&#xe0;" horiz-adv-x="523" 
d="M8 1c-5 0 -8 4 -8 11l162 695c1 5 4 8 11 8h78c6 0 9 -3 11 -8l162 -695c0 -12 -1 -12 -7 -12h-79c-7 0 -11 3 -12 8l-23 100c-3 6 -7 8 -12 8h-158c-7 0 -11 -3 -12 -9l-23 -99c-2 -5 -6 -8 -12 -8zM222 452c-2 6 -5 9 -10 9s-9 -3 -10 -8l-55 -232c0 -7 4 -10 10 -10
h110c6 0 9 3 9 10zM81 998c-2 2 -2 4 -2 6c0 1 0 3 2 5l56 56c2 2 4 3 5 3c2 0 4 -1 5 -3l195 -197l-58 -61c-2 -3 -4 -4 -6 -4s-4 1 -6 4z" />
    <glyph glyph-name="aacute" unicode="&#xe1;" horiz-adv-x="523" 
d="M8 1c-5 0 -8 4 -8 11l162 695c1 5 4 8 11 8h78c6 0 9 -3 11 -8l162 -695c0 -12 -1 -12 -7 -12h-79c-7 0 -11 3 -12 8l-23 100c-3 6 -7 8 -12 8h-158c-7 0 -11 -3 -12 -9l-23 -99c-2 -5 -6 -8 -12 -8zM222 452c-2 6 -5 9 -10 9s-9 -3 -10 -8l-55 -232c0 -7 4 -10 10 -10
h110c6 0 9 3 9 10zM151 807c-2 -3 -4 -4 -5 -4c-2 0 -4 1 -6 4l-58 61l194 197c2 2 4 3 5 3c2 0 4 -1 6 -3l56 -56c1 -2 2 -4 2 -5c0 -2 -1 -4 -2 -6z" />
    <glyph glyph-name="acircumflex" unicode="&#xe2;" horiz-adv-x="523" 
d="M8 1c-5 0 -8 4 -8 11l162 695c1 5 4 8 11 8h78c6 0 9 -3 11 -8l162 -695c0 -12 -1 -12 -7 -12h-79c-7 0 -11 3 -12 8l-23 100c-3 6 -7 8 -12 8h-158c-7 0 -11 -3 -12 -9l-23 -99c-2 -5 -6 -8 -12 -8zM222 452c-2 6 -5 9 -10 9s-9 -3 -10 -8l-55 -232c0 -7 4 -10 10 -10
h110c6 0 9 3 9 10zM13 857c-3 3 -4 5 -4 7c0 3 1 5 4 7l192 192c2 3 5 4 7 4s4 -1 7 -4l192 -192c2 -2 4 -4 4 -7c0 -2 -2 -4 -4 -7l-55 -53c-2 -3 -4 -4 -6 -4s-5 1 -7 4l-131 131l-131 -131c-3 -3 -5 -4 -7 -4c-3 0 -5 1 -7 4z" />
    <glyph glyph-name="ograve" unicode="&#xf2;" 
d="M427 491v-265c0 -126 -94 -226 -213 -226c-146 0 -214 127 -214 226v265c0 126 95 226 214 226c118 0 213 -101 213 -226zM331 226v265c0 71 -52 131 -118 131s-118 -58 -118 -130v-266c0 -73 50 -131 118 -131c65 0 118 58 118 131zM57 998c-2 2 -3 4 -3 6c0 1 1 3 3 5
l55 56c2 2 4 3 6 3s3 -1 5 -3l195 -197l-58 -61c-2 -3 -4 -4 -6 -4s-4 1 -6 4z" />
    <glyph glyph-name="oacute" unicode="&#xf3;" 
d="M427 491v-265c0 -126 -94 -226 -213 -226c-146 0 -214 127 -214 226v265c0 126 95 226 214 226c118 0 213 -101 213 -226zM331 226v265c0 71 -52 131 -118 131s-118 -58 -118 -130v-266c0 -73 50 -131 118 -131c65 0 118 58 118 131zM201 807c-2 -3 -4 -4 -6 -4
s-4 1 -6 4l-58 61l195 197c2 2 4 3 5 3c2 0 4 -1 6 -3l56 -56c1 -2 2 -4 2 -5c0 -2 -1 -4 -2 -6z" />
    <glyph glyph-name="ocircumflex" unicode="&#xf4;" 
d="M427 491v-265c0 -126 -94 -226 -213 -226c-146 0 -214 127 -214 226v265c0 126 95 226 214 226c118 0 213 -101 213 -226zM331 226v265c0 71 -52 131 -118 131s-118 -58 -118 -130v-266c0 -73 50 -131 118 -131c65 0 118 58 118 131zM6 857c-2 3 -4 5 -4 7c0 3 2 5 4 7
l192 192c3 3 5 4 7 4s5 -1 7 -4l192 -192c3 -2 4 -4 4 -7c0 -2 -1 -4 -4 -7l-54 -53c-2 -3 -4 -4 -7 -4c-2 0 -4 1 -7 4l-131 131l-131 -131c-2 -3 -5 -4 -7 -4s-4 1 -6 4z" />
    <glyph glyph-name="otilde" unicode="&#xf5;" 
d="M427 491v-265c0 -126 -94 -226 -213 -226c-146 0 -214 127 -214 226v265c0 126 95 226 214 226c118 0 213 -101 213 -226zM331 226v265c0 71 -52 131 -118 131s-118 -58 -118 -130v-266c0 -73 50 -131 118 -131c65 0 118 58 118 131zM336 911h65c11 0 17 -6 17 -17v-67
c0 -11 -6 -16 -17 -16h-65c-11 0 -17 5 -17 16v67c0 11 6 17 17 17zM17 911h65c11 0 17 -6 17 -17v-67c0 -11 -6 -16 -17 -16h-65c-11 0 -17 5 -17 16v67c0 11 6 17 17 17z" />
    <glyph glyph-name="divide" unicode="&#xf7;" horiz-adv-x="511" 
d="M17 403h379c12 0 17 -6 17 -17v-67c0 -11 -5 -16 -17 -16h-379c-11 0 -17 5 -17 16v67c0 11 6 17 17 17zM175 603h65c11 0 17 -6 17 -17v-66c0 -12 -6 -17 -17 -17h-65c-11 0 -17 5 -17 17v66c0 11 6 17 17 17zM175 201h65c11 0 17 -6 17 -17v-67c0 -11 -6 -16 -17 -16
h-65c-11 0 -17 5 -17 16v67c0 11 6 17 17 17z" />
    <glyph glyph-name="tilde" unicode="&#x2dc;" horiz-adv-x="511" 
d="M17 904h379c12 0 17 -6 17 -17v-67c0 -11 -5 -16 -17 -16h-379c-11 0 -17 5 -17 16v67c0 11 6 17 17 17z" />
    <glyph glyph-name="Ydieresis" unicode="&#x178;" 
d="M177 4c-7 0 -10 3 -10 10v293c0 6 -2 12 -5 18l-161 377c0 12 1 13 5 13h82c7 0 12 -3 15 -8l101 -247c1 -5 4 -7 10 -7c8 0 12 5 60 135c49 126 50 127 66 127h83c4 0 6 -2 6 -5l-163 -385c-3 -5 -4 -11 -4 -18v-293c0 -7 -4 -10 -10 -10h-75zM340 911h65
c11 0 17 -6 17 -17v-67c0 -11 -6 -16 -17 -16h-65c-11 0 -17 5 -17 16v67c0 11 6 17 17 17zM21 911h65c11 0 17 -6 17 -17v-67c0 -11 -6 -16 -17 -16h-65c-12 0 -17 5 -17 16v67c0 11 5 17 17 17z" />
    <glyph glyph-name="Otilde" unicode="&#xd5;" 
d="M427 491v-265c0 -126 -94 -226 -213 -226c-146 0 -214 127 -214 226v265c0 126 95 226 214 226c118 0 213 -101 213 -226zM331 226v265c0 71 -52 131 -118 131s-118 -58 -118 -130v-266c0 -73 50 -131 118 -131c65 0 118 58 118 131zM25 904h380c11 0 17 -6 17 -17v-67
c0 -11 -6 -16 -17 -16h-380c-11 0 -16 5 -16 16v67c0 11 5 17 16 17z" />
    <glyph glyph-name="Atilde" unicode="&#xc3;" horiz-adv-x="523" 
d="M8 1c-5 0 -8 4 -8 11l162 695c1 5 4 8 11 8h78c6 0 9 -3 11 -8l162 -695c0 -12 -1 -12 -7 -12h-79c-7 0 -11 3 -12 8l-23 100c-3 6 -7 8 -12 8h-158c-7 0 -11 -3 -12 -9l-23 -99c-2 -5 -6 -8 -12 -8zM222 452c-2 6 -5 9 -10 9s-9 -3 -10 -8l-55 -232c0 -7 4 -10 10 -10
h110c6 0 9 3 9 10zM23 904h380c11 0 17 -6 17 -17v-67c0 -11 -6 -16 -17 -16h-380c-11 0 -16 5 -16 16v67c0 11 5 17 16 17z" />
    <glyph glyph-name="atilde" unicode="&#xe3;" horiz-adv-x="523" 
d="M8 1c-5 0 -8 4 -8 11l162 695c1 5 4 8 11 8h78c6 0 9 -3 11 -8l162 -695c0 -12 -1 -12 -7 -12h-79c-7 0 -11 3 -12 8l-23 100c-3 6 -7 8 -12 8h-158c-7 0 -11 -3 -12 -9l-23 -99c-2 -5 -6 -8 -12 -8zM222 452c-2 6 -5 9 -10 9s-9 -3 -10 -8l-55 -232c0 -7 4 -10 10 -10
h110c6 0 9 3 9 10zM23 904h380c11 0 17 -6 17 -17v-67c0 -11 -6 -16 -17 -16h-380c-11 0 -16 5 -16 16v67c0 11 5 17 16 17z" />
    <glyph glyph-name="adieresis" unicode="&#xe4;" horiz-adv-x="523" 
d="M8 1c-5 0 -8 4 -8 11l162 695c1 5 4 8 11 8h78c6 0 9 -3 11 -8l162 -695c0 -12 -1 -12 -7 -12h-79c-7 0 -11 3 -12 8l-23 100c-3 6 -7 8 -12 8h-158c-7 0 -11 -3 -12 -9l-23 -99c-2 -5 -6 -8 -12 -8zM222 452c-2 6 -5 9 -10 9s-9 -3 -10 -8l-55 -232c0 -7 4 -10 10 -10
h110c6 0 9 3 9 10zM340 911h65c11 0 17 -6 17 -17v-67c0 -11 -6 -16 -17 -16h-65c-11 0 -17 5 -17 16v67c0 11 6 17 17 17zM21 911h65c11 0 17 -6 17 -17v-67c0 -11 -6 -16 -17 -16h-65c-12 0 -17 5 -17 16v67c0 11 5 17 17 17z" />
    <glyph glyph-name="Aring" unicode="&#xc5;" horiz-adv-x="523" 
d="M283 959c0 41 -31 77 -67 77c-39 0 -69 -33 -69 -77s29 -77 69 -77c38 0 67 34 67 77zM360 966c0 -94 -59 -155 -144 -155c-87 0 -145 61 -145 155c0 79 64 141 145 141c79 0 144 -63 144 -141zM8 1c-5 0 -8 4 -8 11l162 695c1 5 4 8 11 8h78c6 0 9 -3 11 -8l162 -695
c0 -12 -1 -12 -7 -12h-79c-7 0 -11 3 -12 8l-23 100c-3 6 -7 8 -12 8h-158c-7 0 -11 -3 -12 -9l-23 -99c-2 -5 -6 -8 -12 -8zM222 452c-2 6 -5 9 -10 9s-9 -3 -10 -8l-55 -232c0 -7 4 -10 10 -10h110c6 0 9 3 9 10z" />
    <glyph glyph-name="aring" unicode="&#xe5;" horiz-adv-x="523" 
d="M283 959c0 41 -31 77 -67 77c-39 0 -69 -33 -69 -77s29 -77 69 -77c38 0 67 34 67 77zM360 966c0 -94 -59 -155 -144 -155c-87 0 -145 61 -145 155c0 79 64 141 145 141c79 0 144 -63 144 -141zM8 1c-5 0 -8 4 -8 11l162 695c1 5 4 8 11 8h78c6 0 9 -3 11 -8l162 -695
c0 -12 -1 -12 -7 -12h-79c-7 0 -11 3 -12 8l-23 100c-3 6 -7 8 -12 8h-158c-7 0 -11 -3 -12 -9l-23 -99c-2 -5 -6 -8 -12 -8zM222 452c-2 6 -5 9 -10 9s-9 -3 -10 -8l-55 -232c0 -7 4 -10 10 -10h110c6 0 9 3 9 10z" />
    <glyph glyph-name="bar" unicode="|" horiz-adv-x="194" 
d="M10 -94c-7 0 -10 4 -10 10v891c0 6 3 9 10 9h75c6 0 10 -3 10 -9v-891c0 -6 -4 -10 -10 -10h-75z" />
    <glyph glyph-name="less" unicode="&#x3c;" horiz-adv-x="363" 
d="M208 117c-2 -2 -5 -3 -7 -3s-4 1 -7 3l-192 193c-2 2 -3 4 -3 6c0 3 1 5 3 7l192 193c3 2 5 3 7 3s5 -1 7 -3l54 -55c2 -2 3 -4 3 -6c0 -3 -1 -5 -3 -8l-131 -131l131 -130c2 -3 3 -5 3 -8c0 -2 -1 -4 -3 -6z" />
    <glyph glyph-name="greater" unicode="&#x3e;" horiz-adv-x="363" 
d="M2 172c-2 2 -3 4 -3 6c0 3 1 5 3 8l131 130l-131 131c-2 3 -3 5 -3 8c0 2 1 4 3 6l54 55c2 2 4 3 7 3c2 0 4 -1 6 -3l193 -193c2 -2 3 -4 3 -7c0 -2 -1 -4 -3 -6l-193 -193c-2 -2 -4 -3 -6 -3c-3 0 -5 1 -7 3z" />
    <glyph glyph-name="guillemotleft" unicode="&#xab;" horiz-adv-x="633" 
d="M208 117c-2 -2 -5 -3 -7 -3s-4 1 -7 3l-192 193c-2 2 -3 4 -3 6c0 3 1 5 3 7l192 193c3 2 5 3 7 3s5 -1 7 -3l54 -55c2 -2 3 -4 3 -6c0 -3 -1 -5 -3 -8l-131 -131l131 -130c2 -3 3 -5 3 -8c0 -2 -1 -4 -3 -6zM479 117c-2 -2 -4 -3 -6 -3c-3 0 -5 1 -7 3l-193 193
c-2 2 -3 4 -3 6c0 3 1 5 3 7l193 193c2 2 4 3 7 3c2 0 4 -1 6 -3l54 -55c2 -2 4 -4 4 -6c0 -3 -2 -5 -4 -8l-131 -131l131 -130c2 -3 4 -5 4 -8c0 -2 -2 -4 -4 -6z" />
    <glyph glyph-name="guillemotright" unicode="&#xbb;" horiz-adv-x="633" 
d="M273 172c-2 2 -3 4 -3 6c0 3 1 5 3 8l131 130l-131 131c-2 3 -3 5 -3 8c0 2 1 4 3 6l54 55c2 2 5 3 7 3s5 -1 7 -3l192 -193c2 -2 4 -4 4 -7c0 -2 -2 -4 -4 -6l-192 -193c-2 -2 -5 -3 -7 -3s-5 1 -7 3zM2 172c-2 2 -3 4 -3 6c0 3 1 5 3 8l131 130l-131 131
c-2 3 -3 5 -3 8c0 2 1 4 3 6l54 55c2 2 4 3 7 3c2 0 4 -1 6 -3l193 -193c2 -2 3 -4 3 -7c0 -2 -1 -4 -3 -6l-193 -193c-2 -2 -4 -3 -6 -3c-3 0 -5 1 -7 3z" />
    <glyph glyph-name="uni0025" unicode="%" horiz-adv-x="738" 
d="M197 -24c-4 -10 -10 -15 -18 -15c-4 0 -8 1 -13 3l-43 18c-10 5 -15 11 -15 20c0 3 1 7 2 11l315 727c4 10 10 15 19 15c4 0 8 0 12 -2l43 -19c10 -4 13 -7 13 -31zM145 502c-40 0 -69 33 -69 77s30 77 69 77c36 0 67 -36 67 -77c0 -43 -30 -77 -67 -77zM289 586
c0 -94 -60 -155 -144 -155c-88 0 -145 61 -145 155c0 79 64 142 145 142c79 0 144 -64 144 -142zM145 502c-40 0 -69 33 -69 77s30 77 69 77c36 0 67 -36 67 -77c0 -43 -30 -77 -67 -77zM289 586c0 -94 -60 -155 -144 -155c-88 0 -145 61 -145 155c0 79 64 142 145 142
c79 0 144 -64 144 -142zM563 146c0 41 -30 77 -67 77c-39 0 -68 -33 -68 -77s28 -78 68 -78c38 0 67 34 67 78zM641 152c0 -94 -60 -155 -145 -155c-87 0 -144 62 -144 155c0 79 64 142 144 142c79 0 145 -64 145 -142z" />
    <glyph glyph-name="ampersand" unicode="&#x26;" horiz-adv-x="709" 
d="M343 2c-10 0 -12 4 -225 444c-3 4 -7 6 -11 6c-8 0 -12 -4 -12 -13v-427c0 -7 -4 -10 -10 -10h-75c-7 0 -10 3 -10 10v694c0 7 3 10 10 10h75c4 0 7 -2 9 -6l216 -439c2 -4 6 -6 10 -6c7 0 12 4 13 12v429c0 7 3 10 10 10h75c6 0 10 -3 10 -10v-694c0 -7 -4 -10 -10 -10
h-75zM530 422c-6 0 -9 3 -9 10v274c0 7 3 10 9 10h75c7 0 10 -3 10 -10v-274c0 -7 -3 -10 -10 -10h-75z" />
    <glyph glyph-name="guilsinglleft" unicode="&#x2039;" horiz-adv-x="363" 
d="M208 117c-2 -2 -5 -3 -7 -3s-4 1 -7 3l-192 193c-2 2 -3 4 -3 6c0 3 1 5 3 7l192 193c3 2 5 3 7 3s5 -1 7 -3l54 -55c2 -2 3 -4 3 -6c0 -3 -1 -5 -3 -8l-131 -131l131 -130c2 -3 3 -5 3 -8c0 -2 -1 -4 -3 -6z" />
    <glyph glyph-name="guilsinglright" unicode="&#x203a;" horiz-adv-x="363" 
d="M2 172c-2 2 -3 4 -3 6c0 3 1 5 3 8l131 130l-131 131c-2 3 -3 5 -3 8c0 2 1 4 3 6l54 55c2 2 4 3 7 3c2 0 4 -1 6 -3l193 -193c2 -2 3 -4 3 -7c0 -2 -1 -4 -3 -6l-193 -193c-2 -2 -4 -3 -6 -3c-3 0 -5 1 -7 3z" />
    <glyph glyph-name="zcaron" unicode="&#x17e;" 
d="M422 604l-298 -481c-3 -7 -4 -8 -4 -10c0 -9 5 -13 14 -13h277c11 0 17 -6 17 -17v-67c0 -11 -5 -16 -16 -16h-396c-11 0 -16 5 -16 16v73c0 7 2 14 6 21l300 484c1 2 2 5 2 8c0 9 -5 13 -14 13h-276c-11 0 -17 5 -17 16v67c0 11 5 17 16 17h395c11 0 16 -6 16 -17v-72
c0 -8 -2 -16 -6 -22zM11 1010c-3 -3 -4 -5 -4 -7s1 -5 4 -7l192 -192c2 -3 5 -4 7 -4s5 1 7 4l192 192c2 2 4 5 4 7s-2 4 -4 7l-55 53c-1 3 -4 4 -6 4s-5 -1 -7 -4l-131 -130l-131 130c-3 3 -5 4 -7 4c-3 0 -5 -1 -7 -4z" />
    <glyph glyph-name="Zcaron" unicode="&#x17d;" 
d="M422 604l-298 -481c-3 -7 -4 -8 -4 -10c0 -9 5 -13 14 -13h277c11 0 17 -6 17 -17v-67c0 -11 -5 -16 -16 -16h-396c-11 0 -16 5 -16 16v73c0 7 2 14 6 21l300 484c1 2 2 5 2 8c0 9 -5 13 -14 13h-276c-11 0 -17 5 -17 16v67c0 11 5 17 16 17h395c11 0 16 -6 16 -17v-72
c0 -8 -2 -16 -6 -22zM11 1010c-3 -3 -4 -5 -4 -7s1 -5 4 -7l192 -192c2 -3 5 -4 7 -4s5 1 7 4l192 192c2 2 4 5 4 7s-2 4 -4 7l-55 53c-1 3 -4 4 -6 4s-5 -1 -7 -4l-131 -130l-131 130c-3 3 -5 4 -7 4c-3 0 -5 -1 -7 -4z" />
    <glyph glyph-name="scaron" unicode="&#x161;" horiz-adv-x="517" 
d="M398 573c0 -8 -2 -11 -8 -11l-75 -18c-9 0 -10 0 -20 23c-16 32 -53 53 -86 53c-55 0 -101 -46 -101 -103c0 -59 44 -103 102 -103c48 0 107 -21 142 -53l2 -2c43 -41 65 -91 65 -150c0 -110 -97 -209 -213 -209c-88 0 -179 54 -206 157c0 8 2 11 8 13l72 17
c8 0 11 -2 12 -8c10 -50 62 -91 116 -91c68 0 116 54 116 121c0 63 -53 115 -117 115c-57 0 -103 20 -141 60l-1 1c-23 23 -54 70 -54 135c0 111 91 194 197 194c88 0 163 -53 190 -141zM11 1010c-3 -3 -4 -5 -4 -7s1 -5 4 -7l192 -192c2 -3 5 -4 7 -4s5 1 7 4l192 192
c2 2 4 5 4 7s-2 4 -4 7l-55 53c-1 3 -4 4 -6 4s-5 -1 -7 -4l-131 -130l-131 130c-3 3 -5 4 -7 4c-3 0 -5 -1 -7 -4z" />
    <glyph glyph-name="Scaron" unicode="&#x160;" horiz-adv-x="517" 
d="M398 573c0 -8 -2 -11 -8 -11l-75 -18c-9 0 -10 0 -20 23c-16 32 -53 53 -86 53c-55 0 -101 -46 -101 -103c0 -59 44 -103 102 -103c48 0 107 -21 142 -53l2 -2c43 -41 65 -91 65 -150c0 -110 -97 -209 -213 -209c-88 0 -179 54 -206 157c0 8 2 11 8 13l72 17
c8 0 11 -2 12 -8c10 -50 62 -91 116 -91c68 0 116 54 116 121c0 63 -53 115 -117 115c-57 0 -103 20 -141 60l-1 1c-23 23 -54 70 -54 135c0 111 91 194 197 194c88 0 163 -53 190 -141zM11 1010c-3 -3 -4 -5 -4 -7s1 -5 4 -7l192 -192c2 -3 5 -4 7 -4s5 1 7 4l192 192
c2 2 4 5 4 7s-2 4 -4 7l-55 53c-1 3 -4 4 -6 4s-5 -1 -7 -4l-131 -130l-131 130c-3 3 -5 4 -7 4c-3 0 -5 -1 -7 -4z" />
    <glyph glyph-name="perthousand" unicode="&#x2030;" horiz-adv-x="1127" 
d="M197 -24c-4 -10 -10 -15 -18 -15c-4 0 -8 1 -13 3l-43 18c-10 5 -15 11 -15 20c0 3 1 7 2 11l315 727c4 10 10 15 19 15c4 0 8 0 12 -2l43 -19c10 -4 13 -7 13 -31zM145 502c-40 0 -69 33 -69 77s30 77 69 77c36 0 67 -36 67 -77c0 -43 -30 -77 -67 -77zM289 586
c0 -94 -60 -155 -144 -155c-88 0 -145 61 -145 155c0 79 64 142 145 142c79 0 144 -64 144 -142zM145 502c-40 0 -69 33 -69 77s30 77 69 77c36 0 67 -36 67 -77c0 -43 -30 -77 -67 -77zM289 586c0 -94 -60 -155 -144 -155c-88 0 -145 61 -145 155c0 79 64 142 145 142
c79 0 144 -64 144 -142zM563 146c0 41 -30 77 -67 77c-39 0 -68 -33 -68 -77s28 -78 68 -78c38 0 67 34 67 78zM641 152c0 -94 -60 -155 -145 -155c-87 0 -144 62 -144 155c0 79 64 142 144 142c79 0 145 -64 145 -142zM951 146c0 41 -31 77 -67 77c-39 0 -69 -33 -69 -77
s29 -78 69 -78c38 0 67 34 67 78zM1028 152c0 -94 -59 -155 -144 -155c-87 0 -145 62 -145 155c0 79 64 142 145 142c79 0 144 -64 144 -142z" />
    <glyph glyph-name="two" unicode="2" horiz-adv-x="527" 
d="M211 619c-43 0 -85 -24 -107 -59c-2 -4 -5 -6 -9 -6c-1 0 -6 1 -6 2l-66 37c-4 2 -5 4 -5 12v2c43 73 107 108 192 108c121 -3 216 -97 217 -217c0 -61 -24 -111 -93 -191l-194 -201c-2 -2 -2 -4 -2 -6c0 -7 3 -10 8 -10h259c5 0 8 -3 8 -9v-73c0 -5 -3 -8 -8 -8h-395
c-9 0 -10 1 -10 12v88c0 3 1 5 3 7l260 268c49 51 67 84 67 123c0 65 -54 120 -119 121z" />
    <glyph glyph-name="quoteleft" unicode="&#x2018;" horiz-adv-x="363" 
d="M5 998c-2 2 -3 4 -3 6c0 1 1 3 3 5l56 56c2 2 3 3 5 3s4 -1 5 -3l195 -197l-58 -61c-2 -3 -4 -4 -6 -4s-4 1 -6 4z" />
    <glyph glyph-name="quotedblleft" unicode="&#x201c;" horiz-adv-x="632" 
d="M5 998c-2 2 -3 4 -3 6c0 1 1 3 3 5l56 56c2 2 3 3 5 3s4 -1 5 -3l195 -197l-58 -61c-2 -3 -4 -4 -6 -4s-4 1 -6 4zM271 998c-1 2 -2 4 -2 6c0 1 1 3 2 5l56 56c2 2 4 3 6 3s3 -1 5 -3l195 -197l-58 -61c-2 -3 -4 -4 -6 -4s-4 1 -6 4z" />
    <glyph glyph-name="quotedblright" unicode="&#x201d;" horiz-adv-x="632" 
d="M265 998c1 2 2 4 2 6c0 1 -1 3 -2 5l-56 56c-2 2 -4 3 -6 3c-1 0 -3 -1 -5 -3l-195 -197l59 -61c1 -3 3 -4 5 -4s4 1 6 4zM531 998c2 2 3 4 3 6c0 1 -1 3 -3 5l-55 56c-2 2 -4 3 -6 3s-4 -1 -5 -3l-195 -197l58 -61c2 -3 4 -4 6 -4s4 1 6 4z" />
    <glyph glyph-name="quoteright" unicode="&#x2019;" horiz-adv-x="363" 
d="M265 998c1 2 2 4 2 6c0 1 -1 3 -2 5l-56 56c-2 2 -4 3 -6 3c-1 0 -3 -1 -5 -3l-195 -197l59 -61c1 -3 3 -4 5 -4s4 1 6 4z" />
    <glyph glyph-name="Ntilde" unicode="&#xd1;" horiz-adv-x="527" 
d="M343 2c-10 0 -12 4 -225 444c-3 4 -7 6 -11 6c-8 0 -12 -4 -12 -13v-427c0 -7 -4 -10 -10 -10h-75c-7 0 -10 3 -10 10v694c0 7 3 10 10 10h75c4 0 7 -2 9 -6l216 -439c2 -4 6 -6 10 -6c7 0 12 4 13 12v429c0 7 3 10 10 10h75c6 0 10 -3 10 -10v-694c0 -7 -4 -10 -10 -10
h-75zM24 904h380c11 0 17 -6 17 -17v-67c0 -11 -6 -16 -17 -16h-380c-11 0 -16 5 -16 16v67c0 11 5 17 16 17z" />
    <glyph glyph-name="ntilde" unicode="&#xf1;" horiz-adv-x="527" 
d="M343 2c-10 0 -12 4 -225 444c-3 4 -7 6 -11 6c-8 0 -12 -4 -12 -13v-427c0 -7 -4 -10 -10 -10h-75c-7 0 -10 3 -10 10v694c0 7 3 10 10 10h75c4 0 7 -2 9 -6l216 -439c2 -4 6 -6 10 -6c7 0 12 4 13 12v429c0 7 3 10 10 10h75c6 0 10 -3 10 -10v-694c0 -7 -4 -10 -10 -10
h-75zM24 904h380c11 0 17 -6 17 -17v-67c0 -11 -6 -16 -17 -16h-380c-11 0 -16 5 -16 16v67c0 11 5 17 16 17z" />
  </font>
</defs>
</svg>
